<?xml version="1.0" encoding="utf-8" standalone="no"?>
<!DOCTYPE svg PUBLIC "-//W3C//DTD SVG 1.1//EN"
  "http://www.w3.org/Graphics/SVG/1.1/DTD/svg11.dtd">
<svg xmlns:xlink="http://www.w3.org/1999/xlink" width="516.842615pt" height="490.211875pt" viewBox="0 0 516.842615 490.211875" xmlns="http://www.w3.org/2000/svg" version="1.1">
 <metadata>
  <rdf:RDF xmlns:dc="http://purl.org/dc/elements/1.1/" xmlns:cc="http://creativecommons.org/ns#" xmlns:rdf="http://www.w3.org/1999/02/22-rdf-syntax-ns#">
   <cc:Work>
    <dc:type rdf:resource="http://purl.org/dc/dcmitype/StillImage"/>
    <dc:date>2024-12-12T02:05:39.237417</dc:date>
    <dc:format>image/svg+xml</dc:format>
    <dc:creator>
     <cc:Agent>
      <dc:title>Matplotlib v3.9.2, https://matplotlib.org/</dc:title>
     </cc:Agent>
    </dc:creator>
   </cc:Work>
  </rdf:RDF>
 </metadata>
 <defs>
  <style type="text/css">*{stroke-linejoin: round; stroke-linecap: butt}</style>
 </defs>
 <g id="figure_1">
  <g id="patch_1">
   <path d="M 0 490.211875 
L 516.842615 490.211875 
L 516.842615 0 
L 0 0 
L 0 490.211875 
z
" style="fill: none"/>
  </g>
  <g id="axes_1">
   <g id="patch_2">
    <path d="M 58.441875 223.55122 
L 504.841875 223.55122 
L 504.841875 7.2 
L 58.441875 7.2 
L 58.441875 223.55122 
z
" style="fill: none"/>
   </g>
   <g id="matplotlib.axis_1">
    <g id="xtick_1">
     <g id="line2d_1">
      <path d="M 58.441875 223.55122 
L 58.441875 7.2 
" clip-path="url(#p77b36bf500)" style="fill: none; stroke-dasharray: 0.5,0.825; stroke-dashoffset: 0; stroke: #808080; stroke-width: 0.5"/>
     </g>
     <g id="line2d_2">
      <defs>
       <path id="ma0ed3775e9" d="M 0 0 
L 0 3.5 
" style="stroke: #000000; stroke-width: 0.8"/>
      </defs>
      <g>
       <use xlink:href="#ma0ed3775e9" x="58.441875" y="223.55122" style="stroke: #000000; stroke-width: 0.8"/>
      </g>
     </g>
    </g>
    <g id="xtick_2">
     <g id="line2d_3">
      <path d="M 146.088997 223.55122 
L 146.088997 7.2 
" clip-path="url(#p77b36bf500)" style="fill: none; stroke-dasharray: 0.5,0.825; stroke-dashoffset: 0; stroke: #808080; stroke-width: 0.5"/>
     </g>
     <g id="line2d_4">
      <g>
       <use xlink:href="#ma0ed3775e9" x="146.088997" y="223.55122" style="stroke: #000000; stroke-width: 0.8"/>
      </g>
     </g>
    </g>
    <g id="xtick_3">
     <g id="line2d_5">
      <path d="M 233.736119 223.55122 
L 233.736119 7.2 
" clip-path="url(#p77b36bf500)" style="fill: none; stroke-dasharray: 0.5,0.825; stroke-dashoffset: 0; stroke: #808080; stroke-width: 0.5"/>
     </g>
     <g id="line2d_6">
      <g>
       <use xlink:href="#ma0ed3775e9" x="233.736119" y="223.55122" style="stroke: #000000; stroke-width: 0.8"/>
      </g>
     </g>
    </g>
    <g id="xtick_4">
     <g id="line2d_7">
      <path d="M 321.62337 223.55122 
L 321.62337 7.2 
" clip-path="url(#p77b36bf500)" style="fill: none; stroke-dasharray: 0.5,0.825; stroke-dashoffset: 0; stroke: #808080; stroke-width: 0.5"/>
     </g>
     <g id="line2d_8">
      <g>
       <use xlink:href="#ma0ed3775e9" x="321.62337" y="223.55122" style="stroke: #000000; stroke-width: 0.8"/>
      </g>
     </g>
    </g>
    <g id="xtick_5">
     <g id="line2d_9">
      <path d="M 409.270493 223.55122 
L 409.270493 7.2 
" clip-path="url(#p77b36bf500)" style="fill: none; stroke-dasharray: 0.5,0.825; stroke-dashoffset: 0; stroke: #808080; stroke-width: 0.5"/>
     </g>
     <g id="line2d_10">
      <g>
       <use xlink:href="#ma0ed3775e9" x="409.270493" y="223.55122" style="stroke: #000000; stroke-width: 0.8"/>
      </g>
     </g>
    </g>
    <g id="xtick_6">
     <g id="line2d_11">
      <path d="M 496.917615 223.55122 
L 496.917615 7.2 
" clip-path="url(#p77b36bf500)" style="fill: none; stroke-dasharray: 0.5,0.825; stroke-dashoffset: 0; stroke: #808080; stroke-width: 0.5"/>
     </g>
     <g id="line2d_12">
      <g>
       <use xlink:href="#ma0ed3775e9" x="496.917615" y="223.55122" style="stroke: #000000; stroke-width: 0.8"/>
      </g>
     </g>
    </g>
   </g>
   <g id="matplotlib.axis_2">
    <g id="ytick_1">
     <g id="line2d_13">
      <path d="M 58.441875 210.836214 
L 504.841875 210.836214 
" clip-path="url(#p77b36bf500)" style="fill: none; stroke-dasharray: 0.5,0.825; stroke-dashoffset: 0; stroke: #808080; stroke-width: 0.5"/>
     </g>
     <g id="line2d_14">
      <defs>
       <path id="m2d465b6ef7" d="M 0 0 
L -3.5 0 
" style="stroke: #000000; stroke-width: 0.8"/>
      </defs>
      <g>
       <use xlink:href="#m2d465b6ef7" x="58.441875" y="210.836214" style="stroke: #000000; stroke-width: 0.8"/>
      </g>
     </g>
     <g id="text_1">
      <!-- 0.145 -->
      <g transform="translate(22.81375 214.635432) scale(0.1 -0.1)">
       <defs>
        <path id="DejaVuSans-30" d="M 2034 4250 
Q 1547 4250 1301 3770 
Q 1056 3291 1056 2328 
Q 1056 1369 1301 889 
Q 1547 409 2034 409 
Q 2525 409 2770 889 
Q 3016 1369 3016 2328 
Q 3016 3291 2770 3770 
Q 2525 4250 2034 4250 
z
M 2034 4750 
Q 2819 4750 3233 4129 
Q 3647 3509 3647 2328 
Q 3647 1150 3233 529 
Q 2819 -91 2034 -91 
Q 1250 -91 836 529 
Q 422 1150 422 2328 
Q 422 3509 836 4129 
Q 1250 4750 2034 4750 
z
" transform="scale(0.015625)"/>
        <path id="DejaVuSans-2e" d="M 684 794 
L 1344 794 
L 1344 0 
L 684 0 
L 684 794 
z
" transform="scale(0.015625)"/>
        <path id="DejaVuSans-31" d="M 794 531 
L 1825 531 
L 1825 4091 
L 703 3866 
L 703 4441 
L 1819 4666 
L 2450 4666 
L 2450 531 
L 3481 531 
L 3481 0 
L 794 0 
L 794 531 
z
" transform="scale(0.015625)"/>
        <path id="DejaVuSans-34" d="M 2419 4116 
L 825 1625 
L 2419 1625 
L 2419 4116 
z
M 2253 4666 
L 3047 4666 
L 3047 1625 
L 3713 1625 
L 3713 1100 
L 3047 1100 
L 3047 0 
L 2419 0 
L 2419 1100 
L 313 1100 
L 313 1709 
L 2253 4666 
z
" transform="scale(0.015625)"/>
        <path id="DejaVuSans-35" d="M 691 4666 
L 3169 4666 
L 3169 4134 
L 1269 4134 
L 1269 2991 
Q 1406 3038 1543 3061 
Q 1681 3084 1819 3084 
Q 2600 3084 3056 2656 
Q 3513 2228 3513 1497 
Q 3513 744 3044 326 
Q 2575 -91 1722 -91 
Q 1428 -91 1123 -41 
Q 819 9 494 109 
L 494 744 
Q 775 591 1075 516 
Q 1375 441 1709 441 
Q 2250 441 2565 725 
Q 2881 1009 2881 1497 
Q 2881 1984 2565 2268 
Q 2250 2553 1709 2553 
Q 1456 2553 1204 2497 
Q 953 2441 691 2322 
L 691 4666 
z
" transform="scale(0.015625)"/>
       </defs>
       <use xlink:href="#DejaVuSans-30"/>
       <use xlink:href="#DejaVuSans-2e" x="63.623047"/>
       <use xlink:href="#DejaVuSans-31" x="95.410156"/>
       <use xlink:href="#DejaVuSans-34" x="159.033203"/>
       <use xlink:href="#DejaVuSans-35" x="222.65625"/>
      </g>
     </g>
    </g>
    <g id="ytick_2">
     <g id="line2d_15">
      <path d="M 58.441875 164.998653 
L 504.841875 164.998653 
" clip-path="url(#p77b36bf500)" style="fill: none; stroke-dasharray: 0.5,0.825; stroke-dashoffset: 0; stroke: #808080; stroke-width: 0.5"/>
     </g>
     <g id="line2d_16">
      <g>
       <use xlink:href="#m2d465b6ef7" x="58.441875" y="164.998653" style="stroke: #000000; stroke-width: 0.8"/>
      </g>
     </g>
     <g id="text_2">
      <!-- 0.150 -->
      <g transform="translate(22.81375 168.797872) scale(0.1 -0.1)">
       <use xlink:href="#DejaVuSans-30"/>
       <use xlink:href="#DejaVuSans-2e" x="63.623047"/>
       <use xlink:href="#DejaVuSans-31" x="95.410156"/>
       <use xlink:href="#DejaVuSans-35" x="159.033203"/>
       <use xlink:href="#DejaVuSans-30" x="222.65625"/>
      </g>
     </g>
    </g>
    <g id="ytick_3">
     <g id="line2d_17">
      <path d="M 58.441875 119.161093 
L 504.841875 119.161093 
" clip-path="url(#p77b36bf500)" style="fill: none; stroke-dasharray: 0.5,0.825; stroke-dashoffset: 0; stroke: #808080; stroke-width: 0.5"/>
     </g>
     <g id="line2d_18">
      <g>
       <use xlink:href="#m2d465b6ef7" x="58.441875" y="119.161093" style="stroke: #000000; stroke-width: 0.8"/>
      </g>
     </g>
     <g id="text_3">
      <!-- 0.155 -->
      <g transform="translate(22.81375 122.960312) scale(0.1 -0.1)">
       <use xlink:href="#DejaVuSans-30"/>
       <use xlink:href="#DejaVuSans-2e" x="63.623047"/>
       <use xlink:href="#DejaVuSans-31" x="95.410156"/>
       <use xlink:href="#DejaVuSans-35" x="159.033203"/>
       <use xlink:href="#DejaVuSans-35" x="222.65625"/>
      </g>
     </g>
    </g>
    <g id="ytick_4">
     <g id="line2d_19">
      <path d="M 58.441875 73.323532 
L 504.841875 73.323532 
" clip-path="url(#p77b36bf500)" style="fill: none; stroke-dasharray: 0.5,0.825; stroke-dashoffset: 0; stroke: #808080; stroke-width: 0.5"/>
     </g>
     <g id="line2d_20">
      <g>
       <use xlink:href="#m2d465b6ef7" x="58.441875" y="73.323532" style="stroke: #000000; stroke-width: 0.8"/>
      </g>
     </g>
     <g id="text_4">
      <!-- 0.160 -->
      <g transform="translate(22.81375 77.122751) scale(0.1 -0.1)">
       <defs>
        <path id="DejaVuSans-36" d="M 2113 2584 
Q 1688 2584 1439 2293 
Q 1191 2003 1191 1497 
Q 1191 994 1439 701 
Q 1688 409 2113 409 
Q 2538 409 2786 701 
Q 3034 994 3034 1497 
Q 3034 2003 2786 2293 
Q 2538 2584 2113 2584 
z
M 3366 4563 
L 3366 3988 
Q 3128 4100 2886 4159 
Q 2644 4219 2406 4219 
Q 1781 4219 1451 3797 
Q 1122 3375 1075 2522 
Q 1259 2794 1537 2939 
Q 1816 3084 2150 3084 
Q 2853 3084 3261 2657 
Q 3669 2231 3669 1497 
Q 3669 778 3244 343 
Q 2819 -91 2113 -91 
Q 1303 -91 875 529 
Q 447 1150 447 2328 
Q 447 3434 972 4092 
Q 1497 4750 2381 4750 
Q 2619 4750 2861 4703 
Q 3103 4656 3366 4563 
z
" transform="scale(0.015625)"/>
       </defs>
       <use xlink:href="#DejaVuSans-30"/>
       <use xlink:href="#DejaVuSans-2e" x="63.623047"/>
       <use xlink:href="#DejaVuSans-31" x="95.410156"/>
       <use xlink:href="#DejaVuSans-36" x="159.033203"/>
       <use xlink:href="#DejaVuSans-30" x="222.65625"/>
      </g>
     </g>
    </g>
    <g id="ytick_5">
     <g id="line2d_21">
      <path d="M 58.441875 27.485972 
L 504.841875 27.485972 
" clip-path="url(#p77b36bf500)" style="fill: none; stroke-dasharray: 0.5,0.825; stroke-dashoffset: 0; stroke: #808080; stroke-width: 0.5"/>
     </g>
     <g id="line2d_22">
      <g>
       <use xlink:href="#m2d465b6ef7" x="58.441875" y="27.485972" style="stroke: #000000; stroke-width: 0.8"/>
      </g>
     </g>
     <g id="text_5">
      <!-- 0.165 -->
      <g transform="translate(22.81375 31.285191) scale(0.1 -0.1)">
       <use xlink:href="#DejaVuSans-30"/>
       <use xlink:href="#DejaVuSans-2e" x="63.623047"/>
       <use xlink:href="#DejaVuSans-31" x="95.410156"/>
       <use xlink:href="#DejaVuSans-36" x="159.033203"/>
       <use xlink:href="#DejaVuSans-35" x="222.65625"/>
      </g>
     </g>
    </g>
    <g id="text_6">
     <!-- $RPS$ -->
     <g transform="translate(16.318125 127.01561) rotate(-90) scale(0.12 -0.12)">
      <defs>
       <path id="DejaVuSans-Oblique-52" d="M 1613 4147 
L 1294 2491 
L 2106 2491 
Q 2584 2491 2879 2755 
Q 3175 3019 3175 3444 
Q 3175 3784 2976 3965 
Q 2778 4147 2406 4147 
L 1613 4147 
z
M 2772 2241 
Q 2972 2194 3105 2009 
Q 3238 1825 3413 1275 
L 3809 0 
L 3144 0 
L 2778 1197 
Q 2638 1659 2453 1815 
Q 2269 1972 1888 1972 
L 1191 1972 
L 806 0 
L 172 0 
L 1081 4666 
L 2503 4666 
Q 3150 4666 3495 4373 
Q 3841 4081 3841 3531 
Q 3841 3044 3547 2687 
Q 3253 2331 2772 2241 
z
" transform="scale(0.015625)"/>
       <path id="DejaVuSans-Oblique-50" d="M 1081 4666 
L 2541 4666 
Q 3178 4666 3512 4369 
Q 3847 4072 3847 3500 
Q 3847 2731 3353 2303 
Q 2859 1875 1966 1875 
L 1172 1875 
L 806 0 
L 172 0 
L 1081 4666 
z
M 1613 4147 
L 1275 2394 
L 2069 2394 
Q 2606 2394 2893 2669 
Q 3181 2944 3181 3456 
Q 3181 3784 2986 3965 
Q 2791 4147 2438 4147 
L 1613 4147 
z
" transform="scale(0.015625)"/>
       <path id="DejaVuSans-Oblique-53" d="M 3859 4513 
L 3738 3897 
Q 3422 4066 3111 4152 
Q 2800 4238 2509 4238 
Q 1944 4238 1609 3991 
Q 1275 3744 1275 3334 
Q 1275 3109 1398 2989 
Q 1522 2869 2034 2731 
L 2413 2638 
Q 3053 2472 3303 2217 
Q 3553 1963 3553 1503 
Q 3553 797 2998 353 
Q 2444 -91 1538 -91 
Q 1166 -91 791 -17 
Q 416 56 38 206 
L 166 856 
Q 513 641 861 531 
Q 1209 422 1556 422 
Q 2147 422 2503 684 
Q 2859 947 2859 1369 
Q 2859 1650 2717 1795 
Q 2575 1941 2106 2059 
L 1728 2156 
Q 1081 2325 845 2545 
Q 609 2766 609 3163 
Q 609 3859 1145 4304 
Q 1681 4750 2541 4750 
Q 2875 4750 3203 4690 
Q 3531 4631 3859 4513 
z
" transform="scale(0.015625)"/>
      </defs>
      <use xlink:href="#DejaVuSans-Oblique-52" transform="translate(0 0.78125)"/>
      <use xlink:href="#DejaVuSans-Oblique-50" transform="translate(69.482422 0.78125)"/>
      <use xlink:href="#DejaVuSans-Oblique-53" transform="translate(129.785156 0.78125)"/>
     </g>
    </g>
   </g>
   <g id="line2d_23">
    <path d="M 517.842615 73.323532 
L 511.56549 73.323532 
L 504.841875 73.323532 
L 498.11826 73.323532 
L 491.394645 73.323532 
L 484.67103 73.323532 
L 477.947416 73.323532 
L 471.223801 73.323532 
L 464.500186 73.323532 
L 457.776571 73.323532 
L 451.052956 73.323532 
L 444.329341 73.323532 
L 437.605727 73.323532 
L 430.882112 73.323532 
L 424.158497 73.323532 
L 417.434882 73.323532 
L 410.711267 73.323532 
L 403.987652 73.323532 
L 397.264037 73.323532 
L 390.540423 73.323532 
L 383.816808 73.323532 
L 377.093193 73.323532 
L 370.369578 73.323532 
L 363.645963 73.323532 
L 356.922348 73.323532 
L 350.198734 73.323532 
L 343.475119 73.323532 
L 336.751504 73.323532 
L 330.027889 73.323532 
L 323.304274 73.323532 
L 316.580659 73.323532 
L 309.857044 73.323532 
L 303.13343 73.323532 
L 296.409815 73.323532 
L 289.6862 73.323532 
L 282.962585 73.323532 
L 276.23897 73.323532 
L 269.515355 73.323532 
L 262.791741 73.323532 
L 256.068126 73.323532 
L 249.344511 73.323532 
L 242.620896 73.323532 
L 235.897281 73.323532 
L 229.173666 73.323532 
L 222.450051 73.323532 
L 215.726437 73.323532 
L 209.002822 73.323532 
L 202.279207 73.323532 
L 195.555592 73.323532 
L 188.831977 73.323532 
L 182.108362 73.323532 
L 175.384748 73.323532 
L 168.661133 73.323532 
L 161.937518 73.323532 
L 155.213903 73.323532 
L 148.490288 73.323532 
L 141.766673 73.323532 
L 135.043058 73.323532 
L 128.319444 73.323532 
L 121.595829 73.323532 
L 114.872214 73.323532 
L 108.148599 73.323532 
L 101.424984 73.323532 
L 94.701369 73.323532 
L 87.977755 73.323532 
L 81.25414 73.323532 
L 74.530525 73.323532 
L 67.80691 73.323532 
L 61.083295 73.323532 
L 54.35968 73.323532 
L 47.636065 73.323532 
" clip-path="url(#p77b36bf500)" style="fill: none; stroke: #add8e6; stroke-width: 1.5; stroke-linecap: square"/>
   </g>
   <g id="line2d_24">
    <path d="M 517.842615 77.888644 
L 511.56549 38.125403 
L 504.841875 85.034712 
L 498.11826 48.268764 
L 491.394645 69.781958 
L 484.67103 73.72492 
L 477.947416 69.662871 
L 471.223801 115.850692 
L 464.500186 105.057245 
L 457.776571 115.05204 
L 451.052956 91.625807 
L 444.329341 84.138455 
L 437.605727 102.663324 
L 430.882112 93.708969 
L 424.158497 72.997441 
L 417.434882 49.88613 
L 410.711267 46.906981 
L 403.987652 113.559453 
L 397.264037 126.760298 
L 390.540423 113.979391 
L 383.816808 80.486651 
L 377.093193 51.453993 
L 370.369578 66.500639 
L 363.645963 84.501865 
L 356.922348 142.883482 
L 350.198734 169.014459 
L 343.475119 172.355582 
L 336.751504 119.597826 
L 330.027889 137.146817 
L 323.304274 91.317646 
L 316.580659 100.566203 
L 309.857044 114.180373 
L 303.13343 106.242139 
L 296.409815 184.326823 
L 289.6862 154.382937 
L 282.962585 158.61794 
L 276.23897 98.507983 
L 269.515355 99.629902 
L 262.791741 121.570544 
L 256.068126 95.111819 
L 249.344511 67.328523 
L 242.620896 99.33319 
L 235.897281 126.284507 
L 229.173666 153.712866 
L 222.450051 139.022769 
L 215.726437 108.40164 
L 209.002822 80.740413 
L 202.279207 105.69064 
L 195.555592 152.063938 
L 188.831977 133.439446 
L 182.108362 131.163997 
L 175.384748 129.145952 
L 168.661133 159.898319 
L 161.937518 154.395558 
L 155.213903 96.007721 
L 148.490288 61.019261 
L 141.766673 28.481513 
L 135.043058 17.034146 
L 128.319444 58.952013 
L 121.595829 136.146478 
L 114.872214 213.717073 
L 108.148599 200.936612 
L 101.424984 153.961808 
L 94.701369 149.34286 
L 87.977755 74.764342 
L 81.25414 123.247516 
L 74.530525 63.420366 
L 67.80691 172.247132 
L 61.083295 124.49313 
L 54.35968 163.025999 
L 47.636065 159.836279 
" clip-path="url(#p77b36bf500)" style="fill: none; stroke: #ff8c00; stroke-width: 1.5; stroke-linecap: square"/>
   </g>
   <g id="line2d_25">
    <path d="M 517.842615 97.067184 
L 511.56549 99.727651 
L 504.841875 115.081329 
L 498.11826 112.612186 
L 491.394645 98.893053 
L 484.67103 80.228419 
L 477.947416 70.572918 
L 471.223801 82.794787 
L 464.500186 105.984155 
L 457.776571 116.409222 
L 451.052956 112.79484 
L 444.329341 92.752978 
L 437.605727 88.141851 
L 430.882112 68.628738 
L 424.158497 74.366743 
L 417.434882 91.373264 
L 410.711267 96.109045 
L 403.987652 106.438999 
L 397.264037 103.783041 
L 390.540423 107.864066 
L 383.816808 119.693503 
L 377.093193 108.915477 
L 370.369578 118.083145 
L 363.645963 99.264791 
L 356.922348 126.208075 
L 350.198734 134.092562 
L 343.475119 146.69911 
L 336.751504 111.274292 
L 330.027889 84.726658 
L 323.304274 63.385301 
L 316.580659 85.515659 
L 309.857044 116.901274 
L 303.13343 123.345154 
L 296.409815 124.175118 
L 289.6862 116.251361 
L 282.962585 90.687558 
L 276.23897 83.227906 
L 269.515355 95.24895 
L 262.791741 111.53296 
L 256.068126 84.248335 
L 249.344511 61.929775 
L 242.620896 80.925692 
L 235.897281 120.882598 
L 229.173666 150.3795 
L 222.450051 164.781876 
L 215.726437 171.346789 
L 209.002822 130.320511 
L 202.279207 124.371654 
L 195.555592 105.784136 
L 188.831977 109.9665 
L 182.108362 126.121397 
L 175.384748 130.307448 
L 168.661133 159.680268 
L 161.937518 153.888879 
L 155.213903 148.895698 
L 148.490288 112.014903 
L 141.766673 96.005011 
L 135.043058 69.528295 
L 128.319444 106.203937 
L 121.595829 123.375904 
L 114.872214 164.923953 
L 108.148599 167.528498 
L 101.424984 149.765314 
L 94.701369 139.404921 
L 87.977755 112.843883 
L 81.25414 120.259684 
L 74.530525 127.113319 
L 67.80691 132.624999 
L 61.083295 144.851807 
L 54.35968 146.110257 
L 47.636065 180.02322 
" clip-path="url(#p77b36bf500)" style="fill: none; stroke: #008b8b; stroke-width: 1.5; stroke-linecap: square"/>
   </g>
   <g id="line2d_26">
    <path d="M 517.842615 96.955245 
L 511.56549 78.659397 
L 504.841875 109.968513 
L 498.11826 90.974169 
L 491.394645 94.968183 
L 484.67103 87.165279 
L 477.947416 79.710294 
L 471.223801 108.952121 
L 464.500186 115.551135 
L 457.776571 126.353466 
L 451.052956 113.199565 
L 444.329341 99.417223 
L 437.605727 105.861344 
L 430.882112 90.977028 
L 424.158497 83.640994 
L 417.434882 81.395068 
L 410.711267 82.918471 
L 403.987652 121.492273 
L 397.264037 126.932759 
L 390.540423 123.409281 
L 383.816808 113.658699 
L 377.093193 95.980981 
L 370.369578 107.9983 
L 363.645963 107.527576 
L 356.922348 148.76918 
L 350.198734 166.373452 
L 343.475119 174.543919 
L 336.751504 130.221407 
L 330.027889 125.18749 
L 323.304274 91.821247 
L 316.580659 108.168265 
L 309.857044 131.681517 
L 303.13343 131.232794 
L 296.409815 170.176856 
L 289.6862 150.009365 
L 282.962585 138.593981 
L 276.23897 104.296491 
L 269.515355 110.80055 
L 262.791741 129.451731 
L 256.068126 102.157794 
L 249.344511 76.654666 
L 242.620896 101.409353 
L 235.897281 134.409199 
L 229.173666 162.708029 
L 222.450051 163.058461 
L 215.726437 151.6973 
L 209.002822 117.694187 
L 202.279207 127.018039 
L 195.555592 140.340512 
L 188.831977 132.549214 
L 182.108362 138.804792 
L 175.384748 139.397052 
L 168.661133 168.815572 
L 161.937518 163.112492 
L 155.213903 131.919704 
L 148.490288 96.962312 
L 141.766673 73.995868 
L 135.043058 56.545142 
L 128.319444 96.758423 
L 121.595829 143.578556 
L 114.872214 201.882957 
L 108.148599 195.840117 
L 101.424984 162.934993 
L 94.701369 155.452287 
L 87.977755 105.571789 
L 81.25414 135.393495 
L 74.530525 110.15297 
L 67.80691 167.299226 
L 61.083295 148.710573 
L 54.35968 169.944438 
L 47.636065 185.02284 
" clip-path="url(#p77b36bf500)" style="fill: none; stroke: #8b0000; stroke-width: 1.5; stroke-linecap: square"/>
   </g>
   <g id="patch_3">
    <path d="M 58.441875 223.55122 
L 58.441875 7.2 
" style="fill: none; stroke: #000000; stroke-width: 0.8; stroke-linejoin: miter; stroke-linecap: square"/>
   </g>
   <g id="patch_4">
    <path d="M 504.841875 223.55122 
L 504.841875 7.2 
" style="fill: none; stroke: #000000; stroke-width: 0.8; stroke-linejoin: miter; stroke-linecap: square"/>
   </g>
   <g id="patch_5">
    <path d="M 58.441875 223.55122 
L 504.841875 223.55122 
" style="fill: none; stroke: #000000; stroke-width: 0.8; stroke-linejoin: miter; stroke-linecap: square"/>
   </g>
   <g id="patch_6">
    <path d="M 58.441875 7.2 
L 504.841875 7.2 
" style="fill: none; stroke: #000000; stroke-width: 0.8; stroke-linejoin: miter; stroke-linecap: square"/>
   </g>
   <g id="text_7">
    <!-- 3 periods -->
    <g transform="translate(251.346797 33.652683) scale(0.13 -0.13)">
     <defs>
      <path id="DejaVuSans-33" d="M 2597 2516 
Q 3050 2419 3304 2112 
Q 3559 1806 3559 1356 
Q 3559 666 3084 287 
Q 2609 -91 1734 -91 
Q 1441 -91 1130 -33 
Q 819 25 488 141 
L 488 750 
Q 750 597 1062 519 
Q 1375 441 1716 441 
Q 2309 441 2620 675 
Q 2931 909 2931 1356 
Q 2931 1769 2642 2001 
Q 2353 2234 1838 2234 
L 1294 2234 
L 1294 2753 
L 1863 2753 
Q 2328 2753 2575 2939 
Q 2822 3125 2822 3475 
Q 2822 3834 2567 4026 
Q 2313 4219 1838 4219 
Q 1578 4219 1281 4162 
Q 984 4106 628 3988 
L 628 4550 
Q 988 4650 1302 4700 
Q 1616 4750 1894 4750 
Q 2613 4750 3031 4423 
Q 3450 4097 3450 3541 
Q 3450 3153 3228 2886 
Q 3006 2619 2597 2516 
z
" transform="scale(0.015625)"/>
      <path id="DejaVuSans-20" transform="scale(0.015625)"/>
      <path id="DejaVuSans-70" d="M 1159 525 
L 1159 -1331 
L 581 -1331 
L 581 3500 
L 1159 3500 
L 1159 2969 
Q 1341 3281 1617 3432 
Q 1894 3584 2278 3584 
Q 2916 3584 3314 3078 
Q 3713 2572 3713 1747 
Q 3713 922 3314 415 
Q 2916 -91 2278 -91 
Q 1894 -91 1617 61 
Q 1341 213 1159 525 
z
M 3116 1747 
Q 3116 2381 2855 2742 
Q 2594 3103 2138 3103 
Q 1681 3103 1420 2742 
Q 1159 2381 1159 1747 
Q 1159 1113 1420 752 
Q 1681 391 2138 391 
Q 2594 391 2855 752 
Q 3116 1113 3116 1747 
z
" transform="scale(0.015625)"/>
      <path id="DejaVuSans-65" d="M 3597 1894 
L 3597 1613 
L 953 1613 
Q 991 1019 1311 708 
Q 1631 397 2203 397 
Q 2534 397 2845 478 
Q 3156 559 3463 722 
L 3463 178 
Q 3153 47 2828 -22 
Q 2503 -91 2169 -91 
Q 1331 -91 842 396 
Q 353 884 353 1716 
Q 353 2575 817 3079 
Q 1281 3584 2069 3584 
Q 2775 3584 3186 3129 
Q 3597 2675 3597 1894 
z
M 3022 2063 
Q 3016 2534 2758 2815 
Q 2500 3097 2075 3097 
Q 1594 3097 1305 2825 
Q 1016 2553 972 2059 
L 3022 2063 
z
" transform="scale(0.015625)"/>
      <path id="DejaVuSans-72" d="M 2631 2963 
Q 2534 3019 2420 3045 
Q 2306 3072 2169 3072 
Q 1681 3072 1420 2755 
Q 1159 2438 1159 1844 
L 1159 0 
L 581 0 
L 581 3500 
L 1159 3500 
L 1159 2956 
Q 1341 3275 1631 3429 
Q 1922 3584 2338 3584 
Q 2397 3584 2469 3576 
Q 2541 3569 2628 3553 
L 2631 2963 
z
" transform="scale(0.015625)"/>
      <path id="DejaVuSans-69" d="M 603 3500 
L 1178 3500 
L 1178 0 
L 603 0 
L 603 3500 
z
M 603 4863 
L 1178 4863 
L 1178 4134 
L 603 4134 
L 603 4863 
z
" transform="scale(0.015625)"/>
      <path id="DejaVuSans-6f" d="M 1959 3097 
Q 1497 3097 1228 2736 
Q 959 2375 959 1747 
Q 959 1119 1226 758 
Q 1494 397 1959 397 
Q 2419 397 2687 759 
Q 2956 1122 2956 1747 
Q 2956 2369 2687 2733 
Q 2419 3097 1959 3097 
z
M 1959 3584 
Q 2709 3584 3137 3096 
Q 3566 2609 3566 1747 
Q 3566 888 3137 398 
Q 2709 -91 1959 -91 
Q 1206 -91 779 398 
Q 353 888 353 1747 
Q 353 2609 779 3096 
Q 1206 3584 1959 3584 
z
" transform="scale(0.015625)"/>
      <path id="DejaVuSans-64" d="M 2906 2969 
L 2906 4863 
L 3481 4863 
L 3481 0 
L 2906 0 
L 2906 525 
Q 2725 213 2448 61 
Q 2172 -91 1784 -91 
Q 1150 -91 751 415 
Q 353 922 353 1747 
Q 353 2572 751 3078 
Q 1150 3584 1784 3584 
Q 2172 3584 2448 3432 
Q 2725 3281 2906 2969 
z
M 947 1747 
Q 947 1113 1208 752 
Q 1469 391 1925 391 
Q 2381 391 2643 752 
Q 2906 1113 2906 1747 
Q 2906 2381 2643 2742 
Q 2381 3103 1925 3103 
Q 1469 3103 1208 2742 
Q 947 2381 947 1747 
z
" transform="scale(0.015625)"/>
      <path id="DejaVuSans-73" d="M 2834 3397 
L 2834 2853 
Q 2591 2978 2328 3040 
Q 2066 3103 1784 3103 
Q 1356 3103 1142 2972 
Q 928 2841 928 2578 
Q 928 2378 1081 2264 
Q 1234 2150 1697 2047 
L 1894 2003 
Q 2506 1872 2764 1633 
Q 3022 1394 3022 966 
Q 3022 478 2636 193 
Q 2250 -91 1575 -91 
Q 1294 -91 989 -36 
Q 684 19 347 128 
L 347 722 
Q 666 556 975 473 
Q 1284 391 1588 391 
Q 1994 391 2212 530 
Q 2431 669 2431 922 
Q 2431 1156 2273 1281 
Q 2116 1406 1581 1522 
L 1381 1569 
Q 847 1681 609 1914 
Q 372 2147 372 2553 
Q 372 3047 722 3315 
Q 1072 3584 1716 3584 
Q 2034 3584 2315 3537 
Q 2597 3491 2834 3397 
z
" transform="scale(0.015625)"/>
     </defs>
     <use xlink:href="#DejaVuSans-33"/>
     <use xlink:href="#DejaVuSans-20" x="63.623047"/>
     <use xlink:href="#DejaVuSans-70" x="95.410156"/>
     <use xlink:href="#DejaVuSans-65" x="158.886719"/>
     <use xlink:href="#DejaVuSans-72" x="220.410156"/>
     <use xlink:href="#DejaVuSans-69" x="261.523438"/>
     <use xlink:href="#DejaVuSans-6f" x="289.306641"/>
     <use xlink:href="#DejaVuSans-64" x="350.488281"/>
     <use xlink:href="#DejaVuSans-73" x="413.964844"/>
    </g>
   </g>
   <g id="legend_1">
    <g id="patch_7">
     <path d="M 408.884062 218.55122 
L 497.841875 218.55122 
Q 499.841875 218.55122 499.841875 216.55122 
L 499.841875 158.83872 
Q 499.841875 156.83872 497.841875 156.83872 
L 408.884062 156.83872 
Q 406.884062 156.83872 406.884062 158.83872 
L 406.884062 216.55122 
Q 406.884062 218.55122 408.884062 218.55122 
z
" style="fill: #ffffff; opacity: 0.8; stroke: #cccccc; stroke-linejoin: miter"/>
    </g>
    <g id="line2d_27">
     <path d="M 410.884062 164.937157 
L 420.884062 164.937157 
L 430.884062 164.937157 
" style="fill: none; stroke: #add8e6; stroke-width: 1.5; stroke-linecap: square"/>
    </g>
    <g id="text_8">
     <!-- Benchmark -->
     <g transform="translate(438.884062 168.437157) scale(0.1 -0.1)">
      <defs>
       <path id="DejaVuSans-42" d="M 1259 2228 
L 1259 519 
L 2272 519 
Q 2781 519 3026 730 
Q 3272 941 3272 1375 
Q 3272 1813 3026 2020 
Q 2781 2228 2272 2228 
L 1259 2228 
z
M 1259 4147 
L 1259 2741 
L 2194 2741 
Q 2656 2741 2882 2914 
Q 3109 3088 3109 3444 
Q 3109 3797 2882 3972 
Q 2656 4147 2194 4147 
L 1259 4147 
z
M 628 4666 
L 2241 4666 
Q 2963 4666 3353 4366 
Q 3744 4066 3744 3513 
Q 3744 3084 3544 2831 
Q 3344 2578 2956 2516 
Q 3422 2416 3680 2098 
Q 3938 1781 3938 1306 
Q 3938 681 3513 340 
Q 3088 0 2303 0 
L 628 0 
L 628 4666 
z
" transform="scale(0.015625)"/>
       <path id="DejaVuSans-6e" d="M 3513 2113 
L 3513 0 
L 2938 0 
L 2938 2094 
Q 2938 2591 2744 2837 
Q 2550 3084 2163 3084 
Q 1697 3084 1428 2787 
Q 1159 2491 1159 1978 
L 1159 0 
L 581 0 
L 581 3500 
L 1159 3500 
L 1159 2956 
Q 1366 3272 1645 3428 
Q 1925 3584 2291 3584 
Q 2894 3584 3203 3211 
Q 3513 2838 3513 2113 
z
" transform="scale(0.015625)"/>
       <path id="DejaVuSans-63" d="M 3122 3366 
L 3122 2828 
Q 2878 2963 2633 3030 
Q 2388 3097 2138 3097 
Q 1578 3097 1268 2742 
Q 959 2388 959 1747 
Q 959 1106 1268 751 
Q 1578 397 2138 397 
Q 2388 397 2633 464 
Q 2878 531 3122 666 
L 3122 134 
Q 2881 22 2623 -34 
Q 2366 -91 2075 -91 
Q 1284 -91 818 406 
Q 353 903 353 1747 
Q 353 2603 823 3093 
Q 1294 3584 2113 3584 
Q 2378 3584 2631 3529 
Q 2884 3475 3122 3366 
z
" transform="scale(0.015625)"/>
       <path id="DejaVuSans-68" d="M 3513 2113 
L 3513 0 
L 2938 0 
L 2938 2094 
Q 2938 2591 2744 2837 
Q 2550 3084 2163 3084 
Q 1697 3084 1428 2787 
Q 1159 2491 1159 1978 
L 1159 0 
L 581 0 
L 581 4863 
L 1159 4863 
L 1159 2956 
Q 1366 3272 1645 3428 
Q 1925 3584 2291 3584 
Q 2894 3584 3203 3211 
Q 3513 2838 3513 2113 
z
" transform="scale(0.015625)"/>
       <path id="DejaVuSans-6d" d="M 3328 2828 
Q 3544 3216 3844 3400 
Q 4144 3584 4550 3584 
Q 5097 3584 5394 3201 
Q 5691 2819 5691 2113 
L 5691 0 
L 5113 0 
L 5113 2094 
Q 5113 2597 4934 2840 
Q 4756 3084 4391 3084 
Q 3944 3084 3684 2787 
Q 3425 2491 3425 1978 
L 3425 0 
L 2847 0 
L 2847 2094 
Q 2847 2600 2669 2842 
Q 2491 3084 2119 3084 
Q 1678 3084 1418 2786 
Q 1159 2488 1159 1978 
L 1159 0 
L 581 0 
L 581 3500 
L 1159 3500 
L 1159 2956 
Q 1356 3278 1631 3431 
Q 1906 3584 2284 3584 
Q 2666 3584 2933 3390 
Q 3200 3197 3328 2828 
z
" transform="scale(0.015625)"/>
       <path id="DejaVuSans-61" d="M 2194 1759 
Q 1497 1759 1228 1600 
Q 959 1441 959 1056 
Q 959 750 1161 570 
Q 1363 391 1709 391 
Q 2188 391 2477 730 
Q 2766 1069 2766 1631 
L 2766 1759 
L 2194 1759 
z
M 3341 1997 
L 3341 0 
L 2766 0 
L 2766 531 
Q 2569 213 2275 61 
Q 1981 -91 1556 -91 
Q 1019 -91 701 211 
Q 384 513 384 1019 
Q 384 1609 779 1909 
Q 1175 2209 1959 2209 
L 2766 2209 
L 2766 2266 
Q 2766 2663 2505 2880 
Q 2244 3097 1772 3097 
Q 1472 3097 1187 3025 
Q 903 2953 641 2809 
L 641 3341 
Q 956 3463 1253 3523 
Q 1550 3584 1831 3584 
Q 2591 3584 2966 3190 
Q 3341 2797 3341 1997 
z
" transform="scale(0.015625)"/>
       <path id="DejaVuSans-6b" d="M 581 4863 
L 1159 4863 
L 1159 1991 
L 2875 3500 
L 3609 3500 
L 1753 1863 
L 3688 0 
L 2938 0 
L 1159 1709 
L 1159 0 
L 581 0 
L 581 4863 
z
" transform="scale(0.015625)"/>
      </defs>
      <use xlink:href="#DejaVuSans-42"/>
      <use xlink:href="#DejaVuSans-65" x="68.603516"/>
      <use xlink:href="#DejaVuSans-6e" x="130.126953"/>
      <use xlink:href="#DejaVuSans-63" x="193.505859"/>
      <use xlink:href="#DejaVuSans-68" x="248.486328"/>
      <use xlink:href="#DejaVuSans-6d" x="311.865234"/>
      <use xlink:href="#DejaVuSans-61" x="409.277344"/>
      <use xlink:href="#DejaVuSans-72" x="470.556641"/>
      <use xlink:href="#DejaVuSans-6b" x="511.669922"/>
     </g>
    </g>
    <g id="line2d_28">
     <path d="M 410.884062 179.615282 
L 420.884062 179.615282 
L 430.884062 179.615282 
" style="fill: none; stroke: #ff8c00; stroke-width: 1.5; stroke-linecap: square"/>
    </g>
    <g id="text_9">
     <!-- Temporal -->
     <g transform="translate(438.884062 183.115282) scale(0.1 -0.1)">
      <defs>
       <path id="DejaVuSans-54" d="M -19 4666 
L 3928 4666 
L 3928 4134 
L 2272 4134 
L 2272 0 
L 1638 0 
L 1638 4134 
L -19 4134 
L -19 4666 
z
" transform="scale(0.015625)"/>
       <path id="DejaVuSans-6c" d="M 603 4863 
L 1178 4863 
L 1178 0 
L 603 0 
L 603 4863 
z
" transform="scale(0.015625)"/>
      </defs>
      <use xlink:href="#DejaVuSans-54"/>
      <use xlink:href="#DejaVuSans-65" x="44.083984"/>
      <use xlink:href="#DejaVuSans-6d" x="105.607422"/>
      <use xlink:href="#DejaVuSans-70" x="203.019531"/>
      <use xlink:href="#DejaVuSans-6f" x="266.496094"/>
      <use xlink:href="#DejaVuSans-72" x="327.677734"/>
      <use xlink:href="#DejaVuSans-61" x="368.791016"/>
      <use xlink:href="#DejaVuSans-6c" x="430.070312"/>
     </g>
    </g>
    <g id="line2d_29">
     <path d="M 410.884062 194.293407 
L 420.884062 194.293407 
L 430.884062 194.293407 
" style="fill: none; stroke: #008b8b; stroke-width: 1.5; stroke-linecap: square"/>
    </g>
    <g id="text_10">
     <!-- Type -->
     <g transform="translate(438.884062 197.793407) scale(0.1 -0.1)">
      <defs>
       <path id="DejaVuSans-79" d="M 2059 -325 
Q 1816 -950 1584 -1140 
Q 1353 -1331 966 -1331 
L 506 -1331 
L 506 -850 
L 844 -850 
Q 1081 -850 1212 -737 
Q 1344 -625 1503 -206 
L 1606 56 
L 191 3500 
L 800 3500 
L 1894 763 
L 2988 3500 
L 3597 3500 
L 2059 -325 
z
" transform="scale(0.015625)"/>
      </defs>
      <use xlink:href="#DejaVuSans-54"/>
      <use xlink:href="#DejaVuSans-79" x="45.458984"/>
      <use xlink:href="#DejaVuSans-70" x="104.638672"/>
      <use xlink:href="#DejaVuSans-65" x="168.115234"/>
     </g>
    </g>
    <g id="line2d_30">
     <path d="M 410.884062 208.971532 
L 420.884062 208.971532 
L 430.884062 208.971532 
" style="fill: none; stroke: #8b0000; stroke-width: 1.5; stroke-linecap: square"/>
    </g>
    <g id="text_11">
     <!-- Mixed -->
     <g transform="translate(438.884062 212.471532) scale(0.1 -0.1)">
      <defs>
       <path id="DejaVuSans-4d" d="M 628 4666 
L 1569 4666 
L 2759 1491 
L 3956 4666 
L 4897 4666 
L 4897 0 
L 4281 0 
L 4281 4097 
L 3078 897 
L 2444 897 
L 1241 4097 
L 1241 0 
L 628 0 
L 628 4666 
z
" transform="scale(0.015625)"/>
       <path id="DejaVuSans-78" d="M 3513 3500 
L 2247 1797 
L 3578 0 
L 2900 0 
L 1881 1375 
L 863 0 
L 184 0 
L 1544 1831 
L 300 3500 
L 978 3500 
L 1906 2253 
L 2834 3500 
L 3513 3500 
z
" transform="scale(0.015625)"/>
      </defs>
      <use xlink:href="#DejaVuSans-4d"/>
      <use xlink:href="#DejaVuSans-69" x="86.279297"/>
      <use xlink:href="#DejaVuSans-78" x="114.0625"/>
      <use xlink:href="#DejaVuSans-65" x="170.117188"/>
      <use xlink:href="#DejaVuSans-64" x="231.640625"/>
     </g>
    </g>
   </g>
  </g>
  <g id="axes_2">
   <g id="patch_8">
    <path d="M 58.441875 450.72 
L 504.841875 450.72 
L 504.841875 234.36878 
L 58.441875 234.36878 
L 58.441875 450.72 
z
" style="fill: none"/>
   </g>
   <g id="matplotlib.axis_3">
    <g id="xtick_7">
     <g id="line2d_31">
      <path d="M 58.441875 450.72 
L 58.441875 234.36878 
" clip-path="url(#pc70c5c1fba)" style="fill: none; stroke-dasharray: 0.5,0.825; stroke-dashoffset: 0; stroke: #808080; stroke-width: 0.5"/>
     </g>
     <g id="line2d_32">
      <g>
       <use xlink:href="#ma0ed3775e9" x="58.441875" y="450.72" style="stroke: #000000; stroke-width: 0.8"/>
      </g>
     </g>
     <g id="text_12">
      <!-- 2018 -->
      <g transform="translate(45.716875 465.318437) scale(0.1 -0.1)">
       <defs>
        <path id="DejaVuSans-32" d="M 1228 531 
L 3431 531 
L 3431 0 
L 469 0 
L 469 531 
Q 828 903 1448 1529 
Q 2069 2156 2228 2338 
Q 2531 2678 2651 2914 
Q 2772 3150 2772 3378 
Q 2772 3750 2511 3984 
Q 2250 4219 1831 4219 
Q 1534 4219 1204 4116 
Q 875 4013 500 3803 
L 500 4441 
Q 881 4594 1212 4672 
Q 1544 4750 1819 4750 
Q 2544 4750 2975 4387 
Q 3406 4025 3406 3419 
Q 3406 3131 3298 2873 
Q 3191 2616 2906 2266 
Q 2828 2175 2409 1742 
Q 1991 1309 1228 531 
z
" transform="scale(0.015625)"/>
        <path id="DejaVuSans-38" d="M 2034 2216 
Q 1584 2216 1326 1975 
Q 1069 1734 1069 1313 
Q 1069 891 1326 650 
Q 1584 409 2034 409 
Q 2484 409 2743 651 
Q 3003 894 3003 1313 
Q 3003 1734 2745 1975 
Q 2488 2216 2034 2216 
z
M 1403 2484 
Q 997 2584 770 2862 
Q 544 3141 544 3541 
Q 544 4100 942 4425 
Q 1341 4750 2034 4750 
Q 2731 4750 3128 4425 
Q 3525 4100 3525 3541 
Q 3525 3141 3298 2862 
Q 3072 2584 2669 2484 
Q 3125 2378 3379 2068 
Q 3634 1759 3634 1313 
Q 3634 634 3220 271 
Q 2806 -91 2034 -91 
Q 1263 -91 848 271 
Q 434 634 434 1313 
Q 434 1759 690 2068 
Q 947 2378 1403 2484 
z
M 1172 3481 
Q 1172 3119 1398 2916 
Q 1625 2713 2034 2713 
Q 2441 2713 2670 2916 
Q 2900 3119 2900 3481 
Q 2900 3844 2670 4047 
Q 2441 4250 2034 4250 
Q 1625 4250 1398 4047 
Q 1172 3844 1172 3481 
z
" transform="scale(0.015625)"/>
       </defs>
       <use xlink:href="#DejaVuSans-32"/>
       <use xlink:href="#DejaVuSans-30" x="63.623047"/>
       <use xlink:href="#DejaVuSans-31" x="127.246094"/>
       <use xlink:href="#DejaVuSans-38" x="190.869141"/>
      </g>
     </g>
    </g>
    <g id="xtick_8">
     <g id="line2d_33">
      <path d="M 146.088997 450.72 
L 146.088997 234.36878 
" clip-path="url(#pc70c5c1fba)" style="fill: none; stroke-dasharray: 0.5,0.825; stroke-dashoffset: 0; stroke: #808080; stroke-width: 0.5"/>
     </g>
     <g id="line2d_34">
      <g>
       <use xlink:href="#ma0ed3775e9" x="146.088997" y="450.72" style="stroke: #000000; stroke-width: 0.8"/>
      </g>
     </g>
     <g id="text_13">
      <!-- 2019 -->
      <g transform="translate(133.363997 465.318437) scale(0.1 -0.1)">
       <defs>
        <path id="DejaVuSans-39" d="M 703 97 
L 703 672 
Q 941 559 1184 500 
Q 1428 441 1663 441 
Q 2288 441 2617 861 
Q 2947 1281 2994 2138 
Q 2813 1869 2534 1725 
Q 2256 1581 1919 1581 
Q 1219 1581 811 2004 
Q 403 2428 403 3163 
Q 403 3881 828 4315 
Q 1253 4750 1959 4750 
Q 2769 4750 3195 4129 
Q 3622 3509 3622 2328 
Q 3622 1225 3098 567 
Q 2575 -91 1691 -91 
Q 1453 -91 1209 -44 
Q 966 3 703 97 
z
M 1959 2075 
Q 2384 2075 2632 2365 
Q 2881 2656 2881 3163 
Q 2881 3666 2632 3958 
Q 2384 4250 1959 4250 
Q 1534 4250 1286 3958 
Q 1038 3666 1038 3163 
Q 1038 2656 1286 2365 
Q 1534 2075 1959 2075 
z
" transform="scale(0.015625)"/>
       </defs>
       <use xlink:href="#DejaVuSans-32"/>
       <use xlink:href="#DejaVuSans-30" x="63.623047"/>
       <use xlink:href="#DejaVuSans-31" x="127.246094"/>
       <use xlink:href="#DejaVuSans-39" x="190.869141"/>
      </g>
     </g>
    </g>
    <g id="xtick_9">
     <g id="line2d_35">
      <path d="M 233.736119 450.72 
L 233.736119 234.36878 
" clip-path="url(#pc70c5c1fba)" style="fill: none; stroke-dasharray: 0.5,0.825; stroke-dashoffset: 0; stroke: #808080; stroke-width: 0.5"/>
     </g>
     <g id="line2d_36">
      <g>
       <use xlink:href="#ma0ed3775e9" x="233.736119" y="450.72" style="stroke: #000000; stroke-width: 0.8"/>
      </g>
     </g>
     <g id="text_14">
      <!-- 2020 -->
      <g transform="translate(221.011119 465.318437) scale(0.1 -0.1)">
       <use xlink:href="#DejaVuSans-32"/>
       <use xlink:href="#DejaVuSans-30" x="63.623047"/>
       <use xlink:href="#DejaVuSans-32" x="127.246094"/>
       <use xlink:href="#DejaVuSans-30" x="190.869141"/>
      </g>
     </g>
    </g>
    <g id="xtick_10">
     <g id="line2d_37">
      <path d="M 321.62337 450.72 
L 321.62337 234.36878 
" clip-path="url(#pc70c5c1fba)" style="fill: none; stroke-dasharray: 0.5,0.825; stroke-dashoffset: 0; stroke: #808080; stroke-width: 0.5"/>
     </g>
     <g id="line2d_38">
      <g>
       <use xlink:href="#ma0ed3775e9" x="321.62337" y="450.72" style="stroke: #000000; stroke-width: 0.8"/>
      </g>
     </g>
     <g id="text_15">
      <!-- 2021 -->
      <g transform="translate(308.89837 465.318437) scale(0.1 -0.1)">
       <use xlink:href="#DejaVuSans-32"/>
       <use xlink:href="#DejaVuSans-30" x="63.623047"/>
       <use xlink:href="#DejaVuSans-32" x="127.246094"/>
       <use xlink:href="#DejaVuSans-31" x="190.869141"/>
      </g>
     </g>
    </g>
    <g id="xtick_11">
     <g id="line2d_39">
      <path d="M 409.270493 450.72 
L 409.270493 234.36878 
" clip-path="url(#pc70c5c1fba)" style="fill: none; stroke-dasharray: 0.5,0.825; stroke-dashoffset: 0; stroke: #808080; stroke-width: 0.5"/>
     </g>
     <g id="line2d_40">
      <g>
       <use xlink:href="#ma0ed3775e9" x="409.270493" y="450.72" style="stroke: #000000; stroke-width: 0.8"/>
      </g>
     </g>
     <g id="text_16">
      <!-- 2022 -->
      <g transform="translate(396.545493 465.318437) scale(0.1 -0.1)">
       <use xlink:href="#DejaVuSans-32"/>
       <use xlink:href="#DejaVuSans-30" x="63.623047"/>
       <use xlink:href="#DejaVuSans-32" x="127.246094"/>
       <use xlink:href="#DejaVuSans-32" x="190.869141"/>
      </g>
     </g>
    </g>
    <g id="xtick_12">
     <g id="line2d_41">
      <path d="M 496.917615 450.72 
L 496.917615 234.36878 
" clip-path="url(#pc70c5c1fba)" style="fill: none; stroke-dasharray: 0.5,0.825; stroke-dashoffset: 0; stroke: #808080; stroke-width: 0.5"/>
     </g>
     <g id="line2d_42">
      <g>
       <use xlink:href="#ma0ed3775e9" x="496.917615" y="450.72" style="stroke: #000000; stroke-width: 0.8"/>
      </g>
     </g>
     <g id="text_17">
      <!-- 2023 -->
      <g transform="translate(484.192615 465.318437) scale(0.1 -0.1)">
       <use xlink:href="#DejaVuSans-32"/>
       <use xlink:href="#DejaVuSans-30" x="63.623047"/>
       <use xlink:href="#DejaVuSans-32" x="127.246094"/>
       <use xlink:href="#DejaVuSans-33" x="190.869141"/>
      </g>
     </g>
    </g>
    <g id="text_18">
     <!-- Date -->
     <g transform="translate(267.300937 480.51625) scale(0.12 -0.12)">
      <defs>
       <path id="DejaVuSans-44" d="M 1259 4147 
L 1259 519 
L 2022 519 
Q 2988 519 3436 956 
Q 3884 1394 3884 2338 
Q 3884 3275 3436 3711 
Q 2988 4147 2022 4147 
L 1259 4147 
z
M 628 4666 
L 1925 4666 
Q 3281 4666 3915 4102 
Q 4550 3538 4550 2338 
Q 4550 1131 3912 565 
Q 3275 0 1925 0 
L 628 0 
L 628 4666 
z
" transform="scale(0.015625)"/>
       <path id="DejaVuSans-74" d="M 1172 4494 
L 1172 3500 
L 2356 3500 
L 2356 3053 
L 1172 3053 
L 1172 1153 
Q 1172 725 1289 603 
Q 1406 481 1766 481 
L 2356 481 
L 2356 0 
L 1766 0 
Q 1100 0 847 248 
Q 594 497 594 1153 
L 594 3053 
L 172 3053 
L 172 3500 
L 594 3500 
L 594 4494 
L 1172 4494 
z
" transform="scale(0.015625)"/>
      </defs>
      <use xlink:href="#DejaVuSans-44"/>
      <use xlink:href="#DejaVuSans-61" x="77.001953"/>
      <use xlink:href="#DejaVuSans-74" x="138.28125"/>
      <use xlink:href="#DejaVuSans-65" x="177.490234"/>
     </g>
    </g>
   </g>
   <g id="matplotlib.axis_4">
    <g id="ytick_6">
     <g id="line2d_43">
      <path d="M 58.441875 423.080934 
L 504.841875 423.080934 
" clip-path="url(#pc70c5c1fba)" style="fill: none; stroke-dasharray: 0.5,0.825; stroke-dashoffset: 0; stroke: #808080; stroke-width: 0.5"/>
     </g>
     <g id="line2d_44">
      <g>
       <use xlink:href="#m2d465b6ef7" x="58.441875" y="423.080934" style="stroke: #000000; stroke-width: 0.8"/>
      </g>
     </g>
     <g id="text_19">
      <!-- 0.148 -->
      <g transform="translate(22.81375 426.880153) scale(0.1 -0.1)">
       <use xlink:href="#DejaVuSans-30"/>
       <use xlink:href="#DejaVuSans-2e" x="63.623047"/>
       <use xlink:href="#DejaVuSans-31" x="95.410156"/>
       <use xlink:href="#DejaVuSans-34" x="159.033203"/>
       <use xlink:href="#DejaVuSans-38" x="222.65625"/>
      </g>
     </g>
    </g>
    <g id="ytick_7">
     <g id="line2d_45">
      <path d="M 58.441875 393.267933 
L 504.841875 393.267933 
" clip-path="url(#pc70c5c1fba)" style="fill: none; stroke-dasharray: 0.5,0.825; stroke-dashoffset: 0; stroke: #808080; stroke-width: 0.5"/>
     </g>
     <g id="line2d_46">
      <g>
       <use xlink:href="#m2d465b6ef7" x="58.441875" y="393.267933" style="stroke: #000000; stroke-width: 0.8"/>
      </g>
     </g>
     <g id="text_20">
      <!-- 0.150 -->
      <g transform="translate(22.81375 397.067152) scale(0.1 -0.1)">
       <use xlink:href="#DejaVuSans-30"/>
       <use xlink:href="#DejaVuSans-2e" x="63.623047"/>
       <use xlink:href="#DejaVuSans-31" x="95.410156"/>
       <use xlink:href="#DejaVuSans-35" x="159.033203"/>
       <use xlink:href="#DejaVuSans-30" x="222.65625"/>
      </g>
     </g>
    </g>
    <g id="ytick_8">
     <g id="line2d_47">
      <path d="M 58.441875 363.454932 
L 504.841875 363.454932 
" clip-path="url(#pc70c5c1fba)" style="fill: none; stroke-dasharray: 0.5,0.825; stroke-dashoffset: 0; stroke: #808080; stroke-width: 0.5"/>
     </g>
     <g id="line2d_48">
      <g>
       <use xlink:href="#m2d465b6ef7" x="58.441875" y="363.454932" style="stroke: #000000; stroke-width: 0.8"/>
      </g>
     </g>
     <g id="text_21">
      <!-- 0.152 -->
      <g transform="translate(22.81375 367.254151) scale(0.1 -0.1)">
       <use xlink:href="#DejaVuSans-30"/>
       <use xlink:href="#DejaVuSans-2e" x="63.623047"/>
       <use xlink:href="#DejaVuSans-31" x="95.410156"/>
       <use xlink:href="#DejaVuSans-35" x="159.033203"/>
       <use xlink:href="#DejaVuSans-32" x="222.65625"/>
      </g>
     </g>
    </g>
    <g id="ytick_9">
     <g id="line2d_49">
      <path d="M 58.441875 333.641931 
L 504.841875 333.641931 
" clip-path="url(#pc70c5c1fba)" style="fill: none; stroke-dasharray: 0.5,0.825; stroke-dashoffset: 0; stroke: #808080; stroke-width: 0.5"/>
     </g>
     <g id="line2d_50">
      <g>
       <use xlink:href="#m2d465b6ef7" x="58.441875" y="333.641931" style="stroke: #000000; stroke-width: 0.8"/>
      </g>
     </g>
     <g id="text_22">
      <!-- 0.154 -->
      <g transform="translate(22.81375 337.441149) scale(0.1 -0.1)">
       <use xlink:href="#DejaVuSans-30"/>
       <use xlink:href="#DejaVuSans-2e" x="63.623047"/>
       <use xlink:href="#DejaVuSans-31" x="95.410156"/>
       <use xlink:href="#DejaVuSans-35" x="159.033203"/>
       <use xlink:href="#DejaVuSans-34" x="222.65625"/>
      </g>
     </g>
    </g>
    <g id="ytick_10">
     <g id="line2d_51">
      <path d="M 58.441875 303.828929 
L 504.841875 303.828929 
" clip-path="url(#pc70c5c1fba)" style="fill: none; stroke-dasharray: 0.5,0.825; stroke-dashoffset: 0; stroke: #808080; stroke-width: 0.5"/>
     </g>
     <g id="line2d_52">
      <g>
       <use xlink:href="#m2d465b6ef7" x="58.441875" y="303.828929" style="stroke: #000000; stroke-width: 0.8"/>
      </g>
     </g>
     <g id="text_23">
      <!-- 0.156 -->
      <g transform="translate(22.81375 307.628148) scale(0.1 -0.1)">
       <use xlink:href="#DejaVuSans-30"/>
       <use xlink:href="#DejaVuSans-2e" x="63.623047"/>
       <use xlink:href="#DejaVuSans-31" x="95.410156"/>
       <use xlink:href="#DejaVuSans-35" x="159.033203"/>
       <use xlink:href="#DejaVuSans-36" x="222.65625"/>
      </g>
     </g>
    </g>
    <g id="ytick_11">
     <g id="line2d_53">
      <path d="M 58.441875 274.015928 
L 504.841875 274.015928 
" clip-path="url(#pc70c5c1fba)" style="fill: none; stroke-dasharray: 0.5,0.825; stroke-dashoffset: 0; stroke: #808080; stroke-width: 0.5"/>
     </g>
     <g id="line2d_54">
      <g>
       <use xlink:href="#m2d465b6ef7" x="58.441875" y="274.015928" style="stroke: #000000; stroke-width: 0.8"/>
      </g>
     </g>
     <g id="text_24">
      <!-- 0.158 -->
      <g transform="translate(22.81375 277.815147) scale(0.1 -0.1)">
       <use xlink:href="#DejaVuSans-30"/>
       <use xlink:href="#DejaVuSans-2e" x="63.623047"/>
       <use xlink:href="#DejaVuSans-31" x="95.410156"/>
       <use xlink:href="#DejaVuSans-35" x="159.033203"/>
       <use xlink:href="#DejaVuSans-38" x="222.65625"/>
      </g>
     </g>
    </g>
    <g id="ytick_12">
     <g id="line2d_55">
      <path d="M 58.441875 244.202927 
L 504.841875 244.202927 
" clip-path="url(#pc70c5c1fba)" style="fill: none; stroke-dasharray: 0.5,0.825; stroke-dashoffset: 0; stroke: #808080; stroke-width: 0.5"/>
     </g>
     <g id="line2d_56">
      <g>
       <use xlink:href="#m2d465b6ef7" x="58.441875" y="244.202927" style="stroke: #000000; stroke-width: 0.8"/>
      </g>
     </g>
     <g id="text_25">
      <!-- 0.160 -->
      <g transform="translate(22.81375 248.002146) scale(0.1 -0.1)">
       <use xlink:href="#DejaVuSans-30"/>
       <use xlink:href="#DejaVuSans-2e" x="63.623047"/>
       <use xlink:href="#DejaVuSans-31" x="95.410156"/>
       <use xlink:href="#DejaVuSans-36" x="159.033203"/>
       <use xlink:href="#DejaVuSans-30" x="222.65625"/>
      </g>
     </g>
    </g>
    <g id="text_26">
     <!-- $RPS$ -->
     <g transform="translate(16.318125 354.18439) rotate(-90) scale(0.12 -0.12)">
      <use xlink:href="#DejaVuSans-Oblique-52" transform="translate(0 0.78125)"/>
      <use xlink:href="#DejaVuSans-Oblique-50" transform="translate(69.482422 0.78125)"/>
      <use xlink:href="#DejaVuSans-Oblique-53" transform="translate(129.785156 0.78125)"/>
     </g>
    </g>
   </g>
   <g id="line2d_57">
    <path d="M 517.842615 244.202927 
L 511.56549 244.202927 
L 504.841875 244.202927 
L 498.11826 244.202927 
L 491.394645 244.202927 
L 484.67103 244.202927 
L 477.947416 244.202927 
L 471.223801 244.202927 
L 464.500186 244.202927 
L 457.776571 244.202927 
L 451.052956 244.202927 
L 444.329341 244.202927 
L 437.605727 244.202927 
L 430.882112 244.202927 
L 424.158497 244.202927 
L 417.434882 244.202927 
L 410.711267 244.202927 
L 403.987652 244.202927 
L 397.264037 244.202927 
L 390.540423 244.202927 
L 383.816808 244.202927 
L 377.093193 244.202927 
L 370.369578 244.202927 
L 363.645963 244.202927 
L 356.922348 244.202927 
L 350.198734 244.202927 
L 343.475119 244.202927 
L 336.751504 244.202927 
L 330.027889 244.202927 
L 323.304274 244.202927 
L 316.580659 244.202927 
L 309.857044 244.202927 
L 303.13343 244.202927 
L 296.409815 244.202927 
L 289.6862 244.202927 
L 282.962585 244.202927 
L 276.23897 244.202927 
L 269.515355 244.202927 
L 262.791741 244.202927 
L 256.068126 244.202927 
L 249.344511 244.202927 
L 242.620896 244.202927 
L 235.897281 244.202927 
L 229.173666 244.202927 
L 222.450051 244.202927 
L 215.726437 244.202927 
L 209.002822 244.202927 
L 202.279207 244.202927 
L 195.555592 244.202927 
L 188.831977 244.202927 
L 182.108362 244.202927 
L 175.384748 244.202927 
L 168.661133 244.202927 
L 161.937518 244.202927 
L 155.213903 244.202927 
L 148.490288 244.202927 
L 141.766673 244.202927 
L 135.043058 244.202927 
L 128.319444 244.202927 
L 121.595829 244.202927 
L 114.872214 244.202927 
L 108.148599 244.202927 
L 101.424984 244.202927 
L 94.701369 244.202927 
L 87.977755 244.202927 
L 81.25414 244.202927 
L 74.530525 244.202927 
L 67.80691 244.202927 
L 61.083295 244.202927 
L 54.35968 244.202927 
L 47.636065 244.202927 
" clip-path="url(#pc70c5c1fba)" style="fill: none; stroke: #add8e6; stroke-width: 1.5; stroke-linecap: square"/>
   </g>
   <g id="line2d_58">
    <path d="M 517.842615 252.543691 
L 511.56549 253.182478 
L 504.841875 266.422893 
L 498.11826 261.419514 
L 491.394645 275.777389 
L 484.67103 261.529701 
L 477.947416 262.076979 
L 471.223801 266.478632 
L 464.500186 277.722576 
L 457.776571 285.287279 
L 451.052956 265.717941 
L 444.329341 267.734545 
L 437.605727 259.434454 
L 430.882112 255.504474 
L 424.158497 267.882272 
L 417.434882 275.784087 
L 410.711267 286.116415 
L 403.987652 308.271698 
L 397.264037 304.122131 
L 390.540423 322.799218 
L 383.816808 299.230327 
L 377.093193 293.474141 
L 370.369578 322.880918 
L 363.645963 309.700021 
L 356.922348 347.487403 
L 350.198734 358.605374 
L 343.475119 339.828461 
L 336.751504 329.44861 
L 330.027889 330.400313 
L 323.304274 319.184169 
L 316.580659 319.494964 
L 309.857044 302.018937 
L 303.13343 322.442515 
L 296.409815 329.949543 
L 289.6862 318.089031 
L 282.962585 335.767953 
L 276.23897 299.085695 
L 269.515355 288.153092 
L 262.791741 314.252824 
L 256.068126 320.856375 
L 249.344511 301.896788 
L 242.620896 318.152596 
L 235.897281 334.691367 
L 229.173666 339.526729 
L 222.450051 340.535638 
L 215.726437 322.383749 
L 209.002822 301.84646 
L 202.279207 295.600237 
L 195.555592 285.242549 
L 188.831977 292.9894 
L 182.108362 307.98064 
L 175.384748 310.30476 
L 168.661133 320.42723 
L 161.937518 317.248028 
L 155.213903 318.514873 
L 148.490288 285.819976 
L 141.766673 304.586242 
L 135.043058 305.268002 
L 128.319444 331.034487 
L 121.595829 343.615294 
L 114.872214 364.614191 
L 108.148599 372.044288 
L 101.424984 355.50856 
L 94.701369 355.547528 
L 87.977755 371.047028 
L 81.25414 353.678602 
L 74.530525 365.358887 
L 67.80691 416.853083 
L 61.083295 384.062868 
L 54.35968 416.987915 
L 47.636065 417.091583 
" clip-path="url(#pc70c5c1fba)" style="fill: none; stroke: #ff8c00; stroke-width: 1.5; stroke-linecap: square"/>
   </g>
   <g id="line2d_59">
    <path d="M 517.842615 286.084136 
L 511.56549 285.225709 
L 504.841875 285.159267 
L 498.11826 282.593943 
L 491.394645 272.583895 
L 484.67103 268.608647 
L 477.947416 273.960249 
L 471.223801 271.452186 
L 464.500186 279.263338 
L 457.776571 287.460278 
L 451.052956 281.642934 
L 444.329341 284.836235 
L 437.605727 284.414045 
L 430.882112 283.792648 
L 424.158497 287.48331 
L 417.434882 299.888095 
L 410.711267 310.403917 
L 403.987652 316.886665 
L 397.264037 307.977932 
L 390.540423 305.776938 
L 383.816808 299.385189 
L 377.093193 300.552178 
L 370.369578 309.450594 
L 363.645963 300.869598 
L 356.922348 306.755275 
L 350.198734 308.705967 
L 343.475119 297.382923 
L 336.751504 289.283688 
L 330.027889 292.915905 
L 323.304274 283.087762 
L 316.580659 278.297544 
L 309.857044 283.648894 
L 303.13343 290.217992 
L 296.409815 292.674326 
L 289.6862 297.257908 
L 282.962585 307.062161 
L 276.23897 311.849773 
L 269.515355 302.977066 
L 262.791741 320.754862 
L 256.068126 321.018958 
L 249.344511 308.9598 
L 242.620896 326.685112 
L 235.897281 339.742146 
L 229.173666 348.695712 
L 222.450051 356.344898 
L 215.726437 351.129567 
L 209.002822 333.100371 
L 202.279207 328.386866 
L 195.555592 309.739999 
L 188.831977 323.296902 
L 182.108362 327.98209 
L 175.384748 333.780538 
L 168.661133 346.696052 
L 161.937518 337.593424 
L 155.213903 337.478692 
L 148.490288 327.6569 
L 141.766673 323.923041 
L 135.043058 328.62408 
L 128.319444 336.034975 
L 121.595829 343.779431 
L 114.872214 359.754911 
L 108.148599 366.042767 
L 101.424984 369.233316 
L 94.701369 371.415431 
L 87.977755 373.676535 
L 81.25414 380.35914 
L 74.530525 386.181469 
L 67.80691 401.563319 
L 61.083295 398.150897 
L 54.35968 406.879795 
L 47.636065 421.944005 
" clip-path="url(#pc70c5c1fba)" style="fill: none; stroke: #008b8b; stroke-width: 1.5; stroke-linecap: square"/>
   </g>
   <g id="line2d_60">
    <path d="M 517.842615 285.679533 
L 511.56549 285.863487 
L 504.841875 292.498796 
L 498.11826 288.757794 
L 491.394645 290.870646 
L 484.67103 281.796568 
L 477.947416 284.863857 
L 471.223801 285.972397 
L 464.500186 295.750609 
L 457.776571 304.059951 
L 451.052956 291.849282 
L 444.329341 294.981328 
L 437.605727 291.713432 
L 430.882112 289.73495 
L 424.158497 298.278214 
L 417.434882 309.155615 
L 410.711267 320.383855 
L 403.987652 335.230565 
L 397.264037 329.003689 
L 390.540423 337.566357 
L 383.816808 323.169191 
L 377.093193 321.375858 
L 370.369578 340.929049 
L 363.645963 330.313121 
L 356.922348 351.536735 
L 350.198734 358.006692 
L 343.475119 342.941721 
L 336.751504 333.458435 
L 330.027889 335.416116 
L 323.304274 324.611592 
L 316.580659 322.05048 
L 309.857044 315.687356 
L 303.13343 328.50919 
L 296.409815 332.717509 
L 289.6862 328.29974 
L 282.962585 341.446433 
L 276.23897 325.205506 
L 269.515355 315.163509 
L 262.791741 336.740773 
L 256.068126 339.857525 
L 249.344511 324.004416 
L 242.620896 340.542825 
L 235.897281 354.995411 
L 229.173666 361.468141 
L 222.450051 365.625363 
L 215.726437 353.983423 
L 209.002822 334.74228 
L 202.279207 329.421113 
L 195.555592 315.303744 
L 188.831977 326.231821 
L 182.108362 336.15302 
L 175.384748 340.320959 
L 168.661133 351.95979 
L 161.937518 345.962029 
L 155.213903 346.847467 
L 148.490288 326.250975 
L 141.766673 334.694162 
L 135.043058 337.999215 
L 128.319444 354.843172 
L 121.595829 365.065946 
L 114.872214 384.096419 
L 108.148599 390.722961 
L 101.424984 384.061853 
L 94.701369 385.418376 
L 87.977755 394.528293 
L 81.25414 389.730345 
L 74.530525 398.557038 
L 67.80691 431.770878 
L 61.083295 413.093792 
L 54.35968 433.403881 
L 47.636065 440.885854 
" clip-path="url(#pc70c5c1fba)" style="fill: none; stroke: #8b0000; stroke-width: 1.5; stroke-linecap: square"/>
   </g>
   <g id="patch_9">
    <path d="M 58.441875 450.72 
L 58.441875 234.36878 
" style="fill: none; stroke: #000000; stroke-width: 0.8; stroke-linejoin: miter; stroke-linecap: square"/>
   </g>
   <g id="patch_10">
    <path d="M 504.841875 450.72 
L 504.841875 234.36878 
" style="fill: none; stroke: #000000; stroke-width: 0.8; stroke-linejoin: miter; stroke-linecap: square"/>
   </g>
   <g id="patch_11">
    <path d="M 58.441875 450.72 
L 504.841875 450.72 
" style="fill: none; stroke: #000000; stroke-width: 0.8; stroke-linejoin: miter; stroke-linecap: square"/>
   </g>
   <g id="patch_12">
    <path d="M 58.441875 234.36878 
L 504.841875 234.36878 
" style="fill: none; stroke: #000000; stroke-width: 0.8; stroke-linejoin: miter; stroke-linecap: square"/>
   </g>
   <g id="text_27">
    <!-- 12 periods -->
    <g transform="translate(247.211172 260.821463) scale(0.13 -0.13)">
     <use xlink:href="#DejaVuSans-31"/>
     <use xlink:href="#DejaVuSans-32" x="63.623047"/>
     <use xlink:href="#DejaVuSans-20" x="127.246094"/>
     <use xlink:href="#DejaVuSans-70" x="159.033203"/>
     <use xlink:href="#DejaVuSans-65" x="222.509766"/>
     <use xlink:href="#DejaVuSans-72" x="284.033203"/>
     <use xlink:href="#DejaVuSans-69" x="325.146484"/>
     <use xlink:href="#DejaVuSans-6f" x="352.929688"/>
     <use xlink:href="#DejaVuSans-64" x="414.111328"/>
     <use xlink:href="#DejaVuSans-73" x="477.587891"/>
    </g>
   </g>
   <g id="legend_2">
    <g id="patch_13">
     <path d="M 408.884062 445.72 
L 497.841875 445.72 
Q 499.841875 445.72 499.841875 443.72 
L 499.841875 386.0075 
Q 499.841875 384.0075 497.841875 384.0075 
L 408.884062 384.0075 
Q 406.884062 384.0075 406.884062 386.0075 
L 406.884062 443.72 
Q 406.884062 445.72 408.884062 445.72 
z
" style="fill: #ffffff; opacity: 0.8; stroke: #cccccc; stroke-linejoin: miter"/>
    </g>
    <g id="line2d_61">
     <path d="M 410.884062 392.105937 
L 420.884062 392.105937 
L 430.884062 392.105937 
" style="fill: none; stroke: #add8e6; stroke-width: 1.5; stroke-linecap: square"/>
    </g>
    <g id="text_28">
     <!-- Benchmark -->
     <g transform="translate(438.884062 395.605937) scale(0.1 -0.1)">
      <use xlink:href="#DejaVuSans-42"/>
      <use xlink:href="#DejaVuSans-65" x="68.603516"/>
      <use xlink:href="#DejaVuSans-6e" x="130.126953"/>
      <use xlink:href="#DejaVuSans-63" x="193.505859"/>
      <use xlink:href="#DejaVuSans-68" x="248.486328"/>
      <use xlink:href="#DejaVuSans-6d" x="311.865234"/>
      <use xlink:href="#DejaVuSans-61" x="409.277344"/>
      <use xlink:href="#DejaVuSans-72" x="470.556641"/>
      <use xlink:href="#DejaVuSans-6b" x="511.669922"/>
     </g>
    </g>
    <g id="line2d_62">
     <path d="M 410.884062 406.784062 
L 420.884062 406.784062 
L 430.884062 406.784062 
" style="fill: none; stroke: #ff8c00; stroke-width: 1.5; stroke-linecap: square"/>
    </g>
    <g id="text_29">
     <!-- Temporal -->
     <g transform="translate(438.884062 410.284062) scale(0.1 -0.1)">
      <use xlink:href="#DejaVuSans-54"/>
      <use xlink:href="#DejaVuSans-65" x="44.083984"/>
      <use xlink:href="#DejaVuSans-6d" x="105.607422"/>
      <use xlink:href="#DejaVuSans-70" x="203.019531"/>
      <use xlink:href="#DejaVuSans-6f" x="266.496094"/>
      <use xlink:href="#DejaVuSans-72" x="327.677734"/>
      <use xlink:href="#DejaVuSans-61" x="368.791016"/>
      <use xlink:href="#DejaVuSans-6c" x="430.070312"/>
     </g>
    </g>
    <g id="line2d_63">
     <path d="M 410.884062 421.462187 
L 420.884062 421.462187 
L 430.884062 421.462187 
" style="fill: none; stroke: #008b8b; stroke-width: 1.5; stroke-linecap: square"/>
    </g>
    <g id="text_30">
     <!-- Type -->
     <g transform="translate(438.884062 424.962187) scale(0.1 -0.1)">
      <use xlink:href="#DejaVuSans-54"/>
      <use xlink:href="#DejaVuSans-79" x="45.458984"/>
      <use xlink:href="#DejaVuSans-70" x="104.638672"/>
      <use xlink:href="#DejaVuSans-65" x="168.115234"/>
     </g>
    </g>
    <g id="line2d_64">
     <path d="M 410.884062 436.140312 
L 420.884062 436.140312 
L 430.884062 436.140312 
" style="fill: none; stroke: #8b0000; stroke-width: 1.5; stroke-linecap: square"/>
    </g>
    <g id="text_31">
     <!-- Mixed -->
     <g transform="translate(438.884062 439.640312) scale(0.1 -0.1)">
      <use xlink:href="#DejaVuSans-4d"/>
      <use xlink:href="#DejaVuSans-69" x="86.279297"/>
      <use xlink:href="#DejaVuSans-78" x="114.0625"/>
      <use xlink:href="#DejaVuSans-65" x="170.117188"/>
      <use xlink:href="#DejaVuSans-64" x="231.640625"/>
     </g>
    </g>
   </g>
  </g>
 </g>
 <defs>
  <clipPath id="p77b36bf500">
   <rect x="58.441875" y="7.2" width="446.4" height="216.35122"/>
  </clipPath>
  <clipPath id="pc70c5c1fba">
   <rect x="58.441875" y="234.36878" width="446.4" height="216.35122"/>
  </clipPath>
 </defs>
</svg>
