<?xml version="1.0" encoding="utf-8" standalone="no"?>
<!DOCTYPE svg PUBLIC "-//W3C//DTD SVG 1.1//EN"
  "http://www.w3.org/Graphics/SVG/1.1/DTD/svg11.dtd">
<svg xmlns:xlink="http://www.w3.org/1999/xlink" width="504.117615pt" height="933.731875pt" viewBox="0 0 504.117615 933.731875" xmlns="http://www.w3.org/2000/svg" version="1.1">
 <metadata>
  <rdf:RDF xmlns:dc="http://purl.org/dc/elements/1.1/" xmlns:cc="http://creativecommons.org/ns#" xmlns:rdf="http://www.w3.org/1999/02/22-rdf-syntax-ns#">
   <cc:Work>
    <dc:type rdf:resource="http://purl.org/dc/dcmitype/StillImage"/>
    <dc:date>2024-12-12T02:08:19.681854</dc:date>
    <dc:format>image/svg+xml</dc:format>
    <dc:creator>
     <cc:Agent>
      <dc:title>Matplotlib v3.9.2, https://matplotlib.org/</dc:title>
     </cc:Agent>
    </dc:creator>
   </cc:Work>
  </rdf:RDF>
 </metadata>
 <defs>
  <style type="text/css">*{stroke-linejoin: round; stroke-linecap: butt}</style>
 </defs>
 <g id="figure_1">
  <g id="patch_1">
   <path d="M 0 933.731875 
L 504.117615 933.731875 
L 504.117615 0 
L 0 0 
L 0 933.731875 
z
" style="fill: none"/>
  </g>
  <g id="axes_1">
   <g id="patch_2">
    <path d="M 45.716875 220.944578 
L 492.116875 220.944578 
L 492.116875 7.2 
L 45.716875 7.2 
L 45.716875 220.944578 
z
" style="fill: none"/>
   </g>
   <g id="matplotlib.axis_1">
    <g id="xtick_1">
     <g id="line2d_1">
      <path d="M 45.716875 220.944578 
L 45.716875 7.2 
" clip-path="url(#p3eec4c6fad)" style="fill: none; stroke-dasharray: 0.5,0.825; stroke-dashoffset: 0; stroke: #808080; stroke-width: 0.5"/>
     </g>
     <g id="line2d_2">
      <defs>
       <path id="mdca42a55e2" d="M 0 0 
L 0 3.5 
" style="stroke: #000000; stroke-width: 0.8"/>
      </defs>
      <g>
       <use xlink:href="#mdca42a55e2" x="45.716875" y="220.944578" style="stroke: #000000; stroke-width: 0.8"/>
      </g>
     </g>
    </g>
    <g id="xtick_2">
     <g id="line2d_3">
      <path d="M 133.363997 220.944578 
L 133.363997 7.2 
" clip-path="url(#p3eec4c6fad)" style="fill: none; stroke-dasharray: 0.5,0.825; stroke-dashoffset: 0; stroke: #808080; stroke-width: 0.5"/>
     </g>
     <g id="line2d_4">
      <g>
       <use xlink:href="#mdca42a55e2" x="133.363997" y="220.944578" style="stroke: #000000; stroke-width: 0.8"/>
      </g>
     </g>
    </g>
    <g id="xtick_3">
     <g id="line2d_5">
      <path d="M 221.011119 220.944578 
L 221.011119 7.2 
" clip-path="url(#p3eec4c6fad)" style="fill: none; stroke-dasharray: 0.5,0.825; stroke-dashoffset: 0; stroke: #808080; stroke-width: 0.5"/>
     </g>
     <g id="line2d_6">
      <g>
       <use xlink:href="#mdca42a55e2" x="221.011119" y="220.944578" style="stroke: #000000; stroke-width: 0.8"/>
      </g>
     </g>
    </g>
    <g id="xtick_4">
     <g id="line2d_7">
      <path d="M 308.89837 220.944578 
L 308.89837 7.2 
" clip-path="url(#p3eec4c6fad)" style="fill: none; stroke-dasharray: 0.5,0.825; stroke-dashoffset: 0; stroke: #808080; stroke-width: 0.5"/>
     </g>
     <g id="line2d_8">
      <g>
       <use xlink:href="#mdca42a55e2" x="308.89837" y="220.944578" style="stroke: #000000; stroke-width: 0.8"/>
      </g>
     </g>
    </g>
    <g id="xtick_5">
     <g id="line2d_9">
      <path d="M 396.545493 220.944578 
L 396.545493 7.2 
" clip-path="url(#p3eec4c6fad)" style="fill: none; stroke-dasharray: 0.5,0.825; stroke-dashoffset: 0; stroke: #808080; stroke-width: 0.5"/>
     </g>
     <g id="line2d_10">
      <g>
       <use xlink:href="#mdca42a55e2" x="396.545493" y="220.944578" style="stroke: #000000; stroke-width: 0.8"/>
      </g>
     </g>
    </g>
    <g id="xtick_6">
     <g id="line2d_11">
      <path d="M 484.192615 220.944578 
L 484.192615 7.2 
" clip-path="url(#p3eec4c6fad)" style="fill: none; stroke-dasharray: 0.5,0.825; stroke-dashoffset: 0; stroke: #808080; stroke-width: 0.5"/>
     </g>
     <g id="line2d_12">
      <g>
       <use xlink:href="#mdca42a55e2" x="484.192615" y="220.944578" style="stroke: #000000; stroke-width: 0.8"/>
      </g>
     </g>
    </g>
   </g>
   <g id="matplotlib.axis_2">
    <g id="ytick_1">
     <g id="line2d_13">
      <path d="M 45.716875 188.734332 
L 492.116875 188.734332 
" clip-path="url(#p3eec4c6fad)" style="fill: none; stroke-dasharray: 0.5,0.825; stroke-dashoffset: 0; stroke: #808080; stroke-width: 0.5"/>
     </g>
     <g id="line2d_14">
      <defs>
       <path id="md5597e395d" d="M 0 0 
L -3.5 0 
" style="stroke: #000000; stroke-width: 0.8"/>
      </defs>
      <g>
       <use xlink:href="#md5597e395d" x="45.716875" y="188.734332" style="stroke: #000000; stroke-width: 0.8"/>
      </g>
     </g>
     <g id="text_1">
      <!-- 0.8 -->
      <g transform="translate(22.81375 192.533551) scale(0.1 -0.1)">
       <defs>
        <path id="DejaVuSans-30" d="M 2034 4250 
Q 1547 4250 1301 3770 
Q 1056 3291 1056 2328 
Q 1056 1369 1301 889 
Q 1547 409 2034 409 
Q 2525 409 2770 889 
Q 3016 1369 3016 2328 
Q 3016 3291 2770 3770 
Q 2525 4250 2034 4250 
z
M 2034 4750 
Q 2819 4750 3233 4129 
Q 3647 3509 3647 2328 
Q 3647 1150 3233 529 
Q 2819 -91 2034 -91 
Q 1250 -91 836 529 
Q 422 1150 422 2328 
Q 422 3509 836 4129 
Q 1250 4750 2034 4750 
z
" transform="scale(0.015625)"/>
        <path id="DejaVuSans-2e" d="M 684 794 
L 1344 794 
L 1344 0 
L 684 0 
L 684 794 
z
" transform="scale(0.015625)"/>
        <path id="DejaVuSans-38" d="M 2034 2216 
Q 1584 2216 1326 1975 
Q 1069 1734 1069 1313 
Q 1069 891 1326 650 
Q 1584 409 2034 409 
Q 2484 409 2743 651 
Q 3003 894 3003 1313 
Q 3003 1734 2745 1975 
Q 2488 2216 2034 2216 
z
M 1403 2484 
Q 997 2584 770 2862 
Q 544 3141 544 3541 
Q 544 4100 942 4425 
Q 1341 4750 2034 4750 
Q 2731 4750 3128 4425 
Q 3525 4100 3525 3541 
Q 3525 3141 3298 2862 
Q 3072 2584 2669 2484 
Q 3125 2378 3379 2068 
Q 3634 1759 3634 1313 
Q 3634 634 3220 271 
Q 2806 -91 2034 -91 
Q 1263 -91 848 271 
Q 434 634 434 1313 
Q 434 1759 690 2068 
Q 947 2378 1403 2484 
z
M 1172 3481 
Q 1172 3119 1398 2916 
Q 1625 2713 2034 2713 
Q 2441 2713 2670 2916 
Q 2900 3119 2900 3481 
Q 2900 3844 2670 4047 
Q 2441 4250 2034 4250 
Q 1625 4250 1398 4047 
Q 1172 3844 1172 3481 
z
" transform="scale(0.015625)"/>
       </defs>
       <use xlink:href="#DejaVuSans-30"/>
       <use xlink:href="#DejaVuSans-2e" x="63.623047"/>
       <use xlink:href="#DejaVuSans-38" x="95.410156"/>
      </g>
     </g>
    </g>
    <g id="ytick_2">
     <g id="line2d_15">
      <path d="M 45.716875 150.969343 
L 492.116875 150.969343 
" clip-path="url(#p3eec4c6fad)" style="fill: none; stroke-dasharray: 0.5,0.825; stroke-dashoffset: 0; stroke: #808080; stroke-width: 0.5"/>
     </g>
     <g id="line2d_16">
      <g>
       <use xlink:href="#md5597e395d" x="45.716875" y="150.969343" style="stroke: #000000; stroke-width: 0.8"/>
      </g>
     </g>
     <g id="text_2">
      <!-- 0.9 -->
      <g transform="translate(22.81375 154.768562) scale(0.1 -0.1)">
       <defs>
        <path id="DejaVuSans-39" d="M 703 97 
L 703 672 
Q 941 559 1184 500 
Q 1428 441 1663 441 
Q 2288 441 2617 861 
Q 2947 1281 2994 2138 
Q 2813 1869 2534 1725 
Q 2256 1581 1919 1581 
Q 1219 1581 811 2004 
Q 403 2428 403 3163 
Q 403 3881 828 4315 
Q 1253 4750 1959 4750 
Q 2769 4750 3195 4129 
Q 3622 3509 3622 2328 
Q 3622 1225 3098 567 
Q 2575 -91 1691 -91 
Q 1453 -91 1209 -44 
Q 966 3 703 97 
z
M 1959 2075 
Q 2384 2075 2632 2365 
Q 2881 2656 2881 3163 
Q 2881 3666 2632 3958 
Q 2384 4250 1959 4250 
Q 1534 4250 1286 3958 
Q 1038 3666 1038 3163 
Q 1038 2656 1286 2365 
Q 1534 2075 1959 2075 
z
" transform="scale(0.015625)"/>
       </defs>
       <use xlink:href="#DejaVuSans-30"/>
       <use xlink:href="#DejaVuSans-2e" x="63.623047"/>
       <use xlink:href="#DejaVuSans-39" x="95.410156"/>
      </g>
     </g>
    </g>
    <g id="ytick_3">
     <g id="line2d_17">
      <path d="M 45.716875 113.204353 
L 492.116875 113.204353 
" clip-path="url(#p3eec4c6fad)" style="fill: none; stroke-dasharray: 0.5,0.825; stroke-dashoffset: 0; stroke: #808080; stroke-width: 0.5"/>
     </g>
     <g id="line2d_18">
      <g>
       <use xlink:href="#md5597e395d" x="45.716875" y="113.204353" style="stroke: #000000; stroke-width: 0.8"/>
      </g>
     </g>
     <g id="text_3">
      <!-- 1.0 -->
      <g transform="translate(22.81375 117.003572) scale(0.1 -0.1)">
       <defs>
        <path id="DejaVuSans-31" d="M 794 531 
L 1825 531 
L 1825 4091 
L 703 3866 
L 703 4441 
L 1819 4666 
L 2450 4666 
L 2450 531 
L 3481 531 
L 3481 0 
L 794 0 
L 794 531 
z
" transform="scale(0.015625)"/>
       </defs>
       <use xlink:href="#DejaVuSans-31"/>
       <use xlink:href="#DejaVuSans-2e" x="63.623047"/>
       <use xlink:href="#DejaVuSans-30" x="95.410156"/>
      </g>
     </g>
    </g>
    <g id="ytick_4">
     <g id="line2d_19">
      <path d="M 45.716875 75.439364 
L 492.116875 75.439364 
" clip-path="url(#p3eec4c6fad)" style="fill: none; stroke-dasharray: 0.5,0.825; stroke-dashoffset: 0; stroke: #808080; stroke-width: 0.5"/>
     </g>
     <g id="line2d_20">
      <g>
       <use xlink:href="#md5597e395d" x="45.716875" y="75.439364" style="stroke: #000000; stroke-width: 0.8"/>
      </g>
     </g>
     <g id="text_4">
      <!-- 1.1 -->
      <g transform="translate(22.81375 79.238583) scale(0.1 -0.1)">
       <use xlink:href="#DejaVuSans-31"/>
       <use xlink:href="#DejaVuSans-2e" x="63.623047"/>
       <use xlink:href="#DejaVuSans-31" x="95.410156"/>
      </g>
     </g>
    </g>
    <g id="ytick_5">
     <g id="line2d_21">
      <path d="M 45.716875 37.674375 
L 492.116875 37.674375 
" clip-path="url(#p3eec4c6fad)" style="fill: none; stroke-dasharray: 0.5,0.825; stroke-dashoffset: 0; stroke: #808080; stroke-width: 0.5"/>
     </g>
     <g id="line2d_22">
      <g>
       <use xlink:href="#md5597e395d" x="45.716875" y="37.674375" style="stroke: #000000; stroke-width: 0.8"/>
      </g>
     </g>
     <g id="text_5">
      <!-- 1.2 -->
      <g transform="translate(22.81375 41.473593) scale(0.1 -0.1)">
       <defs>
        <path id="DejaVuSans-32" d="M 1228 531 
L 3431 531 
L 3431 0 
L 469 0 
L 469 531 
Q 828 903 1448 1529 
Q 2069 2156 2228 2338 
Q 2531 2678 2651 2914 
Q 2772 3150 2772 3378 
Q 2772 3750 2511 3984 
Q 2250 4219 1831 4219 
Q 1534 4219 1204 4116 
Q 875 4013 500 3803 
L 500 4441 
Q 881 4594 1212 4672 
Q 1544 4750 1819 4750 
Q 2544 4750 2975 4387 
Q 3406 4025 3406 3419 
Q 3406 3131 3298 2873 
Q 3191 2616 2906 2266 
Q 2828 2175 2409 1742 
Q 1991 1309 1228 531 
z
" transform="scale(0.015625)"/>
       </defs>
       <use xlink:href="#DejaVuSans-31"/>
       <use xlink:href="#DejaVuSans-2e" x="63.623047"/>
       <use xlink:href="#DejaVuSans-32" x="95.410156"/>
      </g>
     </g>
    </g>
    <g id="text_6">
     <!-- $S_t/S_{t-T}$ -->
     <g transform="translate(16.318125 135.072289) rotate(-90) scale(0.12 -0.12)">
      <defs>
       <path id="DejaVuSans-Oblique-53" d="M 3859 4513 
L 3738 3897 
Q 3422 4066 3111 4152 
Q 2800 4238 2509 4238 
Q 1944 4238 1609 3991 
Q 1275 3744 1275 3334 
Q 1275 3109 1398 2989 
Q 1522 2869 2034 2731 
L 2413 2638 
Q 3053 2472 3303 2217 
Q 3553 1963 3553 1503 
Q 3553 797 2998 353 
Q 2444 -91 1538 -91 
Q 1166 -91 791 -17 
Q 416 56 38 206 
L 166 856 
Q 513 641 861 531 
Q 1209 422 1556 422 
Q 2147 422 2503 684 
Q 2859 947 2859 1369 
Q 2859 1650 2717 1795 
Q 2575 1941 2106 2059 
L 1728 2156 
Q 1081 2325 845 2545 
Q 609 2766 609 3163 
Q 609 3859 1145 4304 
Q 1681 4750 2541 4750 
Q 2875 4750 3203 4690 
Q 3531 4631 3859 4513 
z
" transform="scale(0.015625)"/>
       <path id="DejaVuSans-Oblique-74" d="M 2706 3500 
L 2619 3053 
L 1472 3053 
L 1100 1153 
Q 1081 1047 1072 975 
Q 1063 903 1063 863 
Q 1063 663 1183 572 
Q 1303 481 1569 481 
L 2150 481 
L 2053 0 
L 1503 0 
Q 991 0 739 200 
Q 488 400 488 806 
Q 488 878 497 964 
Q 506 1050 525 1153 
L 897 3053 
L 409 3053 
L 500 3500 
L 978 3500 
L 1172 4494 
L 1747 4494 
L 1556 3500 
L 2706 3500 
z
" transform="scale(0.015625)"/>
       <path id="DejaVuSans-2f" d="M 1625 4666 
L 2156 4666 
L 531 -594 
L 0 -594 
L 1625 4666 
z
" transform="scale(0.015625)"/>
       <path id="DejaVuSans-2212" d="M 678 2272 
L 4684 2272 
L 4684 1741 
L 678 1741 
L 678 2272 
z
" transform="scale(0.015625)"/>
       <path id="DejaVuSans-Oblique-54" d="M 378 4666 
L 4325 4666 
L 4225 4134 
L 2559 4134 
L 1759 0 
L 1125 0 
L 1925 4134 
L 275 4134 
L 378 4666 
z
" transform="scale(0.015625)"/>
      </defs>
      <use xlink:href="#DejaVuSans-Oblique-53" transform="translate(0 0.78125)"/>
      <use xlink:href="#DejaVuSans-Oblique-74" transform="translate(63.476562 -15.625) scale(0.7)"/>
      <use xlink:href="#DejaVuSans-2f" transform="translate(93.657227 0.78125)"/>
      <use xlink:href="#DejaVuSans-Oblique-53" transform="translate(127.348633 0.78125)"/>
      <use xlink:href="#DejaVuSans-Oblique-74" transform="translate(190.825195 -15.625) scale(0.7)"/>
      <use xlink:href="#DejaVuSans-2212" transform="translate(231.90918 -15.625) scale(0.7)"/>
      <use xlink:href="#DejaVuSans-Oblique-54" transform="translate(304.199219 -15.625) scale(0.7)"/>
     </g>
    </g>
   </g>
   <g id="line2d_23">
    <path d="M 505.117615 118.276087 
L 498.84049 109.610114 
L 492.116875 105.217979 
L 485.39326 97.709082 
L 478.669645 66.828431 
L 471.94603 99.124454 
L 465.222416 123.259603 
L 458.498801 144.193772 
L 451.775186 115.979533 
L 445.051571 115.901367 
L 438.327956 128.197811 
L 431.604341 151.929662 
L 424.880727 113.456882 
L 418.157112 127.448398 
L 411.433497 114.464914 
L 404.709882 127.460654 
L 397.986267 126.122442 
L 391.262652 106.009558 
L 384.539037 105.337825 
L 377.815423 98.637753 
L 371.091808 108.502453 
L 364.368193 109.542817 
L 357.644578 108.04764 
L 350.920963 100.740756 
L 344.197348 90.210014 
L 337.473734 75.591007 
L 330.750119 81.939396 
L 324.026504 95.313714 
L 317.302889 92.711729 
L 310.579274 84.40759 
L 303.855659 63.818163 
L 297.132044 70.681089 
L 290.40843 80.269382 
L 283.684815 88.161705 
L 276.9612 74.461309 
L 270.237585 73.858967 
L 263.51397 55.142537 
L 256.790355 27.685306 
L 250.066741 105.490392 
L 243.343126 164.168721 
L 236.619511 201.561163 
L 229.895896 136.799268 
L 223.172281 96.733318 
L 216.448666 82.87744 
L 209.725051 91.5871 
L 203.001437 78.12691 
L 196.277822 112.590137 
L 189.554207 107.52658 
L 182.830592 107.810619 
L 176.106977 104.578577 
L 169.383362 104.906949 
L 162.659748 108.412774 
L 155.936133 89.37599 
L 149.212518 78.566083 
L 142.488903 90.405253 
L 135.765288 106.713384 
L 129.041673 122.148767 
L 122.318058 145.544668 
L 115.594444 129.954245 
L 108.870829 124.642313 
L 102.147214 94.73467 
L 95.423599 99.146348 
L 88.699984 99.451721 
L 81.976369 102.843275 
L 75.252755 115.734368 
L 68.52914 102.692363 
L 61.805525 124.88811 
L 55.08191 98.113753 
L 48.358295 108.175354 
L 41.63468 87.515605 
L 34.911065 90.301519 
L 28.187451 89.253707 
L 21.463836 92.243118 
L 14.740221 94.475737 
L 8.016606 106.160364 
L 1.292991 97.576274 
L -1 97.674124 
L -1 97.674124 
" clip-path="url(#p3eec4c6fad)" style="fill: none; stroke: #8b0000; stroke-width: 1.5; stroke-linecap: square"/>
   </g>
   <g id="line2d_24">
    <path d="M 505.117615 134.554705 
L 498.84049 112.27218 
L 492.116875 92.838784 
L 485.39326 89.930238 
L 478.669645 58.009877 
L 471.94603 81.412465 
L 465.222416 112.401108 
L 458.498801 133.869468 
L 451.775186 107.300877 
L 445.051571 96.205236 
L 438.327956 105.409448 
L 431.604341 126.575977 
L 424.880727 90.135342 
L 418.157112 121.594077 
L 411.433497 118.671162 
L 404.709882 136.030609 
L 397.986267 117.958 
L 391.262652 87.299711 
L 384.539037 94.982487 
L 377.815423 102.197929 
L 371.091808 113.991144 
L 364.368193 111.419384 
L 357.644578 103.020828 
L 350.920963 97.46935 
L 344.197348 70.602898 
L 337.473734 41.922285 
L 330.750119 16.915663 
L 324.026504 55.112329 
L 317.302889 68.545942 
L 310.579274 92.018651 
L 303.855659 66.934652 
L 297.132044 56.462628 
L 290.40843 75.476717 
L 283.684815 74.155204 
L 276.9612 71.216009 
L 270.237585 71.669439 
L 263.51397 63.752623 
L 256.790355 29.356407 
L 250.066741 101.999277 
L 243.343126 168.584093 
L 236.619511 211.228916 
L 229.895896 145.744233 
L 223.172281 93.126531 
L 216.448666 88.794745 
L 209.725051 93.257455 
L 203.001437 77.162441 
L 196.277822 110.990484 
L 189.554207 104.125041 
L 182.830592 98.732308 
L 176.106977 86.243768 
L 169.383362 84.760784 
L 162.659748 91.174469 
L 155.936133 74.582679 
L 149.212518 62.291297 
L 142.488903 90.611409 
L 135.765288 115.427457 
L 129.041673 136.163891 
L 122.318058 153.331637 
L 115.594444 128.808177 
L 108.870829 112.364367 
L 102.147214 72.79751 
L 95.423599 73.877184 
L 88.699984 83.389651 
L 81.976369 90.074658 
L 75.252755 114.376681 
L 68.52914 88.222112 
L 61.805525 116.249827 
L 55.08191 81.887801 
L 48.358295 100.978232 
L 41.63468 71.111937 
L 34.911065 65.660953 
L 28.187451 70.008216 
L 21.463836 75.806504 
L 14.740221 80.64723 
L 8.016606 96.36038 
L 1.292991 85.432078 
L -1 88.096711 
L -1 88.096711 
" clip-path="url(#p3eec4c6fad)" style="fill: none; stroke: #008b8b; stroke-width: 1.5; stroke-linecap: square"/>
   </g>
   <g id="line2d_25">
    <path d="M 505.117615 127.179614 
L 498.84049 114.263709 
L 492.116875 101.771403 
L 485.39326 102.967178 
L 478.669645 91.795685 
L 471.94603 96.515407 
L 465.222416 108.843802 
L 458.498801 116.119855 
L 451.775186 106.201309 
L 445.051571 98.162976 
L 438.327956 100.984207 
L 431.604341 107.757535 
L 424.880727 95.886894 
L 418.157112 112.930753 
L 411.433497 116.380687 
L 404.709882 123.552406 
L 397.986267 111.922806 
L 391.262652 96.880027 
L 384.539037 102.826716 
L 377.815423 109.854984 
L 371.091808 113.781574 
L 364.368193 110.96238 
L 357.644578 105.566971 
L 350.920963 105.256063 
L 344.197348 90.87152 
L 337.473734 75.363773 
L 330.750119 54.682087 
L 324.026504 76.306816 
L 317.302889 88.286241 
L 310.579274 110.174479 
L 303.855659 98.175676 
L 297.132044 87.170211 
L 290.40843 94.815812 
L 283.684815 92.595692 
L 276.9612 96.356424 
L 270.237585 98.992648 
L 263.51397 99.025799 
L 256.790355 81.83977 
L 250.066741 99.55094 
L 243.343126 131.1844 
L 236.619511 154.75438 
L 229.895896 130.597838 
L 223.172281 104.63929 
L 216.448666 104.056893 
L 209.725051 103.709329 
L 203.001437 96.180691 
L 196.277822 111.950545 
L 189.554207 108.664962 
L 182.830592 106.801702 
L 176.106977 98.066666 
L 169.383362 96.741031 
L 162.659748 99.335366 
L 155.936133 94.67226 
L 149.212518 89.811569 
L 142.488903 104.46652 
L 135.765288 116.225713 
L 129.041673 126.665005 
L 122.318058 132.172778 
L 115.594444 118.510786 
L 108.870829 107.213094 
L 102.147214 89.05946 
L 95.423599 87.588912 
L 88.699984 94.608449 
L 81.976369 97.808995 
L 75.252755 112.66857 
L 68.52914 99.273901 
L 61.805525 111.225123 
L 55.08191 96.246619 
L 48.358295 105.795575 
L 41.63468 92.334398 
L 34.911065 86.010684 
L 28.187451 89.421721 
L 14.740221 97.00423 
L 8.016606 104.22087 
L 1.292991 99.424985 
L -1 100.865934 
L -1 100.865934 
" clip-path="url(#p3eec4c6fad)" style="fill: none; stroke: #ff8c00; stroke-width: 1.5; stroke-linecap: square"/>
   </g>
   <g id="patch_3">
    <path d="M 45.716875 220.944578 
L 45.716875 7.2 
" style="fill: none; stroke: #000000; stroke-width: 0.8; stroke-linejoin: miter; stroke-linecap: square"/>
   </g>
   <g id="patch_4">
    <path d="M 492.116875 220.944578 
L 492.116875 7.2 
" style="fill: none; stroke: #000000; stroke-width: 0.8; stroke-linejoin: miter; stroke-linecap: square"/>
   </g>
   <g id="patch_5">
    <path d="M 45.716875 220.944578 
L 492.116875 220.944578 
" style="fill: none; stroke: #000000; stroke-width: 0.8; stroke-linejoin: miter; stroke-linecap: square"/>
   </g>
   <g id="patch_6">
    <path d="M 45.716875 7.2 
L 492.116875 7.2 
" style="fill: none; stroke: #000000; stroke-width: 0.8; stroke-linejoin: miter; stroke-linecap: square"/>
   </g>
   <g id="text_7">
    <!-- 3 periods -->
    <g transform="translate(238.621797 33.261687) scale(0.13 -0.13)">
     <defs>
      <path id="DejaVuSans-33" d="M 2597 2516 
Q 3050 2419 3304 2112 
Q 3559 1806 3559 1356 
Q 3559 666 3084 287 
Q 2609 -91 1734 -91 
Q 1441 -91 1130 -33 
Q 819 25 488 141 
L 488 750 
Q 750 597 1062 519 
Q 1375 441 1716 441 
Q 2309 441 2620 675 
Q 2931 909 2931 1356 
Q 2931 1769 2642 2001 
Q 2353 2234 1838 2234 
L 1294 2234 
L 1294 2753 
L 1863 2753 
Q 2328 2753 2575 2939 
Q 2822 3125 2822 3475 
Q 2822 3834 2567 4026 
Q 2313 4219 1838 4219 
Q 1578 4219 1281 4162 
Q 984 4106 628 3988 
L 628 4550 
Q 988 4650 1302 4700 
Q 1616 4750 1894 4750 
Q 2613 4750 3031 4423 
Q 3450 4097 3450 3541 
Q 3450 3153 3228 2886 
Q 3006 2619 2597 2516 
z
" transform="scale(0.015625)"/>
      <path id="DejaVuSans-20" transform="scale(0.015625)"/>
      <path id="DejaVuSans-70" d="M 1159 525 
L 1159 -1331 
L 581 -1331 
L 581 3500 
L 1159 3500 
L 1159 2969 
Q 1341 3281 1617 3432 
Q 1894 3584 2278 3584 
Q 2916 3584 3314 3078 
Q 3713 2572 3713 1747 
Q 3713 922 3314 415 
Q 2916 -91 2278 -91 
Q 1894 -91 1617 61 
Q 1341 213 1159 525 
z
M 3116 1747 
Q 3116 2381 2855 2742 
Q 2594 3103 2138 3103 
Q 1681 3103 1420 2742 
Q 1159 2381 1159 1747 
Q 1159 1113 1420 752 
Q 1681 391 2138 391 
Q 2594 391 2855 752 
Q 3116 1113 3116 1747 
z
" transform="scale(0.015625)"/>
      <path id="DejaVuSans-65" d="M 3597 1894 
L 3597 1613 
L 953 1613 
Q 991 1019 1311 708 
Q 1631 397 2203 397 
Q 2534 397 2845 478 
Q 3156 559 3463 722 
L 3463 178 
Q 3153 47 2828 -22 
Q 2503 -91 2169 -91 
Q 1331 -91 842 396 
Q 353 884 353 1716 
Q 353 2575 817 3079 
Q 1281 3584 2069 3584 
Q 2775 3584 3186 3129 
Q 3597 2675 3597 1894 
z
M 3022 2063 
Q 3016 2534 2758 2815 
Q 2500 3097 2075 3097 
Q 1594 3097 1305 2825 
Q 1016 2553 972 2059 
L 3022 2063 
z
" transform="scale(0.015625)"/>
      <path id="DejaVuSans-72" d="M 2631 2963 
Q 2534 3019 2420 3045 
Q 2306 3072 2169 3072 
Q 1681 3072 1420 2755 
Q 1159 2438 1159 1844 
L 1159 0 
L 581 0 
L 581 3500 
L 1159 3500 
L 1159 2956 
Q 1341 3275 1631 3429 
Q 1922 3584 2338 3584 
Q 2397 3584 2469 3576 
Q 2541 3569 2628 3553 
L 2631 2963 
z
" transform="scale(0.015625)"/>
      <path id="DejaVuSans-69" d="M 603 3500 
L 1178 3500 
L 1178 0 
L 603 0 
L 603 3500 
z
M 603 4863 
L 1178 4863 
L 1178 4134 
L 603 4134 
L 603 4863 
z
" transform="scale(0.015625)"/>
      <path id="DejaVuSans-6f" d="M 1959 3097 
Q 1497 3097 1228 2736 
Q 959 2375 959 1747 
Q 959 1119 1226 758 
Q 1494 397 1959 397 
Q 2419 397 2687 759 
Q 2956 1122 2956 1747 
Q 2956 2369 2687 2733 
Q 2419 3097 1959 3097 
z
M 1959 3584 
Q 2709 3584 3137 3096 
Q 3566 2609 3566 1747 
Q 3566 888 3137 398 
Q 2709 -91 1959 -91 
Q 1206 -91 779 398 
Q 353 888 353 1747 
Q 353 2609 779 3096 
Q 1206 3584 1959 3584 
z
" transform="scale(0.015625)"/>
      <path id="DejaVuSans-64" d="M 2906 2969 
L 2906 4863 
L 3481 4863 
L 3481 0 
L 2906 0 
L 2906 525 
Q 2725 213 2448 61 
Q 2172 -91 1784 -91 
Q 1150 -91 751 415 
Q 353 922 353 1747 
Q 353 2572 751 3078 
Q 1150 3584 1784 3584 
Q 2172 3584 2448 3432 
Q 2725 3281 2906 2969 
z
M 947 1747 
Q 947 1113 1208 752 
Q 1469 391 1925 391 
Q 2381 391 2643 752 
Q 2906 1113 2906 1747 
Q 2906 2381 2643 2742 
Q 2381 3103 1925 3103 
Q 1469 3103 1208 2742 
Q 947 2381 947 1747 
z
" transform="scale(0.015625)"/>
      <path id="DejaVuSans-73" d="M 2834 3397 
L 2834 2853 
Q 2591 2978 2328 3040 
Q 2066 3103 1784 3103 
Q 1356 3103 1142 2972 
Q 928 2841 928 2578 
Q 928 2378 1081 2264 
Q 1234 2150 1697 2047 
L 1894 2003 
Q 2506 1872 2764 1633 
Q 3022 1394 3022 966 
Q 3022 478 2636 193 
Q 2250 -91 1575 -91 
Q 1294 -91 989 -36 
Q 684 19 347 128 
L 347 722 
Q 666 556 975 473 
Q 1284 391 1588 391 
Q 1994 391 2212 530 
Q 2431 669 2431 922 
Q 2431 1156 2273 1281 
Q 2116 1406 1581 1522 
L 1381 1569 
Q 847 1681 609 1914 
Q 372 2147 372 2553 
Q 372 3047 722 3315 
Q 1072 3584 1716 3584 
Q 2034 3584 2315 3537 
Q 2597 3491 2834 3397 
z
" transform="scale(0.015625)"/>
     </defs>
     <use xlink:href="#DejaVuSans-33"/>
     <use xlink:href="#DejaVuSans-20" x="63.623047"/>
     <use xlink:href="#DejaVuSans-70" x="95.410156"/>
     <use xlink:href="#DejaVuSans-65" x="158.886719"/>
     <use xlink:href="#DejaVuSans-72" x="220.410156"/>
     <use xlink:href="#DejaVuSans-69" x="261.523438"/>
     <use xlink:href="#DejaVuSans-6f" x="289.306641"/>
     <use xlink:href="#DejaVuSans-64" x="350.488281"/>
     <use xlink:href="#DejaVuSans-73" x="413.964844"/>
    </g>
   </g>
   <g id="legend_1">
    <g id="patch_7">
     <path d="M 52.716875 59.234375 
L 154.1575 59.234375 
Q 156.1575 59.234375 156.1575 57.234375 
L 156.1575 14.2 
Q 156.1575 12.2 154.1575 12.2 
L 52.716875 12.2 
Q 50.716875 12.2 50.716875 14.2 
L 50.716875 57.234375 
Q 50.716875 59.234375 52.716875 59.234375 
z
" style="fill: #ffffff; opacity: 0.8; stroke: #cccccc; stroke-linejoin: miter"/>
    </g>
    <g id="line2d_26">
     <path d="M 54.716875 20.298437 
L 64.716875 20.298437 
L 74.716875 20.298437 
" style="fill: none; stroke: #8b0000; stroke-width: 1.5; stroke-linecap: square"/>
    </g>
    <g id="text_8">
     <!-- Benchmark -->
     <g transform="translate(82.716875 23.798437) scale(0.1 -0.1)">
      <defs>
       <path id="DejaVuSans-42" d="M 1259 2228 
L 1259 519 
L 2272 519 
Q 2781 519 3026 730 
Q 3272 941 3272 1375 
Q 3272 1813 3026 2020 
Q 2781 2228 2272 2228 
L 1259 2228 
z
M 1259 4147 
L 1259 2741 
L 2194 2741 
Q 2656 2741 2882 2914 
Q 3109 3088 3109 3444 
Q 3109 3797 2882 3972 
Q 2656 4147 2194 4147 
L 1259 4147 
z
M 628 4666 
L 2241 4666 
Q 2963 4666 3353 4366 
Q 3744 4066 3744 3513 
Q 3744 3084 3544 2831 
Q 3344 2578 2956 2516 
Q 3422 2416 3680 2098 
Q 3938 1781 3938 1306 
Q 3938 681 3513 340 
Q 3088 0 2303 0 
L 628 0 
L 628 4666 
z
" transform="scale(0.015625)"/>
       <path id="DejaVuSans-6e" d="M 3513 2113 
L 3513 0 
L 2938 0 
L 2938 2094 
Q 2938 2591 2744 2837 
Q 2550 3084 2163 3084 
Q 1697 3084 1428 2787 
Q 1159 2491 1159 1978 
L 1159 0 
L 581 0 
L 581 3500 
L 1159 3500 
L 1159 2956 
Q 1366 3272 1645 3428 
Q 1925 3584 2291 3584 
Q 2894 3584 3203 3211 
Q 3513 2838 3513 2113 
z
" transform="scale(0.015625)"/>
       <path id="DejaVuSans-63" d="M 3122 3366 
L 3122 2828 
Q 2878 2963 2633 3030 
Q 2388 3097 2138 3097 
Q 1578 3097 1268 2742 
Q 959 2388 959 1747 
Q 959 1106 1268 751 
Q 1578 397 2138 397 
Q 2388 397 2633 464 
Q 2878 531 3122 666 
L 3122 134 
Q 2881 22 2623 -34 
Q 2366 -91 2075 -91 
Q 1284 -91 818 406 
Q 353 903 353 1747 
Q 353 2603 823 3093 
Q 1294 3584 2113 3584 
Q 2378 3584 2631 3529 
Q 2884 3475 3122 3366 
z
" transform="scale(0.015625)"/>
       <path id="DejaVuSans-68" d="M 3513 2113 
L 3513 0 
L 2938 0 
L 2938 2094 
Q 2938 2591 2744 2837 
Q 2550 3084 2163 3084 
Q 1697 3084 1428 2787 
Q 1159 2491 1159 1978 
L 1159 0 
L 581 0 
L 581 4863 
L 1159 4863 
L 1159 2956 
Q 1366 3272 1645 3428 
Q 1925 3584 2291 3584 
Q 2894 3584 3203 3211 
Q 3513 2838 3513 2113 
z
" transform="scale(0.015625)"/>
       <path id="DejaVuSans-6d" d="M 3328 2828 
Q 3544 3216 3844 3400 
Q 4144 3584 4550 3584 
Q 5097 3584 5394 3201 
Q 5691 2819 5691 2113 
L 5691 0 
L 5113 0 
L 5113 2094 
Q 5113 2597 4934 2840 
Q 4756 3084 4391 3084 
Q 3944 3084 3684 2787 
Q 3425 2491 3425 1978 
L 3425 0 
L 2847 0 
L 2847 2094 
Q 2847 2600 2669 2842 
Q 2491 3084 2119 3084 
Q 1678 3084 1418 2786 
Q 1159 2488 1159 1978 
L 1159 0 
L 581 0 
L 581 3500 
L 1159 3500 
L 1159 2956 
Q 1356 3278 1631 3431 
Q 1906 3584 2284 3584 
Q 2666 3584 2933 3390 
Q 3200 3197 3328 2828 
z
" transform="scale(0.015625)"/>
       <path id="DejaVuSans-61" d="M 2194 1759 
Q 1497 1759 1228 1600 
Q 959 1441 959 1056 
Q 959 750 1161 570 
Q 1363 391 1709 391 
Q 2188 391 2477 730 
Q 2766 1069 2766 1631 
L 2766 1759 
L 2194 1759 
z
M 3341 1997 
L 3341 0 
L 2766 0 
L 2766 531 
Q 2569 213 2275 61 
Q 1981 -91 1556 -91 
Q 1019 -91 701 211 
Q 384 513 384 1019 
Q 384 1609 779 1909 
Q 1175 2209 1959 2209 
L 2766 2209 
L 2766 2266 
Q 2766 2663 2505 2880 
Q 2244 3097 1772 3097 
Q 1472 3097 1187 3025 
Q 903 2953 641 2809 
L 641 3341 
Q 956 3463 1253 3523 
Q 1550 3584 1831 3584 
Q 2591 3584 2966 3190 
Q 3341 2797 3341 1997 
z
" transform="scale(0.015625)"/>
       <path id="DejaVuSans-6b" d="M 581 4863 
L 1159 4863 
L 1159 1991 
L 2875 3500 
L 3609 3500 
L 1753 1863 
L 3688 0 
L 2938 0 
L 1159 1709 
L 1159 0 
L 581 0 
L 581 4863 
z
" transform="scale(0.015625)"/>
      </defs>
      <use xlink:href="#DejaVuSans-42"/>
      <use xlink:href="#DejaVuSans-65" x="68.603516"/>
      <use xlink:href="#DejaVuSans-6e" x="130.126953"/>
      <use xlink:href="#DejaVuSans-63" x="193.505859"/>
      <use xlink:href="#DejaVuSans-68" x="248.486328"/>
      <use xlink:href="#DejaVuSans-6d" x="311.865234"/>
      <use xlink:href="#DejaVuSans-61" x="409.277344"/>
      <use xlink:href="#DejaVuSans-72" x="470.556641"/>
      <use xlink:href="#DejaVuSans-6b" x="511.669922"/>
     </g>
    </g>
    <g id="line2d_27">
     <path d="M 54.716875 34.976562 
L 64.716875 34.976562 
L 74.716875 34.976562 
" style="fill: none; stroke: #008b8b; stroke-width: 1.5; stroke-linecap: square"/>
    </g>
    <g id="text_9">
     <!-- RtT -->
     <g transform="translate(82.716875 38.476562) scale(0.1 -0.1)">
      <defs>
       <path id="DejaVuSans-52" d="M 2841 2188 
Q 3044 2119 3236 1894 
Q 3428 1669 3622 1275 
L 4263 0 
L 3584 0 
L 2988 1197 
Q 2756 1666 2539 1819 
Q 2322 1972 1947 1972 
L 1259 1972 
L 1259 0 
L 628 0 
L 628 4666 
L 2053 4666 
Q 2853 4666 3247 4331 
Q 3641 3997 3641 3322 
Q 3641 2881 3436 2590 
Q 3231 2300 2841 2188 
z
M 1259 4147 
L 1259 2491 
L 2053 2491 
Q 2509 2491 2742 2702 
Q 2975 2913 2975 3322 
Q 2975 3731 2742 3939 
Q 2509 4147 2053 4147 
L 1259 4147 
z
" transform="scale(0.015625)"/>
       <path id="DejaVuSans-74" d="M 1172 4494 
L 1172 3500 
L 2356 3500 
L 2356 3053 
L 1172 3053 
L 1172 1153 
Q 1172 725 1289 603 
Q 1406 481 1766 481 
L 2356 481 
L 2356 0 
L 1766 0 
Q 1100 0 847 248 
Q 594 497 594 1153 
L 594 3053 
L 172 3053 
L 172 3500 
L 594 3500 
L 594 4494 
L 1172 4494 
z
" transform="scale(0.015625)"/>
       <path id="DejaVuSans-54" d="M -19 4666 
L 3928 4666 
L 3928 4134 
L 2272 4134 
L 2272 0 
L 1638 0 
L 1638 4134 
L -19 4134 
L -19 4666 
z
" transform="scale(0.015625)"/>
      </defs>
      <use xlink:href="#DejaVuSans-52"/>
      <use xlink:href="#DejaVuSans-74" x="69.482422"/>
      <use xlink:href="#DejaVuSans-54" x="108.691406"/>
     </g>
    </g>
    <g id="line2d_28">
     <path d="M 54.716875 49.654687 
L 64.716875 49.654687 
L 74.716875 49.654687 
" style="fill: none; stroke: #ff8c00; stroke-width: 1.5; stroke-linecap: square"/>
    </g>
    <g id="text_10">
     <!-- Compensated -->
     <g transform="translate(82.716875 53.154687) scale(0.1 -0.1)">
      <defs>
       <path id="DejaVuSans-43" d="M 4122 4306 
L 4122 3641 
Q 3803 3938 3442 4084 
Q 3081 4231 2675 4231 
Q 1875 4231 1450 3742 
Q 1025 3253 1025 2328 
Q 1025 1406 1450 917 
Q 1875 428 2675 428 
Q 3081 428 3442 575 
Q 3803 722 4122 1019 
L 4122 359 
Q 3791 134 3420 21 
Q 3050 -91 2638 -91 
Q 1578 -91 968 557 
Q 359 1206 359 2328 
Q 359 3453 968 4101 
Q 1578 4750 2638 4750 
Q 3056 4750 3426 4639 
Q 3797 4528 4122 4306 
z
" transform="scale(0.015625)"/>
      </defs>
      <use xlink:href="#DejaVuSans-43"/>
      <use xlink:href="#DejaVuSans-6f" x="69.824219"/>
      <use xlink:href="#DejaVuSans-6d" x="131.005859"/>
      <use xlink:href="#DejaVuSans-70" x="228.417969"/>
      <use xlink:href="#DejaVuSans-65" x="291.894531"/>
      <use xlink:href="#DejaVuSans-6e" x="353.417969"/>
      <use xlink:href="#DejaVuSans-73" x="416.796875"/>
      <use xlink:href="#DejaVuSans-61" x="468.896484"/>
      <use xlink:href="#DejaVuSans-74" x="530.175781"/>
      <use xlink:href="#DejaVuSans-65" x="569.384766"/>
      <use xlink:href="#DejaVuSans-64" x="630.908203"/>
     </g>
    </g>
   </g>
  </g>
  <g id="axes_2">
   <g id="patch_8">
    <path d="M 45.716875 445.376386 
L 492.116875 445.376386 
L 492.116875 231.631807 
L 45.716875 231.631807 
L 45.716875 445.376386 
z
" style="fill: none"/>
   </g>
   <g id="matplotlib.axis_3">
    <g id="xtick_7">
     <g id="line2d_29">
      <path d="M 45.716875 445.376386 
L 45.716875 231.631807 
" clip-path="url(#p9484d1773f)" style="fill: none; stroke-dasharray: 0.5,0.825; stroke-dashoffset: 0; stroke: #808080; stroke-width: 0.5"/>
     </g>
     <g id="line2d_30">
      <g>
       <use xlink:href="#mdca42a55e2" x="45.716875" y="445.376386" style="stroke: #000000; stroke-width: 0.8"/>
      </g>
     </g>
    </g>
    <g id="xtick_8">
     <g id="line2d_31">
      <path d="M 133.363997 445.376386 
L 133.363997 231.631807 
" clip-path="url(#p9484d1773f)" style="fill: none; stroke-dasharray: 0.5,0.825; stroke-dashoffset: 0; stroke: #808080; stroke-width: 0.5"/>
     </g>
     <g id="line2d_32">
      <g>
       <use xlink:href="#mdca42a55e2" x="133.363997" y="445.376386" style="stroke: #000000; stroke-width: 0.8"/>
      </g>
     </g>
    </g>
    <g id="xtick_9">
     <g id="line2d_33">
      <path d="M 221.011119 445.376386 
L 221.011119 231.631807 
" clip-path="url(#p9484d1773f)" style="fill: none; stroke-dasharray: 0.5,0.825; stroke-dashoffset: 0; stroke: #808080; stroke-width: 0.5"/>
     </g>
     <g id="line2d_34">
      <g>
       <use xlink:href="#mdca42a55e2" x="221.011119" y="445.376386" style="stroke: #000000; stroke-width: 0.8"/>
      </g>
     </g>
    </g>
    <g id="xtick_10">
     <g id="line2d_35">
      <path d="M 308.89837 445.376386 
L 308.89837 231.631807 
" clip-path="url(#p9484d1773f)" style="fill: none; stroke-dasharray: 0.5,0.825; stroke-dashoffset: 0; stroke: #808080; stroke-width: 0.5"/>
     </g>
     <g id="line2d_36">
      <g>
       <use xlink:href="#mdca42a55e2" x="308.89837" y="445.376386" style="stroke: #000000; stroke-width: 0.8"/>
      </g>
     </g>
    </g>
    <g id="xtick_11">
     <g id="line2d_37">
      <path d="M 396.545493 445.376386 
L 396.545493 231.631807 
" clip-path="url(#p9484d1773f)" style="fill: none; stroke-dasharray: 0.5,0.825; stroke-dashoffset: 0; stroke: #808080; stroke-width: 0.5"/>
     </g>
     <g id="line2d_38">
      <g>
       <use xlink:href="#mdca42a55e2" x="396.545493" y="445.376386" style="stroke: #000000; stroke-width: 0.8"/>
      </g>
     </g>
    </g>
    <g id="xtick_12">
     <g id="line2d_39">
      <path d="M 484.192615 445.376386 
L 484.192615 231.631807 
" clip-path="url(#p9484d1773f)" style="fill: none; stroke-dasharray: 0.5,0.825; stroke-dashoffset: 0; stroke: #808080; stroke-width: 0.5"/>
     </g>
     <g id="line2d_40">
      <g>
       <use xlink:href="#mdca42a55e2" x="484.192615" y="445.376386" style="stroke: #000000; stroke-width: 0.8"/>
      </g>
     </g>
    </g>
   </g>
   <g id="matplotlib.axis_4">
    <g id="ytick_6">
     <g id="line2d_41">
      <path d="M 45.716875 439.690717 
L 492.116875 439.690717 
" clip-path="url(#p9484d1773f)" style="fill: none; stroke-dasharray: 0.5,0.825; stroke-dashoffset: 0; stroke: #808080; stroke-width: 0.5"/>
     </g>
     <g id="line2d_42">
      <g>
       <use xlink:href="#md5597e395d" x="45.716875" y="439.690717" style="stroke: #000000; stroke-width: 0.8"/>
      </g>
     </g>
     <g id="text_11">
      <!-- 0.8 -->
      <g transform="translate(22.81375 443.489935) scale(0.1 -0.1)">
       <use xlink:href="#DejaVuSans-30"/>
       <use xlink:href="#DejaVuSans-2e" x="63.623047"/>
       <use xlink:href="#DejaVuSans-38" x="95.410156"/>
      </g>
     </g>
    </g>
    <g id="ytick_7">
     <g id="line2d_43">
      <path d="M 45.716875 397.785129 
L 492.116875 397.785129 
" clip-path="url(#p9484d1773f)" style="fill: none; stroke-dasharray: 0.5,0.825; stroke-dashoffset: 0; stroke: #808080; stroke-width: 0.5"/>
     </g>
     <g id="line2d_44">
      <g>
       <use xlink:href="#md5597e395d" x="45.716875" y="397.785129" style="stroke: #000000; stroke-width: 0.8"/>
      </g>
     </g>
     <g id="text_12">
      <!-- 1.0 -->
      <g transform="translate(22.81375 401.584348) scale(0.1 -0.1)">
       <use xlink:href="#DejaVuSans-31"/>
       <use xlink:href="#DejaVuSans-2e" x="63.623047"/>
       <use xlink:href="#DejaVuSans-30" x="95.410156"/>
      </g>
     </g>
    </g>
    <g id="ytick_8">
     <g id="line2d_45">
      <path d="M 45.716875 355.879541 
L 492.116875 355.879541 
" clip-path="url(#p9484d1773f)" style="fill: none; stroke-dasharray: 0.5,0.825; stroke-dashoffset: 0; stroke: #808080; stroke-width: 0.5"/>
     </g>
     <g id="line2d_46">
      <g>
       <use xlink:href="#md5597e395d" x="45.716875" y="355.879541" style="stroke: #000000; stroke-width: 0.8"/>
      </g>
     </g>
     <g id="text_13">
      <!-- 1.2 -->
      <g transform="translate(22.81375 359.67876) scale(0.1 -0.1)">
       <use xlink:href="#DejaVuSans-31"/>
       <use xlink:href="#DejaVuSans-2e" x="63.623047"/>
       <use xlink:href="#DejaVuSans-32" x="95.410156"/>
      </g>
     </g>
    </g>
    <g id="ytick_9">
     <g id="line2d_47">
      <path d="M 45.716875 313.973953 
L 492.116875 313.973953 
" clip-path="url(#p9484d1773f)" style="fill: none; stroke-dasharray: 0.5,0.825; stroke-dashoffset: 0; stroke: #808080; stroke-width: 0.5"/>
     </g>
     <g id="line2d_48">
      <g>
       <use xlink:href="#md5597e395d" x="45.716875" y="313.973953" style="stroke: #000000; stroke-width: 0.8"/>
      </g>
     </g>
     <g id="text_14">
      <!-- 1.4 -->
      <g transform="translate(22.81375 317.773172) scale(0.1 -0.1)">
       <defs>
        <path id="DejaVuSans-34" d="M 2419 4116 
L 825 1625 
L 2419 1625 
L 2419 4116 
z
M 2253 4666 
L 3047 4666 
L 3047 1625 
L 3713 1625 
L 3713 1100 
L 3047 1100 
L 3047 0 
L 2419 0 
L 2419 1100 
L 313 1100 
L 313 1709 
L 2253 4666 
z
" transform="scale(0.015625)"/>
       </defs>
       <use xlink:href="#DejaVuSans-31"/>
       <use xlink:href="#DejaVuSans-2e" x="63.623047"/>
       <use xlink:href="#DejaVuSans-34" x="95.410156"/>
      </g>
     </g>
    </g>
    <g id="ytick_10">
     <g id="line2d_49">
      <path d="M 45.716875 272.068365 
L 492.116875 272.068365 
" clip-path="url(#p9484d1773f)" style="fill: none; stroke-dasharray: 0.5,0.825; stroke-dashoffset: 0; stroke: #808080; stroke-width: 0.5"/>
     </g>
     <g id="line2d_50">
      <g>
       <use xlink:href="#md5597e395d" x="45.716875" y="272.068365" style="stroke: #000000; stroke-width: 0.8"/>
      </g>
     </g>
     <g id="text_15">
      <!-- 1.6 -->
      <g transform="translate(22.81375 275.867584) scale(0.1 -0.1)">
       <defs>
        <path id="DejaVuSans-36" d="M 2113 2584 
Q 1688 2584 1439 2293 
Q 1191 2003 1191 1497 
Q 1191 994 1439 701 
Q 1688 409 2113 409 
Q 2538 409 2786 701 
Q 3034 994 3034 1497 
Q 3034 2003 2786 2293 
Q 2538 2584 2113 2584 
z
M 3366 4563 
L 3366 3988 
Q 3128 4100 2886 4159 
Q 2644 4219 2406 4219 
Q 1781 4219 1451 3797 
Q 1122 3375 1075 2522 
Q 1259 2794 1537 2939 
Q 1816 3084 2150 3084 
Q 2853 3084 3261 2657 
Q 3669 2231 3669 1497 
Q 3669 778 3244 343 
Q 2819 -91 2113 -91 
Q 1303 -91 875 529 
Q 447 1150 447 2328 
Q 447 3434 972 4092 
Q 1497 4750 2381 4750 
Q 2619 4750 2861 4703 
Q 3103 4656 3366 4563 
z
" transform="scale(0.015625)"/>
       </defs>
       <use xlink:href="#DejaVuSans-31"/>
       <use xlink:href="#DejaVuSans-2e" x="63.623047"/>
       <use xlink:href="#DejaVuSans-36" x="95.410156"/>
      </g>
     </g>
    </g>
    <g id="text_16">
     <!-- $S_t/S_{t-T}$ -->
     <g transform="translate(16.318125 359.504096) rotate(-90) scale(0.12 -0.12)">
      <use xlink:href="#DejaVuSans-Oblique-53" transform="translate(0 0.78125)"/>
      <use xlink:href="#DejaVuSans-Oblique-74" transform="translate(63.476562 -15.625) scale(0.7)"/>
      <use xlink:href="#DejaVuSans-2f" transform="translate(93.657227 0.78125)"/>
      <use xlink:href="#DejaVuSans-Oblique-53" transform="translate(127.348633 0.78125)"/>
      <use xlink:href="#DejaVuSans-Oblique-74" transform="translate(190.825195 -15.625) scale(0.7)"/>
      <use xlink:href="#DejaVuSans-2212" transform="translate(231.90918 -15.625) scale(0.7)"/>
      <use xlink:href="#DejaVuSans-Oblique-54" transform="translate(304.199219 -15.625) scale(0.7)"/>
     </g>
    </g>
   </g>
   <g id="line2d_51">
    <path d="M 505.117615 399.572446 
L 498.84049 397.959841 
L 492.116875 409.598728 
L 485.39326 396.653036 
L 478.669645 407.755408 
L 471.94603 414.339598 
L 465.222416 412.594901 
L 458.498801 435.660723 
L 451.775186 417.73133 
L 445.051571 403.101575 
L 438.327956 413.103212 
L 431.604341 413.95002 
L 424.880727 399.638502 
L 418.157112 402.312388 
L 411.433497 384.745756 
L 404.709882 386.846195 
L 397.986267 373.059142 
L 391.262652 365.5127 
L 384.539037 367.343001 
L 377.815423 351.600661 
L 371.091808 351.940046 
L 364.368193 341.498509 
L 357.644578 333.373824 
L 350.920963 333.083159 
L 344.197348 326.593604 
L 337.473734 309.339197 
L 330.750119 314.186631 
L 324.026504 302.022869 
L 317.302889 274.964261 
L 310.579274 331.068921 
L 303.855659 355.167255 
L 297.132044 365.826146 
L 290.40843 366.677271 
L 283.684815 374.60219 
L 276.9612 372.835778 
L 270.237585 373.310365 
L 263.51397 368.80321 
L 256.790355 394.30671 
L 250.066741 392.203414 
L 243.343126 397.633871 
L 236.619511 429.669089 
L 229.895896 391.877737 
L 223.172281 361.847583 
L 216.448666 360.780402 
L 209.725051 356.444016 
L 203.001437 357.906353 
L 196.277822 375.184013 
L 189.554207 375.646639 
L 182.830592 398.646183 
L 176.106977 385.839832 
L 169.383362 385.990637 
L 162.659748 391.522927 
L 155.936133 382.725234 
L 149.212518 382.862323 
L 142.488903 388.380373 
L 135.765288 397.47017 
L 129.041673 395.996733 
L 122.318058 407.232774 
L 115.594444 392.772488 
L 108.870829 387.988144 
L 102.147214 373.609403 
L 95.423599 369.200533 
L 88.699984 366.79385 
L 81.976369 372.139431 
L 75.252755 366.361348 
L 68.52914 370.916352 
L 61.805525 368.9471 
L 55.08191 354.88211 
L 48.358295 364.349839 
L 41.63468 351.018512 
L 34.911065 353.873683 
L 28.187451 354.514483 
L 21.463836 349.148117 
L 14.740221 354.866465 
L 8.016606 363.611062 
L 1.292991 362.023859 
L -1 363.92522 
L -1 363.92522 
" clip-path="url(#p9484d1773f)" style="fill: none; stroke: #8b0000; stroke-width: 1.5; stroke-linecap: square"/>
   </g>
   <g id="line2d_52">
    <path d="M 505.117615 387.618089 
L 498.84049 375.045712 
L 492.116875 372.762954 
L 485.39326 360.135245 
L 478.669645 380.764875 
L 471.94603 387.985949 
L 465.222416 388.557064 
L 458.498801 412.14137 
L 451.775186 391.139591 
L 445.051571 378.488636 
L 438.327956 394.825819 
L 431.604341 394.910274 
L 424.880727 387.310066 
L 418.157112 393.509025 
L 411.433497 377.938828 
L 404.709882 376.586349 
L 397.986267 347.378538 
L 391.262652 315.227514 
L 384.539037 323.968633 
L 377.815423 312.93491 
L 371.091808 318.642998 
L 364.368193 303.893451 
L 357.644578 278.293832 
L 350.920963 289.14167 
L 344.197348 274.094704 
L 337.473734 251.312151 
L 330.750119 268.274591 
L 324.026504 268.663104 
L 317.302889 241.34747 
L 310.579274 329.140324 
L 303.855659 356.851105 
L 297.132044 364.994245 
L 290.40843 366.611886 
L 283.684815 372.325901 
L 276.9612 383.030229 
L 270.237585 376.915391 
L 263.51397 374.021759 
L 256.790355 404.288378 
L 250.066741 394.754051 
L 243.343126 393.128351 
L 236.619511 429.314581 
L 223.172281 341.680961 
L 216.448666 342.330962 
L 209.725051 331.652314 
L 203.001437 340.001176 
L 196.277822 359.883568 
L 189.554207 361.400091 
L 182.830592 389.21881 
L 176.106977 371.489369 
L 169.383362 366.639305 
L 162.659748 374.794138 
L 155.936133 364.281613 
L 149.212518 365.826695 
L 142.488903 374.154308 
L 135.765288 387.514509 
L 129.041673 380.438173 
L 122.318058 389.089795 
L 115.594444 367.878276 
L 108.870829 357.931943 
L 102.147214 335.931128 
L 95.423599 326.116622 
L 88.699984 330.02413 
L 81.976369 337.884419 
L 75.252755 330.682132 
L 68.52914 338.851007 
L 61.805525 334.763391 
L 55.08191 315.155165 
L 48.358295 339.968254 
L 41.63468 317.902899 
L 34.911065 316.33478 
L 28.187451 324.507606 
L 21.463836 320.594369 
L 14.740221 321.678891 
L 8.016606 336.328513 
L 1.292991 334.094784 
L -1 338.058033 
L -1 338.058033 
" clip-path="url(#p9484d1773f)" style="fill: none; stroke: #008b8b; stroke-width: 1.5; stroke-linecap: square"/>
   </g>
   <g id="line2d_53">
    <path d="M 505.117615 389.297426 
L 498.84049 381.143626 
L 492.116875 374.410868 
L 485.39326 370.569897 
L 478.669645 380.343091 
L 471.94603 383.155881 
L 465.222416 383.133894 
L 458.498801 391.790664 
L 451.775186 383.363145 
L 445.051571 379.602824 
L 438.327956 388.187525 
L 431.604341 387.776474 
L 424.880727 387.024826 
L 418.157112 390.763257 
L 411.433497 386.342986 
L 404.709882 384.227562 
L 397.986267 369.237412 
L 391.262652 349.935756 
L 384.539037 355.532345 
L 377.815423 354.386993 
L 371.091808 358.620817 
L 364.368193 352.514409 
L 357.644578 339.327723 
L 350.920963 346.112252 
L 344.197348 340.195621 
L 337.473734 332.921356 
L 330.750119 341.86947 
L 324.026504 345.641231 
L 317.302889 337.198133 
L 310.579274 369.175545 
L 303.855659 380.28122 
L 297.132044 381.796901 
L 290.40843 381.951554 
L 283.684815 384.018236 
L 276.9612 391.230565 
L 270.237585 387.012317 
L 263.51397 386.028266 
L 256.790355 399.7721 
L 250.066741 392.449997 
L 243.343126 390.419701 
L 236.619511 408.005905 
L 229.895896 390.907087 
L 223.172281 371.213631 
L 216.448666 372.377219 
L 209.725051 366.40678 
L 203.001437 371.108015 
L 196.277822 379.768407 
L 189.554207 380.691268 
L 182.830592 392.648634 
L 176.106977 383.708056 
L 169.383362 379.830373 
L 162.659748 382.731688 
L 155.936133 377.74331 
L 149.212518 378.599443 
L 142.488903 381.856137 
L 135.765288 388.171368 
L 129.041673 383.995787 
L 122.318058 385.799777 
L 115.594444 376.48445 
L 108.870829 371.198857 
L 102.147214 361.196524 
L 95.423599 356.336511 
L 88.699984 360.249052 
L 81.976369 363.733642 
L 75.252755 362.196236 
L 68.52914 366.242512 
L 61.805525 364.735109 
L 55.08191 356.351082 
L 48.358295 369.35902 
L 41.63468 360.268977 
L 34.911065 357.631399 
L 28.187451 363.601499 
L 21.463836 362.79105 
L 14.740221 359.915971 
L 8.016606 366.533069 
L 1.292991 365.64625 
L -1 367.454805 
L -1 367.454805 
" clip-path="url(#p9484d1773f)" style="fill: none; stroke: #ff8c00; stroke-width: 1.5; stroke-linecap: square"/>
   </g>
   <g id="patch_9">
    <path d="M 45.716875 445.376386 
L 45.716875 231.631807 
" style="fill: none; stroke: #000000; stroke-width: 0.8; stroke-linejoin: miter; stroke-linecap: square"/>
   </g>
   <g id="patch_10">
    <path d="M 492.116875 445.376386 
L 492.116875 231.631807 
" style="fill: none; stroke: #000000; stroke-width: 0.8; stroke-linejoin: miter; stroke-linecap: square"/>
   </g>
   <g id="patch_11">
    <path d="M 45.716875 445.376386 
L 492.116875 445.376386 
" style="fill: none; stroke: #000000; stroke-width: 0.8; stroke-linejoin: miter; stroke-linecap: square"/>
   </g>
   <g id="patch_12">
    <path d="M 45.716875 231.631807 
L 492.116875 231.631807 
" style="fill: none; stroke: #000000; stroke-width: 0.8; stroke-linejoin: miter; stroke-linecap: square"/>
   </g>
   <g id="text_17">
    <!-- 12 periods -->
    <g transform="translate(234.486172 257.693494) scale(0.13 -0.13)">
     <use xlink:href="#DejaVuSans-31"/>
     <use xlink:href="#DejaVuSans-32" x="63.623047"/>
     <use xlink:href="#DejaVuSans-20" x="127.246094"/>
     <use xlink:href="#DejaVuSans-70" x="159.033203"/>
     <use xlink:href="#DejaVuSans-65" x="222.509766"/>
     <use xlink:href="#DejaVuSans-72" x="284.033203"/>
     <use xlink:href="#DejaVuSans-69" x="325.146484"/>
     <use xlink:href="#DejaVuSans-6f" x="352.929688"/>
     <use xlink:href="#DejaVuSans-64" x="414.111328"/>
     <use xlink:href="#DejaVuSans-73" x="477.587891"/>
    </g>
   </g>
   <g id="legend_2">
    <g id="patch_13">
     <path d="M 383.67625 283.666182 
L 485.116875 283.666182 
Q 487.116875 283.666182 487.116875 281.666182 
L 487.116875 238.631807 
Q 487.116875 236.631807 485.116875 236.631807 
L 383.67625 236.631807 
Q 381.67625 236.631807 381.67625 238.631807 
L 381.67625 281.666182 
Q 381.67625 283.666182 383.67625 283.666182 
z
" style="fill: #ffffff; opacity: 0.8; stroke: #cccccc; stroke-linejoin: miter"/>
    </g>
    <g id="line2d_54">
     <path d="M 385.67625 244.730245 
L 395.67625 244.730245 
L 405.67625 244.730245 
" style="fill: none; stroke: #8b0000; stroke-width: 1.5; stroke-linecap: square"/>
    </g>
    <g id="text_18">
     <!-- Benchmark -->
     <g transform="translate(413.67625 248.230245) scale(0.1 -0.1)">
      <use xlink:href="#DejaVuSans-42"/>
      <use xlink:href="#DejaVuSans-65" x="68.603516"/>
      <use xlink:href="#DejaVuSans-6e" x="130.126953"/>
      <use xlink:href="#DejaVuSans-63" x="193.505859"/>
      <use xlink:href="#DejaVuSans-68" x="248.486328"/>
      <use xlink:href="#DejaVuSans-6d" x="311.865234"/>
      <use xlink:href="#DejaVuSans-61" x="409.277344"/>
      <use xlink:href="#DejaVuSans-72" x="470.556641"/>
      <use xlink:href="#DejaVuSans-6b" x="511.669922"/>
     </g>
    </g>
    <g id="line2d_55">
     <path d="M 385.67625 259.40837 
L 395.67625 259.40837 
L 405.67625 259.40837 
" style="fill: none; stroke: #008b8b; stroke-width: 1.5; stroke-linecap: square"/>
    </g>
    <g id="text_19">
     <!-- RtT -->
     <g transform="translate(413.67625 262.90837) scale(0.1 -0.1)">
      <use xlink:href="#DejaVuSans-52"/>
      <use xlink:href="#DejaVuSans-74" x="69.482422"/>
      <use xlink:href="#DejaVuSans-54" x="108.691406"/>
     </g>
    </g>
    <g id="line2d_56">
     <path d="M 385.67625 274.086495 
L 395.67625 274.086495 
L 405.67625 274.086495 
" style="fill: none; stroke: #ff8c00; stroke-width: 1.5; stroke-linecap: square"/>
    </g>
    <g id="text_20">
     <!-- Compensated -->
     <g transform="translate(413.67625 277.586495) scale(0.1 -0.1)">
      <use xlink:href="#DejaVuSans-43"/>
      <use xlink:href="#DejaVuSans-6f" x="69.824219"/>
      <use xlink:href="#DejaVuSans-6d" x="131.005859"/>
      <use xlink:href="#DejaVuSans-70" x="228.417969"/>
      <use xlink:href="#DejaVuSans-65" x="291.894531"/>
      <use xlink:href="#DejaVuSans-6e" x="353.417969"/>
      <use xlink:href="#DejaVuSans-73" x="416.796875"/>
      <use xlink:href="#DejaVuSans-61" x="468.896484"/>
      <use xlink:href="#DejaVuSans-74" x="530.175781"/>
      <use xlink:href="#DejaVuSans-65" x="569.384766"/>
      <use xlink:href="#DejaVuSans-64" x="630.908203"/>
     </g>
    </g>
   </g>
  </g>
  <g id="axes_3">
   <g id="patch_14">
    <path d="M 45.716875 669.808193 
L 492.116875 669.808193 
L 492.116875 456.063614 
L 45.716875 456.063614 
L 45.716875 669.808193 
z
" style="fill: none"/>
   </g>
   <g id="matplotlib.axis_5">
    <g id="xtick_13">
     <g id="line2d_57">
      <path d="M 45.716875 669.808193 
L 45.716875 456.063614 
" clip-path="url(#p4b8b815191)" style="fill: none; stroke-dasharray: 0.5,0.825; stroke-dashoffset: 0; stroke: #808080; stroke-width: 0.5"/>
     </g>
     <g id="line2d_58">
      <g>
       <use xlink:href="#mdca42a55e2" x="45.716875" y="669.808193" style="stroke: #000000; stroke-width: 0.8"/>
      </g>
     </g>
    </g>
    <g id="xtick_14">
     <g id="line2d_59">
      <path d="M 133.363997 669.808193 
L 133.363997 456.063614 
" clip-path="url(#p4b8b815191)" style="fill: none; stroke-dasharray: 0.5,0.825; stroke-dashoffset: 0; stroke: #808080; stroke-width: 0.5"/>
     </g>
     <g id="line2d_60">
      <g>
       <use xlink:href="#mdca42a55e2" x="133.363997" y="669.808193" style="stroke: #000000; stroke-width: 0.8"/>
      </g>
     </g>
    </g>
    <g id="xtick_15">
     <g id="line2d_61">
      <path d="M 221.011119 669.808193 
L 221.011119 456.063614 
" clip-path="url(#p4b8b815191)" style="fill: none; stroke-dasharray: 0.5,0.825; stroke-dashoffset: 0; stroke: #808080; stroke-width: 0.5"/>
     </g>
     <g id="line2d_62">
      <g>
       <use xlink:href="#mdca42a55e2" x="221.011119" y="669.808193" style="stroke: #000000; stroke-width: 0.8"/>
      </g>
     </g>
    </g>
    <g id="xtick_16">
     <g id="line2d_63">
      <path d="M 308.89837 669.808193 
L 308.89837 456.063614 
" clip-path="url(#p4b8b815191)" style="fill: none; stroke-dasharray: 0.5,0.825; stroke-dashoffset: 0; stroke: #808080; stroke-width: 0.5"/>
     </g>
     <g id="line2d_64">
      <g>
       <use xlink:href="#mdca42a55e2" x="308.89837" y="669.808193" style="stroke: #000000; stroke-width: 0.8"/>
      </g>
     </g>
    </g>
    <g id="xtick_17">
     <g id="line2d_65">
      <path d="M 396.545493 669.808193 
L 396.545493 456.063614 
" clip-path="url(#p4b8b815191)" style="fill: none; stroke-dasharray: 0.5,0.825; stroke-dashoffset: 0; stroke: #808080; stroke-width: 0.5"/>
     </g>
     <g id="line2d_66">
      <g>
       <use xlink:href="#mdca42a55e2" x="396.545493" y="669.808193" style="stroke: #000000; stroke-width: 0.8"/>
      </g>
     </g>
    </g>
    <g id="xtick_18">
     <g id="line2d_67">
      <path d="M 484.192615 669.808193 
L 484.192615 456.063614 
" clip-path="url(#p4b8b815191)" style="fill: none; stroke-dasharray: 0.5,0.825; stroke-dashoffset: 0; stroke: #808080; stroke-width: 0.5"/>
     </g>
     <g id="line2d_68">
      <g>
       <use xlink:href="#mdca42a55e2" x="484.192615" y="669.808193" style="stroke: #000000; stroke-width: 0.8"/>
      </g>
     </g>
    </g>
   </g>
   <g id="matplotlib.axis_6">
    <g id="ytick_11">
     <g id="line2d_69">
      <path d="M 45.716875 646.001036 
L 492.116875 646.001036 
" clip-path="url(#p4b8b815191)" style="fill: none; stroke-dasharray: 0.5,0.825; stroke-dashoffset: 0; stroke: #808080; stroke-width: 0.5"/>
     </g>
     <g id="line2d_70">
      <g>
       <use xlink:href="#md5597e395d" x="45.716875" y="646.001036" style="stroke: #000000; stroke-width: 0.8"/>
      </g>
     </g>
     <g id="text_21">
      <!-- 1.0 -->
      <g transform="translate(22.81375 649.800254) scale(0.1 -0.1)">
       <use xlink:href="#DejaVuSans-31"/>
       <use xlink:href="#DejaVuSans-2e" x="63.623047"/>
       <use xlink:href="#DejaVuSans-30" x="95.410156"/>
      </g>
     </g>
    </g>
    <g id="ytick_12">
     <g id="line2d_71">
      <path d="M 45.716875 615.109609 
L 492.116875 615.109609 
" clip-path="url(#p4b8b815191)" style="fill: none; stroke-dasharray: 0.5,0.825; stroke-dashoffset: 0; stroke: #808080; stroke-width: 0.5"/>
     </g>
     <g id="line2d_72">
      <g>
       <use xlink:href="#md5597e395d" x="45.716875" y="615.109609" style="stroke: #000000; stroke-width: 0.8"/>
      </g>
     </g>
     <g id="text_22">
      <!-- 1.2 -->
      <g transform="translate(22.81375 618.908828) scale(0.1 -0.1)">
       <use xlink:href="#DejaVuSans-31"/>
       <use xlink:href="#DejaVuSans-2e" x="63.623047"/>
       <use xlink:href="#DejaVuSans-32" x="95.410156"/>
      </g>
     </g>
    </g>
    <g id="ytick_13">
     <g id="line2d_73">
      <path d="M 45.716875 584.218183 
L 492.116875 584.218183 
" clip-path="url(#p4b8b815191)" style="fill: none; stroke-dasharray: 0.5,0.825; stroke-dashoffset: 0; stroke: #808080; stroke-width: 0.5"/>
     </g>
     <g id="line2d_74">
      <g>
       <use xlink:href="#md5597e395d" x="45.716875" y="584.218183" style="stroke: #000000; stroke-width: 0.8"/>
      </g>
     </g>
     <g id="text_23">
      <!-- 1.4 -->
      <g transform="translate(22.81375 588.017401) scale(0.1 -0.1)">
       <use xlink:href="#DejaVuSans-31"/>
       <use xlink:href="#DejaVuSans-2e" x="63.623047"/>
       <use xlink:href="#DejaVuSans-34" x="95.410156"/>
      </g>
     </g>
    </g>
    <g id="ytick_14">
     <g id="line2d_75">
      <path d="M 45.716875 553.326756 
L 492.116875 553.326756 
" clip-path="url(#p4b8b815191)" style="fill: none; stroke-dasharray: 0.5,0.825; stroke-dashoffset: 0; stroke: #808080; stroke-width: 0.5"/>
     </g>
     <g id="line2d_76">
      <g>
       <use xlink:href="#md5597e395d" x="45.716875" y="553.326756" style="stroke: #000000; stroke-width: 0.8"/>
      </g>
     </g>
     <g id="text_24">
      <!-- 1.6 -->
      <g transform="translate(22.81375 557.125975) scale(0.1 -0.1)">
       <use xlink:href="#DejaVuSans-31"/>
       <use xlink:href="#DejaVuSans-2e" x="63.623047"/>
       <use xlink:href="#DejaVuSans-36" x="95.410156"/>
      </g>
     </g>
    </g>
    <g id="ytick_15">
     <g id="line2d_77">
      <path d="M 45.716875 522.435329 
L 492.116875 522.435329 
" clip-path="url(#p4b8b815191)" style="fill: none; stroke-dasharray: 0.5,0.825; stroke-dashoffset: 0; stroke: #808080; stroke-width: 0.5"/>
     </g>
     <g id="line2d_78">
      <g>
       <use xlink:href="#md5597e395d" x="45.716875" y="522.435329" style="stroke: #000000; stroke-width: 0.8"/>
      </g>
     </g>
     <g id="text_25">
      <!-- 1.8 -->
      <g transform="translate(22.81375 526.234548) scale(0.1 -0.1)">
       <use xlink:href="#DejaVuSans-31"/>
       <use xlink:href="#DejaVuSans-2e" x="63.623047"/>
       <use xlink:href="#DejaVuSans-38" x="95.410156"/>
      </g>
     </g>
    </g>
    <g id="ytick_16">
     <g id="line2d_79">
      <path d="M 45.716875 491.543903 
L 492.116875 491.543903 
" clip-path="url(#p4b8b815191)" style="fill: none; stroke-dasharray: 0.5,0.825; stroke-dashoffset: 0; stroke: #808080; stroke-width: 0.5"/>
     </g>
     <g id="line2d_80">
      <g>
       <use xlink:href="#md5597e395d" x="45.716875" y="491.543903" style="stroke: #000000; stroke-width: 0.8"/>
      </g>
     </g>
     <g id="text_26">
      <!-- 2.0 -->
      <g transform="translate(22.81375 495.343122) scale(0.1 -0.1)">
       <use xlink:href="#DejaVuSans-32"/>
       <use xlink:href="#DejaVuSans-2e" x="63.623047"/>
       <use xlink:href="#DejaVuSans-30" x="95.410156"/>
      </g>
     </g>
    </g>
    <g id="ytick_17">
     <g id="line2d_81">
      <path d="M 45.716875 460.652476 
L 492.116875 460.652476 
" clip-path="url(#p4b8b815191)" style="fill: none; stroke-dasharray: 0.5,0.825; stroke-dashoffset: 0; stroke: #808080; stroke-width: 0.5"/>
     </g>
     <g id="line2d_82">
      <g>
       <use xlink:href="#md5597e395d" x="45.716875" y="460.652476" style="stroke: #000000; stroke-width: 0.8"/>
      </g>
     </g>
     <g id="text_27">
      <!-- 2.2 -->
      <g transform="translate(22.81375 464.451695) scale(0.1 -0.1)">
       <use xlink:href="#DejaVuSans-32"/>
       <use xlink:href="#DejaVuSans-2e" x="63.623047"/>
       <use xlink:href="#DejaVuSans-32" x="95.410156"/>
      </g>
     </g>
    </g>
    <g id="text_28">
     <!-- $S_t/S_{t-T}$ -->
     <g transform="translate(16.318125 583.935904) rotate(-90) scale(0.12 -0.12)">
      <use xlink:href="#DejaVuSans-Oblique-53" transform="translate(0 0.78125)"/>
      <use xlink:href="#DejaVuSans-Oblique-74" transform="translate(63.476562 -15.625) scale(0.7)"/>
      <use xlink:href="#DejaVuSans-2f" transform="translate(93.657227 0.78125)"/>
      <use xlink:href="#DejaVuSans-Oblique-53" transform="translate(127.348633 0.78125)"/>
      <use xlink:href="#DejaVuSans-Oblique-74" transform="translate(190.825195 -15.625) scale(0.7)"/>
      <use xlink:href="#DejaVuSans-2212" transform="translate(231.90918 -15.625) scale(0.7)"/>
      <use xlink:href="#DejaVuSans-Oblique-54" transform="translate(304.199219 -15.625) scale(0.7)"/>
     </g>
    </g>
   </g>
   <g id="line2d_83">
    <path d="M 505.117615 648.803963 
L 498.84049 649.464392 
L 492.116875 645.63939 
L 485.39326 637.0591 
L 478.669645 635.990943 
L 471.94603 636.293895 
L 465.222416 636.063537 
L 458.498801 646.030318 
L 451.775186 630.126421 
L 445.051571 609.480305 
L 438.327956 613.282408 
L 431.604341 613.900808 
L 424.880727 595.351433 
L 418.157112 585.5477 
L 411.433497 570.927641 
L 404.709882 563.658936 
L 397.986267 526.549935 
L 391.262652 565.454779 
L 384.539037 587.579121 
L 377.815423 583.203307 
L 371.091808 584.256354 
L 364.368193 582.827782 
L 357.644578 574.473423 
L 350.920963 574.691524 
L 344.197348 564.897409 
L 337.473734 577.155025 
L 330.750119 578.618618 
L 324.026504 575.245772 
L 317.302889 592.742765 
L 310.579274 591.078698 
L 303.855659 582.704099 
L 297.132044 591.002473 
L 290.40843 588.069468 
L 283.684815 596.261378 
L 276.9612 608.964519 
L 270.237585 609.732975 
L 263.51397 625.359053 
L 256.790355 634.484992 
L 250.066741 632.960249 
L 243.343126 641.269911 
L 236.619511 660.09253 
L 229.895896 630.335548 
L 223.172281 611.387073 
L 216.448666 618.449181 
L 209.725051 613.947257 
L 203.001437 624.893733 
L 196.277822 625.246494 
L 189.554207 621.69618 
L 182.830592 628.887461 
L 176.106977 614.922422 
L 169.383362 613.174762 
L 162.659748 621.914556 
L 155.936133 610.069831 
L 149.212518 613.78299 
L 142.488903 616.855513 
L 135.765288 614.094617 
L 129.041673 619.824914 
L 122.318058 620.045187 
L 115.594444 609.161397 
L 108.870829 605.389863 
L 102.147214 588.189014 
L 95.423599 588.974967 
L 88.699984 594.237129 
L 81.976369 597.507184 
L 75.252755 597.247069 
L 68.52914 594.303009 
L 61.805525 595.567455 
L 55.08191 582.089215 
L 48.358295 588.247527 
L 41.63468 576.42686 
L 34.911065 564.61266 
L 28.187451 570.226938 
L 21.463836 585.168093 
L 14.740221 596.464805 
L 8.016606 601.441813 
L 1.292991 590.25959 
L -1 593.273752 
" clip-path="url(#p4b8b815191)" style="fill: none; stroke: #8b0000; stroke-width: 1.5; stroke-linecap: square"/>
   </g>
   <g id="line2d_84">
    <path d="M 505.117615 630.746049 
L 498.84049 625.74398 
L 492.116875 611.178322 
L 485.39326 599.811719 
L 478.669645 593.277771 
L 471.94603 575.072396 
L 465.222416 582.386747 
L 458.498801 598.320845 
L 451.775186 580.910793 
L 445.051571 556.188168 
L 438.327956 554.490373 
L 431.604341 562.694526 
L 424.880727 542.540189 
L 418.157112 532.670167 
L 411.433497 526.857146 
L 404.709882 525.559264 
L 397.986267 465.779277 
L 391.262652 514.60123 
L 384.539037 550.78001 
L 377.815423 549.491052 
L 371.091808 556.000275 
L 364.368193 549.60945 
L 357.644578 540.836211 
L 350.920963 542.551057 
L 344.197348 526.961795 
L 337.473734 546.171227 
L 330.750119 546.914595 
L 324.026504 545.2682 
L 317.302889 571.276088 
L 310.579274 583.209793 
L 303.855659 566.387803 
L 297.132044 574.552159 
L 290.40843 567.017107 
L 283.684815 579.461101 
L 276.9612 605.216906 
L 270.237585 601.123137 
L 263.51397 621.452461 
L 256.790355 632.01229 
L 250.066741 620.474804 
L 243.343126 625.243331 
L 236.619511 648.262293 
L 229.895896 611.86125 
L 223.172281 582.55859 
L 216.448666 595.547074 
L 209.725051 580.426361 
L 203.001437 595.226947 
L 196.277822 592.026925 
L 189.554207 584.699073 
L 182.830592 592.22531 
L 176.106977 567.154612 
L 169.383362 565.665043 
L 162.659748 580.050767 
L 155.936133 563.927577 
L 149.212518 572.37164 
L 142.488903 576.884068 
L 135.765288 574.531985 
L 129.041673 587.064127 
L 122.318058 578.260787 
L 115.594444 555.342018 
L 108.870829 552.330349 
L 102.147214 526.703808 
L 95.423599 517.876436 
L 88.699984 536.094867 
L 81.976369 541.471375 
L 75.252755 545.858583 
L 68.52914 539.59846 
L 61.805525 543.291362 
L 55.08191 518.386653 
L 48.358295 536.499015 
L 41.63468 516.050067 
L 34.911065 504.102014 
L 28.187451 517.239723 
L 21.463836 536.986439 
L 14.740221 554.021626 
L 8.016606 560.209871 
L 1.292991 548.518055 
L -1 552.669865 
" clip-path="url(#p4b8b815191)" style="fill: none; stroke: #008b8b; stroke-width: 1.5; stroke-linecap: square"/>
   </g>
   <g id="line2d_85">
    <path d="M 505.117615 631.688256 
L 498.84049 628.14605 
L 492.116875 619.394568 
L 485.39326 614.646535 
L 478.669645 610.347062 
L 471.94603 597.481082 
L 465.222416 601.875278 
L 458.498801 608.675167 
L 451.775186 604.511784 
L 445.051571 596.329599 
L 438.327956 593.859206 
L 431.604341 598.711888 
L 424.880727 593.435617 
L 418.157112 591.406863 
L 411.433497 594.096126 
L 404.709882 595.080877 
L 397.986267 574.208645 
L 391.262652 584.821717 
L 384.539037 599.348316 
L 377.815423 599.782198 
L 371.091808 603.276704 
L 364.368193 600.287751 
L 357.644578 596.728288 
L 350.920963 598.009655 
L 344.197348 592.499069 
L 337.473734 600.103755 
L 330.750119 599.799411 
L 324.026504 600.781492 
L 317.302889 611.051358 
L 310.579274 619.148411 
L 303.855659 611.873744 
L 297.132044 614.055958 
L 290.40843 609.449986 
L 283.684815 614.894931 
L 276.9612 627.472415 
L 270.237585 624.810759 
L 263.51397 633.335343 
L 256.790355 637.187017 
L 250.066741 628.495479 
L 243.343126 629.084496 
L 236.619511 639.48197 
L 229.895896 626.323444 
L 223.172281 613.181952 
L 216.448666 619.324825 
L 209.725051 611.182603 
L 203.001437 616.375433 
L 196.277822 615.667351 
L 189.554207 612.202571 
L 182.830592 614.581453 
L 176.106977 603.016517 
L 169.383362 602.723897 
L 162.659748 607.999076 
L 155.936133 602.482465 
L 149.212518 606.476678 
L 142.488903 608.04313 
L 135.765288 606.968823 
L 129.041673 613.502123 
L 122.318058 607.928197 
L 115.594444 597.689712 
L 108.870829 598.006035 
L 102.147214 588.727941 
L 95.423599 582.008273 
L 88.699984 591.165512 
L 81.976369 593.3574 
L 75.252755 596.623532 
L 68.52914 594.844143 
L 61.805525 597.170483 
L 55.08191 587.032192 
L 48.358295 594.740159 
L 41.63468 587.654136 
L 34.911065 584.304876 
L 28.187451 590.362907 
L 21.463836 596.273949 
L 14.740221 602.062261 
L 8.016606 603.388597 
L 1.292991 600.551376 
L -1 601.758987 
" clip-path="url(#p4b8b815191)" style="fill: none; stroke: #ff8c00; stroke-width: 1.5; stroke-linecap: square"/>
   </g>
   <g id="patch_15">
    <path d="M 45.716875 669.808193 
L 45.716875 456.063614 
" style="fill: none; stroke: #000000; stroke-width: 0.8; stroke-linejoin: miter; stroke-linecap: square"/>
   </g>
   <g id="patch_16">
    <path d="M 492.116875 669.808193 
L 492.116875 456.063614 
" style="fill: none; stroke: #000000; stroke-width: 0.8; stroke-linejoin: miter; stroke-linecap: square"/>
   </g>
   <g id="patch_17">
    <path d="M 45.716875 669.808193 
L 492.116875 669.808193 
" style="fill: none; stroke: #000000; stroke-width: 0.8; stroke-linejoin: miter; stroke-linecap: square"/>
   </g>
   <g id="patch_18">
    <path d="M 45.716875 456.063614 
L 492.116875 456.063614 
" style="fill: none; stroke: #000000; stroke-width: 0.8; stroke-linejoin: miter; stroke-linecap: square"/>
   </g>
   <g id="text_29">
    <!-- 24 periods -->
    <g transform="translate(234.486172 482.125301) scale(0.13 -0.13)">
     <use xlink:href="#DejaVuSans-32"/>
     <use xlink:href="#DejaVuSans-34" x="63.623047"/>
     <use xlink:href="#DejaVuSans-20" x="127.246094"/>
     <use xlink:href="#DejaVuSans-70" x="159.033203"/>
     <use xlink:href="#DejaVuSans-65" x="222.509766"/>
     <use xlink:href="#DejaVuSans-72" x="284.033203"/>
     <use xlink:href="#DejaVuSans-69" x="325.146484"/>
     <use xlink:href="#DejaVuSans-6f" x="352.929688"/>
     <use xlink:href="#DejaVuSans-64" x="414.111328"/>
     <use xlink:href="#DejaVuSans-73" x="477.587891"/>
    </g>
   </g>
   <g id="legend_3">
    <g id="patch_19">
     <path d="M 52.716875 508.097989 
L 154.1575 508.097989 
Q 156.1575 508.097989 156.1575 506.097989 
L 156.1575 463.063614 
Q 156.1575 461.063614 154.1575 461.063614 
L 52.716875 461.063614 
Q 50.716875 461.063614 50.716875 463.063614 
L 50.716875 506.097989 
Q 50.716875 508.097989 52.716875 508.097989 
z
" style="fill: #ffffff; opacity: 0.8; stroke: #cccccc; stroke-linejoin: miter"/>
    </g>
    <g id="line2d_86">
     <path d="M 54.716875 469.162052 
L 64.716875 469.162052 
L 74.716875 469.162052 
" style="fill: none; stroke: #8b0000; stroke-width: 1.5; stroke-linecap: square"/>
    </g>
    <g id="text_30">
     <!-- Benchmark -->
     <g transform="translate(82.716875 472.662052) scale(0.1 -0.1)">
      <use xlink:href="#DejaVuSans-42"/>
      <use xlink:href="#DejaVuSans-65" x="68.603516"/>
      <use xlink:href="#DejaVuSans-6e" x="130.126953"/>
      <use xlink:href="#DejaVuSans-63" x="193.505859"/>
      <use xlink:href="#DejaVuSans-68" x="248.486328"/>
      <use xlink:href="#DejaVuSans-6d" x="311.865234"/>
      <use xlink:href="#DejaVuSans-61" x="409.277344"/>
      <use xlink:href="#DejaVuSans-72" x="470.556641"/>
      <use xlink:href="#DejaVuSans-6b" x="511.669922"/>
     </g>
    </g>
    <g id="line2d_87">
     <path d="M 54.716875 483.840177 
L 64.716875 483.840177 
L 74.716875 483.840177 
" style="fill: none; stroke: #008b8b; stroke-width: 1.5; stroke-linecap: square"/>
    </g>
    <g id="text_31">
     <!-- RtT -->
     <g transform="translate(82.716875 487.340177) scale(0.1 -0.1)">
      <use xlink:href="#DejaVuSans-52"/>
      <use xlink:href="#DejaVuSans-74" x="69.482422"/>
      <use xlink:href="#DejaVuSans-54" x="108.691406"/>
     </g>
    </g>
    <g id="line2d_88">
     <path d="M 54.716875 498.518302 
L 64.716875 498.518302 
L 74.716875 498.518302 
" style="fill: none; stroke: #ff8c00; stroke-width: 1.5; stroke-linecap: square"/>
    </g>
    <g id="text_32">
     <!-- Compensated -->
     <g transform="translate(82.716875 502.018302) scale(0.1 -0.1)">
      <use xlink:href="#DejaVuSans-43"/>
      <use xlink:href="#DejaVuSans-6f" x="69.824219"/>
      <use xlink:href="#DejaVuSans-6d" x="131.005859"/>
      <use xlink:href="#DejaVuSans-70" x="228.417969"/>
      <use xlink:href="#DejaVuSans-65" x="291.894531"/>
      <use xlink:href="#DejaVuSans-6e" x="353.417969"/>
      <use xlink:href="#DejaVuSans-73" x="416.796875"/>
      <use xlink:href="#DejaVuSans-61" x="468.896484"/>
      <use xlink:href="#DejaVuSans-74" x="530.175781"/>
      <use xlink:href="#DejaVuSans-65" x="569.384766"/>
      <use xlink:href="#DejaVuSans-64" x="630.908203"/>
     </g>
    </g>
   </g>
  </g>
  <g id="axes_4">
   <g id="patch_20">
    <path d="M 45.716875 894.24 
L 492.116875 894.24 
L 492.116875 680.495422 
L 45.716875 680.495422 
L 45.716875 894.24 
z
" style="fill: none"/>
   </g>
   <g id="matplotlib.axis_7">
    <g id="xtick_19">
     <g id="line2d_89">
      <path d="M 45.716875 894.24 
L 45.716875 680.495422 
" clip-path="url(#p2b41e7f4e7)" style="fill: none; stroke-dasharray: 0.5,0.825; stroke-dashoffset: 0; stroke: #808080; stroke-width: 0.5"/>
     </g>
     <g id="line2d_90">
      <g>
       <use xlink:href="#mdca42a55e2" x="45.716875" y="894.24" style="stroke: #000000; stroke-width: 0.8"/>
      </g>
     </g>
     <g id="text_33">
      <!-- 2018 -->
      <g transform="translate(32.991875 908.838437) scale(0.1 -0.1)">
       <use xlink:href="#DejaVuSans-32"/>
       <use xlink:href="#DejaVuSans-30" x="63.623047"/>
       <use xlink:href="#DejaVuSans-31" x="127.246094"/>
       <use xlink:href="#DejaVuSans-38" x="190.869141"/>
      </g>
     </g>
    </g>
    <g id="xtick_20">
     <g id="line2d_91">
      <path d="M 133.363997 894.24 
L 133.363997 680.495422 
" clip-path="url(#p2b41e7f4e7)" style="fill: none; stroke-dasharray: 0.5,0.825; stroke-dashoffset: 0; stroke: #808080; stroke-width: 0.5"/>
     </g>
     <g id="line2d_92">
      <g>
       <use xlink:href="#mdca42a55e2" x="133.363997" y="894.24" style="stroke: #000000; stroke-width: 0.8"/>
      </g>
     </g>
     <g id="text_34">
      <!-- 2019 -->
      <g transform="translate(120.638997 908.838437) scale(0.1 -0.1)">
       <use xlink:href="#DejaVuSans-32"/>
       <use xlink:href="#DejaVuSans-30" x="63.623047"/>
       <use xlink:href="#DejaVuSans-31" x="127.246094"/>
       <use xlink:href="#DejaVuSans-39" x="190.869141"/>
      </g>
     </g>
    </g>
    <g id="xtick_21">
     <g id="line2d_93">
      <path d="M 221.011119 894.24 
L 221.011119 680.495422 
" clip-path="url(#p2b41e7f4e7)" style="fill: none; stroke-dasharray: 0.5,0.825; stroke-dashoffset: 0; stroke: #808080; stroke-width: 0.5"/>
     </g>
     <g id="line2d_94">
      <g>
       <use xlink:href="#mdca42a55e2" x="221.011119" y="894.24" style="stroke: #000000; stroke-width: 0.8"/>
      </g>
     </g>
     <g id="text_35">
      <!-- 2020 -->
      <g transform="translate(208.286119 908.838437) scale(0.1 -0.1)">
       <use xlink:href="#DejaVuSans-32"/>
       <use xlink:href="#DejaVuSans-30" x="63.623047"/>
       <use xlink:href="#DejaVuSans-32" x="127.246094"/>
       <use xlink:href="#DejaVuSans-30" x="190.869141"/>
      </g>
     </g>
    </g>
    <g id="xtick_22">
     <g id="line2d_95">
      <path d="M 308.89837 894.24 
L 308.89837 680.495422 
" clip-path="url(#p2b41e7f4e7)" style="fill: none; stroke-dasharray: 0.5,0.825; stroke-dashoffset: 0; stroke: #808080; stroke-width: 0.5"/>
     </g>
     <g id="line2d_96">
      <g>
       <use xlink:href="#mdca42a55e2" x="308.89837" y="894.24" style="stroke: #000000; stroke-width: 0.8"/>
      </g>
     </g>
     <g id="text_36">
      <!-- 2021 -->
      <g transform="translate(296.17337 908.838437) scale(0.1 -0.1)">
       <use xlink:href="#DejaVuSans-32"/>
       <use xlink:href="#DejaVuSans-30" x="63.623047"/>
       <use xlink:href="#DejaVuSans-32" x="127.246094"/>
       <use xlink:href="#DejaVuSans-31" x="190.869141"/>
      </g>
     </g>
    </g>
    <g id="xtick_23">
     <g id="line2d_97">
      <path d="M 396.545493 894.24 
L 396.545493 680.495422 
" clip-path="url(#p2b41e7f4e7)" style="fill: none; stroke-dasharray: 0.5,0.825; stroke-dashoffset: 0; stroke: #808080; stroke-width: 0.5"/>
     </g>
     <g id="line2d_98">
      <g>
       <use xlink:href="#mdca42a55e2" x="396.545493" y="894.24" style="stroke: #000000; stroke-width: 0.8"/>
      </g>
     </g>
     <g id="text_37">
      <!-- 2022 -->
      <g transform="translate(383.820493 908.838437) scale(0.1 -0.1)">
       <use xlink:href="#DejaVuSans-32"/>
       <use xlink:href="#DejaVuSans-30" x="63.623047"/>
       <use xlink:href="#DejaVuSans-32" x="127.246094"/>
       <use xlink:href="#DejaVuSans-32" x="190.869141"/>
      </g>
     </g>
    </g>
    <g id="xtick_24">
     <g id="line2d_99">
      <path d="M 484.192615 894.24 
L 484.192615 680.495422 
" clip-path="url(#p2b41e7f4e7)" style="fill: none; stroke-dasharray: 0.5,0.825; stroke-dashoffset: 0; stroke: #808080; stroke-width: 0.5"/>
     </g>
     <g id="line2d_100">
      <g>
       <use xlink:href="#mdca42a55e2" x="484.192615" y="894.24" style="stroke: #000000; stroke-width: 0.8"/>
      </g>
     </g>
     <g id="text_38">
      <!-- 2023 -->
      <g transform="translate(471.467615 908.838437) scale(0.1 -0.1)">
       <use xlink:href="#DejaVuSans-32"/>
       <use xlink:href="#DejaVuSans-30" x="63.623047"/>
       <use xlink:href="#DejaVuSans-32" x="127.246094"/>
       <use xlink:href="#DejaVuSans-33" x="190.869141"/>
      </g>
     </g>
    </g>
    <g id="text_39">
     <!-- Date -->
     <g transform="translate(254.575938 924.03625) scale(0.12 -0.12)">
      <defs>
       <path id="DejaVuSans-44" d="M 1259 4147 
L 1259 519 
L 2022 519 
Q 2988 519 3436 956 
Q 3884 1394 3884 2338 
Q 3884 3275 3436 3711 
Q 2988 4147 2022 4147 
L 1259 4147 
z
M 628 4666 
L 1925 4666 
Q 3281 4666 3915 4102 
Q 4550 3538 4550 2338 
Q 4550 1131 3912 565 
Q 3275 0 1925 0 
L 628 0 
L 628 4666 
z
" transform="scale(0.015625)"/>
      </defs>
      <use xlink:href="#DejaVuSans-44"/>
      <use xlink:href="#DejaVuSans-61" x="77.001953"/>
      <use xlink:href="#DejaVuSans-74" x="138.28125"/>
      <use xlink:href="#DejaVuSans-65" x="177.490234"/>
     </g>
    </g>
   </g>
   <g id="matplotlib.axis_8">
    <g id="ytick_18">
     <g id="line2d_101">
      <path d="M 45.716875 883.913266 
L 492.116875 883.913266 
" clip-path="url(#p2b41e7f4e7)" style="fill: none; stroke-dasharray: 0.5,0.825; stroke-dashoffset: 0; stroke: #808080; stroke-width: 0.5"/>
     </g>
     <g id="line2d_102">
      <g>
       <use xlink:href="#md5597e395d" x="45.716875" y="883.913266" style="stroke: #000000; stroke-width: 0.8"/>
      </g>
     </g>
     <g id="text_40">
      <!-- 1.2 -->
      <g transform="translate(22.81375 887.712484) scale(0.1 -0.1)">
       <use xlink:href="#DejaVuSans-31"/>
       <use xlink:href="#DejaVuSans-2e" x="63.623047"/>
       <use xlink:href="#DejaVuSans-32" x="95.410156"/>
      </g>
     </g>
    </g>
    <g id="ytick_19">
     <g id="line2d_103">
      <path d="M 45.716875 856.025828 
L 492.116875 856.025828 
" clip-path="url(#p2b41e7f4e7)" style="fill: none; stroke-dasharray: 0.5,0.825; stroke-dashoffset: 0; stroke: #808080; stroke-width: 0.5"/>
     </g>
     <g id="line2d_104">
      <g>
       <use xlink:href="#md5597e395d" x="45.716875" y="856.025828" style="stroke: #000000; stroke-width: 0.8"/>
      </g>
     </g>
     <g id="text_41">
      <!-- 1.4 -->
      <g transform="translate(22.81375 859.825047) scale(0.1 -0.1)">
       <use xlink:href="#DejaVuSans-31"/>
       <use xlink:href="#DejaVuSans-2e" x="63.623047"/>
       <use xlink:href="#DejaVuSans-34" x="95.410156"/>
      </g>
     </g>
    </g>
    <g id="ytick_20">
     <g id="line2d_105">
      <path d="M 45.716875 828.13839 
L 492.116875 828.13839 
" clip-path="url(#p2b41e7f4e7)" style="fill: none; stroke-dasharray: 0.5,0.825; stroke-dashoffset: 0; stroke: #808080; stroke-width: 0.5"/>
     </g>
     <g id="line2d_106">
      <g>
       <use xlink:href="#md5597e395d" x="45.716875" y="828.13839" style="stroke: #000000; stroke-width: 0.8"/>
      </g>
     </g>
     <g id="text_42">
      <!-- 1.6 -->
      <g transform="translate(22.81375 831.937609) scale(0.1 -0.1)">
       <use xlink:href="#DejaVuSans-31"/>
       <use xlink:href="#DejaVuSans-2e" x="63.623047"/>
       <use xlink:href="#DejaVuSans-36" x="95.410156"/>
      </g>
     </g>
    </g>
    <g id="ytick_21">
     <g id="line2d_107">
      <path d="M 45.716875 800.250953 
L 492.116875 800.250953 
" clip-path="url(#p2b41e7f4e7)" style="fill: none; stroke-dasharray: 0.5,0.825; stroke-dashoffset: 0; stroke: #808080; stroke-width: 0.5"/>
     </g>
     <g id="line2d_108">
      <g>
       <use xlink:href="#md5597e395d" x="45.716875" y="800.250953" style="stroke: #000000; stroke-width: 0.8"/>
      </g>
     </g>
     <g id="text_43">
      <!-- 1.8 -->
      <g transform="translate(22.81375 804.050171) scale(0.1 -0.1)">
       <use xlink:href="#DejaVuSans-31"/>
       <use xlink:href="#DejaVuSans-2e" x="63.623047"/>
       <use xlink:href="#DejaVuSans-38" x="95.410156"/>
      </g>
     </g>
    </g>
    <g id="ytick_22">
     <g id="line2d_109">
      <path d="M 45.716875 772.363515 
L 492.116875 772.363515 
" clip-path="url(#p2b41e7f4e7)" style="fill: none; stroke-dasharray: 0.5,0.825; stroke-dashoffset: 0; stroke: #808080; stroke-width: 0.5"/>
     </g>
     <g id="line2d_110">
      <g>
       <use xlink:href="#md5597e395d" x="45.716875" y="772.363515" style="stroke: #000000; stroke-width: 0.8"/>
      </g>
     </g>
     <g id="text_44">
      <!-- 2.0 -->
      <g transform="translate(22.81375 776.162734) scale(0.1 -0.1)">
       <use xlink:href="#DejaVuSans-32"/>
       <use xlink:href="#DejaVuSans-2e" x="63.623047"/>
       <use xlink:href="#DejaVuSans-30" x="95.410156"/>
      </g>
     </g>
    </g>
    <g id="ytick_23">
     <g id="line2d_111">
      <path d="M 45.716875 744.476077 
L 492.116875 744.476077 
" clip-path="url(#p2b41e7f4e7)" style="fill: none; stroke-dasharray: 0.5,0.825; stroke-dashoffset: 0; stroke: #808080; stroke-width: 0.5"/>
     </g>
     <g id="line2d_112">
      <g>
       <use xlink:href="#md5597e395d" x="45.716875" y="744.476077" style="stroke: #000000; stroke-width: 0.8"/>
      </g>
     </g>
     <g id="text_45">
      <!-- 2.2 -->
      <g transform="translate(22.81375 748.275296) scale(0.1 -0.1)">
       <use xlink:href="#DejaVuSans-32"/>
       <use xlink:href="#DejaVuSans-2e" x="63.623047"/>
       <use xlink:href="#DejaVuSans-32" x="95.410156"/>
      </g>
     </g>
    </g>
    <g id="ytick_24">
     <g id="line2d_113">
      <path d="M 45.716875 716.58864 
L 492.116875 716.58864 
" clip-path="url(#p2b41e7f4e7)" style="fill: none; stroke-dasharray: 0.5,0.825; stroke-dashoffset: 0; stroke: #808080; stroke-width: 0.5"/>
     </g>
     <g id="line2d_114">
      <g>
       <use xlink:href="#md5597e395d" x="45.716875" y="716.58864" style="stroke: #000000; stroke-width: 0.8"/>
      </g>
     </g>
     <g id="text_46">
      <!-- 2.4 -->
      <g transform="translate(22.81375 720.387858) scale(0.1 -0.1)">
       <use xlink:href="#DejaVuSans-32"/>
       <use xlink:href="#DejaVuSans-2e" x="63.623047"/>
       <use xlink:href="#DejaVuSans-34" x="95.410156"/>
      </g>
     </g>
    </g>
    <g id="ytick_25">
     <g id="line2d_115">
      <path d="M 45.716875 688.701202 
L 492.116875 688.701202 
" clip-path="url(#p2b41e7f4e7)" style="fill: none; stroke-dasharray: 0.5,0.825; stroke-dashoffset: 0; stroke: #808080; stroke-width: 0.5"/>
     </g>
     <g id="line2d_116">
      <g>
       <use xlink:href="#md5597e395d" x="45.716875" y="688.701202" style="stroke: #000000; stroke-width: 0.8"/>
      </g>
     </g>
     <g id="text_47">
      <!-- 2.6 -->
      <g transform="translate(22.81375 692.500421) scale(0.1 -0.1)">
       <use xlink:href="#DejaVuSans-32"/>
       <use xlink:href="#DejaVuSans-2e" x="63.623047"/>
       <use xlink:href="#DejaVuSans-36" x="95.410156"/>
      </g>
     </g>
    </g>
    <g id="text_48">
     <!-- $S_t/S_{t-T}$ -->
     <g transform="translate(16.318125 808.367711) rotate(-90) scale(0.12 -0.12)">
      <use xlink:href="#DejaVuSans-Oblique-53" transform="translate(0 0.78125)"/>
      <use xlink:href="#DejaVuSans-Oblique-74" transform="translate(63.476562 -15.625) scale(0.7)"/>
      <use xlink:href="#DejaVuSans-2f" transform="translate(93.657227 0.78125)"/>
      <use xlink:href="#DejaVuSans-Oblique-53" transform="translate(127.348633 0.78125)"/>
      <use xlink:href="#DejaVuSans-Oblique-74" transform="translate(190.825195 -15.625) scale(0.7)"/>
      <use xlink:href="#DejaVuSans-2212" transform="translate(231.90918 -15.625) scale(0.7)"/>
      <use xlink:href="#DejaVuSans-Oblique-54" transform="translate(304.199219 -15.625) scale(0.7)"/>
     </g>
    </g>
   </g>
   <g id="line2d_117">
    <path d="M 505.117615 843.161249 
L 498.84049 854.169686 
L 492.116875 850.50188 
L 485.39326 836.155654 
L 478.669645 851.568843 
L 471.94603 850.339979 
L 465.222416 842.01144 
L 458.498801 862.186238 
L 451.775186 839.796656 
L 445.051571 823.311497 
L 438.327956 841.746269 
L 431.604341 843.2763 
L 424.880727 841.331069 
L 418.157112 842.760888 
L 411.433497 826.532986 
L 404.709882 830.917854 
L 397.986267 826.524698 
L 391.262652 817.570091 
L 384.539037 815.992709 
L 377.815423 820.124551 
L 371.091808 815.555976 
L 364.368193 827.922448 
L 357.644578 819.815785 
L 350.920963 815.354352 
L 344.197348 815.022188 
L 337.473734 809.087535 
L 330.750119 808.408666 
L 324.026504 816.220886 
L 317.302889 820.099693 
L 310.579274 822.792 
L 303.855659 817.565224 
L 297.132044 823.090331 
L 290.40843 827.008884 
L 283.684815 835.920368 
L 276.9612 837.133933 
L 270.237585 833.788872 
L 263.51397 834.00103 
L 256.790355 846.085559 
L 250.066741 849.352419 
L 243.343126 862.410554 
L 236.619511 884.524337 
L 229.895896 846.254369 
L 223.172281 824.820337 
L 216.448666 818.939392 
L 209.725051 819.90676 
L 203.001437 821.354318 
L 196.277822 809.717764 
L 189.554207 810.689702 
L 182.830592 835.349231 
L 176.106977 830.027098 
L 169.383362 833.391311 
L 162.659748 831.888329 
L 155.936133 827.171409 
L 149.212518 838.876529 
L 142.488903 846.173181 
L 135.765288 847.821988 
L 129.041673 857.544495 
L 122.318058 858.66144 
L 115.594444 845.61531 
L 108.870829 846.973992 
L 102.147214 830.032982 
L 95.423599 833.890432 
L 88.699984 835.953929 
L 81.976369 832.88131 
L 75.252755 833.057891 
L 68.52914 840.023864 
L 61.805525 836.260726 
L 55.08191 834.891543 
L 48.358295 841.106359 
L 41.63468 824.716539 
L 34.911065 827.315573 
L 28.187451 833.564548 
L 21.463836 833.697912 
L 14.740221 838.765236 
L 8.016606 841.289653 
L 1.292991 840.503185 
L -1 841.772649 
" clip-path="url(#p2b41e7f4e7)" style="fill: none; stroke: #8b0000; stroke-width: 1.5; stroke-linecap: square"/>
   </g>
   <g id="line2d_118">
    <path d="M 505.117615 781.254672 
L 498.84049 791.571997 
L 492.116875 770.74642 
L 485.39326 751.971632 
L 478.669645 773.719354 
L 471.94603 765.053651 
L 465.222416 752.900378 
L 458.498801 784.34502 
L 451.775186 751.688682 
L 445.051571 735.723391 
L 438.327956 770.557202 
L 431.604341 774.230247 
L 424.880727 781.39488 
L 418.157112 787.596143 
L 411.433497 763.423331 
L 404.709882 769.719631 
L 397.986267 753.527575 
L 391.262652 736.139628 
L 384.539037 733.258026 
L 377.815423 750.668347 
L 371.091808 736.859845 
L 364.368193 750.340796 
L 357.644578 734.961396 
L 350.920963 726.004514 
L 344.197348 718.376433 
L 337.473734 704.494577 
L 330.750119 703.300852 
L 324.026504 722.497966 
L 317.302889 734.404712 
L 310.579274 761.624358 
L 303.855659 745.372313 
L 297.132044 752.935298 
L 290.40843 760.084256 
L 283.684815 764.233775 
L 276.9612 771.529038 
L 270.237585 762.155415 
L 263.51397 764.826292 
L 256.790355 773.031469 
L 250.066741 773.14095 
L 243.343126 786.014895 
L 236.619511 824.761334 
L 229.895896 763.693914 
L 223.172281 723.72079 
L 216.448666 713.416315 
L 209.725051 711.78081 
L 203.001437 710.085773 
L 196.277822 690.211084 
L 189.554207 694.085694 
L 182.830592 730.577025 
L 176.106977 715.199308 
L 169.383362 721.545918 
L 162.659748 726.684482 
L 155.936133 719.772975 
L 149.212518 744.750119 
L 142.488903 749.695772 
L 135.765288 750.083586 
L 129.041673 763.99722 
L 122.318058 759.635899 
L 115.594444 740.186769 
L 108.870829 734.410794 
L 102.147214 709.280408 
L 95.423599 717.686809 
L 88.699984 720.655736 
L 81.976369 713.16689 
L 75.252755 719.331086 
L 68.52914 730.970444 
L 61.805525 720.294421 
L 55.08191 718.747961 
L 48.358295 737.224922 
L 41.63468 702.19395 
L 34.911065 706.103431 
L 28.187451 737.683294 
L 21.463836 740.413303 
L 14.740221 756.95311 
L 8.016606 762.82218 
L 1.292991 759.689183 
L -1 761.927638 
" clip-path="url(#p2b41e7f4e7)" style="fill: none; stroke: #008b8b; stroke-width: 1.5; stroke-linecap: square"/>
   </g>
   <g id="line2d_119">
    <path d="M 505.117615 846.613435 
L 498.84049 849.458218 
L 492.116875 838.888045 
L 485.39326 834.386148 
L 478.669645 840.779737 
L 471.94603 836.142617 
L 465.222416 832.355751 
L 458.498801 842.296804 
L 451.775186 832.485956 
L 445.051571 829.847681 
L 438.327956 842.355827 
L 431.604341 844.123649 
L 424.880727 849.021617 
L 418.157112 851.746105 
L 411.433497 843.829307 
L 404.709882 845.526092 
L 397.986267 838.369088 
L 391.262652 831.770381 
L 384.539037 831.108186 
L 377.815423 838.788028 
L 371.091808 833.103914 
L 364.368193 835.872639 
L 357.644578 831.199837 
L 350.920963 828.484068 
L 344.197348 825.312213 
L 337.473734 820.031217 
L 330.750119 819.336825 
L 324.026504 826.628221 
L 317.302889 832.073414 
L 310.579274 845.67527 
L 303.855659 839.154084 
L 297.132044 840.437801 
L 290.40843 842.522651 
L 283.684815 842.427087 
L 276.9612 846.228664 
L 270.237585 843.399015 
L 263.51397 844.423236 
L 256.790355 842.777294 
L 250.066741 840.883831 
L 243.343126 843.799808 
L 236.619511 859.458327 
L 229.895896 841.970869 
L 223.172281 828.724385 
L 216.448666 825.289965 
L 209.725051 823.660276 
L 203.001437 822.280013 
L 196.277822 817.781956 
L 189.554207 820.070361 
L 182.830592 829.413222 
L 176.106977 822.29131 
L 169.383362 823.484842 
L 162.659748 826.369371 
L 155.936133 824.02112 
L 149.212518 831.89769 
L 142.488903 830.985604 
L 135.765288 829.852111 
L 129.041673 833.159998 
L 122.318058 830.246261 
L 115.594444 825.553925 
L 108.870829 821.522166 
L 102.147214 814.65914 
L 95.423599 818.438597 
L 88.699984 818.928633 
L 81.976369 815.7779 
L 75.252755 818.499095 
L 68.52914 821.642493 
L 61.805525 817.519854 
L 55.08191 816.925786 
L 48.358295 824.484848 
L 41.63468 813.174724 
L 34.911065 812.797569 
L 28.187451 827.600552 
L 21.463836 828.706267 
L 14.740221 835.688415 
L 8.016606 838.201134 
L 1.292991 836.201963 
L -1 836.711113 
" clip-path="url(#p2b41e7f4e7)" style="fill: none; stroke: #ff8c00; stroke-width: 1.5; stroke-linecap: square"/>
   </g>
   <g id="patch_21">
    <path d="M 45.716875 894.24 
L 45.716875 680.495422 
" style="fill: none; stroke: #000000; stroke-width: 0.8; stroke-linejoin: miter; stroke-linecap: square"/>
   </g>
   <g id="patch_22">
    <path d="M 492.116875 894.24 
L 492.116875 680.495422 
" style="fill: none; stroke: #000000; stroke-width: 0.8; stroke-linejoin: miter; stroke-linecap: square"/>
   </g>
   <g id="patch_23">
    <path d="M 45.716875 894.24 
L 492.116875 894.24 
" style="fill: none; stroke: #000000; stroke-width: 0.8; stroke-linejoin: miter; stroke-linecap: square"/>
   </g>
   <g id="patch_24">
    <path d="M 45.716875 680.495422 
L 492.116875 680.495422 
" style="fill: none; stroke: #000000; stroke-width: 0.8; stroke-linejoin: miter; stroke-linecap: square"/>
   </g>
   <g id="text_49">
    <!-- 48 periods -->
    <g transform="translate(234.486172 706.557108) scale(0.13 -0.13)">
     <use xlink:href="#DejaVuSans-34"/>
     <use xlink:href="#DejaVuSans-38" x="63.623047"/>
     <use xlink:href="#DejaVuSans-20" x="127.246094"/>
     <use xlink:href="#DejaVuSans-70" x="159.033203"/>
     <use xlink:href="#DejaVuSans-65" x="222.509766"/>
     <use xlink:href="#DejaVuSans-72" x="284.033203"/>
     <use xlink:href="#DejaVuSans-69" x="325.146484"/>
     <use xlink:href="#DejaVuSans-6f" x="352.929688"/>
     <use xlink:href="#DejaVuSans-64" x="414.111328"/>
     <use xlink:href="#DejaVuSans-73" x="477.587891"/>
    </g>
   </g>
   <g id="legend_4">
    <g id="patch_25">
     <path d="M 383.67625 732.529797 
L 485.116875 732.529797 
Q 487.116875 732.529797 487.116875 730.529797 
L 487.116875 687.495422 
Q 487.116875 685.495422 485.116875 685.495422 
L 383.67625 685.495422 
Q 381.67625 685.495422 381.67625 687.495422 
L 381.67625 730.529797 
Q 381.67625 732.529797 383.67625 732.529797 
z
" style="fill: #ffffff; opacity: 0.8; stroke: #cccccc; stroke-linejoin: miter"/>
    </g>
    <g id="line2d_120">
     <path d="M 385.67625 693.593859 
L 395.67625 693.593859 
L 405.67625 693.593859 
" style="fill: none; stroke: #8b0000; stroke-width: 1.5; stroke-linecap: square"/>
    </g>
    <g id="text_50">
     <!-- Benchmark -->
     <g transform="translate(413.67625 697.093859) scale(0.1 -0.1)">
      <use xlink:href="#DejaVuSans-42"/>
      <use xlink:href="#DejaVuSans-65" x="68.603516"/>
      <use xlink:href="#DejaVuSans-6e" x="130.126953"/>
      <use xlink:href="#DejaVuSans-63" x="193.505859"/>
      <use xlink:href="#DejaVuSans-68" x="248.486328"/>
      <use xlink:href="#DejaVuSans-6d" x="311.865234"/>
      <use xlink:href="#DejaVuSans-61" x="409.277344"/>
      <use xlink:href="#DejaVuSans-72" x="470.556641"/>
      <use xlink:href="#DejaVuSans-6b" x="511.669922"/>
     </g>
    </g>
    <g id="line2d_121">
     <path d="M 385.67625 708.271984 
L 395.67625 708.271984 
L 405.67625 708.271984 
" style="fill: none; stroke: #008b8b; stroke-width: 1.5; stroke-linecap: square"/>
    </g>
    <g id="text_51">
     <!-- RtT -->
     <g transform="translate(413.67625 711.771984) scale(0.1 -0.1)">
      <use xlink:href="#DejaVuSans-52"/>
      <use xlink:href="#DejaVuSans-74" x="69.482422"/>
      <use xlink:href="#DejaVuSans-54" x="108.691406"/>
     </g>
    </g>
    <g id="line2d_122">
     <path d="M 385.67625 722.950109 
L 395.67625 722.950109 
L 405.67625 722.950109 
" style="fill: none; stroke: #ff8c00; stroke-width: 1.5; stroke-linecap: square"/>
    </g>
    <g id="text_52">
     <!-- Compensated -->
     <g transform="translate(413.67625 726.450109) scale(0.1 -0.1)">
      <use xlink:href="#DejaVuSans-43"/>
      <use xlink:href="#DejaVuSans-6f" x="69.824219"/>
      <use xlink:href="#DejaVuSans-6d" x="131.005859"/>
      <use xlink:href="#DejaVuSans-70" x="228.417969"/>
      <use xlink:href="#DejaVuSans-65" x="291.894531"/>
      <use xlink:href="#DejaVuSans-6e" x="353.417969"/>
      <use xlink:href="#DejaVuSans-73" x="416.796875"/>
      <use xlink:href="#DejaVuSans-61" x="468.896484"/>
      <use xlink:href="#DejaVuSans-74" x="530.175781"/>
      <use xlink:href="#DejaVuSans-65" x="569.384766"/>
      <use xlink:href="#DejaVuSans-64" x="630.908203"/>
     </g>
    </g>
   </g>
  </g>
 </g>
 <defs>
  <clipPath id="p3eec4c6fad">
   <rect x="45.716875" y="7.2" width="446.4" height="213.744578"/>
  </clipPath>
  <clipPath id="p9484d1773f">
   <rect x="45.716875" y="231.631807" width="446.4" height="213.744578"/>
  </clipPath>
  <clipPath id="p4b8b815191">
   <rect x="45.716875" y="456.063614" width="446.4" height="213.744578"/>
  </clipPath>
  <clipPath id="p2b41e7f4e7">
   <rect x="45.716875" y="680.495422" width="446.4" height="213.744578"/>
  </clipPath>
 </defs>
</svg>
