<?xml version="1.0" encoding="utf-8" standalone="no"?>
<!DOCTYPE svg PUBLIC "-//W3C//DTD SVG 1.1//EN"
  "http://www.w3.org/Graphics/SVG/1.1/DTD/svg11.dtd">
<svg xmlns:xlink="http://www.w3.org/1999/xlink" width="510.480115pt" height="933.731875pt" viewBox="0 0 510.480115 933.731875" xmlns="http://www.w3.org/2000/svg" version="1.1">
 <metadata>
  <rdf:RDF xmlns:dc="http://purl.org/dc/elements/1.1/" xmlns:cc="http://creativecommons.org/ns#" xmlns:rdf="http://www.w3.org/1999/02/22-rdf-syntax-ns#">
   <cc:Work>
    <dc:type rdf:resource="http://purl.org/dc/dcmitype/StillImage"/>
    <dc:date>2024-12-12T02:06:50.432477</dc:date>
    <dc:format>image/svg+xml</dc:format>
    <dc:creator>
     <cc:Agent>
      <dc:title>Matplotlib v3.9.2, https://matplotlib.org/</dc:title>
     </cc:Agent>
    </dc:creator>
   </cc:Work>
  </rdf:RDF>
 </metadata>
 <defs>
  <style type="text/css">*{stroke-linejoin: round; stroke-linecap: butt}</style>
 </defs>
 <g id="figure_1">
  <g id="patch_1">
   <path d="M 0 933.731875 
L 510.480115 933.731875 
L 510.480115 0 
L 0 0 
L 0 933.731875 
z
" style="fill: none"/>
  </g>
  <g id="axes_1">
   <g id="patch_2">
    <path d="M 52.079375 220.944578 
L 498.479375 220.944578 
L 498.479375 7.2 
L 52.079375 7.2 
L 52.079375 220.944578 
z
" style="fill: none"/>
   </g>
   <g id="matplotlib.axis_1">
    <g id="xtick_1">
     <g id="line2d_1">
      <path d="M 52.079375 220.944578 
L 52.079375 7.2 
" clip-path="url(#pf3fa4f8fb9)" style="fill: none; stroke-dasharray: 0.5,0.825; stroke-dashoffset: 0; stroke: #808080; stroke-width: 0.5"/>
     </g>
     <g id="line2d_2">
      <defs>
       <path id="m455e12d6a9" d="M 0 0 
L 0 3.5 
" style="stroke: #000000; stroke-width: 0.8"/>
      </defs>
      <g>
       <use xlink:href="#m455e12d6a9" x="52.079375" y="220.944578" style="stroke: #000000; stroke-width: 0.8"/>
      </g>
     </g>
    </g>
    <g id="xtick_2">
     <g id="line2d_3">
      <path d="M 139.726497 220.944578 
L 139.726497 7.2 
" clip-path="url(#pf3fa4f8fb9)" style="fill: none; stroke-dasharray: 0.5,0.825; stroke-dashoffset: 0; stroke: #808080; stroke-width: 0.5"/>
     </g>
     <g id="line2d_4">
      <g>
       <use xlink:href="#m455e12d6a9" x="139.726497" y="220.944578" style="stroke: #000000; stroke-width: 0.8"/>
      </g>
     </g>
    </g>
    <g id="xtick_3">
     <g id="line2d_5">
      <path d="M 227.373619 220.944578 
L 227.373619 7.2 
" clip-path="url(#pf3fa4f8fb9)" style="fill: none; stroke-dasharray: 0.5,0.825; stroke-dashoffset: 0; stroke: #808080; stroke-width: 0.5"/>
     </g>
     <g id="line2d_6">
      <g>
       <use xlink:href="#m455e12d6a9" x="227.373619" y="220.944578" style="stroke: #000000; stroke-width: 0.8"/>
      </g>
     </g>
    </g>
    <g id="xtick_4">
     <g id="line2d_7">
      <path d="M 315.26087 220.944578 
L 315.26087 7.2 
" clip-path="url(#pf3fa4f8fb9)" style="fill: none; stroke-dasharray: 0.5,0.825; stroke-dashoffset: 0; stroke: #808080; stroke-width: 0.5"/>
     </g>
     <g id="line2d_8">
      <g>
       <use xlink:href="#m455e12d6a9" x="315.26087" y="220.944578" style="stroke: #000000; stroke-width: 0.8"/>
      </g>
     </g>
    </g>
    <g id="xtick_5">
     <g id="line2d_9">
      <path d="M 402.907993 220.944578 
L 402.907993 7.2 
" clip-path="url(#pf3fa4f8fb9)" style="fill: none; stroke-dasharray: 0.5,0.825; stroke-dashoffset: 0; stroke: #808080; stroke-width: 0.5"/>
     </g>
     <g id="line2d_10">
      <g>
       <use xlink:href="#m455e12d6a9" x="402.907993" y="220.944578" style="stroke: #000000; stroke-width: 0.8"/>
      </g>
     </g>
    </g>
    <g id="xtick_6">
     <g id="line2d_11">
      <path d="M 490.555115 220.944578 
L 490.555115 7.2 
" clip-path="url(#pf3fa4f8fb9)" style="fill: none; stroke-dasharray: 0.5,0.825; stroke-dashoffset: 0; stroke: #808080; stroke-width: 0.5"/>
     </g>
     <g id="line2d_12">
      <g>
       <use xlink:href="#m455e12d6a9" x="490.555115" y="220.944578" style="stroke: #000000; stroke-width: 0.8"/>
      </g>
     </g>
    </g>
   </g>
   <g id="matplotlib.axis_2">
    <g id="ytick_1">
     <g id="line2d_13">
      <path d="M 52.079375 201.642426 
L 498.479375 201.642426 
" clip-path="url(#pf3fa4f8fb9)" style="fill: none; stroke-dasharray: 0.5,0.825; stroke-dashoffset: 0; stroke: #808080; stroke-width: 0.5"/>
     </g>
     <g id="line2d_14">
      <defs>
       <path id="m83aa239197" d="M 0 0 
L -3.5 0 
" style="stroke: #000000; stroke-width: 0.8"/>
      </defs>
      <g>
       <use xlink:href="#m83aa239197" x="52.079375" y="201.642426" style="stroke: #000000; stroke-width: 0.8"/>
      </g>
     </g>
     <g id="text_1">
      <!-- −5 -->
      <g transform="translate(30.337187 205.441645) scale(0.1 -0.1)">
       <defs>
        <path id="DejaVuSans-2212" d="M 678 2272 
L 4684 2272 
L 4684 1741 
L 678 1741 
L 678 2272 
z
" transform="scale(0.015625)"/>
        <path id="DejaVuSans-35" d="M 691 4666 
L 3169 4666 
L 3169 4134 
L 1269 4134 
L 1269 2991 
Q 1406 3038 1543 3061 
Q 1681 3084 1819 3084 
Q 2600 3084 3056 2656 
Q 3513 2228 3513 1497 
Q 3513 744 3044 326 
Q 2575 -91 1722 -91 
Q 1428 -91 1123 -41 
Q 819 9 494 109 
L 494 744 
Q 775 591 1075 516 
Q 1375 441 1709 441 
Q 2250 441 2565 725 
Q 2881 1009 2881 1497 
Q 2881 1984 2565 2268 
Q 2250 2553 1709 2553 
Q 1456 2553 1204 2497 
Q 953 2441 691 2322 
L 691 4666 
z
" transform="scale(0.015625)"/>
       </defs>
       <use xlink:href="#DejaVuSans-2212"/>
       <use xlink:href="#DejaVuSans-35" x="83.789062"/>
      </g>
     </g>
    </g>
    <g id="ytick_2">
     <g id="line2d_15">
      <path d="M 52.079375 155.126091 
L 498.479375 155.126091 
" clip-path="url(#pf3fa4f8fb9)" style="fill: none; stroke-dasharray: 0.5,0.825; stroke-dashoffset: 0; stroke: #808080; stroke-width: 0.5"/>
     </g>
     <g id="line2d_16">
      <g>
       <use xlink:href="#m83aa239197" x="52.079375" y="155.126091" style="stroke: #000000; stroke-width: 0.8"/>
      </g>
     </g>
     <g id="text_2">
      <!-- 0 -->
      <g transform="translate(38.716875 158.92531) scale(0.1 -0.1)">
       <defs>
        <path id="DejaVuSans-30" d="M 2034 4250 
Q 1547 4250 1301 3770 
Q 1056 3291 1056 2328 
Q 1056 1369 1301 889 
Q 1547 409 2034 409 
Q 2525 409 2770 889 
Q 3016 1369 3016 2328 
Q 3016 3291 2770 3770 
Q 2525 4250 2034 4250 
z
M 2034 4750 
Q 2819 4750 3233 4129 
Q 3647 3509 3647 2328 
Q 3647 1150 3233 529 
Q 2819 -91 2034 -91 
Q 1250 -91 836 529 
Q 422 1150 422 2328 
Q 422 3509 836 4129 
Q 1250 4750 2034 4750 
z
" transform="scale(0.015625)"/>
       </defs>
       <use xlink:href="#DejaVuSans-30"/>
      </g>
     </g>
    </g>
    <g id="ytick_3">
     <g id="line2d_17">
      <path d="M 52.079375 108.609756 
L 498.479375 108.609756 
" clip-path="url(#pf3fa4f8fb9)" style="fill: none; stroke-dasharray: 0.5,0.825; stroke-dashoffset: 0; stroke: #808080; stroke-width: 0.5"/>
     </g>
     <g id="line2d_18">
      <g>
       <use xlink:href="#m83aa239197" x="52.079375" y="108.609756" style="stroke: #000000; stroke-width: 0.8"/>
      </g>
     </g>
     <g id="text_3">
      <!-- 5 -->
      <g transform="translate(38.716875 112.408975) scale(0.1 -0.1)">
       <use xlink:href="#DejaVuSans-35"/>
      </g>
     </g>
    </g>
    <g id="ytick_4">
     <g id="line2d_19">
      <path d="M 52.079375 62.093422 
L 498.479375 62.093422 
" clip-path="url(#pf3fa4f8fb9)" style="fill: none; stroke-dasharray: 0.5,0.825; stroke-dashoffset: 0; stroke: #808080; stroke-width: 0.5"/>
     </g>
     <g id="line2d_20">
      <g>
       <use xlink:href="#m83aa239197" x="52.079375" y="62.093422" style="stroke: #000000; stroke-width: 0.8"/>
      </g>
     </g>
     <g id="text_4">
      <!-- 10 -->
      <g transform="translate(32.354375 65.89264) scale(0.1 -0.1)">
       <defs>
        <path id="DejaVuSans-31" d="M 794 531 
L 1825 531 
L 1825 4091 
L 703 3866 
L 703 4441 
L 1819 4666 
L 2450 4666 
L 2450 531 
L 3481 531 
L 3481 0 
L 794 0 
L 794 531 
z
" transform="scale(0.015625)"/>
       </defs>
       <use xlink:href="#DejaVuSans-31"/>
       <use xlink:href="#DejaVuSans-30" x="63.623047"/>
      </g>
     </g>
    </g>
    <g id="ytick_5">
     <g id="line2d_21">
      <path d="M 52.079375 15.577087 
L 498.479375 15.577087 
" clip-path="url(#pf3fa4f8fb9)" style="fill: none; stroke-dasharray: 0.5,0.825; stroke-dashoffset: 0; stroke: #808080; stroke-width: 0.5"/>
     </g>
     <g id="line2d_22">
      <g>
       <use xlink:href="#m83aa239197" x="52.079375" y="15.577087" style="stroke: #000000; stroke-width: 0.8"/>
      </g>
     </g>
     <g id="text_5">
      <!-- 15 -->
      <g transform="translate(32.354375 19.376306) scale(0.1 -0.1)">
       <use xlink:href="#DejaVuSans-31"/>
       <use xlink:href="#DejaVuSans-35" x="63.623047"/>
      </g>
     </g>
    </g>
    <g id="text_6">
     <!-- $IR$ -->
     <g transform="translate(23.841562 120.012289) rotate(-90) scale(0.12 -0.12)">
      <defs>
       <path id="DejaVuSans-Oblique-49" d="M 1081 4666 
L 1716 4666 
L 806 0 
L 172 0 
L 1081 4666 
z
" transform="scale(0.015625)"/>
       <path id="DejaVuSans-Oblique-52" d="M 1613 4147 
L 1294 2491 
L 2106 2491 
Q 2584 2491 2879 2755 
Q 3175 3019 3175 3444 
Q 3175 3784 2976 3965 
Q 2778 4147 2406 4147 
L 1613 4147 
z
M 2772 2241 
Q 2972 2194 3105 2009 
Q 3238 1825 3413 1275 
L 3809 0 
L 3144 0 
L 2778 1197 
Q 2638 1659 2453 1815 
Q 2269 1972 1888 1972 
L 1191 1972 
L 806 0 
L 172 0 
L 1081 4666 
L 2503 4666 
Q 3150 4666 3495 4373 
Q 3841 4081 3841 3531 
Q 3841 3044 3547 2687 
Q 3253 2331 2772 2241 
z
" transform="scale(0.015625)"/>
      </defs>
      <use xlink:href="#DejaVuSans-Oblique-49" transform="translate(0 0.09375)"/>
      <use xlink:href="#DejaVuSans-Oblique-52" transform="translate(29.492188 0.09375)"/>
     </g>
    </g>
   </g>
   <g id="line2d_23">
    <path d="M 511.480115 165.006306 
L 505.20299 148.479182 
L 498.479375 141.079709 
L 491.75576 129.812821 
L 485.032145 99.138008 
L 478.30853 139.784879 
L 471.584916 165.627899 
L 464.861301 192.837361 
L 458.137686 159.104142 
L 451.414071 158.516588 
L 444.690456 171.488503 
L 437.966841 197.871206 
L 431.243227 155.422348 
L 424.519612 174.816876 
L 417.795997 156.972205 
L 411.072382 180.069052 
L 404.348767 179.335515 
L 397.625152 140.083673 
L 390.901537 139.336002 
L 384.177923 118.819748 
L 377.454308 143.266993 
L 370.730693 145.101955 
L 364.007078 141.650161 
L 357.283463 127.724708 
L 350.559848 100.432477 
L 343.836234 66.942852 
L 337.112619 86.664352 
L 330.389004 122.129356 
L 323.665389 117.864514 
L 316.941774 101.674379 
L 310.218159 84.733077 
L 303.494544 100.004186 
L 296.77093 114.311056 
L 290.047315 114.75763 
L 283.3237 88.189754 
L 276.600085 107.671431 
L 269.87647 97.144482 
L 263.152855 94.50837 
L 256.429241 151.941457 
L 249.705626 177.677217 
L 242.982011 199.610526 
L 236.258396 188.762976 
L 222.811166 24.555483 
L 216.087551 92.103804 
L 209.363937 58.426984 
L 202.640322 153.99288 
L 195.916707 143.671094 
L 189.193092 144.589787 
L 182.469477 132.293108 
L 175.745862 133.165809 
L 169.022248 142.61256 
L 162.298633 83.694832 
L 155.575018 65.042407 
L 148.851403 118.359676 
L 142.127788 145.920899 
L 135.404173 166.877925 
L 128.680558 207.039146 
L 121.956944 187.102227 
L 115.233329 184.248283 
L 108.509714 88.11508 
L 101.786099 106.0485 
L 95.062484 110.515123 
L 88.338869 125.84037 
L 81.615255 160.305039 
L 74.89164 135.626186 
L 68.168025 173.813313 
L 61.44441 126.948374 
L 54.720795 144.224623 
L 47.99718 46.277871 
L 41.273565 46.68313 
L 34.549951 33.879104 
L 27.826336 68.318457 
L 21.102721 83.721344 
L 14.379106 130.527672 
L 7.655491 98.530785 
L 0.931876 102.05787 
L -1 96.075607 
L -1 96.075607 
" clip-path="url(#pf3fa4f8fb9)" style="fill: none; stroke: #8b0000; stroke-width: 1.5; stroke-linecap: square"/>
   </g>
   <g id="line2d_24">
    <path d="M 511.480115 181.1388 
L 505.20299 154.050635 
L 498.479375 125.582098 
L 491.75576 123.008575 
L 485.032145 95.682748 
L 478.30853 123.468432 
L 471.584916 154.328056 
L 464.861301 181.384573 
L 458.137686 146.442227 
L 451.414071 133.899843 
L 444.690456 146.658766 
L 437.966841 169.02197 
L 431.243227 130.827259 
L 424.519612 163.977374 
L 417.795997 161.287712 
L 411.072382 183.070774 
L 404.348767 161.704142 
L 397.625152 115.336355 
L 390.901537 125.22165 
L 384.177923 132.095849 
L 377.454308 156.618664 
L 370.730693 152.074162 
L 364.007078 139.793634 
L 357.283463 134.50405 
L 350.559848 94.54592 
L 343.836234 63.486018 
L 337.112619 43.485054 
L 330.389004 93.129858 
L 323.665389 104.498384 
L 316.941774 127.821266 
L 310.218159 102.400891 
L 303.494544 97.00114 
L 296.77093 117.378525 
L 290.047315 106.999664 
L 283.3237 91.499165 
L 276.600085 91.560911 
L 269.87647 88.166859 
L 263.152855 87.19497 
L 256.429241 150.881746 
L 249.705626 176.929392 
L 242.982011 198.591725 
L 236.258396 188.072281 
L 229.534781 108.643299 
L 222.811166 76.266995 
L 216.087551 111.64207 
L 209.363937 87.787898 
L 202.640322 152.134572 
L 195.916707 142.069688 
L 189.193092 134.937957 
L 182.469477 104.992076 
L 175.745862 102.50645 
L 169.022248 110.145345 
L 162.298633 64.766501 
L 155.575018 41.21204 
L 148.851403 127.271632 
L 142.127788 157.516329 
L 135.404173 177.140301 
L 128.680558 201.210795 
L 121.956944 175.852374 
L 115.233329 153.545361 
L 108.509714 40.428363 
L 101.786099 59.373076 
L 95.062484 89.551203 
L 88.338869 114.737001 
L 81.615255 156.641279 
L 74.89164 125.644566 
L 68.168025 158.280388 
L 61.44441 117.024486 
L 54.720795 138.2623 
L 47.99718 35.222094 
L 41.273565 16.915663 
L 34.549951 22.375113 
L 27.826336 58.115523 
L 21.102721 72.32571 
L 14.379106 114.590914 
L 7.655491 87.540716 
L 0.931876 109.091176 
L -1 106.74879 
L -1 106.74879 
" clip-path="url(#pf3fa4f8fb9)" style="fill: none; stroke: #008b8b; stroke-width: 1.5; stroke-linecap: square"/>
   </g>
   <g id="line2d_25">
    <path d="M 511.480115 185.594234 
L 505.20299 157.369073 
L 498.479375 121.15551 
L 491.75576 125.85796 
L 485.032145 104.216028 
L 478.30853 118.647013 
L 471.584916 145.631009 
L 464.861301 163.264574 
L 458.137686 133.104162 
L 451.414071 113.566037 
L 444.690456 124.994865 
L 437.966841 143.166463 
L 431.243227 116.885789 
L 424.519612 154.57281 
L 417.795997 162.157553 
L 411.072382 178.691978 
L 404.348767 151.781102 
L 397.625152 108.051773 
L 390.901537 122.545714 
L 384.177923 141.653593 
L 377.454308 157.164613 
L 370.730693 148.106382 
L 364.007078 134.064813 
L 357.283463 135.457311 
L 350.559848 94.669331 
L 343.836234 67.656588 
L 337.112619 33.816935 
L 330.389004 84.004889 
L 323.665389 102.75365 
L 316.941774 147.725146 
L 310.218159 121.194159 
L 303.494544 99.523545 
L 296.77093 116.817339 
L 290.047315 102.524066 
L 283.3237 103.425567 
L 276.600085 104.094585 
L 269.87647 110.750362 
L 263.152855 98.030116 
L 256.429241 143.76188 
L 249.705626 169.68962 
L 242.982011 192.006797 
L 236.258396 188.576726 
L 229.534781 115.687771 
L 222.811166 102.342517 
L 216.087551 115.520997 
L 209.363937 95.744935 
L 202.640322 151.8336 
L 195.916707 142.587011 
L 189.193092 137.789135 
L 182.469477 101.348965 
L 175.745862 97.112399 
L 169.022248 98.45393 
L 162.298633 69.572218 
L 155.575018 46.377378 
L 148.851403 133.691391 
L 142.127788 161.517707 
L 135.404173 179.91848 
L 128.680558 196.486098 
L 121.956944 168.629564 
L 115.233329 132.673535 
L 108.509714 23.451581 
L 101.786099 40.670079 
L 95.062484 80.058199 
L 88.338869 105.835165 
L 81.615255 153.837812 
L 74.89164 123.666583 
L 68.168025 151.255799 
L 61.44441 115.006463 
L 54.720795 135.961423 
L 47.99718 44.264089 
L 41.273565 17.369211 
L 34.549951 27.781657 
L 27.826336 61.498658 
L 21.102721 78.135194 
L 14.379106 114.310255 
L 7.655491 92.214676 
L 0.931876 113.102725 
L -1 113.878816 
L -1 113.878816 
" clip-path="url(#pf3fa4f8fb9)" style="fill: none; stroke: #ff8c00; stroke-width: 1.5; stroke-linecap: square"/>
   </g>
   <g id="patch_3">
    <path d="M 52.079375 220.944578 
L 52.079375 7.2 
" style="fill: none; stroke: #000000; stroke-width: 0.8; stroke-linejoin: miter; stroke-linecap: square"/>
   </g>
   <g id="patch_4">
    <path d="M 498.479375 220.944578 
L 498.479375 7.2 
" style="fill: none; stroke: #000000; stroke-width: 0.8; stroke-linejoin: miter; stroke-linecap: square"/>
   </g>
   <g id="patch_5">
    <path d="M 52.079375 220.944578 
L 498.479375 220.944578 
" style="fill: none; stroke: #000000; stroke-width: 0.8; stroke-linejoin: miter; stroke-linecap: square"/>
   </g>
   <g id="patch_6">
    <path d="M 52.079375 7.2 
L 498.479375 7.2 
" style="fill: none; stroke: #000000; stroke-width: 0.8; stroke-linejoin: miter; stroke-linecap: square"/>
   </g>
   <g id="text_7">
    <!-- 3 periods -->
    <g transform="translate(244.984297 33.261687) scale(0.13 -0.13)">
     <defs>
      <path id="DejaVuSans-33" d="M 2597 2516 
Q 3050 2419 3304 2112 
Q 3559 1806 3559 1356 
Q 3559 666 3084 287 
Q 2609 -91 1734 -91 
Q 1441 -91 1130 -33 
Q 819 25 488 141 
L 488 750 
Q 750 597 1062 519 
Q 1375 441 1716 441 
Q 2309 441 2620 675 
Q 2931 909 2931 1356 
Q 2931 1769 2642 2001 
Q 2353 2234 1838 2234 
L 1294 2234 
L 1294 2753 
L 1863 2753 
Q 2328 2753 2575 2939 
Q 2822 3125 2822 3475 
Q 2822 3834 2567 4026 
Q 2313 4219 1838 4219 
Q 1578 4219 1281 4162 
Q 984 4106 628 3988 
L 628 4550 
Q 988 4650 1302 4700 
Q 1616 4750 1894 4750 
Q 2613 4750 3031 4423 
Q 3450 4097 3450 3541 
Q 3450 3153 3228 2886 
Q 3006 2619 2597 2516 
z
" transform="scale(0.015625)"/>
      <path id="DejaVuSans-20" transform="scale(0.015625)"/>
      <path id="DejaVuSans-70" d="M 1159 525 
L 1159 -1331 
L 581 -1331 
L 581 3500 
L 1159 3500 
L 1159 2969 
Q 1341 3281 1617 3432 
Q 1894 3584 2278 3584 
Q 2916 3584 3314 3078 
Q 3713 2572 3713 1747 
Q 3713 922 3314 415 
Q 2916 -91 2278 -91 
Q 1894 -91 1617 61 
Q 1341 213 1159 525 
z
M 3116 1747 
Q 3116 2381 2855 2742 
Q 2594 3103 2138 3103 
Q 1681 3103 1420 2742 
Q 1159 2381 1159 1747 
Q 1159 1113 1420 752 
Q 1681 391 2138 391 
Q 2594 391 2855 752 
Q 3116 1113 3116 1747 
z
" transform="scale(0.015625)"/>
      <path id="DejaVuSans-65" d="M 3597 1894 
L 3597 1613 
L 953 1613 
Q 991 1019 1311 708 
Q 1631 397 2203 397 
Q 2534 397 2845 478 
Q 3156 559 3463 722 
L 3463 178 
Q 3153 47 2828 -22 
Q 2503 -91 2169 -91 
Q 1331 -91 842 396 
Q 353 884 353 1716 
Q 353 2575 817 3079 
Q 1281 3584 2069 3584 
Q 2775 3584 3186 3129 
Q 3597 2675 3597 1894 
z
M 3022 2063 
Q 3016 2534 2758 2815 
Q 2500 3097 2075 3097 
Q 1594 3097 1305 2825 
Q 1016 2553 972 2059 
L 3022 2063 
z
" transform="scale(0.015625)"/>
      <path id="DejaVuSans-72" d="M 2631 2963 
Q 2534 3019 2420 3045 
Q 2306 3072 2169 3072 
Q 1681 3072 1420 2755 
Q 1159 2438 1159 1844 
L 1159 0 
L 581 0 
L 581 3500 
L 1159 3500 
L 1159 2956 
Q 1341 3275 1631 3429 
Q 1922 3584 2338 3584 
Q 2397 3584 2469 3576 
Q 2541 3569 2628 3553 
L 2631 2963 
z
" transform="scale(0.015625)"/>
      <path id="DejaVuSans-69" d="M 603 3500 
L 1178 3500 
L 1178 0 
L 603 0 
L 603 3500 
z
M 603 4863 
L 1178 4863 
L 1178 4134 
L 603 4134 
L 603 4863 
z
" transform="scale(0.015625)"/>
      <path id="DejaVuSans-6f" d="M 1959 3097 
Q 1497 3097 1228 2736 
Q 959 2375 959 1747 
Q 959 1119 1226 758 
Q 1494 397 1959 397 
Q 2419 397 2687 759 
Q 2956 1122 2956 1747 
Q 2956 2369 2687 2733 
Q 2419 3097 1959 3097 
z
M 1959 3584 
Q 2709 3584 3137 3096 
Q 3566 2609 3566 1747 
Q 3566 888 3137 398 
Q 2709 -91 1959 -91 
Q 1206 -91 779 398 
Q 353 888 353 1747 
Q 353 2609 779 3096 
Q 1206 3584 1959 3584 
z
" transform="scale(0.015625)"/>
      <path id="DejaVuSans-64" d="M 2906 2969 
L 2906 4863 
L 3481 4863 
L 3481 0 
L 2906 0 
L 2906 525 
Q 2725 213 2448 61 
Q 2172 -91 1784 -91 
Q 1150 -91 751 415 
Q 353 922 353 1747 
Q 353 2572 751 3078 
Q 1150 3584 1784 3584 
Q 2172 3584 2448 3432 
Q 2725 3281 2906 2969 
z
M 947 1747 
Q 947 1113 1208 752 
Q 1469 391 1925 391 
Q 2381 391 2643 752 
Q 2906 1113 2906 1747 
Q 2906 2381 2643 2742 
Q 2381 3103 1925 3103 
Q 1469 3103 1208 2742 
Q 947 2381 947 1747 
z
" transform="scale(0.015625)"/>
      <path id="DejaVuSans-73" d="M 2834 3397 
L 2834 2853 
Q 2591 2978 2328 3040 
Q 2066 3103 1784 3103 
Q 1356 3103 1142 2972 
Q 928 2841 928 2578 
Q 928 2378 1081 2264 
Q 1234 2150 1697 2047 
L 1894 2003 
Q 2506 1872 2764 1633 
Q 3022 1394 3022 966 
Q 3022 478 2636 193 
Q 2250 -91 1575 -91 
Q 1294 -91 989 -36 
Q 684 19 347 128 
L 347 722 
Q 666 556 975 473 
Q 1284 391 1588 391 
Q 1994 391 2212 530 
Q 2431 669 2431 922 
Q 2431 1156 2273 1281 
Q 2116 1406 1581 1522 
L 1381 1569 
Q 847 1681 609 1914 
Q 372 2147 372 2553 
Q 372 3047 722 3315 
Q 1072 3584 1716 3584 
Q 2034 3584 2315 3537 
Q 2597 3491 2834 3397 
z
" transform="scale(0.015625)"/>
     </defs>
     <use xlink:href="#DejaVuSans-33"/>
     <use xlink:href="#DejaVuSans-20" x="63.623047"/>
     <use xlink:href="#DejaVuSans-70" x="95.410156"/>
     <use xlink:href="#DejaVuSans-65" x="158.886719"/>
     <use xlink:href="#DejaVuSans-72" x="220.410156"/>
     <use xlink:href="#DejaVuSans-69" x="261.523438"/>
     <use xlink:href="#DejaVuSans-6f" x="289.306641"/>
     <use xlink:href="#DejaVuSans-64" x="350.488281"/>
     <use xlink:href="#DejaVuSans-73" x="413.964844"/>
    </g>
   </g>
   <g id="legend_1">
    <g id="patch_7">
     <path d="M 390.03875 59.234375 
L 491.479375 59.234375 
Q 493.479375 59.234375 493.479375 57.234375 
L 493.479375 14.2 
Q 493.479375 12.2 491.479375 12.2 
L 390.03875 12.2 
Q 388.03875 12.2 388.03875 14.2 
L 388.03875 57.234375 
Q 388.03875 59.234375 390.03875 59.234375 
z
" style="fill: #ffffff; opacity: 0.8; stroke: #cccccc; stroke-linejoin: miter"/>
    </g>
    <g id="line2d_26">
     <path d="M 392.03875 20.298437 
L 402.03875 20.298437 
L 412.03875 20.298437 
" style="fill: none; stroke: #8b0000; stroke-width: 1.5; stroke-linecap: square"/>
    </g>
    <g id="text_8">
     <!-- Benchmark -->
     <g transform="translate(420.03875 23.798437) scale(0.1 -0.1)">
      <defs>
       <path id="DejaVuSans-42" d="M 1259 2228 
L 1259 519 
L 2272 519 
Q 2781 519 3026 730 
Q 3272 941 3272 1375 
Q 3272 1813 3026 2020 
Q 2781 2228 2272 2228 
L 1259 2228 
z
M 1259 4147 
L 1259 2741 
L 2194 2741 
Q 2656 2741 2882 2914 
Q 3109 3088 3109 3444 
Q 3109 3797 2882 3972 
Q 2656 4147 2194 4147 
L 1259 4147 
z
M 628 4666 
L 2241 4666 
Q 2963 4666 3353 4366 
Q 3744 4066 3744 3513 
Q 3744 3084 3544 2831 
Q 3344 2578 2956 2516 
Q 3422 2416 3680 2098 
Q 3938 1781 3938 1306 
Q 3938 681 3513 340 
Q 3088 0 2303 0 
L 628 0 
L 628 4666 
z
" transform="scale(0.015625)"/>
       <path id="DejaVuSans-6e" d="M 3513 2113 
L 3513 0 
L 2938 0 
L 2938 2094 
Q 2938 2591 2744 2837 
Q 2550 3084 2163 3084 
Q 1697 3084 1428 2787 
Q 1159 2491 1159 1978 
L 1159 0 
L 581 0 
L 581 3500 
L 1159 3500 
L 1159 2956 
Q 1366 3272 1645 3428 
Q 1925 3584 2291 3584 
Q 2894 3584 3203 3211 
Q 3513 2838 3513 2113 
z
" transform="scale(0.015625)"/>
       <path id="DejaVuSans-63" d="M 3122 3366 
L 3122 2828 
Q 2878 2963 2633 3030 
Q 2388 3097 2138 3097 
Q 1578 3097 1268 2742 
Q 959 2388 959 1747 
Q 959 1106 1268 751 
Q 1578 397 2138 397 
Q 2388 397 2633 464 
Q 2878 531 3122 666 
L 3122 134 
Q 2881 22 2623 -34 
Q 2366 -91 2075 -91 
Q 1284 -91 818 406 
Q 353 903 353 1747 
Q 353 2603 823 3093 
Q 1294 3584 2113 3584 
Q 2378 3584 2631 3529 
Q 2884 3475 3122 3366 
z
" transform="scale(0.015625)"/>
       <path id="DejaVuSans-68" d="M 3513 2113 
L 3513 0 
L 2938 0 
L 2938 2094 
Q 2938 2591 2744 2837 
Q 2550 3084 2163 3084 
Q 1697 3084 1428 2787 
Q 1159 2491 1159 1978 
L 1159 0 
L 581 0 
L 581 4863 
L 1159 4863 
L 1159 2956 
Q 1366 3272 1645 3428 
Q 1925 3584 2291 3584 
Q 2894 3584 3203 3211 
Q 3513 2838 3513 2113 
z
" transform="scale(0.015625)"/>
       <path id="DejaVuSans-6d" d="M 3328 2828 
Q 3544 3216 3844 3400 
Q 4144 3584 4550 3584 
Q 5097 3584 5394 3201 
Q 5691 2819 5691 2113 
L 5691 0 
L 5113 0 
L 5113 2094 
Q 5113 2597 4934 2840 
Q 4756 3084 4391 3084 
Q 3944 3084 3684 2787 
Q 3425 2491 3425 1978 
L 3425 0 
L 2847 0 
L 2847 2094 
Q 2847 2600 2669 2842 
Q 2491 3084 2119 3084 
Q 1678 3084 1418 2786 
Q 1159 2488 1159 1978 
L 1159 0 
L 581 0 
L 581 3500 
L 1159 3500 
L 1159 2956 
Q 1356 3278 1631 3431 
Q 1906 3584 2284 3584 
Q 2666 3584 2933 3390 
Q 3200 3197 3328 2828 
z
" transform="scale(0.015625)"/>
       <path id="DejaVuSans-61" d="M 2194 1759 
Q 1497 1759 1228 1600 
Q 959 1441 959 1056 
Q 959 750 1161 570 
Q 1363 391 1709 391 
Q 2188 391 2477 730 
Q 2766 1069 2766 1631 
L 2766 1759 
L 2194 1759 
z
M 3341 1997 
L 3341 0 
L 2766 0 
L 2766 531 
Q 2569 213 2275 61 
Q 1981 -91 1556 -91 
Q 1019 -91 701 211 
Q 384 513 384 1019 
Q 384 1609 779 1909 
Q 1175 2209 1959 2209 
L 2766 2209 
L 2766 2266 
Q 2766 2663 2505 2880 
Q 2244 3097 1772 3097 
Q 1472 3097 1187 3025 
Q 903 2953 641 2809 
L 641 3341 
Q 956 3463 1253 3523 
Q 1550 3584 1831 3584 
Q 2591 3584 2966 3190 
Q 3341 2797 3341 1997 
z
" transform="scale(0.015625)"/>
       <path id="DejaVuSans-6b" d="M 581 4863 
L 1159 4863 
L 1159 1991 
L 2875 3500 
L 3609 3500 
L 1753 1863 
L 3688 0 
L 2938 0 
L 1159 1709 
L 1159 0 
L 581 0 
L 581 4863 
z
" transform="scale(0.015625)"/>
      </defs>
      <use xlink:href="#DejaVuSans-42"/>
      <use xlink:href="#DejaVuSans-65" x="68.603516"/>
      <use xlink:href="#DejaVuSans-6e" x="130.126953"/>
      <use xlink:href="#DejaVuSans-63" x="193.505859"/>
      <use xlink:href="#DejaVuSans-68" x="248.486328"/>
      <use xlink:href="#DejaVuSans-6d" x="311.865234"/>
      <use xlink:href="#DejaVuSans-61" x="409.277344"/>
      <use xlink:href="#DejaVuSans-72" x="470.556641"/>
      <use xlink:href="#DejaVuSans-6b" x="511.669922"/>
     </g>
    </g>
    <g id="line2d_27">
     <path d="M 392.03875 34.976562 
L 402.03875 34.976562 
L 412.03875 34.976562 
" style="fill: none; stroke: #008b8b; stroke-width: 1.5; stroke-linecap: square"/>
    </g>
    <g id="text_9">
     <!-- RtT -->
     <g transform="translate(420.03875 38.476562) scale(0.1 -0.1)">
      <defs>
       <path id="DejaVuSans-52" d="M 2841 2188 
Q 3044 2119 3236 1894 
Q 3428 1669 3622 1275 
L 4263 0 
L 3584 0 
L 2988 1197 
Q 2756 1666 2539 1819 
Q 2322 1972 1947 1972 
L 1259 1972 
L 1259 0 
L 628 0 
L 628 4666 
L 2053 4666 
Q 2853 4666 3247 4331 
Q 3641 3997 3641 3322 
Q 3641 2881 3436 2590 
Q 3231 2300 2841 2188 
z
M 1259 4147 
L 1259 2491 
L 2053 2491 
Q 2509 2491 2742 2702 
Q 2975 2913 2975 3322 
Q 2975 3731 2742 3939 
Q 2509 4147 2053 4147 
L 1259 4147 
z
" transform="scale(0.015625)"/>
       <path id="DejaVuSans-74" d="M 1172 4494 
L 1172 3500 
L 2356 3500 
L 2356 3053 
L 1172 3053 
L 1172 1153 
Q 1172 725 1289 603 
Q 1406 481 1766 481 
L 2356 481 
L 2356 0 
L 1766 0 
Q 1100 0 847 248 
Q 594 497 594 1153 
L 594 3053 
L 172 3053 
L 172 3500 
L 594 3500 
L 594 4494 
L 1172 4494 
z
" transform="scale(0.015625)"/>
       <path id="DejaVuSans-54" d="M -19 4666 
L 3928 4666 
L 3928 4134 
L 2272 4134 
L 2272 0 
L 1638 0 
L 1638 4134 
L -19 4134 
L -19 4666 
z
" transform="scale(0.015625)"/>
      </defs>
      <use xlink:href="#DejaVuSans-52"/>
      <use xlink:href="#DejaVuSans-74" x="69.482422"/>
      <use xlink:href="#DejaVuSans-54" x="108.691406"/>
     </g>
    </g>
    <g id="line2d_28">
     <path d="M 392.03875 49.654687 
L 402.03875 49.654687 
L 412.03875 49.654687 
" style="fill: none; stroke: #ff8c00; stroke-width: 1.5; stroke-linecap: square"/>
    </g>
    <g id="text_10">
     <!-- Compensated -->
     <g transform="translate(420.03875 53.154687) scale(0.1 -0.1)">
      <defs>
       <path id="DejaVuSans-43" d="M 4122 4306 
L 4122 3641 
Q 3803 3938 3442 4084 
Q 3081 4231 2675 4231 
Q 1875 4231 1450 3742 
Q 1025 3253 1025 2328 
Q 1025 1406 1450 917 
Q 1875 428 2675 428 
Q 3081 428 3442 575 
Q 3803 722 4122 1019 
L 4122 359 
Q 3791 134 3420 21 
Q 3050 -91 2638 -91 
Q 1578 -91 968 557 
Q 359 1206 359 2328 
Q 359 3453 968 4101 
Q 1578 4750 2638 4750 
Q 3056 4750 3426 4639 
Q 3797 4528 4122 4306 
z
" transform="scale(0.015625)"/>
      </defs>
      <use xlink:href="#DejaVuSans-43"/>
      <use xlink:href="#DejaVuSans-6f" x="69.824219"/>
      <use xlink:href="#DejaVuSans-6d" x="131.005859"/>
      <use xlink:href="#DejaVuSans-70" x="228.417969"/>
      <use xlink:href="#DejaVuSans-65" x="291.894531"/>
      <use xlink:href="#DejaVuSans-6e" x="353.417969"/>
      <use xlink:href="#DejaVuSans-73" x="416.796875"/>
      <use xlink:href="#DejaVuSans-61" x="468.896484"/>
      <use xlink:href="#DejaVuSans-74" x="530.175781"/>
      <use xlink:href="#DejaVuSans-65" x="569.384766"/>
      <use xlink:href="#DejaVuSans-64" x="630.908203"/>
     </g>
    </g>
   </g>
  </g>
  <g id="axes_2">
   <g id="patch_8">
    <path d="M 52.079375 445.376386 
L 498.479375 445.376386 
L 498.479375 231.631807 
L 52.079375 231.631807 
L 52.079375 445.376386 
z
" style="fill: none"/>
   </g>
   <g id="matplotlib.axis_3">
    <g id="xtick_7">
     <g id="line2d_29">
      <path d="M 52.079375 445.376386 
L 52.079375 231.631807 
" clip-path="url(#p9e446ef64f)" style="fill: none; stroke-dasharray: 0.5,0.825; stroke-dashoffset: 0; stroke: #808080; stroke-width: 0.5"/>
     </g>
     <g id="line2d_30">
      <g>
       <use xlink:href="#m455e12d6a9" x="52.079375" y="445.376386" style="stroke: #000000; stroke-width: 0.8"/>
      </g>
     </g>
    </g>
    <g id="xtick_8">
     <g id="line2d_31">
      <path d="M 139.726497 445.376386 
L 139.726497 231.631807 
" clip-path="url(#p9e446ef64f)" style="fill: none; stroke-dasharray: 0.5,0.825; stroke-dashoffset: 0; stroke: #808080; stroke-width: 0.5"/>
     </g>
     <g id="line2d_32">
      <g>
       <use xlink:href="#m455e12d6a9" x="139.726497" y="445.376386" style="stroke: #000000; stroke-width: 0.8"/>
      </g>
     </g>
    </g>
    <g id="xtick_9">
     <g id="line2d_33">
      <path d="M 227.373619 445.376386 
L 227.373619 231.631807 
" clip-path="url(#p9e446ef64f)" style="fill: none; stroke-dasharray: 0.5,0.825; stroke-dashoffset: 0; stroke: #808080; stroke-width: 0.5"/>
     </g>
     <g id="line2d_34">
      <g>
       <use xlink:href="#m455e12d6a9" x="227.373619" y="445.376386" style="stroke: #000000; stroke-width: 0.8"/>
      </g>
     </g>
    </g>
    <g id="xtick_10">
     <g id="line2d_35">
      <path d="M 315.26087 445.376386 
L 315.26087 231.631807 
" clip-path="url(#p9e446ef64f)" style="fill: none; stroke-dasharray: 0.5,0.825; stroke-dashoffset: 0; stroke: #808080; stroke-width: 0.5"/>
     </g>
     <g id="line2d_36">
      <g>
       <use xlink:href="#m455e12d6a9" x="315.26087" y="445.376386" style="stroke: #000000; stroke-width: 0.8"/>
      </g>
     </g>
    </g>
    <g id="xtick_11">
     <g id="line2d_37">
      <path d="M 402.907993 445.376386 
L 402.907993 231.631807 
" clip-path="url(#p9e446ef64f)" style="fill: none; stroke-dasharray: 0.5,0.825; stroke-dashoffset: 0; stroke: #808080; stroke-width: 0.5"/>
     </g>
     <g id="line2d_38">
      <g>
       <use xlink:href="#m455e12d6a9" x="402.907993" y="445.376386" style="stroke: #000000; stroke-width: 0.8"/>
      </g>
     </g>
    </g>
    <g id="xtick_12">
     <g id="line2d_39">
      <path d="M 490.555115 445.376386 
L 490.555115 231.631807 
" clip-path="url(#p9e446ef64f)" style="fill: none; stroke-dasharray: 0.5,0.825; stroke-dashoffset: 0; stroke: #808080; stroke-width: 0.5"/>
     </g>
     <g id="line2d_40">
      <g>
       <use xlink:href="#m455e12d6a9" x="490.555115" y="445.376386" style="stroke: #000000; stroke-width: 0.8"/>
      </g>
     </g>
    </g>
   </g>
   <g id="matplotlib.axis_4">
    <g id="ytick_6">
     <g id="line2d_41">
      <path d="M 52.079375 434.181458 
L 498.479375 434.181458 
" clip-path="url(#p9e446ef64f)" style="fill: none; stroke-dasharray: 0.5,0.825; stroke-dashoffset: 0; stroke: #808080; stroke-width: 0.5"/>
     </g>
     <g id="line2d_42">
      <g>
       <use xlink:href="#m83aa239197" x="52.079375" y="434.181458" style="stroke: #000000; stroke-width: 0.8"/>
      </g>
     </g>
     <g id="text_11">
      <!-- −5 -->
      <g transform="translate(30.337187 437.980676) scale(0.1 -0.1)">
       <use xlink:href="#DejaVuSans-2212"/>
       <use xlink:href="#DejaVuSans-35" x="83.789062"/>
      </g>
     </g>
    </g>
    <g id="ytick_7">
     <g id="line2d_43">
      <path d="M 52.079375 391.434783 
L 498.479375 391.434783 
" clip-path="url(#p9e446ef64f)" style="fill: none; stroke-dasharray: 0.5,0.825; stroke-dashoffset: 0; stroke: #808080; stroke-width: 0.5"/>
     </g>
     <g id="line2d_44">
      <g>
       <use xlink:href="#m83aa239197" x="52.079375" y="391.434783" style="stroke: #000000; stroke-width: 0.8"/>
      </g>
     </g>
     <g id="text_12">
      <!-- 0 -->
      <g transform="translate(38.716875 395.234002) scale(0.1 -0.1)">
       <use xlink:href="#DejaVuSans-30"/>
      </g>
     </g>
    </g>
    <g id="ytick_8">
     <g id="line2d_45">
      <path d="M 52.079375 348.688109 
L 498.479375 348.688109 
" clip-path="url(#p9e446ef64f)" style="fill: none; stroke-dasharray: 0.5,0.825; stroke-dashoffset: 0; stroke: #808080; stroke-width: 0.5"/>
     </g>
     <g id="line2d_46">
      <g>
       <use xlink:href="#m83aa239197" x="52.079375" y="348.688109" style="stroke: #000000; stroke-width: 0.8"/>
      </g>
     </g>
     <g id="text_13">
      <!-- 5 -->
      <g transform="translate(38.716875 352.487328) scale(0.1 -0.1)">
       <use xlink:href="#DejaVuSans-35"/>
      </g>
     </g>
    </g>
    <g id="ytick_9">
     <g id="line2d_47">
      <path d="M 52.079375 305.941435 
L 498.479375 305.941435 
" clip-path="url(#p9e446ef64f)" style="fill: none; stroke-dasharray: 0.5,0.825; stroke-dashoffset: 0; stroke: #808080; stroke-width: 0.5"/>
     </g>
     <g id="line2d_48">
      <g>
       <use xlink:href="#m83aa239197" x="52.079375" y="305.941435" style="stroke: #000000; stroke-width: 0.8"/>
      </g>
     </g>
     <g id="text_14">
      <!-- 10 -->
      <g transform="translate(32.354375 309.740654) scale(0.1 -0.1)">
       <use xlink:href="#DejaVuSans-31"/>
       <use xlink:href="#DejaVuSans-30" x="63.623047"/>
      </g>
     </g>
    </g>
    <g id="ytick_10">
     <g id="line2d_49">
      <path d="M 52.079375 263.194761 
L 498.479375 263.194761 
" clip-path="url(#p9e446ef64f)" style="fill: none; stroke-dasharray: 0.5,0.825; stroke-dashoffset: 0; stroke: #808080; stroke-width: 0.5"/>
     </g>
     <g id="line2d_50">
      <g>
       <use xlink:href="#m83aa239197" x="52.079375" y="263.194761" style="stroke: #000000; stroke-width: 0.8"/>
      </g>
     </g>
     <g id="text_15">
      <!-- 15 -->
      <g transform="translate(32.354375 266.993979) scale(0.1 -0.1)">
       <use xlink:href="#DejaVuSans-31"/>
       <use xlink:href="#DejaVuSans-35" x="63.623047"/>
      </g>
     </g>
    </g>
    <g id="text_16">
     <!-- $IR$ -->
     <g transform="translate(23.841562 344.444096) rotate(-90) scale(0.12 -0.12)">
      <use xlink:href="#DejaVuSans-Oblique-49" transform="translate(0 0.09375)"/>
      <use xlink:href="#DejaVuSans-Oblique-52" transform="translate(29.492188 0.09375)"/>
     </g>
    </g>
   </g>
   <g id="line2d_51">
    <path d="M 511.480115 393.435404 
L 505.20299 391.617533 
L 498.479375 404.090789 
L 491.75576 390.289479 
L 485.032145 401.612705 
L 478.30853 408.870632 
L 471.584916 407.075271 
L 464.861301 435.660723 
L 458.137686 415.413612 
L 451.414071 397.827085 
L 444.690456 410.713135 
L 437.966841 412.430477 
L 431.243227 394.002726 
L 424.519612 398.541256 
L 417.795997 370.966425 
L 411.072382 372.621458 
L 404.348767 347.015185 
L 397.625152 334.870518 
L 390.901537 339.522169 
L 384.177923 311.694577 
L 377.454308 315.490704 
L 370.730693 309.43307 
L 364.007078 303.962606 
L 357.283463 308.262815 
L 350.559848 300.375248 
L 343.836234 283.839541 
L 337.112619 301.609917 
L 330.389004 297.740001 
L 323.665389 294.749691 
L 316.941774 355.781069 
L 310.218159 368.060592 
L 303.494544 373.53459 
L 296.77093 373.886864 
L 290.047315 377.891336 
L 283.3237 376.772276 
L 276.600085 376.951469 
L 269.87647 374.429558 
L 263.152855 389.287325 
L 256.429241 387.890624 
L 249.705626 391.335642 
L 242.982011 415.638396 
L 236.258396 381.869601 
L 229.534781 322.338402 
L 222.811166 317.789011 
L 216.087551 312.594652 
L 209.363937 327.19784 
L 202.640322 356.342794 
L 195.916707 358.354821 
L 189.193092 392.744943 
L 182.469477 372.383056 
L 175.745862 372.684513 
L 169.022248 381.234351 
L 162.298633 366.844963 
L 155.575018 367.308574 
L 148.851403 376.049514 
L 142.127788 390.936684 
L 135.404173 388.656083 
L 128.680558 407.275589 
L 121.956944 382.699338 
L 115.233329 373.042265 
L 108.509714 344.420102 
L 101.786099 335.833222 
L 95.062484 330.69049 
L 88.338869 341.04969 
L 81.615255 330.022518 
L 74.89164 337.818524 
L 68.168025 332.871065 
L 61.44441 296.490499 
L 54.720795 310.776059 
L 47.99718 252.328185 
L 41.273565 260.782997 
L 34.549951 261.900932 
L 27.826336 250.717839 
L 21.102721 274.65744 
L 14.379106 300.552425 
L 7.655491 304.58014 
L 0.931876 317.215119 
L -1 312.144269 
L -1 312.144269 
" clip-path="url(#p9e446ef64f)" style="fill: none; stroke: #8b0000; stroke-width: 1.5; stroke-linecap: square"/>
   </g>
   <g id="line2d_52">
    <path d="M 511.480115 381.729589 
L 505.20299 370.741682 
L 498.479375 368.018098 
L 491.75576 358.14758 
L 485.032145 376.175731 
L 478.30853 382.487784 
L 471.584916 383.051856 
L 464.861301 405.817762 
L 458.137686 384.727509 
L 451.414071 372.201267 
L 444.690456 388.356392 
L 437.966841 388.403138 
L 431.243227 380.157212 
L 424.519612 386.59552 
L 417.795997 369.405166 
L 411.072382 366.833848 
L 404.348767 333.852412 
L 397.625152 306.073487 
L 390.901537 315.412655 
L 384.177923 304.780011 
L 377.454308 312.751119 
L 370.730693 305.37517 
L 364.007078 291.574676 
L 357.283463 301.980808 
L 350.559848 289.299355 
L 343.836234 273.216801 
L 337.112619 284.773122 
L 330.389004 286.532538 
L 323.665389 282.496011 
L 316.941774 357.956934 
L 310.218159 371.135141 
L 303.494544 374.86953 
L 296.77093 375.501722 
L 290.047315 378.01862 
L 283.3237 383.354041 
L 276.600085 380.078252 
L 269.87647 378.61982 
L 263.152855 395.145701 
L 256.429241 389.725833 
L 249.705626 388.814719 
L 242.982011 411.802124 
L 236.258396 377.302207 
L 229.534781 314.982352 
L 222.811166 312.652615 
L 216.087551 301.456454 
L 209.363937 324.681359 
L 202.640322 349.011678 
L 195.916707 352.880001 
L 189.193092 382.036657 
L 182.469477 361.642549 
L 175.745862 356.421916 
L 169.022248 364.552461 
L 162.298633 352.845092 
L 155.575018 354.783904 
L 148.851403 364.451085 
L 142.127788 380.274485 
L 135.404173 373.24983 
L 128.680558 381.938389 
L 121.956944 358.425782 
L 115.233329 344.470519 
L 108.509714 317.431036 
L 101.786099 307.555595 
L 95.062484 311.196989 
L 88.338869 320.055868 
L 81.615255 311.943272 
L 74.89164 319.818405 
L 68.168025 312.682536 
L 61.44441 278.802871 
L 54.720795 304.369487 
L 47.99718 241.34747 
L 41.273565 241.425672 
L 34.549951 253.876489 
L 27.826336 248.424031 
L 21.102721 259.843198 
L 14.379106 285.488544 
L 7.655491 287.605771 
L 0.931876 304.158761 
L -1 297.785854 
L -1 297.785854 
" clip-path="url(#p9e446ef64f)" style="fill: none; stroke: #008b8b; stroke-width: 1.5; stroke-linecap: square"/>
   </g>
   <g id="line2d_53">
    <path d="M 511.480115 374.661607 
L 505.20299 359.261585 
L 498.479375 344.596954 
L 491.75576 338.852056 
L 485.032145 358.274552 
L 478.30853 363.636756 
L 471.584916 363.95759 
L 464.861301 379.557219 
L 458.137686 362.209035 
L 451.414071 354.727064 
L 444.690456 371.553422 
L 437.966841 370.629263 
L 431.243227 368.892593 
L 424.519612 376.423833 
L 417.795997 366.804682 
L 411.072382 361.466659 
L 404.348767 329.143214 
L 397.625152 295.758835 
L 390.901537 307.284165 
L 384.177923 305.088946 
L 377.454308 315.145172 
L 370.730693 308.113848 
L 364.007078 290.522136 
L 357.283463 302.924253 
L 350.559848 291.277509 
L 343.836234 278.668373 
L 337.112619 290.526123 
L 330.389004 297.737843 
L 323.665389 292.725206 
L 316.941774 358.809317 
L 310.218159 371.90441 
L 303.494544 373.432961 
L 296.77093 373.425544 
L 290.047315 375.371145 
L 283.3237 383.541004 
L 276.600085 378.491411 
L 269.87647 377.403222 
L 263.152855 393.848499 
L 256.429241 385.039766 
L 249.705626 382.640844 
L 242.982011 404.846714 
L 236.258396 376.266306 
L 229.534781 317.795972 
L 222.811166 318.270766 
L 216.087551 303.924494 
L 209.363937 328.222956 
L 202.640322 350.566522 
L 195.916707 354.928982 
L 189.193092 380.357135 
L 182.469477 359.6091 
L 175.745862 350.938824 
L 169.022248 356.430777 
L 162.298633 345.362189 
L 155.575018 347.445121 
L 148.851403 355.797051 
L 142.127788 371.360142 
L 135.404173 363.417216 
L 128.680558 366.654236 
L 121.956944 346.011586 
L 115.233329 330.587075 
L 108.509714 305.148471 
L 101.786099 295.559322 
L 95.062484 303.907799 
L 88.338869 311.811855 
L 81.615255 307.670862 
L 74.89164 315.958521 
L 68.168025 309.33799 
L 61.44441 277.130599 
L 54.720795 307.451781 
L 47.99718 250.744973 
L 41.273565 245.745494 
L 34.549951 265.011805 
L 27.826336 262.334771 
L 21.102721 261.38127 
L 14.379106 283.966981 
L 7.655491 283.757641 
L 0.931876 299.700057 
L -1 293.838597 
L -1 293.838597 
" clip-path="url(#p9e446ef64f)" style="fill: none; stroke: #ff8c00; stroke-width: 1.5; stroke-linecap: square"/>
   </g>
   <g id="patch_9">
    <path d="M 52.079375 445.376386 
L 52.079375 231.631807 
" style="fill: none; stroke: #000000; stroke-width: 0.8; stroke-linejoin: miter; stroke-linecap: square"/>
   </g>
   <g id="patch_10">
    <path d="M 498.479375 445.376386 
L 498.479375 231.631807 
" style="fill: none; stroke: #000000; stroke-width: 0.8; stroke-linejoin: miter; stroke-linecap: square"/>
   </g>
   <g id="patch_11">
    <path d="M 52.079375 445.376386 
L 498.479375 445.376386 
" style="fill: none; stroke: #000000; stroke-width: 0.8; stroke-linejoin: miter; stroke-linecap: square"/>
   </g>
   <g id="patch_12">
    <path d="M 52.079375 231.631807 
L 498.479375 231.631807 
" style="fill: none; stroke: #000000; stroke-width: 0.8; stroke-linejoin: miter; stroke-linecap: square"/>
   </g>
   <g id="text_17">
    <!-- 12 periods -->
    <g transform="translate(240.848672 257.693494) scale(0.13 -0.13)">
     <defs>
      <path id="DejaVuSans-32" d="M 1228 531 
L 3431 531 
L 3431 0 
L 469 0 
L 469 531 
Q 828 903 1448 1529 
Q 2069 2156 2228 2338 
Q 2531 2678 2651 2914 
Q 2772 3150 2772 3378 
Q 2772 3750 2511 3984 
Q 2250 4219 1831 4219 
Q 1534 4219 1204 4116 
Q 875 4013 500 3803 
L 500 4441 
Q 881 4594 1212 4672 
Q 1544 4750 1819 4750 
Q 2544 4750 2975 4387 
Q 3406 4025 3406 3419 
Q 3406 3131 3298 2873 
Q 3191 2616 2906 2266 
Q 2828 2175 2409 1742 
Q 1991 1309 1228 531 
z
" transform="scale(0.015625)"/>
     </defs>
     <use xlink:href="#DejaVuSans-31"/>
     <use xlink:href="#DejaVuSans-32" x="63.623047"/>
     <use xlink:href="#DejaVuSans-20" x="127.246094"/>
     <use xlink:href="#DejaVuSans-70" x="159.033203"/>
     <use xlink:href="#DejaVuSans-65" x="222.509766"/>
     <use xlink:href="#DejaVuSans-72" x="284.033203"/>
     <use xlink:href="#DejaVuSans-69" x="325.146484"/>
     <use xlink:href="#DejaVuSans-6f" x="352.929688"/>
     <use xlink:href="#DejaVuSans-64" x="414.111328"/>
     <use xlink:href="#DejaVuSans-73" x="477.587891"/>
    </g>
   </g>
   <g id="legend_2">
    <g id="patch_13">
     <path d="M 390.03875 283.666182 
L 491.479375 283.666182 
Q 493.479375 283.666182 493.479375 281.666182 
L 493.479375 238.631807 
Q 493.479375 236.631807 491.479375 236.631807 
L 390.03875 236.631807 
Q 388.03875 236.631807 388.03875 238.631807 
L 388.03875 281.666182 
Q 388.03875 283.666182 390.03875 283.666182 
z
" style="fill: #ffffff; opacity: 0.8; stroke: #cccccc; stroke-linejoin: miter"/>
    </g>
    <g id="line2d_54">
     <path d="M 392.03875 244.730245 
L 402.03875 244.730245 
L 412.03875 244.730245 
" style="fill: none; stroke: #8b0000; stroke-width: 1.5; stroke-linecap: square"/>
    </g>
    <g id="text_18">
     <!-- Benchmark -->
     <g transform="translate(420.03875 248.230245) scale(0.1 -0.1)">
      <use xlink:href="#DejaVuSans-42"/>
      <use xlink:href="#DejaVuSans-65" x="68.603516"/>
      <use xlink:href="#DejaVuSans-6e" x="130.126953"/>
      <use xlink:href="#DejaVuSans-63" x="193.505859"/>
      <use xlink:href="#DejaVuSans-68" x="248.486328"/>
      <use xlink:href="#DejaVuSans-6d" x="311.865234"/>
      <use xlink:href="#DejaVuSans-61" x="409.277344"/>
      <use xlink:href="#DejaVuSans-72" x="470.556641"/>
      <use xlink:href="#DejaVuSans-6b" x="511.669922"/>
     </g>
    </g>
    <g id="line2d_55">
     <path d="M 392.03875 259.40837 
L 402.03875 259.40837 
L 412.03875 259.40837 
" style="fill: none; stroke: #008b8b; stroke-width: 1.5; stroke-linecap: square"/>
    </g>
    <g id="text_19">
     <!-- RtT -->
     <g transform="translate(420.03875 262.90837) scale(0.1 -0.1)">
      <use xlink:href="#DejaVuSans-52"/>
      <use xlink:href="#DejaVuSans-74" x="69.482422"/>
      <use xlink:href="#DejaVuSans-54" x="108.691406"/>
     </g>
    </g>
    <g id="line2d_56">
     <path d="M 392.03875 274.086495 
L 402.03875 274.086495 
L 412.03875 274.086495 
" style="fill: none; stroke: #ff8c00; stroke-width: 1.5; stroke-linecap: square"/>
    </g>
    <g id="text_20">
     <!-- Compensated -->
     <g transform="translate(420.03875 277.586495) scale(0.1 -0.1)">
      <use xlink:href="#DejaVuSans-43"/>
      <use xlink:href="#DejaVuSans-6f" x="69.824219"/>
      <use xlink:href="#DejaVuSans-6d" x="131.005859"/>
      <use xlink:href="#DejaVuSans-70" x="228.417969"/>
      <use xlink:href="#DejaVuSans-65" x="291.894531"/>
      <use xlink:href="#DejaVuSans-6e" x="353.417969"/>
      <use xlink:href="#DejaVuSans-73" x="416.796875"/>
      <use xlink:href="#DejaVuSans-61" x="468.896484"/>
      <use xlink:href="#DejaVuSans-74" x="530.175781"/>
      <use xlink:href="#DejaVuSans-65" x="569.384766"/>
      <use xlink:href="#DejaVuSans-64" x="630.908203"/>
     </g>
    </g>
   </g>
  </g>
  <g id="axes_3">
   <g id="patch_14">
    <path d="M 52.079375 669.808193 
L 498.479375 669.808193 
L 498.479375 456.063614 
L 52.079375 456.063614 
L 52.079375 669.808193 
z
" style="fill: none"/>
   </g>
   <g id="matplotlib.axis_5">
    <g id="xtick_13">
     <g id="line2d_57">
      <path d="M 52.079375 669.808193 
L 52.079375 456.063614 
" clip-path="url(#p3d10eea47d)" style="fill: none; stroke-dasharray: 0.5,0.825; stroke-dashoffset: 0; stroke: #808080; stroke-width: 0.5"/>
     </g>
     <g id="line2d_58">
      <g>
       <use xlink:href="#m455e12d6a9" x="52.079375" y="669.808193" style="stroke: #000000; stroke-width: 0.8"/>
      </g>
     </g>
    </g>
    <g id="xtick_14">
     <g id="line2d_59">
      <path d="M 139.726497 669.808193 
L 139.726497 456.063614 
" clip-path="url(#p3d10eea47d)" style="fill: none; stroke-dasharray: 0.5,0.825; stroke-dashoffset: 0; stroke: #808080; stroke-width: 0.5"/>
     </g>
     <g id="line2d_60">
      <g>
       <use xlink:href="#m455e12d6a9" x="139.726497" y="669.808193" style="stroke: #000000; stroke-width: 0.8"/>
      </g>
     </g>
    </g>
    <g id="xtick_15">
     <g id="line2d_61">
      <path d="M 227.373619 669.808193 
L 227.373619 456.063614 
" clip-path="url(#p3d10eea47d)" style="fill: none; stroke-dasharray: 0.5,0.825; stroke-dashoffset: 0; stroke: #808080; stroke-width: 0.5"/>
     </g>
     <g id="line2d_62">
      <g>
       <use xlink:href="#m455e12d6a9" x="227.373619" y="669.808193" style="stroke: #000000; stroke-width: 0.8"/>
      </g>
     </g>
    </g>
    <g id="xtick_16">
     <g id="line2d_63">
      <path d="M 315.26087 669.808193 
L 315.26087 456.063614 
" clip-path="url(#p3d10eea47d)" style="fill: none; stroke-dasharray: 0.5,0.825; stroke-dashoffset: 0; stroke: #808080; stroke-width: 0.5"/>
     </g>
     <g id="line2d_64">
      <g>
       <use xlink:href="#m455e12d6a9" x="315.26087" y="669.808193" style="stroke: #000000; stroke-width: 0.8"/>
      </g>
     </g>
    </g>
    <g id="xtick_17">
     <g id="line2d_65">
      <path d="M 402.907993 669.808193 
L 402.907993 456.063614 
" clip-path="url(#p3d10eea47d)" style="fill: none; stroke-dasharray: 0.5,0.825; stroke-dashoffset: 0; stroke: #808080; stroke-width: 0.5"/>
     </g>
     <g id="line2d_66">
      <g>
       <use xlink:href="#m455e12d6a9" x="402.907993" y="669.808193" style="stroke: #000000; stroke-width: 0.8"/>
      </g>
     </g>
    </g>
    <g id="xtick_18">
     <g id="line2d_67">
      <path d="M 490.555115 669.808193 
L 490.555115 456.063614 
" clip-path="url(#p3d10eea47d)" style="fill: none; stroke-dasharray: 0.5,0.825; stroke-dashoffset: 0; stroke: #808080; stroke-width: 0.5"/>
     </g>
     <g id="line2d_68">
      <g>
       <use xlink:href="#m455e12d6a9" x="490.555115" y="669.808193" style="stroke: #000000; stroke-width: 0.8"/>
      </g>
     </g>
    </g>
   </g>
   <g id="matplotlib.axis_6">
    <g id="ytick_11">
     <g id="line2d_69">
      <path d="M 52.079375 647.084542 
L 498.479375 647.084542 
" clip-path="url(#p3d10eea47d)" style="fill: none; stroke-dasharray: 0.5,0.825; stroke-dashoffset: 0; stroke: #808080; stroke-width: 0.5"/>
     </g>
     <g id="line2d_70">
      <g>
       <use xlink:href="#m83aa239197" x="52.079375" y="647.084542" style="stroke: #000000; stroke-width: 0.8"/>
      </g>
     </g>
     <g id="text_21">
      <!-- 0 -->
      <g transform="translate(38.716875 650.883761) scale(0.1 -0.1)">
       <use xlink:href="#DejaVuSans-30"/>
      </g>
     </g>
    </g>
    <g id="ytick_12">
     <g id="line2d_71">
      <path d="M 52.079375 604.181315 
L 498.479375 604.181315 
" clip-path="url(#p3d10eea47d)" style="fill: none; stroke-dasharray: 0.5,0.825; stroke-dashoffset: 0; stroke: #808080; stroke-width: 0.5"/>
     </g>
     <g id="line2d_72">
      <g>
       <use xlink:href="#m83aa239197" x="52.079375" y="604.181315" style="stroke: #000000; stroke-width: 0.8"/>
      </g>
     </g>
     <g id="text_22">
      <!-- 5 -->
      <g transform="translate(38.716875 607.980534) scale(0.1 -0.1)">
       <use xlink:href="#DejaVuSans-35"/>
      </g>
     </g>
    </g>
    <g id="ytick_13">
     <g id="line2d_73">
      <path d="M 52.079375 561.278088 
L 498.479375 561.278088 
" clip-path="url(#p3d10eea47d)" style="fill: none; stroke-dasharray: 0.5,0.825; stroke-dashoffset: 0; stroke: #808080; stroke-width: 0.5"/>
     </g>
     <g id="line2d_74">
      <g>
       <use xlink:href="#m83aa239197" x="52.079375" y="561.278088" style="stroke: #000000; stroke-width: 0.8"/>
      </g>
     </g>
     <g id="text_23">
      <!-- 10 -->
      <g transform="translate(32.354375 565.077307) scale(0.1 -0.1)">
       <use xlink:href="#DejaVuSans-31"/>
       <use xlink:href="#DejaVuSans-30" x="63.623047"/>
      </g>
     </g>
    </g>
    <g id="ytick_14">
     <g id="line2d_75">
      <path d="M 52.079375 518.374862 
L 498.479375 518.374862 
" clip-path="url(#p3d10eea47d)" style="fill: none; stroke-dasharray: 0.5,0.825; stroke-dashoffset: 0; stroke: #808080; stroke-width: 0.5"/>
     </g>
     <g id="line2d_76">
      <g>
       <use xlink:href="#m83aa239197" x="52.079375" y="518.374862" style="stroke: #000000; stroke-width: 0.8"/>
      </g>
     </g>
     <g id="text_24">
      <!-- 15 -->
      <g transform="translate(32.354375 522.17408) scale(0.1 -0.1)">
       <use xlink:href="#DejaVuSans-31"/>
       <use xlink:href="#DejaVuSans-35" x="63.623047"/>
      </g>
     </g>
    </g>
    <g id="ytick_15">
     <g id="line2d_77">
      <path d="M 52.079375 475.471635 
L 498.479375 475.471635 
" clip-path="url(#p3d10eea47d)" style="fill: none; stroke-dasharray: 0.5,0.825; stroke-dashoffset: 0; stroke: #808080; stroke-width: 0.5"/>
     </g>
     <g id="line2d_78">
      <g>
       <use xlink:href="#m83aa239197" x="52.079375" y="475.471635" style="stroke: #000000; stroke-width: 0.8"/>
      </g>
     </g>
     <g id="text_25">
      <!-- 20 -->
      <g transform="translate(32.354375 479.270854) scale(0.1 -0.1)">
       <use xlink:href="#DejaVuSans-32"/>
       <use xlink:href="#DejaVuSans-30" x="63.623047"/>
      </g>
     </g>
    </g>
    <g id="text_26">
     <!-- $IR$ -->
     <g transform="translate(25.85875 568.875904) rotate(-90) scale(0.12 -0.12)">
      <use xlink:href="#DejaVuSans-Oblique-49" transform="translate(0 0.09375)"/>
      <use xlink:href="#DejaVuSans-Oblique-52" transform="translate(29.492188 0.09375)"/>
     </g>
    </g>
   </g>
   <g id="line2d_79">
    <path d="M 511.480115 650.423852 
L 505.20299 651.22058 
L 498.479375 646.654032 
L 491.75576 636.676519 
L 485.032145 635.43167 
L 478.30853 635.664844 
L 471.584916 635.422107 
L 464.861301 647.121462 
L 458.137686 627.12174 
L 451.414071 604.12276 
L 444.690456 608.438761 
L 437.966841 609.251346 
L 431.243227 586.791054 
L 424.519612 573.250492 
L 417.795997 563.586031 
L 411.072382 558.534908 
L 404.348767 540.448722 
L 397.625152 595.440967 
L 390.901537 608.48245 
L 384.177923 605.903865 
L 377.454308 606.456158 
L 370.730693 605.491302 
L 364.007078 600.855758 
L 357.283463 601.104407 
L 350.559848 595.850768 
L 343.836234 602.705811 
L 337.112619 603.340341 
L 330.389004 601.557423 
L 323.665389 611.362544 
L 316.941774 610.207538 
L 310.218159 605.280537 
L 303.494544 609.948872 
L 296.77093 608.160202 
L 290.047315 612.954026 
L 283.3237 620.806278 
L 276.600085 621.299859 
L 269.87647 631.808539 
L 263.152855 638.283934 
L 256.429241 636.880357 
L 249.705626 643.217443 
L 242.982011 660.09253 
L 236.258396 623.273894 
L 229.534781 591.629365 
L 222.811166 603.009448 
L 216.087551 597.504937 
L 209.363937 614.782754 
L 202.640322 615.295969 
L 195.916707 609.699192 
L 189.193092 620.098932 
L 182.469477 597.480079 
L 175.745862 594.805734 
L 169.022248 607.625765 
L 162.298633 589.187081 
L 155.575018 594.739924 
L 148.851403 598.95349 
L 142.127788 594.697507 
L 135.404173 603.036918 
L 128.680558 599.157019 
L 121.956944 577.228417 
L 115.233329 565.632008 
L 108.509714 531.296006 
L 101.786099 534.423842 
L 95.062484 544.009859 
L 88.338869 553.326766 
L 81.615255 552.456404 
L 74.89164 547.166789 
L 68.168025 556.283834 
L 61.44441 531.007909 
L 54.720795 538.253986 
L 47.99718 511.530727 
L 41.273565 499.82696 
L 34.549951 520.35103 
L 27.826336 547.140088 
L 21.102721 566.27275 
L 14.379106 574.712404 
L 7.655491 561.733556 
L 0.931876 576.974336 
L -1 580.666769 
" clip-path="url(#p3d10eea47d)" style="fill: none; stroke: #8b0000; stroke-width: 1.5; stroke-linecap: square"/>
   </g>
   <g id="line2d_80">
    <path d="M 511.480115 632.547206 
L 505.20299 628.049068 
L 498.479375 614.854893 
L 491.75576 605.562379 
L 485.032145 600.604029 
L 478.30853 588.025427 
L 471.584916 593.792789 
L 464.861301 604.256116 
L 458.137686 590.021738 
L 451.414071 573.878925 
L 444.690456 574.310128 
L 437.966841 580.290328 
L 431.243227 565.044953 
L 424.519612 556.936074 
L 417.795997 553.041106 
L 411.072382 551.043148 
L 404.348767 524.713505 
L 397.625152 580.769309 
L 390.901537 597.112334 
L 384.177923 596.411978 
L 377.454308 599.136513 
L 370.730693 596.222298 
L 364.007078 592.548443 
L 357.283463 593.353211 
L 350.559848 586.940088 
L 343.836234 595.000335 
L 337.112619 594.936651 
L 330.389004 594.355136 
L 323.665389 605.411512 
L 316.941774 610.658808 
L 310.218159 602.329518 
L 303.494544 605.917666 
L 296.77093 602.142332 
L 290.047315 608.39724 
L 283.3237 621.765897 
L 276.600085 619.661771 
L 269.87647 631.344129 
L 263.152855 637.805356 
L 256.429241 630.560104 
L 249.705626 633.388619 
L 242.982011 648.751109 
L 236.258396 611.482806 
L 229.534781 578.43893 
L 222.811166 592.757612 
L 216.087551 580.472699 
L 209.363937 596.375952 
L 202.640322 593.660012 
L 195.916707 586.826866 
L 189.193092 592.700474 
L 182.469477 568.927939 
L 175.745862 567.454543 
L 169.022248 578.92095 
L 162.298633 564.755357 
L 155.575018 571.761844 
L 148.851403 575.429424 
L 142.127788 573.761974 
L 135.404173 584.612607 
L 128.680558 570.922523 
L 121.956944 546.251901 
L 115.233329 536.470527 
L 108.509714 507.882041 
L 101.786099 503.57247 
L 95.062484 520.265021 
L 88.338869 527.898209 
L 81.615255 531.034776 
L 74.89164 524.281551 
L 68.168025 528.818089 
L 61.44441 499.681325 
L 54.720795 511.550232 
L 47.99718 475.279403 
L 41.273565 467.999871 
L 34.549951 491.971475 
L 27.826336 517.079302 
L 21.102721 537.791661 
L 14.379106 544.770442 
L 7.655491 537.148145 
L 0.931876 551.985313 
L -1 556.288082 
" clip-path="url(#p3d10eea47d)" style="fill: none; stroke: #008b8b; stroke-width: 1.5; stroke-linecap: square"/>
   </g>
   <g id="line2d_81">
    <path d="M 511.480115 619.659667 
L 505.20299 613.14594 
L 498.479375 596.022614 
L 491.75576 587.742051 
L 485.032145 581.229488 
L 478.30853 562.537519 
L 471.584916 570.396751 
L 464.861301 579.69763 
L 458.137686 572.43477 
L 451.414071 561.334998 
L 444.690456 559.14938 
L 437.966841 567.098195 
L 431.243227 557.684865 
L 424.519612 553.526973 
L 417.795997 555.838501 
L 411.072382 556.663513 
L 404.348767 530.642834 
L 397.625152 572.221276 
L 390.901537 590.142474 
L 384.177923 590.341029 
L 377.454308 594.110858 
L 370.730693 590.57937 
L 364.007078 586.692443 
L 357.283463 588.114776 
L 350.559848 581.968594 
L 343.836234 590.509874 
L 337.112619 589.70729 
L 330.389004 590.925288 
L 323.665389 601.894856 
L 316.941774 611.043137 
L 310.218159 601.718317 
L 303.494544 603.949686 
L 296.77093 598.056372 
L 290.047315 605.153788 
L 283.3237 621.202641 
L 276.600085 617.95344 
L 269.87647 629.36059 
L 263.152855 634.553758 
L 256.429241 622.733493 
L 249.705626 623.379683 
L 242.982011 637.259791 
L 236.258396 605.806559 
L 229.534781 573.233079 
L 222.811166 588.467263 
L 216.087551 573.64263 
L 209.363937 587.146724 
L 202.640322 585.778481 
L 195.916707 578.839774 
L 189.193092 582.417326 
L 182.469477 558.387421 
L 175.745862 557.549024 
L 169.022248 566.499109 
L 162.298633 555.739442 
L 155.575018 563.126811 
L 148.851403 566.066791 
L 142.127788 564.436634 
L 135.404173 576.960155 
L 128.680558 559.734517 
L 121.956944 535.494362 
L 115.233329 528.932687 
L 108.509714 504.23431 
L 101.786099 494.168154 
L 95.062484 513.598134 
L 88.338869 519.619611 
L 81.615255 525.385534 
L 74.89164 520.483172 
L 68.168025 523.726951 
L 61.44441 493.787345 
L 54.720795 507.268869 
L 47.99718 471.237623 
L 41.273565 465.779277 
L 34.549951 489.401448 
L 27.826336 510.143085 
L 21.102721 528.743429 
L 14.379106 532.677931 
L 7.655491 529.219181 
L 0.931876 540.191827 
L -1 543.953889 
" clip-path="url(#p3d10eea47d)" style="fill: none; stroke: #ff8c00; stroke-width: 1.5; stroke-linecap: square"/>
   </g>
   <g id="patch_15">
    <path d="M 52.079375 669.808193 
L 52.079375 456.063614 
" style="fill: none; stroke: #000000; stroke-width: 0.8; stroke-linejoin: miter; stroke-linecap: square"/>
   </g>
   <g id="patch_16">
    <path d="M 498.479375 669.808193 
L 498.479375 456.063614 
" style="fill: none; stroke: #000000; stroke-width: 0.8; stroke-linejoin: miter; stroke-linecap: square"/>
   </g>
   <g id="patch_17">
    <path d="M 52.079375 669.808193 
L 498.479375 669.808193 
" style="fill: none; stroke: #000000; stroke-width: 0.8; stroke-linejoin: miter; stroke-linecap: square"/>
   </g>
   <g id="patch_18">
    <path d="M 52.079375 456.063614 
L 498.479375 456.063614 
" style="fill: none; stroke: #000000; stroke-width: 0.8; stroke-linejoin: miter; stroke-linecap: square"/>
   </g>
   <g id="text_27">
    <!-- 24 periods -->
    <g transform="translate(240.848672 482.125301) scale(0.13 -0.13)">
     <defs>
      <path id="DejaVuSans-34" d="M 2419 4116 
L 825 1625 
L 2419 1625 
L 2419 4116 
z
M 2253 4666 
L 3047 4666 
L 3047 1625 
L 3713 1625 
L 3713 1100 
L 3047 1100 
L 3047 0 
L 2419 0 
L 2419 1100 
L 313 1100 
L 313 1709 
L 2253 4666 
z
" transform="scale(0.015625)"/>
     </defs>
     <use xlink:href="#DejaVuSans-32"/>
     <use xlink:href="#DejaVuSans-34" x="63.623047"/>
     <use xlink:href="#DejaVuSans-20" x="127.246094"/>
     <use xlink:href="#DejaVuSans-70" x="159.033203"/>
     <use xlink:href="#DejaVuSans-65" x="222.509766"/>
     <use xlink:href="#DejaVuSans-72" x="284.033203"/>
     <use xlink:href="#DejaVuSans-69" x="325.146484"/>
     <use xlink:href="#DejaVuSans-6f" x="352.929688"/>
     <use xlink:href="#DejaVuSans-64" x="414.111328"/>
     <use xlink:href="#DejaVuSans-73" x="477.587891"/>
    </g>
   </g>
   <g id="legend_3">
    <g id="patch_19">
     <path d="M 390.03875 508.097989 
L 491.479375 508.097989 
Q 493.479375 508.097989 493.479375 506.097989 
L 493.479375 463.063614 
Q 493.479375 461.063614 491.479375 461.063614 
L 390.03875 461.063614 
Q 388.03875 461.063614 388.03875 463.063614 
L 388.03875 506.097989 
Q 388.03875 508.097989 390.03875 508.097989 
z
" style="fill: #ffffff; opacity: 0.8; stroke: #cccccc; stroke-linejoin: miter"/>
    </g>
    <g id="line2d_82">
     <path d="M 392.03875 469.162052 
L 402.03875 469.162052 
L 412.03875 469.162052 
" style="fill: none; stroke: #8b0000; stroke-width: 1.5; stroke-linecap: square"/>
    </g>
    <g id="text_28">
     <!-- Benchmark -->
     <g transform="translate(420.03875 472.662052) scale(0.1 -0.1)">
      <use xlink:href="#DejaVuSans-42"/>
      <use xlink:href="#DejaVuSans-65" x="68.603516"/>
      <use xlink:href="#DejaVuSans-6e" x="130.126953"/>
      <use xlink:href="#DejaVuSans-63" x="193.505859"/>
      <use xlink:href="#DejaVuSans-68" x="248.486328"/>
      <use xlink:href="#DejaVuSans-6d" x="311.865234"/>
      <use xlink:href="#DejaVuSans-61" x="409.277344"/>
      <use xlink:href="#DejaVuSans-72" x="470.556641"/>
      <use xlink:href="#DejaVuSans-6b" x="511.669922"/>
     </g>
    </g>
    <g id="line2d_83">
     <path d="M 392.03875 483.840177 
L 402.03875 483.840177 
L 412.03875 483.840177 
" style="fill: none; stroke: #008b8b; stroke-width: 1.5; stroke-linecap: square"/>
    </g>
    <g id="text_29">
     <!-- RtT -->
     <g transform="translate(420.03875 487.340177) scale(0.1 -0.1)">
      <use xlink:href="#DejaVuSans-52"/>
      <use xlink:href="#DejaVuSans-74" x="69.482422"/>
      <use xlink:href="#DejaVuSans-54" x="108.691406"/>
     </g>
    </g>
    <g id="line2d_84">
     <path d="M 392.03875 498.518302 
L 402.03875 498.518302 
L 412.03875 498.518302 
" style="fill: none; stroke: #ff8c00; stroke-width: 1.5; stroke-linecap: square"/>
    </g>
    <g id="text_30">
     <!-- Compensated -->
     <g transform="translate(420.03875 502.018302) scale(0.1 -0.1)">
      <use xlink:href="#DejaVuSans-43"/>
      <use xlink:href="#DejaVuSans-6f" x="69.824219"/>
      <use xlink:href="#DejaVuSans-6d" x="131.005859"/>
      <use xlink:href="#DejaVuSans-70" x="228.417969"/>
      <use xlink:href="#DejaVuSans-65" x="291.894531"/>
      <use xlink:href="#DejaVuSans-6e" x="353.417969"/>
      <use xlink:href="#DejaVuSans-73" x="416.796875"/>
      <use xlink:href="#DejaVuSans-61" x="468.896484"/>
      <use xlink:href="#DejaVuSans-74" x="530.175781"/>
      <use xlink:href="#DejaVuSans-65" x="569.384766"/>
      <use xlink:href="#DejaVuSans-64" x="630.908203"/>
     </g>
    </g>
   </g>
  </g>
  <g id="axes_4">
   <g id="patch_20">
    <path d="M 52.079375 894.24 
L 498.479375 894.24 
L 498.479375 680.495422 
L 52.079375 680.495422 
L 52.079375 894.24 
z
" style="fill: none"/>
   </g>
   <g id="matplotlib.axis_7">
    <g id="xtick_19">
     <g id="line2d_85">
      <path d="M 52.079375 894.24 
L 52.079375 680.495422 
" clip-path="url(#p2e9d813bde)" style="fill: none; stroke-dasharray: 0.5,0.825; stroke-dashoffset: 0; stroke: #808080; stroke-width: 0.5"/>
     </g>
     <g id="line2d_86">
      <g>
       <use xlink:href="#m455e12d6a9" x="52.079375" y="894.24" style="stroke: #000000; stroke-width: 0.8"/>
      </g>
     </g>
     <g id="text_31">
      <!-- 2018 -->
      <g transform="translate(39.354375 908.838437) scale(0.1 -0.1)">
       <defs>
        <path id="DejaVuSans-38" d="M 2034 2216 
Q 1584 2216 1326 1975 
Q 1069 1734 1069 1313 
Q 1069 891 1326 650 
Q 1584 409 2034 409 
Q 2484 409 2743 651 
Q 3003 894 3003 1313 
Q 3003 1734 2745 1975 
Q 2488 2216 2034 2216 
z
M 1403 2484 
Q 997 2584 770 2862 
Q 544 3141 544 3541 
Q 544 4100 942 4425 
Q 1341 4750 2034 4750 
Q 2731 4750 3128 4425 
Q 3525 4100 3525 3541 
Q 3525 3141 3298 2862 
Q 3072 2584 2669 2484 
Q 3125 2378 3379 2068 
Q 3634 1759 3634 1313 
Q 3634 634 3220 271 
Q 2806 -91 2034 -91 
Q 1263 -91 848 271 
Q 434 634 434 1313 
Q 434 1759 690 2068 
Q 947 2378 1403 2484 
z
M 1172 3481 
Q 1172 3119 1398 2916 
Q 1625 2713 2034 2713 
Q 2441 2713 2670 2916 
Q 2900 3119 2900 3481 
Q 2900 3844 2670 4047 
Q 2441 4250 2034 4250 
Q 1625 4250 1398 4047 
Q 1172 3844 1172 3481 
z
" transform="scale(0.015625)"/>
       </defs>
       <use xlink:href="#DejaVuSans-32"/>
       <use xlink:href="#DejaVuSans-30" x="63.623047"/>
       <use xlink:href="#DejaVuSans-31" x="127.246094"/>
       <use xlink:href="#DejaVuSans-38" x="190.869141"/>
      </g>
     </g>
    </g>
    <g id="xtick_20">
     <g id="line2d_87">
      <path d="M 139.726497 894.24 
L 139.726497 680.495422 
" clip-path="url(#p2e9d813bde)" style="fill: none; stroke-dasharray: 0.5,0.825; stroke-dashoffset: 0; stroke: #808080; stroke-width: 0.5"/>
     </g>
     <g id="line2d_88">
      <g>
       <use xlink:href="#m455e12d6a9" x="139.726497" y="894.24" style="stroke: #000000; stroke-width: 0.8"/>
      </g>
     </g>
     <g id="text_32">
      <!-- 2019 -->
      <g transform="translate(127.001497 908.838437) scale(0.1 -0.1)">
       <defs>
        <path id="DejaVuSans-39" d="M 703 97 
L 703 672 
Q 941 559 1184 500 
Q 1428 441 1663 441 
Q 2288 441 2617 861 
Q 2947 1281 2994 2138 
Q 2813 1869 2534 1725 
Q 2256 1581 1919 1581 
Q 1219 1581 811 2004 
Q 403 2428 403 3163 
Q 403 3881 828 4315 
Q 1253 4750 1959 4750 
Q 2769 4750 3195 4129 
Q 3622 3509 3622 2328 
Q 3622 1225 3098 567 
Q 2575 -91 1691 -91 
Q 1453 -91 1209 -44 
Q 966 3 703 97 
z
M 1959 2075 
Q 2384 2075 2632 2365 
Q 2881 2656 2881 3163 
Q 2881 3666 2632 3958 
Q 2384 4250 1959 4250 
Q 1534 4250 1286 3958 
Q 1038 3666 1038 3163 
Q 1038 2656 1286 2365 
Q 1534 2075 1959 2075 
z
" transform="scale(0.015625)"/>
       </defs>
       <use xlink:href="#DejaVuSans-32"/>
       <use xlink:href="#DejaVuSans-30" x="63.623047"/>
       <use xlink:href="#DejaVuSans-31" x="127.246094"/>
       <use xlink:href="#DejaVuSans-39" x="190.869141"/>
      </g>
     </g>
    </g>
    <g id="xtick_21">
     <g id="line2d_89">
      <path d="M 227.373619 894.24 
L 227.373619 680.495422 
" clip-path="url(#p2e9d813bde)" style="fill: none; stroke-dasharray: 0.5,0.825; stroke-dashoffset: 0; stroke: #808080; stroke-width: 0.5"/>
     </g>
     <g id="line2d_90">
      <g>
       <use xlink:href="#m455e12d6a9" x="227.373619" y="894.24" style="stroke: #000000; stroke-width: 0.8"/>
      </g>
     </g>
     <g id="text_33">
      <!-- 2020 -->
      <g transform="translate(214.648619 908.838437) scale(0.1 -0.1)">
       <use xlink:href="#DejaVuSans-32"/>
       <use xlink:href="#DejaVuSans-30" x="63.623047"/>
       <use xlink:href="#DejaVuSans-32" x="127.246094"/>
       <use xlink:href="#DejaVuSans-30" x="190.869141"/>
      </g>
     </g>
    </g>
    <g id="xtick_22">
     <g id="line2d_91">
      <path d="M 315.26087 894.24 
L 315.26087 680.495422 
" clip-path="url(#p2e9d813bde)" style="fill: none; stroke-dasharray: 0.5,0.825; stroke-dashoffset: 0; stroke: #808080; stroke-width: 0.5"/>
     </g>
     <g id="line2d_92">
      <g>
       <use xlink:href="#m455e12d6a9" x="315.26087" y="894.24" style="stroke: #000000; stroke-width: 0.8"/>
      </g>
     </g>
     <g id="text_34">
      <!-- 2021 -->
      <g transform="translate(302.53587 908.838437) scale(0.1 -0.1)">
       <use xlink:href="#DejaVuSans-32"/>
       <use xlink:href="#DejaVuSans-30" x="63.623047"/>
       <use xlink:href="#DejaVuSans-32" x="127.246094"/>
       <use xlink:href="#DejaVuSans-31" x="190.869141"/>
      </g>
     </g>
    </g>
    <g id="xtick_23">
     <g id="line2d_93">
      <path d="M 402.907993 894.24 
L 402.907993 680.495422 
" clip-path="url(#p2e9d813bde)" style="fill: none; stroke-dasharray: 0.5,0.825; stroke-dashoffset: 0; stroke: #808080; stroke-width: 0.5"/>
     </g>
     <g id="line2d_94">
      <g>
       <use xlink:href="#m455e12d6a9" x="402.907993" y="894.24" style="stroke: #000000; stroke-width: 0.8"/>
      </g>
     </g>
     <g id="text_35">
      <!-- 2022 -->
      <g transform="translate(390.182993 908.838437) scale(0.1 -0.1)">
       <use xlink:href="#DejaVuSans-32"/>
       <use xlink:href="#DejaVuSans-30" x="63.623047"/>
       <use xlink:href="#DejaVuSans-32" x="127.246094"/>
       <use xlink:href="#DejaVuSans-32" x="190.869141"/>
      </g>
     </g>
    </g>
    <g id="xtick_24">
     <g id="line2d_95">
      <path d="M 490.555115 894.24 
L 490.555115 680.495422 
" clip-path="url(#p2e9d813bde)" style="fill: none; stroke-dasharray: 0.5,0.825; stroke-dashoffset: 0; stroke: #808080; stroke-width: 0.5"/>
     </g>
     <g id="line2d_96">
      <g>
       <use xlink:href="#m455e12d6a9" x="490.555115" y="894.24" style="stroke: #000000; stroke-width: 0.8"/>
      </g>
     </g>
     <g id="text_36">
      <!-- 2023 -->
      <g transform="translate(477.830115 908.838437) scale(0.1 -0.1)">
       <use xlink:href="#DejaVuSans-32"/>
       <use xlink:href="#DejaVuSans-30" x="63.623047"/>
       <use xlink:href="#DejaVuSans-32" x="127.246094"/>
       <use xlink:href="#DejaVuSans-33" x="190.869141"/>
      </g>
     </g>
    </g>
    <g id="text_37">
     <!-- Date -->
     <g transform="translate(260.938437 924.03625) scale(0.12 -0.12)">
      <defs>
       <path id="DejaVuSans-44" d="M 1259 4147 
L 1259 519 
L 2022 519 
Q 2988 519 3436 956 
Q 3884 1394 3884 2338 
Q 3884 3275 3436 3711 
Q 2988 4147 2022 4147 
L 1259 4147 
z
M 628 4666 
L 1925 4666 
Q 3281 4666 3915 4102 
Q 4550 3538 4550 2338 
Q 4550 1131 3912 565 
Q 3275 0 1925 0 
L 628 0 
L 628 4666 
z
" transform="scale(0.015625)"/>
      </defs>
      <use xlink:href="#DejaVuSans-44"/>
      <use xlink:href="#DejaVuSans-61" x="77.001953"/>
      <use xlink:href="#DejaVuSans-74" x="138.28125"/>
      <use xlink:href="#DejaVuSans-65" x="177.490234"/>
     </g>
    </g>
   </g>
   <g id="matplotlib.axis_8">
    <g id="ytick_16">
     <g id="line2d_97">
      <path d="M 52.079375 886.04946 
L 498.479375 886.04946 
" clip-path="url(#p2e9d813bde)" style="fill: none; stroke-dasharray: 0.5,0.825; stroke-dashoffset: 0; stroke: #808080; stroke-width: 0.5"/>
     </g>
     <g id="line2d_98">
      <g>
       <use xlink:href="#m83aa239197" x="52.079375" y="886.04946" style="stroke: #000000; stroke-width: 0.8"/>
      </g>
     </g>
     <g id="text_38">
      <!-- 2.5 -->
      <g transform="translate(29.17625 889.848679) scale(0.1 -0.1)">
       <defs>
        <path id="DejaVuSans-2e" d="M 684 794 
L 1344 794 
L 1344 0 
L 684 0 
L 684 794 
z
" transform="scale(0.015625)"/>
       </defs>
       <use xlink:href="#DejaVuSans-32"/>
       <use xlink:href="#DejaVuSans-2e" x="63.623047"/>
       <use xlink:href="#DejaVuSans-35" x="95.410156"/>
      </g>
     </g>
    </g>
    <g id="ytick_17">
     <g id="line2d_99">
      <path d="M 52.079375 857.580629 
L 498.479375 857.580629 
" clip-path="url(#p2e9d813bde)" style="fill: none; stroke-dasharray: 0.5,0.825; stroke-dashoffset: 0; stroke: #808080; stroke-width: 0.5"/>
     </g>
     <g id="line2d_100">
      <g>
       <use xlink:href="#m83aa239197" x="52.079375" y="857.580629" style="stroke: #000000; stroke-width: 0.8"/>
      </g>
     </g>
     <g id="text_39">
      <!-- 5.0 -->
      <g transform="translate(29.17625 861.379848) scale(0.1 -0.1)">
       <use xlink:href="#DejaVuSans-35"/>
       <use xlink:href="#DejaVuSans-2e" x="63.623047"/>
       <use xlink:href="#DejaVuSans-30" x="95.410156"/>
      </g>
     </g>
    </g>
    <g id="ytick_18">
     <g id="line2d_101">
      <path d="M 52.079375 829.111798 
L 498.479375 829.111798 
" clip-path="url(#p2e9d813bde)" style="fill: none; stroke-dasharray: 0.5,0.825; stroke-dashoffset: 0; stroke: #808080; stroke-width: 0.5"/>
     </g>
     <g id="line2d_102">
      <g>
       <use xlink:href="#m83aa239197" x="52.079375" y="829.111798" style="stroke: #000000; stroke-width: 0.8"/>
      </g>
     </g>
     <g id="text_40">
      <!-- 7.5 -->
      <g transform="translate(29.17625 832.911017) scale(0.1 -0.1)">
       <defs>
        <path id="DejaVuSans-37" d="M 525 4666 
L 3525 4666 
L 3525 4397 
L 1831 0 
L 1172 0 
L 2766 4134 
L 525 4134 
L 525 4666 
z
" transform="scale(0.015625)"/>
       </defs>
       <use xlink:href="#DejaVuSans-37"/>
       <use xlink:href="#DejaVuSans-2e" x="63.623047"/>
       <use xlink:href="#DejaVuSans-35" x="95.410156"/>
      </g>
     </g>
    </g>
    <g id="ytick_19">
     <g id="line2d_103">
      <path d="M 52.079375 800.642967 
L 498.479375 800.642967 
" clip-path="url(#p2e9d813bde)" style="fill: none; stroke-dasharray: 0.5,0.825; stroke-dashoffset: 0; stroke: #808080; stroke-width: 0.5"/>
     </g>
     <g id="line2d_104">
      <g>
       <use xlink:href="#m83aa239197" x="52.079375" y="800.642967" style="stroke: #000000; stroke-width: 0.8"/>
      </g>
     </g>
     <g id="text_41">
      <!-- 10.0 -->
      <g transform="translate(22.81375 804.442186) scale(0.1 -0.1)">
       <use xlink:href="#DejaVuSans-31"/>
       <use xlink:href="#DejaVuSans-30" x="63.623047"/>
       <use xlink:href="#DejaVuSans-2e" x="127.246094"/>
       <use xlink:href="#DejaVuSans-30" x="159.033203"/>
      </g>
     </g>
    </g>
    <g id="ytick_20">
     <g id="line2d_105">
      <path d="M 52.079375 772.174136 
L 498.479375 772.174136 
" clip-path="url(#p2e9d813bde)" style="fill: none; stroke-dasharray: 0.5,0.825; stroke-dashoffset: 0; stroke: #808080; stroke-width: 0.5"/>
     </g>
     <g id="line2d_106">
      <g>
       <use xlink:href="#m83aa239197" x="52.079375" y="772.174136" style="stroke: #000000; stroke-width: 0.8"/>
      </g>
     </g>
     <g id="text_42">
      <!-- 12.5 -->
      <g transform="translate(22.81375 775.973354) scale(0.1 -0.1)">
       <use xlink:href="#DejaVuSans-31"/>
       <use xlink:href="#DejaVuSans-32" x="63.623047"/>
       <use xlink:href="#DejaVuSans-2e" x="127.246094"/>
       <use xlink:href="#DejaVuSans-35" x="159.033203"/>
      </g>
     </g>
    </g>
    <g id="ytick_21">
     <g id="line2d_107">
      <path d="M 52.079375 743.705304 
L 498.479375 743.705304 
" clip-path="url(#p2e9d813bde)" style="fill: none; stroke-dasharray: 0.5,0.825; stroke-dashoffset: 0; stroke: #808080; stroke-width: 0.5"/>
     </g>
     <g id="line2d_108">
      <g>
       <use xlink:href="#m83aa239197" x="52.079375" y="743.705304" style="stroke: #000000; stroke-width: 0.8"/>
      </g>
     </g>
     <g id="text_43">
      <!-- 15.0 -->
      <g transform="translate(22.81375 747.504523) scale(0.1 -0.1)">
       <use xlink:href="#DejaVuSans-31"/>
       <use xlink:href="#DejaVuSans-35" x="63.623047"/>
       <use xlink:href="#DejaVuSans-2e" x="127.246094"/>
       <use xlink:href="#DejaVuSans-30" x="159.033203"/>
      </g>
     </g>
    </g>
    <g id="ytick_22">
     <g id="line2d_109">
      <path d="M 52.079375 715.236473 
L 498.479375 715.236473 
" clip-path="url(#p2e9d813bde)" style="fill: none; stroke-dasharray: 0.5,0.825; stroke-dashoffset: 0; stroke: #808080; stroke-width: 0.5"/>
     </g>
     <g id="line2d_110">
      <g>
       <use xlink:href="#m83aa239197" x="52.079375" y="715.236473" style="stroke: #000000; stroke-width: 0.8"/>
      </g>
     </g>
     <g id="text_44">
      <!-- 17.5 -->
      <g transform="translate(22.81375 719.035692) scale(0.1 -0.1)">
       <use xlink:href="#DejaVuSans-31"/>
       <use xlink:href="#DejaVuSans-37" x="63.623047"/>
       <use xlink:href="#DejaVuSans-2e" x="127.246094"/>
       <use xlink:href="#DejaVuSans-35" x="159.033203"/>
      </g>
     </g>
    </g>
    <g id="ytick_23">
     <g id="line2d_111">
      <path d="M 52.079375 686.767642 
L 498.479375 686.767642 
" clip-path="url(#p2e9d813bde)" style="fill: none; stroke-dasharray: 0.5,0.825; stroke-dashoffset: 0; stroke: #808080; stroke-width: 0.5"/>
     </g>
     <g id="line2d_112">
      <g>
       <use xlink:href="#m83aa239197" x="52.079375" y="686.767642" style="stroke: #000000; stroke-width: 0.8"/>
      </g>
     </g>
     <g id="text_45">
      <!-- 20.0 -->
      <g transform="translate(22.81375 690.566861) scale(0.1 -0.1)">
       <use xlink:href="#DejaVuSans-32"/>
       <use xlink:href="#DejaVuSans-30" x="63.623047"/>
       <use xlink:href="#DejaVuSans-2e" x="127.246094"/>
       <use xlink:href="#DejaVuSans-30" x="159.033203"/>
      </g>
     </g>
    </g>
    <g id="text_46">
     <!-- $IR$ -->
     <g transform="translate(16.318125 793.307711) rotate(-90) scale(0.12 -0.12)">
      <use xlink:href="#DejaVuSans-Oblique-49" transform="translate(0 0.09375)"/>
      <use xlink:href="#DejaVuSans-Oblique-52" transform="translate(29.492188 0.09375)"/>
     </g>
    </g>
   </g>
   <g id="line2d_113">
    <path d="M 511.480115 860.870607 
L 505.20299 868.389968 
L 498.479375 865.671813 
L 491.75576 856.373489 
L 485.032145 866.339802 
L 478.30853 865.195503 
L 471.584916 859.576663 
L 464.861301 872.77257 
L 458.137686 856.589007 
L 451.414071 846.269271 
L 444.690456 858.078161 
L 437.966841 859.15569 
L 431.243227 857.153093 
L 424.519612 857.217278 
L 417.795997 846.072471 
L 411.072382 848.338213 
L 404.348767 844.981323 
L 397.625152 839.083633 
L 390.901537 838.03625 
L 384.177923 840.688882 
L 377.454308 838.051728 
L 370.730693 846.192294 
L 364.007078 840.936444 
L 357.283463 838.134559 
L 350.559848 837.741769 
L 343.836234 833.946585 
L 337.112619 833.258871 
L 330.389004 838.059039 
L 323.665389 840.370944 
L 316.941774 841.792712 
L 310.218159 838.099448 
L 303.494544 841.518249 
L 296.77093 843.84875 
L 290.047315 848.977806 
L 283.3237 849.353444 
L 276.600085 846.481475 
L 269.87647 846.558662 
L 263.152855 855.164901 
L 256.429241 856.212506 
L 249.705626 866.197152 
L 242.982011 884.524337 
L 236.258396 811.854604 
L 229.534781 780.311613 
L 222.811166 772.557738 
L 216.087551 774.388355 
L 209.363937 776.914698 
L 202.640322 765.67891 
L 195.916707 770.358039 
L 189.193092 801.180545 
L 182.469477 793.250989 
L 175.745862 798.064254 
L 169.022248 797.768148 
L 162.298633 794.16248 
L 155.575018 811.566084 
L 148.851403 820.428949 
L 142.127788 822.742021 
L 135.404173 834.367054 
L 128.680558 833.013695 
L 121.956944 814.960269 
L 115.233329 814.954107 
L 108.509714 793.291731 
L 101.786099 798.705419 
L 95.062484 801.973138 
L 88.338869 798.279306 
L 81.615255 800.136002 
L 74.89164 808.347288 
L 68.168025 803.237841 
L 61.44441 799.773199 
L 54.720795 806.101829 
L 47.99718 782.879379 
L 41.273565 786.081787 
L 34.549951 794.686149 
L 27.826336 795.117671 
L 21.102721 803.365945 
L 14.379106 806.717018 
L 7.655491 805.702704 
L 0.931876 810.731273 
L -1 807.851923 
" clip-path="url(#p2e9d813bde)" style="fill: none; stroke: #8b0000; stroke-width: 1.5; stroke-linecap: square"/>
   </g>
   <g id="line2d_114">
    <path d="M 511.480115 838.283722 
L 505.20299 843.109539 
L 498.479375 833.203586 
L 491.75576 825.750947 
L 485.032145 834.27656 
L 478.30853 830.387267 
L 471.584916 825.353869 
L 464.861301 837.37812 
L 458.137686 822.804267 
L 451.414071 817.566843 
L 444.690456 831.977768 
L 437.966841 834.068643 
L 431.243227 836.729049 
L 424.519612 838.774157 
L 417.795997 827.669299 
L 411.072382 829.682055 
L 404.348767 821.945645 
L 397.625152 814.758575 
L 390.901537 813.585577 
L 384.177923 821.012239 
L 377.454308 815.989449 
L 370.730693 822.223273 
L 364.007078 816.17124 
L 357.283463 812.679364 
L 350.559848 809.29128 
L 343.836234 803.909653 
L 337.112619 802.797929 
L 330.389004 809.684097 
L 323.665389 813.582122 
L 316.941774 823.858658 
L 310.218159 816.411185 
L 303.494544 819.235577 
L 296.77093 821.871591 
L 290.047315 822.561911 
L 283.3237 825.050433 
L 276.600085 820.036736 
L 269.87647 821.166261 
L 263.152855 825.062422 
L 256.429241 824.517978 
L 249.705626 830.674592 
L 242.982011 849.114335 
L 236.258396 778.236185 
L 229.534781 743.110281 
L 222.811166 736.997189 
L 216.087551 736.208953 
L 209.363937 735.598656 
L 202.640322 725.697978 
L 195.916707 730.572671 
L 189.193092 753.39362 
L 182.469477 742.622664 
L 175.745862 746.681284 
L 169.022248 751.004198 
L 162.298633 748.954767 
L 155.575018 768.770076 
L 148.851403 772.145666 
L 142.127788 773.117509 
L 135.404173 781.458726 
L 128.680558 773.654776 
L 121.956944 758.876067 
L 115.233329 751.514037 
L 108.509714 734.967705 
L 101.786099 741.40333 
L 95.062484 744.304325 
L 88.338869 739.788904 
L 81.615255 747.636487 
L 74.89164 754.345678 
L 68.168025 746.433707 
L 61.44441 741.566492 
L 54.720795 750.892359 
L 47.99718 722.626094 
L 41.273565 725.373969 
L 34.549951 748.211144 
L 27.826336 750.903777 
L 21.102721 766.414817 
L 14.379106 770.759625 
L 7.655491 768.541968 
L 0.931876 773.776047 
L -1 771.153058 
" clip-path="url(#p2e9d813bde)" style="fill: none; stroke: #008b8b; stroke-width: 1.5; stroke-linecap: square"/>
   </g>
   <g id="line2d_115">
    <path d="M 511.480115 823.563772 
L 505.20299 827.183943 
L 498.479375 813.423811 
L 491.75576 808.5851 
L 485.032145 815.30101 
L 478.30853 809.87171 
L 471.584916 805.444803 
L 464.861301 815.378744 
L 458.137686 803.399127 
L 451.414071 801.976537 
L 444.690456 816.7577 
L 437.966841 819.638275 
L 431.243227 825.203233 
L 424.519612 827.851844 
L 417.795997 817.527811 
L 411.072382 818.93773 
L 404.348767 809.259358 
L 397.625152 801.37226 
L 390.901537 800.591391 
L 384.177923 810.148339 
L 377.454308 804.073418 
L 370.730693 808.514993 
L 364.007078 803.191719 
L 357.283463 799.977714 
L 350.559848 795.715642 
L 343.836234 789.48594 
L 337.112619 787.865014 
L 330.389004 795.705014 
L 323.665389 800.613836 
L 316.941774 815.6502 
L 310.218159 806.849643 
L 303.494544 807.819463 
L 296.77093 809.905041 
L 290.047315 808.413257 
L 283.3237 812.434504 
L 276.600085 807.979362 
L 269.87647 809.140484 
L 263.152855 807.249613 
L 256.429241 804.539564 
L 249.705626 808.052749 
L 242.982011 826.125942 
L 236.258396 768.119852 
L 229.534781 733.687108 
L 222.811166 728.326785 
L 216.087551 725.765888 
L 209.363937 723.660454 
L 202.640322 716.994032 
L 195.916707 722.553945 
L 189.193092 739.212116 
L 182.469477 725.627784 
L 175.745862 727.681159 
L 169.022248 733.233701 
L 162.298633 730.703572 
L 155.575018 748.585409 
L 148.851403 747.432655 
L 142.127788 746.323902 
L 135.404173 751.347479 
L 128.680558 740.119844 
L 121.956944 729.303513 
L 115.233329 717.463131 
L 108.509714 704.22095 
L 101.786099 712.280706 
L 95.062484 714.455288 
L 88.338869 708.872558 
L 81.615255 718.881866 
L 74.89164 723.83613 
L 68.168025 714.541125 
L 61.44441 708.15278 
L 54.720795 718.835903 
L 47.99718 690.211084 
L 41.273565 690.338844 
L 34.549951 721.088616 
L 27.826336 724.241022 
L 21.102721 742.471072 
L 14.379106 747.4859 
L 7.655491 743.608506 
L 0.931876 747.414285 
L -1 745.131062 
" clip-path="url(#p2e9d813bde)" style="fill: none; stroke: #ff8c00; stroke-width: 1.5; stroke-linecap: square"/>
   </g>
   <g id="patch_21">
    <path d="M 52.079375 894.24 
L 52.079375 680.495422 
" style="fill: none; stroke: #000000; stroke-width: 0.8; stroke-linejoin: miter; stroke-linecap: square"/>
   </g>
   <g id="patch_22">
    <path d="M 498.479375 894.24 
L 498.479375 680.495422 
" style="fill: none; stroke: #000000; stroke-width: 0.8; stroke-linejoin: miter; stroke-linecap: square"/>
   </g>
   <g id="patch_23">
    <path d="M 52.079375 894.24 
L 498.479375 894.24 
" style="fill: none; stroke: #000000; stroke-width: 0.8; stroke-linejoin: miter; stroke-linecap: square"/>
   </g>
   <g id="patch_24">
    <path d="M 52.079375 680.495422 
L 498.479375 680.495422 
" style="fill: none; stroke: #000000; stroke-width: 0.8; stroke-linejoin: miter; stroke-linecap: square"/>
   </g>
   <g id="text_47">
    <!-- 48 periods -->
    <g transform="translate(240.848672 706.557108) scale(0.13 -0.13)">
     <use xlink:href="#DejaVuSans-34"/>
     <use xlink:href="#DejaVuSans-38" x="63.623047"/>
     <use xlink:href="#DejaVuSans-20" x="127.246094"/>
     <use xlink:href="#DejaVuSans-70" x="159.033203"/>
     <use xlink:href="#DejaVuSans-65" x="222.509766"/>
     <use xlink:href="#DejaVuSans-72" x="284.033203"/>
     <use xlink:href="#DejaVuSans-69" x="325.146484"/>
     <use xlink:href="#DejaVuSans-6f" x="352.929688"/>
     <use xlink:href="#DejaVuSans-64" x="414.111328"/>
     <use xlink:href="#DejaVuSans-73" x="477.587891"/>
    </g>
   </g>
   <g id="legend_4">
    <g id="patch_25">
     <path d="M 390.03875 732.529797 
L 491.479375 732.529797 
Q 493.479375 732.529797 493.479375 730.529797 
L 493.479375 687.495422 
Q 493.479375 685.495422 491.479375 685.495422 
L 390.03875 685.495422 
Q 388.03875 685.495422 388.03875 687.495422 
L 388.03875 730.529797 
Q 388.03875 732.529797 390.03875 732.529797 
z
" style="fill: #ffffff; opacity: 0.8; stroke: #cccccc; stroke-linejoin: miter"/>
    </g>
    <g id="line2d_116">
     <path d="M 392.03875 693.593859 
L 402.03875 693.593859 
L 412.03875 693.593859 
" style="fill: none; stroke: #8b0000; stroke-width: 1.5; stroke-linecap: square"/>
    </g>
    <g id="text_48">
     <!-- Benchmark -->
     <g transform="translate(420.03875 697.093859) scale(0.1 -0.1)">
      <use xlink:href="#DejaVuSans-42"/>
      <use xlink:href="#DejaVuSans-65" x="68.603516"/>
      <use xlink:href="#DejaVuSans-6e" x="130.126953"/>
      <use xlink:href="#DejaVuSans-63" x="193.505859"/>
      <use xlink:href="#DejaVuSans-68" x="248.486328"/>
      <use xlink:href="#DejaVuSans-6d" x="311.865234"/>
      <use xlink:href="#DejaVuSans-61" x="409.277344"/>
      <use xlink:href="#DejaVuSans-72" x="470.556641"/>
      <use xlink:href="#DejaVuSans-6b" x="511.669922"/>
     </g>
    </g>
    <g id="line2d_117">
     <path d="M 392.03875 708.271984 
L 402.03875 708.271984 
L 412.03875 708.271984 
" style="fill: none; stroke: #008b8b; stroke-width: 1.5; stroke-linecap: square"/>
    </g>
    <g id="text_49">
     <!-- RtT -->
     <g transform="translate(420.03875 711.771984) scale(0.1 -0.1)">
      <use xlink:href="#DejaVuSans-52"/>
      <use xlink:href="#DejaVuSans-74" x="69.482422"/>
      <use xlink:href="#DejaVuSans-54" x="108.691406"/>
     </g>
    </g>
    <g id="line2d_118">
     <path d="M 392.03875 722.950109 
L 402.03875 722.950109 
L 412.03875 722.950109 
" style="fill: none; stroke: #ff8c00; stroke-width: 1.5; stroke-linecap: square"/>
    </g>
    <g id="text_50">
     <!-- Compensated -->
     <g transform="translate(420.03875 726.450109) scale(0.1 -0.1)">
      <use xlink:href="#DejaVuSans-43"/>
      <use xlink:href="#DejaVuSans-6f" x="69.824219"/>
      <use xlink:href="#DejaVuSans-6d" x="131.005859"/>
      <use xlink:href="#DejaVuSans-70" x="228.417969"/>
      <use xlink:href="#DejaVuSans-65" x="291.894531"/>
      <use xlink:href="#DejaVuSans-6e" x="353.417969"/>
      <use xlink:href="#DejaVuSans-73" x="416.796875"/>
      <use xlink:href="#DejaVuSans-61" x="468.896484"/>
      <use xlink:href="#DejaVuSans-74" x="530.175781"/>
      <use xlink:href="#DejaVuSans-65" x="569.384766"/>
      <use xlink:href="#DejaVuSans-64" x="630.908203"/>
     </g>
    </g>
   </g>
  </g>
 </g>
 <defs>
  <clipPath id="pf3fa4f8fb9">
   <rect x="52.079375" y="7.2" width="446.4" height="213.744578"/>
  </clipPath>
  <clipPath id="p9e446ef64f">
   <rect x="52.079375" y="231.631807" width="446.4" height="213.744578"/>
  </clipPath>
  <clipPath id="p3d10eea47d">
   <rect x="52.079375" y="456.063614" width="446.4" height="213.744578"/>
  </clipPath>
  <clipPath id="p2e9d813bde">
   <rect x="52.079375" y="680.495422" width="446.4" height="213.744578"/>
  </clipPath>
 </defs>
</svg>
