<?xml version="1.0" encoding="utf-8" standalone="no"?>
<!DOCTYPE svg PUBLIC "-//W3C//DTD SVG 1.1//EN"
  "http://www.w3.org/Graphics/SVG/1.1/DTD/svg11.dtd">
<svg xmlns:xlink="http://www.w3.org/1999/xlink" width="512.497302pt" height="933.731875pt" viewBox="0 0 512.497302 933.731875" xmlns="http://www.w3.org/2000/svg" version="1.1">
 <metadata>
  <rdf:RDF xmlns:dc="http://purl.org/dc/elements/1.1/" xmlns:cc="http://creativecommons.org/ns#" xmlns:rdf="http://www.w3.org/1999/02/22-rdf-syntax-ns#">
   <cc:Work>
    <dc:type rdf:resource="http://purl.org/dc/dcmitype/StillImage"/>
    <dc:date>2024-12-12T02:07:35.740524</dc:date>
    <dc:format>image/svg+xml</dc:format>
    <dc:creator>
     <cc:Agent>
      <dc:title>Matplotlib v3.9.2, https://matplotlib.org/</dc:title>
     </cc:Agent>
    </dc:creator>
   </cc:Work>
  </rdf:RDF>
 </metadata>
 <defs>
  <style type="text/css">*{stroke-linejoin: round; stroke-linecap: butt}</style>
 </defs>
 <g id="figure_1">
  <g id="patch_1">
   <path d="M 0 933.731875 
L 512.497302 933.731875 
L 512.497302 0 
L 0 0 
L 0 933.731875 
z
" style="fill: none"/>
  </g>
  <g id="axes_1">
   <g id="patch_2">
    <path d="M 54.096563 220.944578 
L 500.496562 220.944578 
L 500.496562 7.2 
L 54.096563 7.2 
L 54.096563 220.944578 
z
" style="fill: none"/>
   </g>
   <g id="matplotlib.axis_1">
    <g id="xtick_1">
     <g id="line2d_1">
      <path d="M 54.096562 220.944578 
L 54.096562 7.2 
" clip-path="url(#p23655c6d06)" style="fill: none; stroke-dasharray: 0.5,0.825; stroke-dashoffset: 0; stroke: #808080; stroke-width: 0.5"/>
     </g>
     <g id="line2d_2">
      <defs>
       <path id="m0a49be80d0" d="M 0 0 
L 0 3.5 
" style="stroke: #000000; stroke-width: 0.8"/>
      </defs>
      <g>
       <use xlink:href="#m0a49be80d0" x="54.096562" y="220.944578" style="stroke: #000000; stroke-width: 0.8"/>
      </g>
     </g>
    </g>
    <g id="xtick_2">
     <g id="line2d_3">
      <path d="M 141.743685 220.944578 
L 141.743685 7.2 
" clip-path="url(#p23655c6d06)" style="fill: none; stroke-dasharray: 0.5,0.825; stroke-dashoffset: 0; stroke: #808080; stroke-width: 0.5"/>
     </g>
     <g id="line2d_4">
      <g>
       <use xlink:href="#m0a49be80d0" x="141.743685" y="220.944578" style="stroke: #000000; stroke-width: 0.8"/>
      </g>
     </g>
    </g>
    <g id="xtick_3">
     <g id="line2d_5">
      <path d="M 229.390807 220.944578 
L 229.390807 7.2 
" clip-path="url(#p23655c6d06)" style="fill: none; stroke-dasharray: 0.5,0.825; stroke-dashoffset: 0; stroke: #808080; stroke-width: 0.5"/>
     </g>
     <g id="line2d_6">
      <g>
       <use xlink:href="#m0a49be80d0" x="229.390807" y="220.944578" style="stroke: #000000; stroke-width: 0.8"/>
      </g>
     </g>
    </g>
    <g id="xtick_4">
     <g id="line2d_7">
      <path d="M 317.278058 220.944578 
L 317.278058 7.2 
" clip-path="url(#p23655c6d06)" style="fill: none; stroke-dasharray: 0.5,0.825; stroke-dashoffset: 0; stroke: #808080; stroke-width: 0.5"/>
     </g>
     <g id="line2d_8">
      <g>
       <use xlink:href="#m0a49be80d0" x="317.278058" y="220.944578" style="stroke: #000000; stroke-width: 0.8"/>
      </g>
     </g>
    </g>
    <g id="xtick_5">
     <g id="line2d_9">
      <path d="M 404.92518 220.944578 
L 404.92518 7.2 
" clip-path="url(#p23655c6d06)" style="fill: none; stroke-dasharray: 0.5,0.825; stroke-dashoffset: 0; stroke: #808080; stroke-width: 0.5"/>
     </g>
     <g id="line2d_10">
      <g>
       <use xlink:href="#m0a49be80d0" x="404.92518" y="220.944578" style="stroke: #000000; stroke-width: 0.8"/>
      </g>
     </g>
    </g>
    <g id="xtick_6">
     <g id="line2d_11">
      <path d="M 492.572302 220.944578 
L 492.572302 7.2 
" clip-path="url(#p23655c6d06)" style="fill: none; stroke-dasharray: 0.5,0.825; stroke-dashoffset: 0; stroke: #808080; stroke-width: 0.5"/>
     </g>
     <g id="line2d_12">
      <g>
       <use xlink:href="#m0a49be80d0" x="492.572302" y="220.944578" style="stroke: #000000; stroke-width: 0.8"/>
      </g>
     </g>
    </g>
   </g>
   <g id="matplotlib.axis_2">
    <g id="ytick_1">
     <g id="line2d_13">
      <path d="M 54.096563 198.963259 
L 500.496562 198.963259 
" clip-path="url(#p23655c6d06)" style="fill: none; stroke-dasharray: 0.5,0.825; stroke-dashoffset: 0; stroke: #808080; stroke-width: 0.5"/>
     </g>
     <g id="line2d_14">
      <defs>
       <path id="m487ca22de9" d="M 0 0 
L -3.5 0 
" style="stroke: #000000; stroke-width: 0.8"/>
      </defs>
      <g>
       <use xlink:href="#m487ca22de9" x="54.096563" y="198.963259" style="stroke: #000000; stroke-width: 0.8"/>
      </g>
     </g>
     <g id="text_1">
      <!-- −5 -->
      <g transform="translate(32.354375 202.762478) scale(0.1 -0.1)">
       <defs>
        <path id="DejaVuSans-2212" d="M 678 2272 
L 4684 2272 
L 4684 1741 
L 678 1741 
L 678 2272 
z
" transform="scale(0.015625)"/>
        <path id="DejaVuSans-35" d="M 691 4666 
L 3169 4666 
L 3169 4134 
L 1269 4134 
L 1269 2991 
Q 1406 3038 1543 3061 
Q 1681 3084 1819 3084 
Q 2600 3084 3056 2656 
Q 3513 2228 3513 1497 
Q 3513 744 3044 326 
Q 2575 -91 1722 -91 
Q 1428 -91 1123 -41 
Q 819 9 494 109 
L 494 744 
Q 775 591 1075 516 
Q 1375 441 1709 441 
Q 2250 441 2565 725 
Q 2881 1009 2881 1497 
Q 2881 1984 2565 2268 
Q 2250 2553 1709 2553 
Q 1456 2553 1204 2497 
Q 953 2441 691 2322 
L 691 4666 
z
" transform="scale(0.015625)"/>
       </defs>
       <use xlink:href="#DejaVuSans-2212"/>
       <use xlink:href="#DejaVuSans-35" x="83.789062"/>
      </g>
     </g>
    </g>
    <g id="ytick_2">
     <g id="line2d_15">
      <path d="M 54.096563 153.00874 
L 500.496562 153.00874 
" clip-path="url(#p23655c6d06)" style="fill: none; stroke-dasharray: 0.5,0.825; stroke-dashoffset: 0; stroke: #808080; stroke-width: 0.5"/>
     </g>
     <g id="line2d_16">
      <g>
       <use xlink:href="#m487ca22de9" x="54.096563" y="153.00874" style="stroke: #000000; stroke-width: 0.8"/>
      </g>
     </g>
     <g id="text_2">
      <!-- 0 -->
      <g transform="translate(40.734063 156.807959) scale(0.1 -0.1)">
       <defs>
        <path id="DejaVuSans-30" d="M 2034 4250 
Q 1547 4250 1301 3770 
Q 1056 3291 1056 2328 
Q 1056 1369 1301 889 
Q 1547 409 2034 409 
Q 2525 409 2770 889 
Q 3016 1369 3016 2328 
Q 3016 3291 2770 3770 
Q 2525 4250 2034 4250 
z
M 2034 4750 
Q 2819 4750 3233 4129 
Q 3647 3509 3647 2328 
Q 3647 1150 3233 529 
Q 2819 -91 2034 -91 
Q 1250 -91 836 529 
Q 422 1150 422 2328 
Q 422 3509 836 4129 
Q 1250 4750 2034 4750 
z
" transform="scale(0.015625)"/>
       </defs>
       <use xlink:href="#DejaVuSans-30"/>
      </g>
     </g>
    </g>
    <g id="ytick_3">
     <g id="line2d_17">
      <path d="M 54.096563 107.054221 
L 500.496562 107.054221 
" clip-path="url(#p23655c6d06)" style="fill: none; stroke-dasharray: 0.5,0.825; stroke-dashoffset: 0; stroke: #808080; stroke-width: 0.5"/>
     </g>
     <g id="line2d_18">
      <g>
       <use xlink:href="#m487ca22de9" x="54.096563" y="107.054221" style="stroke: #000000; stroke-width: 0.8"/>
      </g>
     </g>
     <g id="text_3">
      <!-- 5 -->
      <g transform="translate(40.734063 110.85344) scale(0.1 -0.1)">
       <use xlink:href="#DejaVuSans-35"/>
      </g>
     </g>
    </g>
    <g id="ytick_4">
     <g id="line2d_19">
      <path d="M 54.096563 61.099703 
L 500.496562 61.099703 
" clip-path="url(#p23655c6d06)" style="fill: none; stroke-dasharray: 0.5,0.825; stroke-dashoffset: 0; stroke: #808080; stroke-width: 0.5"/>
     </g>
     <g id="line2d_20">
      <g>
       <use xlink:href="#m487ca22de9" x="54.096563" y="61.099703" style="stroke: #000000; stroke-width: 0.8"/>
      </g>
     </g>
     <g id="text_4">
      <!-- 10 -->
      <g transform="translate(34.371563 64.898921) scale(0.1 -0.1)">
       <defs>
        <path id="DejaVuSans-31" d="M 794 531 
L 1825 531 
L 1825 4091 
L 703 3866 
L 703 4441 
L 1819 4666 
L 2450 4666 
L 2450 531 
L 3481 531 
L 3481 0 
L 794 0 
L 794 531 
z
" transform="scale(0.015625)"/>
       </defs>
       <use xlink:href="#DejaVuSans-31"/>
       <use xlink:href="#DejaVuSans-30" x="63.623047"/>
      </g>
     </g>
    </g>
    <g id="ytick_5">
     <g id="line2d_21">
      <path d="M 54.096563 15.145184 
L 500.496562 15.145184 
" clip-path="url(#p23655c6d06)" style="fill: none; stroke-dasharray: 0.5,0.825; stroke-dashoffset: 0; stroke: #808080; stroke-width: 0.5"/>
     </g>
     <g id="line2d_22">
      <g>
       <use xlink:href="#m487ca22de9" x="54.096563" y="15.145184" style="stroke: #000000; stroke-width: 0.8"/>
      </g>
     </g>
     <g id="text_5">
      <!-- 15 -->
      <g transform="translate(34.371563 18.944402) scale(0.1 -0.1)">
       <use xlink:href="#DejaVuSans-31"/>
       <use xlink:href="#DejaVuSans-35" x="63.623047"/>
      </g>
     </g>
    </g>
    <g id="text_6">
     <!-- $IR$ -->
     <g transform="translate(25.85875 120.012289) rotate(-90) scale(0.12 -0.12)">
      <defs>
       <path id="DejaVuSans-Oblique-49" d="M 1081 4666 
L 1716 4666 
L 806 0 
L 172 0 
L 1081 4666 
z
" transform="scale(0.015625)"/>
       <path id="DejaVuSans-Oblique-52" d="M 1613 4147 
L 1294 2491 
L 2106 2491 
Q 2584 2491 2879 2755 
Q 3175 3019 3175 3444 
Q 3175 3784 2976 3965 
Q 2778 4147 2406 4147 
L 1613 4147 
z
M 2772 2241 
Q 2972 2194 3105 2009 
Q 3238 1825 3413 1275 
L 3809 0 
L 3144 0 
L 2778 1197 
Q 2638 1659 2453 1815 
Q 2269 1972 1888 1972 
L 1191 1972 
L 806 0 
L 172 0 
L 1081 4666 
L 2503 4666 
Q 3150 4666 3495 4373 
Q 3841 4081 3841 3531 
Q 3841 3044 3547 2687 
Q 3253 2331 2772 2241 
z
" transform="scale(0.015625)"/>
      </defs>
      <use xlink:href="#DejaVuSans-Oblique-49" transform="translate(0 0.09375)"/>
      <use xlink:href="#DejaVuSans-Oblique-52" transform="translate(29.492188 0.09375)"/>
     </g>
    </g>
   </g>
   <g id="line2d_23">
    <path d="M 513.497302 183.108894 
L 507.220177 155.224632 
L 500.496562 119.44845 
L 493.772948 124.094105 
L 487.049333 102.71356 
L 480.325718 116.97025 
L 473.602103 143.628338 
L 466.878488 161.048928 
L 460.154873 131.252788 
L 453.431259 111.950641 
L 446.707644 123.241434 
L 439.984029 141.193559 
L 433.260414 115.230297 
L 426.536799 152.462142 
L 419.813184 159.955278 
L 413.089569 176.290002 
L 406.365955 149.704151 
L 399.64234 106.502978 
L 392.918725 120.821863 
L 386.19511 139.69896 
L 379.471495 155.022641 
L 372.74788 146.073814 
L 366.024266 132.201836 
L 359.300651 133.577517 
L 352.577036 93.282166 
L 345.853421 66.595678 
L 339.129806 33.164734 
L 332.406191 82.746527 
L 325.682576 101.268844 
L 318.958962 145.697182 
L 312.235347 119.486632 
L 305.511732 98.077751 
L 298.788117 115.162674 
L 292.064502 101.042033 
L 285.340887 101.932646 
L 278.617273 102.593584 
L 271.893658 109.168974 
L 265.170043 96.60236 
L 258.446428 141.781784 
L 251.722813 167.396374 
L 244.999198 189.444007 
L 238.275583 186.055364 
L 231.551969 114.046749 
L 224.828354 100.862677 
L 218.104739 113.881989 
L 211.381124 94.344779 
L 204.657509 149.756016 
L 197.933894 140.621105 
L 191.21028 135.881177 
L 184.486665 99.881125 
L 177.76305 95.695727 
L 171.039435 97.021055 
L 164.31582 68.488171 
L 157.592205 45.573474 
L 150.86859 131.832924 
L 144.144976 159.323159 
L 137.421361 177.501691 
L 130.697746 193.869208 
L 123.974131 166.349121 
L 117.250516 130.827362 
L 110.526901 22.924571 
L 103.803287 39.935108 
L 97.079672 78.847504 
L 90.356057 104.313141 
L 83.632442 151.736021 
L 76.908827 121.929194 
L 70.185212 149.185193 
L 63.461597 113.373669 
L 56.737983 134.07554 
L 50.014368 43.48571 
L 43.290753 16.915663 
L 36.567138 27.202349 
L 29.843523 60.512122 
L 23.119908 76.947726 
L 16.396294 112.685871 
L 9.672679 90.857158 
L 2.949064 111.492925 
L -1 113.060217 
L -1 113.060217 
" clip-path="url(#p23655c6d06)" style="fill: none; stroke: #ff8c00; stroke-width: 1.5; stroke-linecap: square"/>
   </g>
   <g id="line2d_24">
    <path d="M 513.497302 182.359108 
L 507.220177 149.689008 
L 500.496562 113.626769 
L 493.772948 113.81917 
L 487.049333 86.286479 
L 480.325718 100.150768 
L 473.602103 138.309773 
L 466.878488 167.501461 
L 460.154873 142.709994 
L 453.431259 119.639158 
L 446.707644 124.012178 
L 439.984029 139.639102 
L 433.260414 111.891226 
L 426.536799 156.648375 
L 419.813184 161.393022 
L 413.089569 184.079203 
L 406.365955 146.091689 
L 399.64234 96.792583 
L 392.918725 111.942189 
L 386.19511 144.654738 
L 379.471495 168.037702 
L 372.74788 159.86313 
L 366.024266 143.022947 
L 359.300651 137.805869 
L 352.577036 94.329814 
L 345.853421 73.059793 
L 339.129806 42.651041 
L 332.406191 89.816034 
L 325.682576 98.018705 
L 318.958962 130.186075 
L 312.235347 115.851616 
L 305.511732 103.020454 
L 298.788117 129.190752 
L 292.064502 110.460283 
L 285.340887 110.534616 
L 278.617273 98.337237 
L 271.893658 112.326575 
L 265.170043 109.189766 
L 258.446428 151.601673 
L 251.722813 174.296781 
L 244.999198 192.147315 
L 238.275583 180.225516 
L 231.551969 108.370495 
L 224.828354 130.378958 
L 218.104739 138.289545 
L 211.381124 121.08343 
L 204.657509 145.744946 
L 197.933894 135.846116 
L 191.21028 115.64963 
L 184.486665 81.852329 
L 177.76305 78.483546 
L 171.039435 88.162355 
L 164.31582 56.3221 
L 157.592205 37.631823 
L 150.86859 128.038602 
L 144.144976 162.539785 
L 137.421361 177.913911 
L 130.697746 189.863422 
L 123.974131 165.507352 
L 117.250516 140.285103 
L 110.526901 44.254877 
L 103.803287 59.099375 
L 97.079672 91.362353 
L 90.356057 116.861411 
L 83.632442 152.753613 
L 76.908827 111.625376 
L 70.185212 141.350674 
L 63.461597 101.509829 
L 56.737983 130.169515 
L 50.014368 34.505566 
L 43.290753 22.649003 
L 36.567138 42.415325 
L 29.843523 64.537287 
L 23.119908 69.498161 
L 16.396294 102.56484 
L 9.672679 81.363694 
L 2.949064 116.212981 
L -1 112.05938 
L -1 112.05938 
" clip-path="url(#p23655c6d06)" style="fill: none; stroke: #808080; stroke-width: 1.5; stroke-linecap: square"/>
   </g>
   <g id="line2d_25">
    <path d="M 513.497302 182.97948 
L 507.220177 152.817591 
L 500.496562 116.542634 
L 493.772948 119.552286 
L 487.049333 95.55941 
L 480.325718 109.93082 
L 473.602103 141.421251 
L 466.878488 163.786775 
L 460.154873 136.080865 
L 453.431259 114.712877 
L 446.707644 123.008498 
L 439.984029 140.324628 
L 433.260414 113.24975 
L 426.536799 154.164255 
L 419.813184 160.597605 
L 413.089569 179.795693 
L 406.365955 148.204497 
L 399.64234 102.174611 
L 392.918725 116.771045 
L 386.19511 141.445246 
L 379.471495 160.532744 
L 372.74788 152.052565 
L 366.024266 136.804009 
L 359.300651 135.285317 
L 352.577036 93.301092 
L 345.853421 68.949859 
L 339.129806 36.603491 
L 332.406191 85.539473 
L 325.682576 99.56876 
L 318.958962 139.170589 
L 312.235347 117.309943 
L 305.511732 99.603778 
L 298.788117 121.192017 
L 292.064502 104.63242 
L 285.340887 104.756752 
L 278.617273 97.496342 
L 271.893658 108.356137 
L 265.170043 100.659254 
L 258.446428 145.957791 
L 251.722813 170.482528 
L 244.999198 190.731 
L 238.275583 183.68491 
L 231.551969 111.413853 
L 224.828354 113.435328 
L 218.104739 124.01197 
L 211.381124 105.602764 
L 204.657509 148.001132 
L 197.933894 138.424214 
L 191.21028 127.256615 
L 184.486665 91.601373 
L 177.76305 87.905291 
L 171.039435 92.73722 
L 164.31582 62.120614 
L 157.592205 40.29264 
L 150.86859 130.104798 
L 144.144976 160.666034 
L 137.421361 177.923263 
L 130.697746 192.410882 
L 123.974131 166.081363 
L 117.250516 134.892987 
L 110.526901 30.12506 
L 103.803287 47.028555 
L 97.079672 83.760544 
L 90.356057 109.459334 
L 83.632442 152.189303 
L 76.908827 117.57594 
L 70.185212 146.015794 
L 63.461597 108.357657 
L 56.737983 132.422644 
L 50.014368 38.56859 
L 43.290753 18.093854 
L 36.567138 32.994712 
L 29.843523 61.795124 
L 23.119908 73.157211 
L 16.396294 107.92556 
L 9.672679 86.058713 
L 2.949064 113.115404 
L -1 112.141042 
L -1 112.141042 
" clip-path="url(#p23655c6d06)" style="fill: none; stroke: #8b008b; stroke-width: 1.5; stroke-linecap: square"/>
   </g>
   <g id="patch_3">
    <path d="M 54.096563 220.944578 
L 54.096563 7.2 
" style="fill: none; stroke: #000000; stroke-width: 0.8; stroke-linejoin: miter; stroke-linecap: square"/>
   </g>
   <g id="patch_4">
    <path d="M 500.496562 220.944578 
L 500.496562 7.2 
" style="fill: none; stroke: #000000; stroke-width: 0.8; stroke-linejoin: miter; stroke-linecap: square"/>
   </g>
   <g id="patch_5">
    <path d="M 54.096562 220.944578 
L 500.496562 220.944578 
" style="fill: none; stroke: #000000; stroke-width: 0.8; stroke-linejoin: miter; stroke-linecap: square"/>
   </g>
   <g id="patch_6">
    <path d="M 54.096562 7.2 
L 500.496562 7.2 
" style="fill: none; stroke: #000000; stroke-width: 0.8; stroke-linejoin: miter; stroke-linecap: square"/>
   </g>
   <g id="text_7">
    <!-- 3 periods -->
    <g transform="translate(247.001484 33.261687) scale(0.13 -0.13)">
     <defs>
      <path id="DejaVuSans-33" d="M 2597 2516 
Q 3050 2419 3304 2112 
Q 3559 1806 3559 1356 
Q 3559 666 3084 287 
Q 2609 -91 1734 -91 
Q 1441 -91 1130 -33 
Q 819 25 488 141 
L 488 750 
Q 750 597 1062 519 
Q 1375 441 1716 441 
Q 2309 441 2620 675 
Q 2931 909 2931 1356 
Q 2931 1769 2642 2001 
Q 2353 2234 1838 2234 
L 1294 2234 
L 1294 2753 
L 1863 2753 
Q 2328 2753 2575 2939 
Q 2822 3125 2822 3475 
Q 2822 3834 2567 4026 
Q 2313 4219 1838 4219 
Q 1578 4219 1281 4162 
Q 984 4106 628 3988 
L 628 4550 
Q 988 4650 1302 4700 
Q 1616 4750 1894 4750 
Q 2613 4750 3031 4423 
Q 3450 4097 3450 3541 
Q 3450 3153 3228 2886 
Q 3006 2619 2597 2516 
z
" transform="scale(0.015625)"/>
      <path id="DejaVuSans-20" transform="scale(0.015625)"/>
      <path id="DejaVuSans-70" d="M 1159 525 
L 1159 -1331 
L 581 -1331 
L 581 3500 
L 1159 3500 
L 1159 2969 
Q 1341 3281 1617 3432 
Q 1894 3584 2278 3584 
Q 2916 3584 3314 3078 
Q 3713 2572 3713 1747 
Q 3713 922 3314 415 
Q 2916 -91 2278 -91 
Q 1894 -91 1617 61 
Q 1341 213 1159 525 
z
M 3116 1747 
Q 3116 2381 2855 2742 
Q 2594 3103 2138 3103 
Q 1681 3103 1420 2742 
Q 1159 2381 1159 1747 
Q 1159 1113 1420 752 
Q 1681 391 2138 391 
Q 2594 391 2855 752 
Q 3116 1113 3116 1747 
z
" transform="scale(0.015625)"/>
      <path id="DejaVuSans-65" d="M 3597 1894 
L 3597 1613 
L 953 1613 
Q 991 1019 1311 708 
Q 1631 397 2203 397 
Q 2534 397 2845 478 
Q 3156 559 3463 722 
L 3463 178 
Q 3153 47 2828 -22 
Q 2503 -91 2169 -91 
Q 1331 -91 842 396 
Q 353 884 353 1716 
Q 353 2575 817 3079 
Q 1281 3584 2069 3584 
Q 2775 3584 3186 3129 
Q 3597 2675 3597 1894 
z
M 3022 2063 
Q 3016 2534 2758 2815 
Q 2500 3097 2075 3097 
Q 1594 3097 1305 2825 
Q 1016 2553 972 2059 
L 3022 2063 
z
" transform="scale(0.015625)"/>
      <path id="DejaVuSans-72" d="M 2631 2963 
Q 2534 3019 2420 3045 
Q 2306 3072 2169 3072 
Q 1681 3072 1420 2755 
Q 1159 2438 1159 1844 
L 1159 0 
L 581 0 
L 581 3500 
L 1159 3500 
L 1159 2956 
Q 1341 3275 1631 3429 
Q 1922 3584 2338 3584 
Q 2397 3584 2469 3576 
Q 2541 3569 2628 3553 
L 2631 2963 
z
" transform="scale(0.015625)"/>
      <path id="DejaVuSans-69" d="M 603 3500 
L 1178 3500 
L 1178 0 
L 603 0 
L 603 3500 
z
M 603 4863 
L 1178 4863 
L 1178 4134 
L 603 4134 
L 603 4863 
z
" transform="scale(0.015625)"/>
      <path id="DejaVuSans-6f" d="M 1959 3097 
Q 1497 3097 1228 2736 
Q 959 2375 959 1747 
Q 959 1119 1226 758 
Q 1494 397 1959 397 
Q 2419 397 2687 759 
Q 2956 1122 2956 1747 
Q 2956 2369 2687 2733 
Q 2419 3097 1959 3097 
z
M 1959 3584 
Q 2709 3584 3137 3096 
Q 3566 2609 3566 1747 
Q 3566 888 3137 398 
Q 2709 -91 1959 -91 
Q 1206 -91 779 398 
Q 353 888 353 1747 
Q 353 2609 779 3096 
Q 1206 3584 1959 3584 
z
" transform="scale(0.015625)"/>
      <path id="DejaVuSans-64" d="M 2906 2969 
L 2906 4863 
L 3481 4863 
L 3481 0 
L 2906 0 
L 2906 525 
Q 2725 213 2448 61 
Q 2172 -91 1784 -91 
Q 1150 -91 751 415 
Q 353 922 353 1747 
Q 353 2572 751 3078 
Q 1150 3584 1784 3584 
Q 2172 3584 2448 3432 
Q 2725 3281 2906 2969 
z
M 947 1747 
Q 947 1113 1208 752 
Q 1469 391 1925 391 
Q 2381 391 2643 752 
Q 2906 1113 2906 1747 
Q 2906 2381 2643 2742 
Q 2381 3103 1925 3103 
Q 1469 3103 1208 2742 
Q 947 2381 947 1747 
z
" transform="scale(0.015625)"/>
      <path id="DejaVuSans-73" d="M 2834 3397 
L 2834 2853 
Q 2591 2978 2328 3040 
Q 2066 3103 1784 3103 
Q 1356 3103 1142 2972 
Q 928 2841 928 2578 
Q 928 2378 1081 2264 
Q 1234 2150 1697 2047 
L 1894 2003 
Q 2506 1872 2764 1633 
Q 3022 1394 3022 966 
Q 3022 478 2636 193 
Q 2250 -91 1575 -91 
Q 1294 -91 989 -36 
Q 684 19 347 128 
L 347 722 
Q 666 556 975 473 
Q 1284 391 1588 391 
Q 1994 391 2212 530 
Q 2431 669 2431 922 
Q 2431 1156 2273 1281 
Q 2116 1406 1581 1522 
L 1381 1569 
Q 847 1681 609 1914 
Q 372 2147 372 2553 
Q 372 3047 722 3315 
Q 1072 3584 1716 3584 
Q 2034 3584 2315 3537 
Q 2597 3491 2834 3397 
z
" transform="scale(0.015625)"/>
     </defs>
     <use xlink:href="#DejaVuSans-33"/>
     <use xlink:href="#DejaVuSans-20" x="63.623047"/>
     <use xlink:href="#DejaVuSans-70" x="95.410156"/>
     <use xlink:href="#DejaVuSans-65" x="158.886719"/>
     <use xlink:href="#DejaVuSans-72" x="220.410156"/>
     <use xlink:href="#DejaVuSans-69" x="261.523438"/>
     <use xlink:href="#DejaVuSans-6f" x="289.306641"/>
     <use xlink:href="#DejaVuSans-64" x="350.488281"/>
     <use xlink:href="#DejaVuSans-73" x="413.964844"/>
    </g>
   </g>
   <g id="legend_1">
    <g id="patch_7">
     <path d="M 380.052812 59.234375 
L 493.496562 59.234375 
Q 495.496562 59.234375 495.496562 57.234375 
L 495.496562 14.2 
Q 495.496562 12.2 493.496562 12.2 
L 380.052812 12.2 
Q 378.052812 12.2 378.052812 14.2 
L 378.052812 57.234375 
Q 378.052812 59.234375 380.052812 59.234375 
z
" style="fill: #ffffff; opacity: 0.8; stroke: #cccccc; stroke-linejoin: miter"/>
    </g>
    <g id="line2d_26">
     <path d="M 382.052812 20.298437 
L 392.052812 20.298437 
L 402.052812 20.298437 
" style="fill: none; stroke: #ff8c00; stroke-width: 1.5; stroke-linecap: square"/>
    </g>
    <g id="text_8">
     <!-- ETFs -->
     <g transform="translate(410.052812 23.798437) scale(0.1 -0.1)">
      <defs>
       <path id="DejaVuSans-45" d="M 628 4666 
L 3578 4666 
L 3578 4134 
L 1259 4134 
L 1259 2753 
L 3481 2753 
L 3481 2222 
L 1259 2222 
L 1259 531 
L 3634 531 
L 3634 0 
L 628 0 
L 628 4666 
z
" transform="scale(0.015625)"/>
       <path id="DejaVuSans-54" d="M -19 4666 
L 3928 4666 
L 3928 4134 
L 2272 4134 
L 2272 0 
L 1638 0 
L 1638 4134 
L -19 4134 
L -19 4666 
z
" transform="scale(0.015625)"/>
       <path id="DejaVuSans-46" d="M 628 4666 
L 3309 4666 
L 3309 4134 
L 1259 4134 
L 1259 2759 
L 3109 2759 
L 3109 2228 
L 1259 2228 
L 1259 0 
L 628 0 
L 628 4666 
z
" transform="scale(0.015625)"/>
      </defs>
      <use xlink:href="#DejaVuSans-45"/>
      <use xlink:href="#DejaVuSans-54" x="63.183594"/>
      <use xlink:href="#DejaVuSans-46" x="124.267578"/>
      <use xlink:href="#DejaVuSans-73" x="181.787109"/>
     </g>
    </g>
    <g id="line2d_27">
     <path d="M 382.052812 34.976562 
L 392.052812 34.976562 
L 402.052812 34.976562 
" style="fill: none; stroke: #808080; stroke-width: 1.5; stroke-linecap: square"/>
    </g>
    <g id="text_9">
     <!-- Stocks -->
     <g transform="translate(410.052812 38.476562) scale(0.1 -0.1)">
      <defs>
       <path id="DejaVuSans-53" d="M 3425 4513 
L 3425 3897 
Q 3066 4069 2747 4153 
Q 2428 4238 2131 4238 
Q 1616 4238 1336 4038 
Q 1056 3838 1056 3469 
Q 1056 3159 1242 3001 
Q 1428 2844 1947 2747 
L 2328 2669 
Q 3034 2534 3370 2195 
Q 3706 1856 3706 1288 
Q 3706 609 3251 259 
Q 2797 -91 1919 -91 
Q 1588 -91 1214 -16 
Q 841 59 441 206 
L 441 856 
Q 825 641 1194 531 
Q 1563 422 1919 422 
Q 2459 422 2753 634 
Q 3047 847 3047 1241 
Q 3047 1584 2836 1778 
Q 2625 1972 2144 2069 
L 1759 2144 
Q 1053 2284 737 2584 
Q 422 2884 422 3419 
Q 422 4038 858 4394 
Q 1294 4750 2059 4750 
Q 2388 4750 2728 4690 
Q 3069 4631 3425 4513 
z
" transform="scale(0.015625)"/>
       <path id="DejaVuSans-74" d="M 1172 4494 
L 1172 3500 
L 2356 3500 
L 2356 3053 
L 1172 3053 
L 1172 1153 
Q 1172 725 1289 603 
Q 1406 481 1766 481 
L 2356 481 
L 2356 0 
L 1766 0 
Q 1100 0 847 248 
Q 594 497 594 1153 
L 594 3053 
L 172 3053 
L 172 3500 
L 594 3500 
L 594 4494 
L 1172 4494 
z
" transform="scale(0.015625)"/>
       <path id="DejaVuSans-63" d="M 3122 3366 
L 3122 2828 
Q 2878 2963 2633 3030 
Q 2388 3097 2138 3097 
Q 1578 3097 1268 2742 
Q 959 2388 959 1747 
Q 959 1106 1268 751 
Q 1578 397 2138 397 
Q 2388 397 2633 464 
Q 2878 531 3122 666 
L 3122 134 
Q 2881 22 2623 -34 
Q 2366 -91 2075 -91 
Q 1284 -91 818 406 
Q 353 903 353 1747 
Q 353 2603 823 3093 
Q 1294 3584 2113 3584 
Q 2378 3584 2631 3529 
Q 2884 3475 3122 3366 
z
" transform="scale(0.015625)"/>
       <path id="DejaVuSans-6b" d="M 581 4863 
L 1159 4863 
L 1159 1991 
L 2875 3500 
L 3609 3500 
L 1753 1863 
L 3688 0 
L 2938 0 
L 1159 1709 
L 1159 0 
L 581 0 
L 581 4863 
z
" transform="scale(0.015625)"/>
      </defs>
      <use xlink:href="#DejaVuSans-53"/>
      <use xlink:href="#DejaVuSans-74" x="63.476562"/>
      <use xlink:href="#DejaVuSans-6f" x="102.685547"/>
      <use xlink:href="#DejaVuSans-63" x="163.867188"/>
      <use xlink:href="#DejaVuSans-6b" x="218.847656"/>
      <use xlink:href="#DejaVuSans-73" x="276.757812"/>
     </g>
    </g>
    <g id="line2d_28">
     <path d="M 382.052812 49.654687 
L 392.052812 49.654687 
L 402.052812 49.654687 
" style="fill: none; stroke: #8b008b; stroke-width: 1.5; stroke-linecap: square"/>
    </g>
    <g id="text_10">
     <!-- Stocks and ETFs -->
     <g transform="translate(410.052812 53.154687) scale(0.1 -0.1)">
      <defs>
       <path id="DejaVuSans-61" d="M 2194 1759 
Q 1497 1759 1228 1600 
Q 959 1441 959 1056 
Q 959 750 1161 570 
Q 1363 391 1709 391 
Q 2188 391 2477 730 
Q 2766 1069 2766 1631 
L 2766 1759 
L 2194 1759 
z
M 3341 1997 
L 3341 0 
L 2766 0 
L 2766 531 
Q 2569 213 2275 61 
Q 1981 -91 1556 -91 
Q 1019 -91 701 211 
Q 384 513 384 1019 
Q 384 1609 779 1909 
Q 1175 2209 1959 2209 
L 2766 2209 
L 2766 2266 
Q 2766 2663 2505 2880 
Q 2244 3097 1772 3097 
Q 1472 3097 1187 3025 
Q 903 2953 641 2809 
L 641 3341 
Q 956 3463 1253 3523 
Q 1550 3584 1831 3584 
Q 2591 3584 2966 3190 
Q 3341 2797 3341 1997 
z
" transform="scale(0.015625)"/>
       <path id="DejaVuSans-6e" d="M 3513 2113 
L 3513 0 
L 2938 0 
L 2938 2094 
Q 2938 2591 2744 2837 
Q 2550 3084 2163 3084 
Q 1697 3084 1428 2787 
Q 1159 2491 1159 1978 
L 1159 0 
L 581 0 
L 581 3500 
L 1159 3500 
L 1159 2956 
Q 1366 3272 1645 3428 
Q 1925 3584 2291 3584 
Q 2894 3584 3203 3211 
Q 3513 2838 3513 2113 
z
" transform="scale(0.015625)"/>
      </defs>
      <use xlink:href="#DejaVuSans-53"/>
      <use xlink:href="#DejaVuSans-74" x="63.476562"/>
      <use xlink:href="#DejaVuSans-6f" x="102.685547"/>
      <use xlink:href="#DejaVuSans-63" x="163.867188"/>
      <use xlink:href="#DejaVuSans-6b" x="218.847656"/>
      <use xlink:href="#DejaVuSans-73" x="276.757812"/>
      <use xlink:href="#DejaVuSans-20" x="328.857422"/>
      <use xlink:href="#DejaVuSans-61" x="360.644531"/>
      <use xlink:href="#DejaVuSans-6e" x="421.923828"/>
      <use xlink:href="#DejaVuSans-64" x="485.302734"/>
      <use xlink:href="#DejaVuSans-20" x="548.779297"/>
      <use xlink:href="#DejaVuSans-45" x="580.566406"/>
      <use xlink:href="#DejaVuSans-54" x="643.75"/>
      <use xlink:href="#DejaVuSans-46" x="704.833984"/>
      <use xlink:href="#DejaVuSans-73" x="762.353516"/>
     </g>
    </g>
   </g>
  </g>
  <g id="axes_2">
   <g id="patch_8">
    <path d="M 54.096563 445.376386 
L 500.496562 445.376386 
L 500.496562 231.631807 
L 54.096563 231.631807 
L 54.096563 445.376386 
z
" style="fill: none"/>
   </g>
   <g id="matplotlib.axis_3">
    <g id="xtick_7">
     <g id="line2d_29">
      <path d="M 54.096562 445.376386 
L 54.096562 231.631807 
" clip-path="url(#p848d52c6ad)" style="fill: none; stroke-dasharray: 0.5,0.825; stroke-dashoffset: 0; stroke: #808080; stroke-width: 0.5"/>
     </g>
     <g id="line2d_30">
      <g>
       <use xlink:href="#m0a49be80d0" x="54.096562" y="445.376386" style="stroke: #000000; stroke-width: 0.8"/>
      </g>
     </g>
    </g>
    <g id="xtick_8">
     <g id="line2d_31">
      <path d="M 141.743685 445.376386 
L 141.743685 231.631807 
" clip-path="url(#p848d52c6ad)" style="fill: none; stroke-dasharray: 0.5,0.825; stroke-dashoffset: 0; stroke: #808080; stroke-width: 0.5"/>
     </g>
     <g id="line2d_32">
      <g>
       <use xlink:href="#m0a49be80d0" x="141.743685" y="445.376386" style="stroke: #000000; stroke-width: 0.8"/>
      </g>
     </g>
    </g>
    <g id="xtick_9">
     <g id="line2d_33">
      <path d="M 229.390807 445.376386 
L 229.390807 231.631807 
" clip-path="url(#p848d52c6ad)" style="fill: none; stroke-dasharray: 0.5,0.825; stroke-dashoffset: 0; stroke: #808080; stroke-width: 0.5"/>
     </g>
     <g id="line2d_34">
      <g>
       <use xlink:href="#m0a49be80d0" x="229.390807" y="445.376386" style="stroke: #000000; stroke-width: 0.8"/>
      </g>
     </g>
    </g>
    <g id="xtick_10">
     <g id="line2d_35">
      <path d="M 317.278058 445.376386 
L 317.278058 231.631807 
" clip-path="url(#p848d52c6ad)" style="fill: none; stroke-dasharray: 0.5,0.825; stroke-dashoffset: 0; stroke: #808080; stroke-width: 0.5"/>
     </g>
     <g id="line2d_36">
      <g>
       <use xlink:href="#m0a49be80d0" x="317.278058" y="445.376386" style="stroke: #000000; stroke-width: 0.8"/>
      </g>
     </g>
    </g>
    <g id="xtick_11">
     <g id="line2d_37">
      <path d="M 404.92518 445.376386 
L 404.92518 231.631807 
" clip-path="url(#p848d52c6ad)" style="fill: none; stroke-dasharray: 0.5,0.825; stroke-dashoffset: 0; stroke: #808080; stroke-width: 0.5"/>
     </g>
     <g id="line2d_38">
      <g>
       <use xlink:href="#m0a49be80d0" x="404.92518" y="445.376386" style="stroke: #000000; stroke-width: 0.8"/>
      </g>
     </g>
    </g>
    <g id="xtick_12">
     <g id="line2d_39">
      <path d="M 492.572302 445.376386 
L 492.572302 231.631807 
" clip-path="url(#p848d52c6ad)" style="fill: none; stroke-dasharray: 0.5,0.825; stroke-dashoffset: 0; stroke: #808080; stroke-width: 0.5"/>
     </g>
     <g id="line2d_40">
      <g>
       <use xlink:href="#m0a49be80d0" x="492.572302" y="445.376386" style="stroke: #000000; stroke-width: 0.8"/>
      </g>
     </g>
    </g>
   </g>
   <g id="matplotlib.axis_4">
    <g id="ytick_6">
     <g id="line2d_41">
      <path d="M 54.096563 444.732131 
L 500.496562 444.732131 
" clip-path="url(#p848d52c6ad)" style="fill: none; stroke-dasharray: 0.5,0.825; stroke-dashoffset: 0; stroke: #808080; stroke-width: 0.5"/>
     </g>
     <g id="line2d_42">
      <g>
       <use xlink:href="#m487ca22de9" x="54.096563" y="444.732131" style="stroke: #000000; stroke-width: 0.8"/>
      </g>
     </g>
     <g id="text_11">
      <!-- −2.5 -->
      <g transform="translate(22.81375 448.53135) scale(0.1 -0.1)">
       <defs>
        <path id="DejaVuSans-32" d="M 1228 531 
L 3431 531 
L 3431 0 
L 469 0 
L 469 531 
Q 828 903 1448 1529 
Q 2069 2156 2228 2338 
Q 2531 2678 2651 2914 
Q 2772 3150 2772 3378 
Q 2772 3750 2511 3984 
Q 2250 4219 1831 4219 
Q 1534 4219 1204 4116 
Q 875 4013 500 3803 
L 500 4441 
Q 881 4594 1212 4672 
Q 1544 4750 1819 4750 
Q 2544 4750 2975 4387 
Q 3406 4025 3406 3419 
Q 3406 3131 3298 2873 
Q 3191 2616 2906 2266 
Q 2828 2175 2409 1742 
Q 1991 1309 1228 531 
z
" transform="scale(0.015625)"/>
        <path id="DejaVuSans-2e" d="M 684 794 
L 1344 794 
L 1344 0 
L 684 0 
L 684 794 
z
" transform="scale(0.015625)"/>
       </defs>
       <use xlink:href="#DejaVuSans-2212"/>
       <use xlink:href="#DejaVuSans-32" x="83.789062"/>
       <use xlink:href="#DejaVuSans-2e" x="147.412109"/>
       <use xlink:href="#DejaVuSans-35" x="179.199219"/>
      </g>
     </g>
    </g>
    <g id="ytick_7">
     <g id="line2d_43">
      <path d="M 54.096563 418.991798 
L 500.496562 418.991798 
" clip-path="url(#p848d52c6ad)" style="fill: none; stroke-dasharray: 0.5,0.825; stroke-dashoffset: 0; stroke: #808080; stroke-width: 0.5"/>
     </g>
     <g id="line2d_44">
      <g>
       <use xlink:href="#m487ca22de9" x="54.096563" y="418.991798" style="stroke: #000000; stroke-width: 0.8"/>
      </g>
     </g>
     <g id="text_12">
      <!-- 0.0 -->
      <g transform="translate(31.193438 422.791016) scale(0.1 -0.1)">
       <use xlink:href="#DejaVuSans-30"/>
       <use xlink:href="#DejaVuSans-2e" x="63.623047"/>
       <use xlink:href="#DejaVuSans-30" x="95.410156"/>
      </g>
     </g>
    </g>
    <g id="ytick_8">
     <g id="line2d_45">
      <path d="M 54.096563 393.251464 
L 500.496562 393.251464 
" clip-path="url(#p848d52c6ad)" style="fill: none; stroke-dasharray: 0.5,0.825; stroke-dashoffset: 0; stroke: #808080; stroke-width: 0.5"/>
     </g>
     <g id="line2d_46">
      <g>
       <use xlink:href="#m487ca22de9" x="54.096563" y="393.251464" style="stroke: #000000; stroke-width: 0.8"/>
      </g>
     </g>
     <g id="text_13">
      <!-- 2.5 -->
      <g transform="translate(31.193438 397.050683) scale(0.1 -0.1)">
       <use xlink:href="#DejaVuSans-32"/>
       <use xlink:href="#DejaVuSans-2e" x="63.623047"/>
       <use xlink:href="#DejaVuSans-35" x="95.410156"/>
      </g>
     </g>
    </g>
    <g id="ytick_9">
     <g id="line2d_47">
      <path d="M 54.096563 367.51113 
L 500.496562 367.51113 
" clip-path="url(#p848d52c6ad)" style="fill: none; stroke-dasharray: 0.5,0.825; stroke-dashoffset: 0; stroke: #808080; stroke-width: 0.5"/>
     </g>
     <g id="line2d_48">
      <g>
       <use xlink:href="#m487ca22de9" x="54.096563" y="367.51113" style="stroke: #000000; stroke-width: 0.8"/>
      </g>
     </g>
     <g id="text_14">
      <!-- 5.0 -->
      <g transform="translate(31.193438 371.310349) scale(0.1 -0.1)">
       <use xlink:href="#DejaVuSans-35"/>
       <use xlink:href="#DejaVuSans-2e" x="63.623047"/>
       <use xlink:href="#DejaVuSans-30" x="95.410156"/>
      </g>
     </g>
    </g>
    <g id="ytick_10">
     <g id="line2d_49">
      <path d="M 54.096563 341.770796 
L 500.496562 341.770796 
" clip-path="url(#p848d52c6ad)" style="fill: none; stroke-dasharray: 0.5,0.825; stroke-dashoffset: 0; stroke: #808080; stroke-width: 0.5"/>
     </g>
     <g id="line2d_50">
      <g>
       <use xlink:href="#m487ca22de9" x="54.096563" y="341.770796" style="stroke: #000000; stroke-width: 0.8"/>
      </g>
     </g>
     <g id="text_15">
      <!-- 7.5 -->
      <g transform="translate(31.193438 345.570015) scale(0.1 -0.1)">
       <defs>
        <path id="DejaVuSans-37" d="M 525 4666 
L 3525 4666 
L 3525 4397 
L 1831 0 
L 1172 0 
L 2766 4134 
L 525 4134 
L 525 4666 
z
" transform="scale(0.015625)"/>
       </defs>
       <use xlink:href="#DejaVuSans-37"/>
       <use xlink:href="#DejaVuSans-2e" x="63.623047"/>
       <use xlink:href="#DejaVuSans-35" x="95.410156"/>
      </g>
     </g>
    </g>
    <g id="ytick_11">
     <g id="line2d_51">
      <path d="M 54.096563 316.030462 
L 500.496562 316.030462 
" clip-path="url(#p848d52c6ad)" style="fill: none; stroke-dasharray: 0.5,0.825; stroke-dashoffset: 0; stroke: #808080; stroke-width: 0.5"/>
     </g>
     <g id="line2d_52">
      <g>
       <use xlink:href="#m487ca22de9" x="54.096563" y="316.030462" style="stroke: #000000; stroke-width: 0.8"/>
      </g>
     </g>
     <g id="text_16">
      <!-- 10.0 -->
      <g transform="translate(24.830938 319.829681) scale(0.1 -0.1)">
       <use xlink:href="#DejaVuSans-31"/>
       <use xlink:href="#DejaVuSans-30" x="63.623047"/>
       <use xlink:href="#DejaVuSans-2e" x="127.246094"/>
       <use xlink:href="#DejaVuSans-30" x="159.033203"/>
      </g>
     </g>
    </g>
    <g id="ytick_12">
     <g id="line2d_53">
      <path d="M 54.096563 290.290129 
L 500.496562 290.290129 
" clip-path="url(#p848d52c6ad)" style="fill: none; stroke-dasharray: 0.5,0.825; stroke-dashoffset: 0; stroke: #808080; stroke-width: 0.5"/>
     </g>
     <g id="line2d_54">
      <g>
       <use xlink:href="#m487ca22de9" x="54.096563" y="290.290129" style="stroke: #000000; stroke-width: 0.8"/>
      </g>
     </g>
     <g id="text_17">
      <!-- 12.5 -->
      <g transform="translate(24.830938 294.089347) scale(0.1 -0.1)">
       <use xlink:href="#DejaVuSans-31"/>
       <use xlink:href="#DejaVuSans-32" x="63.623047"/>
       <use xlink:href="#DejaVuSans-2e" x="127.246094"/>
       <use xlink:href="#DejaVuSans-35" x="159.033203"/>
      </g>
     </g>
    </g>
    <g id="ytick_13">
     <g id="line2d_55">
      <path d="M 54.096563 264.549795 
L 500.496562 264.549795 
" clip-path="url(#p848d52c6ad)" style="fill: none; stroke-dasharray: 0.5,0.825; stroke-dashoffset: 0; stroke: #808080; stroke-width: 0.5"/>
     </g>
     <g id="line2d_56">
      <g>
       <use xlink:href="#m487ca22de9" x="54.096563" y="264.549795" style="stroke: #000000; stroke-width: 0.8"/>
      </g>
     </g>
     <g id="text_18">
      <!-- 15.0 -->
      <g transform="translate(24.830938 268.349014) scale(0.1 -0.1)">
       <use xlink:href="#DejaVuSans-31"/>
       <use xlink:href="#DejaVuSans-35" x="63.623047"/>
       <use xlink:href="#DejaVuSans-2e" x="127.246094"/>
       <use xlink:href="#DejaVuSans-30" x="159.033203"/>
      </g>
     </g>
    </g>
    <g id="ytick_14">
     <g id="line2d_57">
      <path d="M 54.096563 238.809461 
L 500.496562 238.809461 
" clip-path="url(#p848d52c6ad)" style="fill: none; stroke-dasharray: 0.5,0.825; stroke-dashoffset: 0; stroke: #808080; stroke-width: 0.5"/>
     </g>
     <g id="line2d_58">
      <g>
       <use xlink:href="#m487ca22de9" x="54.096563" y="238.809461" style="stroke: #000000; stroke-width: 0.8"/>
      </g>
     </g>
     <g id="text_19">
      <!-- 17.5 -->
      <g transform="translate(24.830938 242.60868) scale(0.1 -0.1)">
       <use xlink:href="#DejaVuSans-31"/>
       <use xlink:href="#DejaVuSans-37" x="63.623047"/>
       <use xlink:href="#DejaVuSans-2e" x="127.246094"/>
       <use xlink:href="#DejaVuSans-35" x="159.033203"/>
      </g>
     </g>
    </g>
    <g id="text_20">
     <!-- $IR$ -->
     <g transform="translate(16.318125 344.444096) rotate(-90) scale(0.12 -0.12)">
      <use xlink:href="#DejaVuSans-Oblique-49" transform="translate(0 0.09375)"/>
      <use xlink:href="#DejaVuSans-Oblique-52" transform="translate(29.492188 0.09375)"/>
     </g>
    </g>
   </g>
   <g id="line2d_59">
    <path d="M 513.497302 398.791529 
L 507.220177 380.244977 
L 500.496562 362.584071 
L 493.772948 355.665377 
L 487.049333 379.056273 
L 480.325718 385.514082 
L 473.602103 385.900469 
L 466.878488 404.687412 
L 460.154873 383.794649 
L 453.431259 374.783963 
L 446.707644 395.04828 
L 439.984029 393.935297 
L 433.260414 391.843791 
L 426.536799 400.913813 
L 419.813184 389.329279 
L 413.089569 382.900592 
L 406.365955 343.972826 
L 399.64234 303.767356 
L 392.918725 317.647539 
L 386.19511 315.003793 
L 379.471495 327.114706 
L 372.74788 318.646743 
L 366.024266 297.460695 
L 359.300651 312.39681 
L 352.577036 298.370406 
L 345.853421 283.184973 
L 339.129806 297.465496 
L 332.406191 306.150714 
L 325.682576 300.113896 
L 318.958962 379.700302 
L 312.235347 395.470982 
L 305.511732 397.311846 
L 298.788117 397.302914 
L 292.064502 399.64604 
L 285.340887 409.485163 
L 278.617273 403.403838 
L 271.893658 402.09331 
L 265.170043 421.898684 
L 258.446428 411.290152 
L 251.722813 408.401082 
L 244.999198 435.144052 
L 238.275583 400.7241 
L 231.551969 330.307117 
L 224.828354 330.878921 
L 218.104739 313.601421 
L 211.381124 342.86454 
L 204.657509 369.773339 
L 197.933894 375.027137 
L 191.21028 405.650766 
L 184.486665 380.663497 
L 177.76305 370.221711 
L 171.039435 376.835779 
L 164.31582 363.505659 
L 157.592205 366.014175 
L 150.86859 376.07257 
L 144.144976 394.815509 
L 137.421361 385.249686 
L 130.697746 389.148093 
L 123.974131 364.287741 
L 117.250516 345.711695 
L 110.526901 315.07548 
L 103.803287 303.527078 
L 97.079672 313.581315 
L 90.356057 323.100326 
L 83.632442 318.113246 
L 76.908827 328.094238 
L 70.185212 320.121002 
L 63.461597 281.333001 
L 56.737983 317.849403 
L 50.014368 249.556268 
L 43.290753 243.535297 
L 36.567138 266.738098 
L 29.843523 263.514092 
L 23.119908 262.365772 
L 16.396294 289.566191 
L 9.672679 289.314079 
L 2.949064 308.513848 
L -1 294.083974 
L -1 294.083974 
" clip-path="url(#p848d52c6ad)" style="fill: none; stroke: #ff8c00; stroke-width: 1.5; stroke-linecap: square"/>
   </g>
   <g id="line2d_60">
    <path d="M 513.497302 392.63845 
L 507.220177 370.672864 
L 500.496562 354.228734 
L 493.772948 347.576686 
L 487.049333 375.295525 
L 480.325718 381.329627 
L 473.602103 388.482214 
L 466.878488 407.889787 
L 460.154873 385.134961 
L 453.431259 378.453293 
L 446.707644 397.28951 
L 439.984029 396.033047 
L 433.260414 399.922456 
L 426.536799 408.808635 
L 419.813184 394.781832 
L 413.089569 391.585772 
L 406.365955 353.578839 
L 399.64234 316.626558 
L 392.918725 327.689488 
L 386.19511 325.655935 
L 379.471495 333.137788 
L 372.74788 329.032559 
L 366.024266 308.865535 
L 359.300651 323.234449 
L 352.577036 306.505477 
L 345.853421 292.125855 
L 339.129806 303.391946 
L 332.406191 315.320796 
L 325.682576 312.67456 
L 318.958962 385.455235 
L 312.235347 400.368241 
L 305.511732 403.659039 
L 298.788117 406.07782 
L 292.064502 405.978982 
L 285.340887 420.334724 
L 278.617273 413.037018 
L 271.893658 412.865966 
L 265.170043 431.078628 
L 258.446428 422.332411 
L 251.722813 413.805566 
L 244.999198 435.660723 
L 238.275583 397.48895 
L 231.551969 324.762292 
L 224.828354 323.210238 
L 218.104739 309.044269 
L 211.381124 336.464073 
L 204.657509 355.876556 
L 197.933894 363.862212 
L 191.21028 393.039219 
L 184.486665 373.676846 
L 177.76305 365.461861 
L 171.039435 377.504324 
L 164.31582 369.671961 
L 157.592205 372.864633 
L 150.86859 384.643295 
L 144.144976 402.594844 
L 137.421361 386.301567 
L 130.697746 392.514398 
L 123.974131 365.316436 
L 117.250516 345.720068 
L 110.526901 315.594892 
L 103.803287 303.620819 
L 90.356057 319.45006 
L 83.632442 307.434682 
L 76.908827 315.974369 
L 70.185212 304.802487 
L 63.461597 272.367834 
L 56.737983 309.940919 
L 50.014368 243.786667 
L 43.290753 242.107845 
L 36.567138 257.540859 
L 29.843523 256.883487 
L 23.119908 269.166186 
L 16.396294 295.366416 
L 9.672679 296.212567 
L 2.949064 319.279786 
L -1 302.342727 
L -1 302.342727 
" clip-path="url(#p848d52c6ad)" style="fill: none; stroke: #808080; stroke-width: 1.5; stroke-linecap: square"/>
   </g>
   <g id="line2d_61">
    <path d="M 513.497302 395.990408 
L 507.220177 375.719269 
L 500.496562 358.337182 
L 493.772948 351.514879 
L 487.049333 377.025506 
L 480.325718 383.347292 
L 473.602103 386.582098 
L 466.878488 405.852175 
L 460.154873 383.903975 
L 453.431259 375.73582 
L 446.707644 395.639635 
L 439.984029 394.393836 
L 433.260414 394.801779 
L 426.536799 403.930677 
L 419.813184 391.226821 
L 413.089569 386.17857 
L 399.64234 308.388312 
L 392.918725 321.117612 
L 386.19511 318.742317 
L 379.471495 328.992999 
L 372.74788 322.282379 
L 366.024266 301.400087 
L 359.300651 316.301957 
L 352.577036 300.774896 
L 345.853421 285.626758 
L 339.129806 298.271144 
L 332.406191 308.390431 
L 325.682576 303.543923 
L 318.958962 381.859433 
L 312.235347 397.48908 
L 305.511732 399.984251 
L 298.788117 401.019686 
L 292.064502 402.32012 
L 285.340887 414.164662 
L 278.617273 407.49378 
L 271.893658 406.657352 
L 265.170043 425.948186 
L 258.446428 416.064767 
L 251.722813 410.704139 
L 244.999198 435.428486 
L 238.275583 399.224165 
L 231.551969 327.082773 
L 224.828354 326.65885 
L 218.104739 310.513795 
L 211.381124 339.396608 
L 204.657509 363.489381 
L 197.933894 369.744283 
L 191.21028 400.058891 
L 184.486665 377.20212 
L 177.76305 367.583046 
L 171.039435 376.626555 
L 164.31582 365.623881 
L 157.592205 368.441035 
L 150.86859 379.405587 
L 144.144976 398.051701 
L 137.421361 385.659705 
L 130.697746 390.641432 
L 123.974131 364.660015 
L 117.250516 345.579687 
L 110.526901 314.989511 
L 103.803287 303.225431 
L 97.079672 312.461992 
L 90.356057 321.394731 
L 83.632442 313.282627 
L 76.908827 322.670928 
L 70.185212 313.260179 
L 63.461597 276.706572 
L 56.737983 313.831977 
L 50.014368 245.472668 
L 43.290753 241.34747 
L 36.567138 261.31426 
L 29.843523 259.113552 
L 23.119908 264.117532 
L 16.396294 291.137618 
L 9.672679 291.353126 
L 2.949064 312.398463 
L -1 296.666541 
L -1 296.666541 
" clip-path="url(#p848d52c6ad)" style="fill: none; stroke: #8b008b; stroke-width: 1.5; stroke-linecap: square"/>
   </g>
   <g id="patch_9">
    <path d="M 54.096563 445.376386 
L 54.096563 231.631807 
" style="fill: none; stroke: #000000; stroke-width: 0.8; stroke-linejoin: miter; stroke-linecap: square"/>
   </g>
   <g id="patch_10">
    <path d="M 500.496562 445.376386 
L 500.496562 231.631807 
" style="fill: none; stroke: #000000; stroke-width: 0.8; stroke-linejoin: miter; stroke-linecap: square"/>
   </g>
   <g id="patch_11">
    <path d="M 54.096562 445.376386 
L 500.496562 445.376386 
" style="fill: none; stroke: #000000; stroke-width: 0.8; stroke-linejoin: miter; stroke-linecap: square"/>
   </g>
   <g id="patch_12">
    <path d="M 54.096562 231.631807 
L 500.496562 231.631807 
" style="fill: none; stroke: #000000; stroke-width: 0.8; stroke-linejoin: miter; stroke-linecap: square"/>
   </g>
   <g id="text_21">
    <!-- 12 periods -->
    <g transform="translate(242.865859 257.693494) scale(0.13 -0.13)">
     <use xlink:href="#DejaVuSans-31"/>
     <use xlink:href="#DejaVuSans-32" x="63.623047"/>
     <use xlink:href="#DejaVuSans-20" x="127.246094"/>
     <use xlink:href="#DejaVuSans-70" x="159.033203"/>
     <use xlink:href="#DejaVuSans-65" x="222.509766"/>
     <use xlink:href="#DejaVuSans-72" x="284.033203"/>
     <use xlink:href="#DejaVuSans-69" x="325.146484"/>
     <use xlink:href="#DejaVuSans-6f" x="352.929688"/>
     <use xlink:href="#DejaVuSans-64" x="414.111328"/>
     <use xlink:href="#DejaVuSans-73" x="477.587891"/>
    </g>
   </g>
   <g id="legend_2">
    <g id="patch_13">
     <path d="M 380.052812 283.666182 
L 493.496562 283.666182 
Q 495.496562 283.666182 495.496562 281.666182 
L 495.496562 238.631807 
Q 495.496562 236.631807 493.496562 236.631807 
L 380.052812 236.631807 
Q 378.052812 236.631807 378.052812 238.631807 
L 378.052812 281.666182 
Q 378.052812 283.666182 380.052812 283.666182 
z
" style="fill: #ffffff; opacity: 0.8; stroke: #cccccc; stroke-linejoin: miter"/>
    </g>
    <g id="line2d_62">
     <path d="M 382.052812 244.730245 
L 392.052812 244.730245 
L 402.052812 244.730245 
" style="fill: none; stroke: #ff8c00; stroke-width: 1.5; stroke-linecap: square"/>
    </g>
    <g id="text_22">
     <!-- ETFs -->
     <g transform="translate(410.052812 248.230245) scale(0.1 -0.1)">
      <use xlink:href="#DejaVuSans-45"/>
      <use xlink:href="#DejaVuSans-54" x="63.183594"/>
      <use xlink:href="#DejaVuSans-46" x="124.267578"/>
      <use xlink:href="#DejaVuSans-73" x="181.787109"/>
     </g>
    </g>
    <g id="line2d_63">
     <path d="M 382.052812 259.40837 
L 392.052812 259.40837 
L 402.052812 259.40837 
" style="fill: none; stroke: #808080; stroke-width: 1.5; stroke-linecap: square"/>
    </g>
    <g id="text_23">
     <!-- Stocks -->
     <g transform="translate(410.052812 262.90837) scale(0.1 -0.1)">
      <use xlink:href="#DejaVuSans-53"/>
      <use xlink:href="#DejaVuSans-74" x="63.476562"/>
      <use xlink:href="#DejaVuSans-6f" x="102.685547"/>
      <use xlink:href="#DejaVuSans-63" x="163.867188"/>
      <use xlink:href="#DejaVuSans-6b" x="218.847656"/>
      <use xlink:href="#DejaVuSans-73" x="276.757812"/>
     </g>
    </g>
    <g id="line2d_64">
     <path d="M 382.052812 274.086495 
L 392.052812 274.086495 
L 402.052812 274.086495 
" style="fill: none; stroke: #8b008b; stroke-width: 1.5; stroke-linecap: square"/>
    </g>
    <g id="text_24">
     <!-- Stocks and ETFs -->
     <g transform="translate(410.052812 277.586495) scale(0.1 -0.1)">
      <use xlink:href="#DejaVuSans-53"/>
      <use xlink:href="#DejaVuSans-74" x="63.476562"/>
      <use xlink:href="#DejaVuSans-6f" x="102.685547"/>
      <use xlink:href="#DejaVuSans-63" x="163.867188"/>
      <use xlink:href="#DejaVuSans-6b" x="218.847656"/>
      <use xlink:href="#DejaVuSans-73" x="276.757812"/>
      <use xlink:href="#DejaVuSans-20" x="328.857422"/>
      <use xlink:href="#DejaVuSans-61" x="360.644531"/>
      <use xlink:href="#DejaVuSans-6e" x="421.923828"/>
      <use xlink:href="#DejaVuSans-64" x="485.302734"/>
      <use xlink:href="#DejaVuSans-20" x="548.779297"/>
      <use xlink:href="#DejaVuSans-45" x="580.566406"/>
      <use xlink:href="#DejaVuSans-54" x="643.75"/>
      <use xlink:href="#DejaVuSans-46" x="704.833984"/>
      <use xlink:href="#DejaVuSans-73" x="762.353516"/>
     </g>
    </g>
   </g>
  </g>
  <g id="axes_3">
   <g id="patch_14">
    <path d="M 54.096563 669.808193 
L 500.496562 669.808193 
L 500.496562 456.063614 
L 54.096563 456.063614 
L 54.096563 669.808193 
z
" style="fill: none"/>
   </g>
   <g id="matplotlib.axis_5">
    <g id="xtick_13">
     <g id="line2d_65">
      <path d="M 54.096562 669.808193 
L 54.096562 456.063614 
" clip-path="url(#pb2f37c7c81)" style="fill: none; stroke-dasharray: 0.5,0.825; stroke-dashoffset: 0; stroke: #808080; stroke-width: 0.5"/>
     </g>
     <g id="line2d_66">
      <g>
       <use xlink:href="#m0a49be80d0" x="54.096562" y="669.808193" style="stroke: #000000; stroke-width: 0.8"/>
      </g>
     </g>
    </g>
    <g id="xtick_14">
     <g id="line2d_67">
      <path d="M 141.743685 669.808193 
L 141.743685 456.063614 
" clip-path="url(#pb2f37c7c81)" style="fill: none; stroke-dasharray: 0.5,0.825; stroke-dashoffset: 0; stroke: #808080; stroke-width: 0.5"/>
     </g>
     <g id="line2d_68">
      <g>
       <use xlink:href="#m0a49be80d0" x="141.743685" y="669.808193" style="stroke: #000000; stroke-width: 0.8"/>
      </g>
     </g>
    </g>
    <g id="xtick_15">
     <g id="line2d_69">
      <path d="M 229.390807 669.808193 
L 229.390807 456.063614 
" clip-path="url(#pb2f37c7c81)" style="fill: none; stroke-dasharray: 0.5,0.825; stroke-dashoffset: 0; stroke: #808080; stroke-width: 0.5"/>
     </g>
     <g id="line2d_70">
      <g>
       <use xlink:href="#m0a49be80d0" x="229.390807" y="669.808193" style="stroke: #000000; stroke-width: 0.8"/>
      </g>
     </g>
    </g>
    <g id="xtick_16">
     <g id="line2d_71">
      <path d="M 317.278058 669.808193 
L 317.278058 456.063614 
" clip-path="url(#pb2f37c7c81)" style="fill: none; stroke-dasharray: 0.5,0.825; stroke-dashoffset: 0; stroke: #808080; stroke-width: 0.5"/>
     </g>
     <g id="line2d_72">
      <g>
       <use xlink:href="#m0a49be80d0" x="317.278058" y="669.808193" style="stroke: #000000; stroke-width: 0.8"/>
      </g>
     </g>
    </g>
    <g id="xtick_17">
     <g id="line2d_73">
      <path d="M 404.92518 669.808193 
L 404.92518 456.063614 
" clip-path="url(#pb2f37c7c81)" style="fill: none; stroke-dasharray: 0.5,0.825; stroke-dashoffset: 0; stroke: #808080; stroke-width: 0.5"/>
     </g>
     <g id="line2d_74">
      <g>
       <use xlink:href="#m0a49be80d0" x="404.92518" y="669.808193" style="stroke: #000000; stroke-width: 0.8"/>
      </g>
     </g>
    </g>
    <g id="xtick_18">
     <g id="line2d_75">
      <path d="M 492.572302 669.808193 
L 492.572302 456.063614 
" clip-path="url(#pb2f37c7c81)" style="fill: none; stroke-dasharray: 0.5,0.825; stroke-dashoffset: 0; stroke: #808080; stroke-width: 0.5"/>
     </g>
     <g id="line2d_76">
      <g>
       <use xlink:href="#m0a49be80d0" x="492.572302" y="669.808193" style="stroke: #000000; stroke-width: 0.8"/>
      </g>
     </g>
    </g>
   </g>
   <g id="matplotlib.axis_6">
    <g id="ytick_15">
     <g id="line2d_77">
      <path d="M 54.096563 669.013786 
L 500.496562 669.013786 
" clip-path="url(#pb2f37c7c81)" style="fill: none; stroke-dasharray: 0.5,0.825; stroke-dashoffset: 0; stroke: #808080; stroke-width: 0.5"/>
     </g>
     <g id="line2d_78">
      <g>
       <use xlink:href="#m487ca22de9" x="54.096563" y="669.013786" style="stroke: #000000; stroke-width: 0.8"/>
      </g>
     </g>
     <g id="text_25">
      <!-- 0.0 -->
      <g transform="translate(31.193438 672.813005) scale(0.1 -0.1)">
       <use xlink:href="#DejaVuSans-30"/>
       <use xlink:href="#DejaVuSans-2e" x="63.623047"/>
       <use xlink:href="#DejaVuSans-30" x="95.410156"/>
      </g>
     </g>
    </g>
    <g id="ytick_16">
     <g id="line2d_79">
      <path d="M 54.096563 644.967556 
L 500.496562 644.967556 
" clip-path="url(#pb2f37c7c81)" style="fill: none; stroke-dasharray: 0.5,0.825; stroke-dashoffset: 0; stroke: #808080; stroke-width: 0.5"/>
     </g>
     <g id="line2d_80">
      <g>
       <use xlink:href="#m487ca22de9" x="54.096563" y="644.967556" style="stroke: #000000; stroke-width: 0.8"/>
      </g>
     </g>
     <g id="text_26">
      <!-- 2.5 -->
      <g transform="translate(31.193438 648.766775) scale(0.1 -0.1)">
       <use xlink:href="#DejaVuSans-32"/>
       <use xlink:href="#DejaVuSans-2e" x="63.623047"/>
       <use xlink:href="#DejaVuSans-35" x="95.410156"/>
      </g>
     </g>
    </g>
    <g id="ytick_17">
     <g id="line2d_81">
      <path d="M 54.096563 620.921326 
L 500.496562 620.921326 
" clip-path="url(#pb2f37c7c81)" style="fill: none; stroke-dasharray: 0.5,0.825; stroke-dashoffset: 0; stroke: #808080; stroke-width: 0.5"/>
     </g>
     <g id="line2d_82">
      <g>
       <use xlink:href="#m487ca22de9" x="54.096563" y="620.921326" style="stroke: #000000; stroke-width: 0.8"/>
      </g>
     </g>
     <g id="text_27">
      <!-- 5.0 -->
      <g transform="translate(31.193438 624.720545) scale(0.1 -0.1)">
       <use xlink:href="#DejaVuSans-35"/>
       <use xlink:href="#DejaVuSans-2e" x="63.623047"/>
       <use xlink:href="#DejaVuSans-30" x="95.410156"/>
      </g>
     </g>
    </g>
    <g id="ytick_18">
     <g id="line2d_83">
      <path d="M 54.096563 596.875096 
L 500.496562 596.875096 
" clip-path="url(#pb2f37c7c81)" style="fill: none; stroke-dasharray: 0.5,0.825; stroke-dashoffset: 0; stroke: #808080; stroke-width: 0.5"/>
     </g>
     <g id="line2d_84">
      <g>
       <use xlink:href="#m487ca22de9" x="54.096563" y="596.875096" style="stroke: #000000; stroke-width: 0.8"/>
      </g>
     </g>
     <g id="text_28">
      <!-- 7.5 -->
      <g transform="translate(31.193438 600.674315) scale(0.1 -0.1)">
       <use xlink:href="#DejaVuSans-37"/>
       <use xlink:href="#DejaVuSans-2e" x="63.623047"/>
       <use xlink:href="#DejaVuSans-35" x="95.410156"/>
      </g>
     </g>
    </g>
    <g id="ytick_19">
     <g id="line2d_85">
      <path d="M 54.096563 572.828866 
L 500.496562 572.828866 
" clip-path="url(#pb2f37c7c81)" style="fill: none; stroke-dasharray: 0.5,0.825; stroke-dashoffset: 0; stroke: #808080; stroke-width: 0.5"/>
     </g>
     <g id="line2d_86">
      <g>
       <use xlink:href="#m487ca22de9" x="54.096563" y="572.828866" style="stroke: #000000; stroke-width: 0.8"/>
      </g>
     </g>
     <g id="text_29">
      <!-- 10.0 -->
      <g transform="translate(24.830938 576.628085) scale(0.1 -0.1)">
       <use xlink:href="#DejaVuSans-31"/>
       <use xlink:href="#DejaVuSans-30" x="63.623047"/>
       <use xlink:href="#DejaVuSans-2e" x="127.246094"/>
       <use xlink:href="#DejaVuSans-30" x="159.033203"/>
      </g>
     </g>
    </g>
    <g id="ytick_20">
     <g id="line2d_87">
      <path d="M 54.096563 548.782636 
L 500.496562 548.782636 
" clip-path="url(#pb2f37c7c81)" style="fill: none; stroke-dasharray: 0.5,0.825; stroke-dashoffset: 0; stroke: #808080; stroke-width: 0.5"/>
     </g>
     <g id="line2d_88">
      <g>
       <use xlink:href="#m487ca22de9" x="54.096563" y="548.782636" style="stroke: #000000; stroke-width: 0.8"/>
      </g>
     </g>
     <g id="text_30">
      <!-- 12.5 -->
      <g transform="translate(24.830938 552.581855) scale(0.1 -0.1)">
       <use xlink:href="#DejaVuSans-31"/>
       <use xlink:href="#DejaVuSans-32" x="63.623047"/>
       <use xlink:href="#DejaVuSans-2e" x="127.246094"/>
       <use xlink:href="#DejaVuSans-35" x="159.033203"/>
      </g>
     </g>
    </g>
    <g id="ytick_21">
     <g id="line2d_89">
      <path d="M 54.096563 524.736406 
L 500.496562 524.736406 
" clip-path="url(#pb2f37c7c81)" style="fill: none; stroke-dasharray: 0.5,0.825; stroke-dashoffset: 0; stroke: #808080; stroke-width: 0.5"/>
     </g>
     <g id="line2d_90">
      <g>
       <use xlink:href="#m487ca22de9" x="54.096563" y="524.736406" style="stroke: #000000; stroke-width: 0.8"/>
      </g>
     </g>
     <g id="text_31">
      <!-- 15.0 -->
      <g transform="translate(24.830938 528.535624) scale(0.1 -0.1)">
       <use xlink:href="#DejaVuSans-31"/>
       <use xlink:href="#DejaVuSans-35" x="63.623047"/>
       <use xlink:href="#DejaVuSans-2e" x="127.246094"/>
       <use xlink:href="#DejaVuSans-30" x="159.033203"/>
      </g>
     </g>
    </g>
    <g id="ytick_22">
     <g id="line2d_91">
      <path d="M 54.096563 500.690175 
L 500.496562 500.690175 
" clip-path="url(#pb2f37c7c81)" style="fill: none; stroke-dasharray: 0.5,0.825; stroke-dashoffset: 0; stroke: #808080; stroke-width: 0.5"/>
     </g>
     <g id="line2d_92">
      <g>
       <use xlink:href="#m487ca22de9" x="54.096563" y="500.690175" style="stroke: #000000; stroke-width: 0.8"/>
      </g>
     </g>
     <g id="text_32">
      <!-- 17.5 -->
      <g transform="translate(24.830938 504.489394) scale(0.1 -0.1)">
       <use xlink:href="#DejaVuSans-31"/>
       <use xlink:href="#DejaVuSans-37" x="63.623047"/>
       <use xlink:href="#DejaVuSans-2e" x="127.246094"/>
       <use xlink:href="#DejaVuSans-35" x="159.033203"/>
      </g>
     </g>
    </g>
    <g id="ytick_23">
     <g id="line2d_93">
      <path d="M 54.096563 476.643945 
L 500.496562 476.643945 
" clip-path="url(#pb2f37c7c81)" style="fill: none; stroke-dasharray: 0.5,0.825; stroke-dashoffset: 0; stroke: #808080; stroke-width: 0.5"/>
     </g>
     <g id="line2d_94">
      <g>
       <use xlink:href="#m487ca22de9" x="54.096563" y="476.643945" style="stroke: #000000; stroke-width: 0.8"/>
      </g>
     </g>
     <g id="text_33">
      <!-- 20.0 -->
      <g transform="translate(24.830938 480.443164) scale(0.1 -0.1)">
       <use xlink:href="#DejaVuSans-32"/>
       <use xlink:href="#DejaVuSans-30" x="63.623047"/>
       <use xlink:href="#DejaVuSans-2e" x="127.246094"/>
       <use xlink:href="#DejaVuSans-30" x="159.033203"/>
      </g>
     </g>
    </g>
    <g id="text_34">
     <!-- $IR$ -->
     <g transform="translate(18.335313 568.875904) rotate(-90) scale(0.12 -0.12)">
      <use xlink:href="#DejaVuSans-Oblique-49" transform="translate(0 0.09375)"/>
      <use xlink:href="#DejaVuSans-Oblique-52" transform="translate(29.492188 0.09375)"/>
     </g>
    </g>
   </g>
   <g id="line2d_95">
    <path d="M 513.497302 638.271816 
L 507.220177 630.970241 
L 500.496562 611.775813 
L 493.772948 602.4937 
L 487.049333 595.193429 
L 480.325718 574.240627 
L 473.602103 583.05045 
L 466.878488 593.476289 
L 460.154873 585.334972 
L 453.431259 572.892659 
L 446.707644 570.442686 
L 439.984029 579.352927 
L 433.260414 568.801035 
L 426.536799 564.140237 
L 419.813184 566.731349 
L 413.089569 567.656149 
L 406.365955 538.488215 
L 399.64234 585.095654 
L 392.918725 605.184459 
L 386.19511 605.40703 
L 379.471495 609.632826 
L 372.74788 605.674198 
L 366.024266 601.317139 
L 359.300651 602.911506 
L 352.577036 596.021931 
L 345.853421 605.596296 
L 339.129806 604.696638 
L 332.406191 606.061955 
L 325.682576 618.358315 
L 318.958962 628.6131 
L 312.235347 618.160423 
L 305.511732 620.661682 
L 298.788117 614.055559 
L 292.064502 622.011422 
L 285.340887 640.001416 
L 278.617273 636.359218 
L 271.893658 649.146086 
L 265.170043 654.967379 
L 258.446428 641.717428 
L 251.722813 642.441777 
L 244.999198 658.000711 
L 238.275583 622.743147 
L 231.551969 586.229837 
L 224.828354 603.306628 
L 218.104739 586.688925 
L 211.381124 601.826366 
L 204.657509 600.292632 
L 197.933894 592.514673 
L 191.21028 596.524938 
L 184.486665 569.588567 
L 177.76305 568.648763 
L 171.039435 578.68138 
L 164.31582 566.620309 
L 157.592205 574.901196 
L 150.86859 578.196772 
L 144.144976 576.369444 
L 137.421361 590.407711 
L 130.697746 571.098597 
L 123.974131 543.926545 
L 117.250516 536.571222 
L 110.526901 508.885525 
L 103.803287 497.601847 
L 97.079672 519.381923 
L 90.356057 526.13171 
L 83.632442 532.595033 
L 76.908827 527.099721 
L 70.185212 530.735842 
L 63.461597 497.174979 
L 56.737983 512.287121 
L 50.014368 471.897822 
L 43.290753 465.779277 
L 36.567138 492.258598 
L 29.843523 515.508978 
L 23.119908 536.359073 
L 16.396294 540.769461 
L 9.672679 536.892368 
L 2.949064 549.192178 
L -1 557.812586 
" clip-path="url(#pb2f37c7c81)" style="fill: none; stroke: #ff8c00; stroke-width: 1.5; stroke-linecap: square"/>
   </g>
   <g id="line2d_96">
    <path d="M 513.497302 639.283784 
L 507.220177 629.625634 
L 500.496562 610.101285 
L 493.772948 602.995661 
L 487.049333 597.699581 
L 480.325718 577.706488 
L 473.602103 589.707875 
L 466.878488 600.220861 
L 460.154873 589.138272 
L 453.431259 581.045365 
L 446.707644 577.169701 
L 439.984029 585.995147 
L 433.260414 577.326283 
L 426.536799 572.69351 
L 419.813184 572.802881 
L 413.089569 578.29632 
L 406.365955 553.044315 
L 399.64234 594.632141 
L 392.918725 612.949033 
L 386.19511 614.511481 
L 379.471495 618.92122 
L 372.74788 613.784675 
L 366.024266 612.875864 
L 359.300651 613.559339 
L 352.577036 605.543781 
L 345.853421 613.47325 
L 339.129806 613.199163 
L 332.406191 611.495675 
L 325.682576 621.845891 
L 318.958962 631.861364 
L 312.235347 620.735388 
L 305.511732 623.977691 
L 298.788117 620.359068 
L 292.064502 625.593201 
L 285.340887 643.855884 
L 278.617273 638.901128 
L 271.893658 651.995977 
L 265.170043 658.934391 
L 258.446428 648.080913 
L 251.722813 646.600297 
L 244.999198 660.09253 
L 238.275583 624.90345 
L 231.551969 590.184119 
L 224.828354 606.321503 
L 218.104739 586.259076 
L 211.381124 602.575925 
L 204.657509 592.693623 
L 197.933894 584.519005 
L 191.21028 586.991457 
L 184.486665 564.361289 
L 177.76305 563.862669 
L 171.039435 576.54612 
L 164.31582 563.544419 
L 157.592205 571.46084 
L 150.86859 574.138509 
L 144.144976 575.506157 
L 137.421361 586.55642 
L 130.697746 569.039893 
L 123.974131 543.290794 
L 117.250516 530.064841 
L 110.526901 503.987721 
L 103.803287 499.952749 
L 97.079672 519.664196 
L 90.356057 525.646725 
L 83.632442 529.753662 
L 76.908827 520.068727 
L 70.185212 521.207927 
L 63.461597 492.963818 
L 56.737983 512.56629 
L 50.014368 475.605145 
L 43.290753 473.426423 
L 36.567138 496.497037 
L 29.843523 518.86314 
L 23.119908 540.29328 
L 16.396294 547.919894 
L 9.672679 542.200739 
L 2.949064 557.803418 
L -1 568.39983 
" clip-path="url(#pb2f37c7c81)" style="fill: none; stroke: #808080; stroke-width: 1.5; stroke-linecap: square"/>
   </g>
   <g id="line2d_97">
    <path d="M 513.497302 638.254254 
L 507.220177 629.854148 
L 500.496562 610.308668 
L 493.772948 601.892424 
L 487.049333 595.443923 
L 480.325718 574.728234 
L 473.602103 584.985768 
L 466.878488 595.546222 
L 460.154873 586.08292 
L 453.431259 575.332611 
L 446.707644 572.265538 
L 439.984029 581.265214 
L 433.260414 571.370299 
L 426.536799 566.674775 
L 419.813184 568.024289 
L 413.089569 570.922343 
L 406.365955 542.946697 
L 399.64234 588.42311 
L 392.918725 608.022749 
L 386.19511 608.834672 
L 379.471495 613.193822 
L 372.74788 608.710576 
L 366.024266 605.793927 
L 359.300651 607.034384 
L 352.577036 599.605219 
L 345.853421 608.554886 
L 339.129806 607.90899 
L 332.406191 607.958718 
L 325.682576 619.482804 
L 318.958962 629.721358 
L 312.235347 618.858364 
L 305.511732 621.699712 
L 298.788117 616.303244 
L 292.064502 623.182255 
L 285.340887 641.448369 
L 278.617273 637.215584 
L 271.893658 650.27044 
L 265.170043 656.6205 
L 258.446428 644.30922 
L 251.722813 644.068668 
L 244.999198 658.825076 
L 238.275583 623.310539 
L 231.551969 587.125972 
L 224.828354 604.023057 
L 218.104739 585.898661 
L 211.381124 601.704133 
L 204.657509 596.605663 
L 197.933894 588.586465 
L 191.21028 591.99249 
L 184.486665 566.692872 
L 177.76305 565.939195 
L 171.039435 577.241078 
L 164.31582 564.714061 
L 157.592205 572.885715 
L 150.86859 575.977263 
L 144.144976 575.508444 
L 137.421361 588.377085 
L 130.697746 569.733157 
L 123.974131 543.011335 
L 117.250516 533.098325 
L 110.526901 505.884961 
L 103.803287 497.776573 
L 97.079672 518.837252 
L 90.356057 525.30644 
L 83.632442 530.701505 
L 76.908827 523.28931 
L 70.185212 525.84527 
L 63.461597 494.13216 
L 56.737983 511.191253 
L 50.014368 471.760765 
L 43.290753 467.325462 
L 36.567138 492.6136 
L 29.843523 515.721014 
L 23.119908 537.041457 
L 16.396294 542.825637 
L 9.672679 538.224225 
L 2.949064 552.12266 
L -1 561.675878 
" clip-path="url(#pb2f37c7c81)" style="fill: none; stroke: #8b008b; stroke-width: 1.5; stroke-linecap: square"/>
   </g>
   <g id="patch_15">
    <path d="M 54.096563 669.808193 
L 54.096563 456.063614 
" style="fill: none; stroke: #000000; stroke-width: 0.8; stroke-linejoin: miter; stroke-linecap: square"/>
   </g>
   <g id="patch_16">
    <path d="M 500.496562 669.808193 
L 500.496562 456.063614 
" style="fill: none; stroke: #000000; stroke-width: 0.8; stroke-linejoin: miter; stroke-linecap: square"/>
   </g>
   <g id="patch_17">
    <path d="M 54.096562 669.808193 
L 500.496562 669.808193 
" style="fill: none; stroke: #000000; stroke-width: 0.8; stroke-linejoin: miter; stroke-linecap: square"/>
   </g>
   <g id="patch_18">
    <path d="M 54.096562 456.063614 
L 500.496562 456.063614 
" style="fill: none; stroke: #000000; stroke-width: 0.8; stroke-linejoin: miter; stroke-linecap: square"/>
   </g>
   <g id="text_35">
    <!-- 24 periods -->
    <g transform="translate(242.865859 482.125301) scale(0.13 -0.13)">
     <defs>
      <path id="DejaVuSans-34" d="M 2419 4116 
L 825 1625 
L 2419 1625 
L 2419 4116 
z
M 2253 4666 
L 3047 4666 
L 3047 1625 
L 3713 1625 
L 3713 1100 
L 3047 1100 
L 3047 0 
L 2419 0 
L 2419 1100 
L 313 1100 
L 313 1709 
L 2253 4666 
z
" transform="scale(0.015625)"/>
     </defs>
     <use xlink:href="#DejaVuSans-32"/>
     <use xlink:href="#DejaVuSans-34" x="63.623047"/>
     <use xlink:href="#DejaVuSans-20" x="127.246094"/>
     <use xlink:href="#DejaVuSans-70" x="159.033203"/>
     <use xlink:href="#DejaVuSans-65" x="222.509766"/>
     <use xlink:href="#DejaVuSans-72" x="284.033203"/>
     <use xlink:href="#DejaVuSans-69" x="325.146484"/>
     <use xlink:href="#DejaVuSans-6f" x="352.929688"/>
     <use xlink:href="#DejaVuSans-64" x="414.111328"/>
     <use xlink:href="#DejaVuSans-73" x="477.587891"/>
    </g>
   </g>
   <g id="legend_3">
    <g id="patch_19">
     <path d="M 380.052812 508.097989 
L 493.496562 508.097989 
Q 495.496562 508.097989 495.496562 506.097989 
L 495.496562 463.063614 
Q 495.496562 461.063614 493.496562 461.063614 
L 380.052812 461.063614 
Q 378.052812 461.063614 378.052812 463.063614 
L 378.052812 506.097989 
Q 378.052812 508.097989 380.052812 508.097989 
z
" style="fill: #ffffff; opacity: 0.8; stroke: #cccccc; stroke-linejoin: miter"/>
    </g>
    <g id="line2d_98">
     <path d="M 382.052812 469.162052 
L 392.052812 469.162052 
L 402.052812 469.162052 
" style="fill: none; stroke: #ff8c00; stroke-width: 1.5; stroke-linecap: square"/>
    </g>
    <g id="text_36">
     <!-- ETFs -->
     <g transform="translate(410.052812 472.662052) scale(0.1 -0.1)">
      <use xlink:href="#DejaVuSans-45"/>
      <use xlink:href="#DejaVuSans-54" x="63.183594"/>
      <use xlink:href="#DejaVuSans-46" x="124.267578"/>
      <use xlink:href="#DejaVuSans-73" x="181.787109"/>
     </g>
    </g>
    <g id="line2d_99">
     <path d="M 382.052812 483.840177 
L 392.052812 483.840177 
L 402.052812 483.840177 
" style="fill: none; stroke: #808080; stroke-width: 1.5; stroke-linecap: square"/>
    </g>
    <g id="text_37">
     <!-- Stocks -->
     <g transform="translate(410.052812 487.340177) scale(0.1 -0.1)">
      <use xlink:href="#DejaVuSans-53"/>
      <use xlink:href="#DejaVuSans-74" x="63.476562"/>
      <use xlink:href="#DejaVuSans-6f" x="102.685547"/>
      <use xlink:href="#DejaVuSans-63" x="163.867188"/>
      <use xlink:href="#DejaVuSans-6b" x="218.847656"/>
      <use xlink:href="#DejaVuSans-73" x="276.757812"/>
     </g>
    </g>
    <g id="line2d_100">
     <path d="M 382.052812 498.518302 
L 392.052812 498.518302 
L 402.052812 498.518302 
" style="fill: none; stroke: #8b008b; stroke-width: 1.5; stroke-linecap: square"/>
    </g>
    <g id="text_38">
     <!-- Stocks and ETFs -->
     <g transform="translate(410.052812 502.018302) scale(0.1 -0.1)">
      <use xlink:href="#DejaVuSans-53"/>
      <use xlink:href="#DejaVuSans-74" x="63.476562"/>
      <use xlink:href="#DejaVuSans-6f" x="102.685547"/>
      <use xlink:href="#DejaVuSans-63" x="163.867188"/>
      <use xlink:href="#DejaVuSans-6b" x="218.847656"/>
      <use xlink:href="#DejaVuSans-73" x="276.757812"/>
      <use xlink:href="#DejaVuSans-20" x="328.857422"/>
      <use xlink:href="#DejaVuSans-61" x="360.644531"/>
      <use xlink:href="#DejaVuSans-6e" x="421.923828"/>
      <use xlink:href="#DejaVuSans-64" x="485.302734"/>
      <use xlink:href="#DejaVuSans-20" x="548.779297"/>
      <use xlink:href="#DejaVuSans-45" x="580.566406"/>
      <use xlink:href="#DejaVuSans-54" x="643.75"/>
      <use xlink:href="#DejaVuSans-46" x="704.833984"/>
      <use xlink:href="#DejaVuSans-73" x="762.353516"/>
     </g>
    </g>
   </g>
  </g>
  <g id="axes_4">
   <g id="patch_20">
    <path d="M 54.096563 894.24 
L 500.496562 894.24 
L 500.496562 680.495422 
L 54.096563 680.495422 
L 54.096563 894.24 
z
" style="fill: none"/>
   </g>
   <g id="matplotlib.axis_7">
    <g id="xtick_19">
     <g id="line2d_101">
      <path d="M 54.096562 894.24 
L 54.096562 680.495422 
" clip-path="url(#p430a294f21)" style="fill: none; stroke-dasharray: 0.5,0.825; stroke-dashoffset: 0; stroke: #808080; stroke-width: 0.5"/>
     </g>
     <g id="line2d_102">
      <g>
       <use xlink:href="#m0a49be80d0" x="54.096562" y="894.24" style="stroke: #000000; stroke-width: 0.8"/>
      </g>
     </g>
     <g id="text_39">
      <!-- 2018 -->
      <g transform="translate(41.371562 908.838437) scale(0.1 -0.1)">
       <defs>
        <path id="DejaVuSans-38" d="M 2034 2216 
Q 1584 2216 1326 1975 
Q 1069 1734 1069 1313 
Q 1069 891 1326 650 
Q 1584 409 2034 409 
Q 2484 409 2743 651 
Q 3003 894 3003 1313 
Q 3003 1734 2745 1975 
Q 2488 2216 2034 2216 
z
M 1403 2484 
Q 997 2584 770 2862 
Q 544 3141 544 3541 
Q 544 4100 942 4425 
Q 1341 4750 2034 4750 
Q 2731 4750 3128 4425 
Q 3525 4100 3525 3541 
Q 3525 3141 3298 2862 
Q 3072 2584 2669 2484 
Q 3125 2378 3379 2068 
Q 3634 1759 3634 1313 
Q 3634 634 3220 271 
Q 2806 -91 2034 -91 
Q 1263 -91 848 271 
Q 434 634 434 1313 
Q 434 1759 690 2068 
Q 947 2378 1403 2484 
z
M 1172 3481 
Q 1172 3119 1398 2916 
Q 1625 2713 2034 2713 
Q 2441 2713 2670 2916 
Q 2900 3119 2900 3481 
Q 2900 3844 2670 4047 
Q 2441 4250 2034 4250 
Q 1625 4250 1398 4047 
Q 1172 3844 1172 3481 
z
" transform="scale(0.015625)"/>
       </defs>
       <use xlink:href="#DejaVuSans-32"/>
       <use xlink:href="#DejaVuSans-30" x="63.623047"/>
       <use xlink:href="#DejaVuSans-31" x="127.246094"/>
       <use xlink:href="#DejaVuSans-38" x="190.869141"/>
      </g>
     </g>
    </g>
    <g id="xtick_20">
     <g id="line2d_103">
      <path d="M 141.743685 894.24 
L 141.743685 680.495422 
" clip-path="url(#p430a294f21)" style="fill: none; stroke-dasharray: 0.5,0.825; stroke-dashoffset: 0; stroke: #808080; stroke-width: 0.5"/>
     </g>
     <g id="line2d_104">
      <g>
       <use xlink:href="#m0a49be80d0" x="141.743685" y="894.24" style="stroke: #000000; stroke-width: 0.8"/>
      </g>
     </g>
     <g id="text_40">
      <!-- 2019 -->
      <g transform="translate(129.018685 908.838437) scale(0.1 -0.1)">
       <defs>
        <path id="DejaVuSans-39" d="M 703 97 
L 703 672 
Q 941 559 1184 500 
Q 1428 441 1663 441 
Q 2288 441 2617 861 
Q 2947 1281 2994 2138 
Q 2813 1869 2534 1725 
Q 2256 1581 1919 1581 
Q 1219 1581 811 2004 
Q 403 2428 403 3163 
Q 403 3881 828 4315 
Q 1253 4750 1959 4750 
Q 2769 4750 3195 4129 
Q 3622 3509 3622 2328 
Q 3622 1225 3098 567 
Q 2575 -91 1691 -91 
Q 1453 -91 1209 -44 
Q 966 3 703 97 
z
M 1959 2075 
Q 2384 2075 2632 2365 
Q 2881 2656 2881 3163 
Q 2881 3666 2632 3958 
Q 2384 4250 1959 4250 
Q 1534 4250 1286 3958 
Q 1038 3666 1038 3163 
Q 1038 2656 1286 2365 
Q 1534 2075 1959 2075 
z
" transform="scale(0.015625)"/>
       </defs>
       <use xlink:href="#DejaVuSans-32"/>
       <use xlink:href="#DejaVuSans-30" x="63.623047"/>
       <use xlink:href="#DejaVuSans-31" x="127.246094"/>
       <use xlink:href="#DejaVuSans-39" x="190.869141"/>
      </g>
     </g>
    </g>
    <g id="xtick_21">
     <g id="line2d_105">
      <path d="M 229.390807 894.24 
L 229.390807 680.495422 
" clip-path="url(#p430a294f21)" style="fill: none; stroke-dasharray: 0.5,0.825; stroke-dashoffset: 0; stroke: #808080; stroke-width: 0.5"/>
     </g>
     <g id="line2d_106">
      <g>
       <use xlink:href="#m0a49be80d0" x="229.390807" y="894.24" style="stroke: #000000; stroke-width: 0.8"/>
      </g>
     </g>
     <g id="text_41">
      <!-- 2020 -->
      <g transform="translate(216.665807 908.838437) scale(0.1 -0.1)">
       <use xlink:href="#DejaVuSans-32"/>
       <use xlink:href="#DejaVuSans-30" x="63.623047"/>
       <use xlink:href="#DejaVuSans-32" x="127.246094"/>
       <use xlink:href="#DejaVuSans-30" x="190.869141"/>
      </g>
     </g>
    </g>
    <g id="xtick_22">
     <g id="line2d_107">
      <path d="M 317.278058 894.24 
L 317.278058 680.495422 
" clip-path="url(#p430a294f21)" style="fill: none; stroke-dasharray: 0.5,0.825; stroke-dashoffset: 0; stroke: #808080; stroke-width: 0.5"/>
     </g>
     <g id="line2d_108">
      <g>
       <use xlink:href="#m0a49be80d0" x="317.278058" y="894.24" style="stroke: #000000; stroke-width: 0.8"/>
      </g>
     </g>
     <g id="text_42">
      <!-- 2021 -->
      <g transform="translate(304.553058 908.838437) scale(0.1 -0.1)">
       <use xlink:href="#DejaVuSans-32"/>
       <use xlink:href="#DejaVuSans-30" x="63.623047"/>
       <use xlink:href="#DejaVuSans-32" x="127.246094"/>
       <use xlink:href="#DejaVuSans-31" x="190.869141"/>
      </g>
     </g>
    </g>
    <g id="xtick_23">
     <g id="line2d_109">
      <path d="M 404.92518 894.24 
L 404.92518 680.495422 
" clip-path="url(#p430a294f21)" style="fill: none; stroke-dasharray: 0.5,0.825; stroke-dashoffset: 0; stroke: #808080; stroke-width: 0.5"/>
     </g>
     <g id="line2d_110">
      <g>
       <use xlink:href="#m0a49be80d0" x="404.92518" y="894.24" style="stroke: #000000; stroke-width: 0.8"/>
      </g>
     </g>
     <g id="text_43">
      <!-- 2022 -->
      <g transform="translate(392.20018 908.838437) scale(0.1 -0.1)">
       <use xlink:href="#DejaVuSans-32"/>
       <use xlink:href="#DejaVuSans-30" x="63.623047"/>
       <use xlink:href="#DejaVuSans-32" x="127.246094"/>
       <use xlink:href="#DejaVuSans-32" x="190.869141"/>
      </g>
     </g>
    </g>
    <g id="xtick_24">
     <g id="line2d_111">
      <path d="M 492.572302 894.24 
L 492.572302 680.495422 
" clip-path="url(#p430a294f21)" style="fill: none; stroke-dasharray: 0.5,0.825; stroke-dashoffset: 0; stroke: #808080; stroke-width: 0.5"/>
     </g>
     <g id="line2d_112">
      <g>
       <use xlink:href="#m0a49be80d0" x="492.572302" y="894.24" style="stroke: #000000; stroke-width: 0.8"/>
      </g>
     </g>
     <g id="text_44">
      <!-- 2023 -->
      <g transform="translate(479.847302 908.838437) scale(0.1 -0.1)">
       <use xlink:href="#DejaVuSans-32"/>
       <use xlink:href="#DejaVuSans-30" x="63.623047"/>
       <use xlink:href="#DejaVuSans-32" x="127.246094"/>
       <use xlink:href="#DejaVuSans-33" x="190.869141"/>
      </g>
     </g>
    </g>
    <g id="text_45">
     <!-- Date -->
     <g transform="translate(262.955625 924.03625) scale(0.12 -0.12)">
      <defs>
       <path id="DejaVuSans-44" d="M 1259 4147 
L 1259 519 
L 2022 519 
Q 2988 519 3436 956 
Q 3884 1394 3884 2338 
Q 3884 3275 3436 3711 
Q 2988 4147 2022 4147 
L 1259 4147 
z
M 628 4666 
L 1925 4666 
Q 3281 4666 3915 4102 
Q 4550 3538 4550 2338 
Q 4550 1131 3912 565 
Q 3275 0 1925 0 
L 628 0 
L 628 4666 
z
" transform="scale(0.015625)"/>
      </defs>
      <use xlink:href="#DejaVuSans-44"/>
      <use xlink:href="#DejaVuSans-61" x="77.001953"/>
      <use xlink:href="#DejaVuSans-74" x="138.28125"/>
      <use xlink:href="#DejaVuSans-65" x="177.490234"/>
     </g>
    </g>
   </g>
   <g id="matplotlib.axis_8">
    <g id="ytick_24">
     <g id="line2d_113">
      <path d="M 54.096563 889.749928 
L 500.496562 889.749928 
" clip-path="url(#p430a294f21)" style="fill: none; stroke-dasharray: 0.5,0.825; stroke-dashoffset: 0; stroke: #808080; stroke-width: 0.5"/>
     </g>
     <g id="line2d_114">
      <g>
       <use xlink:href="#m487ca22de9" x="54.096563" y="889.749928" style="stroke: #000000; stroke-width: 0.8"/>
      </g>
     </g>
     <g id="text_46">
      <!-- 6 -->
      <g transform="translate(40.734063 893.549147) scale(0.1 -0.1)">
       <defs>
        <path id="DejaVuSans-36" d="M 2113 2584 
Q 1688 2584 1439 2293 
Q 1191 2003 1191 1497 
Q 1191 994 1439 701 
Q 1688 409 2113 409 
Q 2538 409 2786 701 
Q 3034 994 3034 1497 
Q 3034 2003 2786 2293 
Q 2538 2584 2113 2584 
z
M 3366 4563 
L 3366 3988 
Q 3128 4100 2886 4159 
Q 2644 4219 2406 4219 
Q 1781 4219 1451 3797 
Q 1122 3375 1075 2522 
Q 1259 2794 1537 2939 
Q 1816 3084 2150 3084 
Q 2853 3084 3261 2657 
Q 3669 2231 3669 1497 
Q 3669 778 3244 343 
Q 2819 -91 2113 -91 
Q 1303 -91 875 529 
Q 447 1150 447 2328 
Q 447 3434 972 4092 
Q 1497 4750 2381 4750 
Q 2619 4750 2861 4703 
Q 3103 4656 3366 4563 
z
" transform="scale(0.015625)"/>
       </defs>
       <use xlink:href="#DejaVuSans-36"/>
      </g>
     </g>
    </g>
    <g id="ytick_25">
     <g id="line2d_115">
      <path d="M 54.096563 860.615094 
L 500.496562 860.615094 
" clip-path="url(#p430a294f21)" style="fill: none; stroke-dasharray: 0.5,0.825; stroke-dashoffset: 0; stroke: #808080; stroke-width: 0.5"/>
     </g>
     <g id="line2d_116">
      <g>
       <use xlink:href="#m487ca22de9" x="54.096563" y="860.615094" style="stroke: #000000; stroke-width: 0.8"/>
      </g>
     </g>
     <g id="text_47">
      <!-- 8 -->
      <g transform="translate(40.734063 864.414312) scale(0.1 -0.1)">
       <use xlink:href="#DejaVuSans-38"/>
      </g>
     </g>
    </g>
    <g id="ytick_26">
     <g id="line2d_117">
      <path d="M 54.096563 831.480259 
L 500.496562 831.480259 
" clip-path="url(#p430a294f21)" style="fill: none; stroke-dasharray: 0.5,0.825; stroke-dashoffset: 0; stroke: #808080; stroke-width: 0.5"/>
     </g>
     <g id="line2d_118">
      <g>
       <use xlink:href="#m487ca22de9" x="54.096563" y="831.480259" style="stroke: #000000; stroke-width: 0.8"/>
      </g>
     </g>
     <g id="text_48">
      <!-- 10 -->
      <g transform="translate(34.371563 835.279478) scale(0.1 -0.1)">
       <use xlink:href="#DejaVuSans-31"/>
       <use xlink:href="#DejaVuSans-30" x="63.623047"/>
      </g>
     </g>
    </g>
    <g id="ytick_27">
     <g id="line2d_119">
      <path d="M 54.096563 802.345424 
L 500.496562 802.345424 
" clip-path="url(#p430a294f21)" style="fill: none; stroke-dasharray: 0.5,0.825; stroke-dashoffset: 0; stroke: #808080; stroke-width: 0.5"/>
     </g>
     <g id="line2d_120">
      <g>
       <use xlink:href="#m487ca22de9" x="54.096563" y="802.345424" style="stroke: #000000; stroke-width: 0.8"/>
      </g>
     </g>
     <g id="text_49">
      <!-- 12 -->
      <g transform="translate(34.371563 806.144643) scale(0.1 -0.1)">
       <use xlink:href="#DejaVuSans-31"/>
       <use xlink:href="#DejaVuSans-32" x="63.623047"/>
      </g>
     </g>
    </g>
    <g id="ytick_28">
     <g id="line2d_121">
      <path d="M 54.096563 773.21059 
L 500.496562 773.21059 
" clip-path="url(#p430a294f21)" style="fill: none; stroke-dasharray: 0.5,0.825; stroke-dashoffset: 0; stroke: #808080; stroke-width: 0.5"/>
     </g>
     <g id="line2d_122">
      <g>
       <use xlink:href="#m487ca22de9" x="54.096563" y="773.21059" style="stroke: #000000; stroke-width: 0.8"/>
      </g>
     </g>
     <g id="text_50">
      <!-- 14 -->
      <g transform="translate(34.371563 777.009809) scale(0.1 -0.1)">
       <use xlink:href="#DejaVuSans-31"/>
       <use xlink:href="#DejaVuSans-34" x="63.623047"/>
      </g>
     </g>
    </g>
    <g id="ytick_29">
     <g id="line2d_123">
      <path d="M 54.096563 744.075755 
L 500.496562 744.075755 
" clip-path="url(#p430a294f21)" style="fill: none; stroke-dasharray: 0.5,0.825; stroke-dashoffset: 0; stroke: #808080; stroke-width: 0.5"/>
     </g>
     <g id="line2d_124">
      <g>
       <use xlink:href="#m487ca22de9" x="54.096563" y="744.075755" style="stroke: #000000; stroke-width: 0.8"/>
      </g>
     </g>
     <g id="text_51">
      <!-- 16 -->
      <g transform="translate(34.371563 747.874974) scale(0.1 -0.1)">
       <use xlink:href="#DejaVuSans-31"/>
       <use xlink:href="#DejaVuSans-36" x="63.623047"/>
      </g>
     </g>
    </g>
    <g id="ytick_30">
     <g id="line2d_125">
      <path d="M 54.096563 714.940921 
L 500.496562 714.940921 
" clip-path="url(#p430a294f21)" style="fill: none; stroke-dasharray: 0.5,0.825; stroke-dashoffset: 0; stroke: #808080; stroke-width: 0.5"/>
     </g>
     <g id="line2d_126">
      <g>
       <use xlink:href="#m487ca22de9" x="54.096563" y="714.940921" style="stroke: #000000; stroke-width: 0.8"/>
      </g>
     </g>
     <g id="text_52">
      <!-- 18 -->
      <g transform="translate(34.371563 718.74014) scale(0.1 -0.1)">
       <use xlink:href="#DejaVuSans-31"/>
       <use xlink:href="#DejaVuSans-38" x="63.623047"/>
      </g>
     </g>
    </g>
    <g id="ytick_31">
     <g id="line2d_127">
      <path d="M 54.096563 685.806086 
L 500.496562 685.806086 
" clip-path="url(#p430a294f21)" style="fill: none; stroke-dasharray: 0.5,0.825; stroke-dashoffset: 0; stroke: #808080; stroke-width: 0.5"/>
     </g>
     <g id="line2d_128">
      <g>
       <use xlink:href="#m487ca22de9" x="54.096563" y="685.806086" style="stroke: #000000; stroke-width: 0.8"/>
      </g>
     </g>
     <g id="text_53">
      <!-- 20 -->
      <g transform="translate(34.371563 689.605305) scale(0.1 -0.1)">
       <use xlink:href="#DejaVuSans-32"/>
       <use xlink:href="#DejaVuSans-30" x="63.623047"/>
      </g>
     </g>
    </g>
    <g id="text_54">
     <!-- $IR$ -->
     <g transform="translate(27.875938 793.307711) rotate(-90) scale(0.12 -0.12)">
      <use xlink:href="#DejaVuSans-Oblique-49" transform="translate(0 0.09375)"/>
      <use xlink:href="#DejaVuSans-Oblique-52" transform="translate(29.492188 0.09375)"/>
     </g>
    </g>
   </g>
   <g id="line2d_129">
    <path d="M 513.497302 860.80153 
L 507.220177 865.432608 
L 500.496562 847.830061 
L 493.772948 841.640175 
L 487.049333 850.231452 
L 480.325718 843.286061 
L 473.602103 837.622973 
L 466.878488 850.330893 
L 460.154873 835.006057 
L 453.431259 833.186219 
L 446.707644 852.094913 
L 439.984029 855.779868 
L 433.260414 862.898799 
L 426.536799 866.287015 
L 419.813184 853.080072 
L 413.089569 854.8837 
L 406.365955 842.502714 
L 399.64234 832.413202 
L 392.918725 831.414281 
L 386.19511 843.639937 
L 379.471495 835.868639 
L 372.74788 841.55049 
L 366.024266 834.740731 
L 359.300651 830.629239 
L 352.577036 825.177015 
L 345.853421 817.207714 
L 339.129806 815.134156 
L 332.406191 825.16342 
L 325.682576 831.442994 
L 318.958962 850.678151 
L 312.235347 839.420104 
L 305.511732 840.660739 
L 298.788117 843.3287 
L 292.064502 841.420346 
L 285.340887 846.564496 
L 278.617273 840.865288 
L 271.893658 842.350645 
L 265.170043 839.931763 
L 258.446428 836.464952 
L 251.722813 840.959168 
L 244.999198 864.079168 
L 238.275583 789.875303 
L 231.551969 745.827468 
L 224.828354 738.970314 
L 218.104739 735.694306 
L 211.381124 733.000945 
L 204.657509 724.472974 
L 197.933894 731.585452 
L 191.21028 752.895294 
L 184.486665 735.517637 
L 177.76305 738.144402 
L 171.039435 745.247451 
L 164.31582 742.010801 
L 157.592205 764.88601 
L 150.86859 763.411359 
L 144.144976 761.992994 
L 137.421361 768.419369 
L 130.697746 754.056499 
L 123.974131 740.219787 
L 117.250516 725.073065 
L 110.526901 708.133102 
L 103.803287 718.443486 
L 97.079672 721.225304 
L 90.356057 714.083637 
L 83.632442 726.887971 
L 76.908827 733.225677 
L 70.185212 721.33511 
L 63.461597 713.162867 
L 56.737983 726.829174 
L 50.014368 690.211084 
L 43.290753 690.374519 
L 36.567138 729.71094 
L 29.843523 733.743632 
L 23.119908 757.064289 
L 16.396294 763.479472 
L 9.672679 758.519344 
L 2.949064 763.387859 
L -1 757.417285 
" clip-path="url(#p430a294f21)" style="fill: none; stroke: #ff8c00; stroke-width: 1.5; stroke-linecap: square"/>
   </g>
   <g id="line2d_130">
    <path d="M 513.497302 873.045892 
L 507.220177 874.047698 
L 500.496562 857.226122 
L 493.772948 849.109213 
L 487.049333 857.091913 
L 480.325718 850.796739 
L 473.602103 846.998978 
L 466.878488 860.675896 
L 460.154873 846.289825 
L 453.431259 843.813146 
L 446.707644 861.492649 
L 439.984029 864.07 
L 433.260414 872.226749 
L 426.536799 876.769434 
L 419.813184 864.20466 
L 413.089569 866.819695 
L 406.365955 854.815664 
L 399.64234 846.376525 
L 392.918725 844.371409 
L 386.19511 857.719332 
L 379.471495 847.20015 
L 372.74788 852.331406 
L 366.024266 843.109407 
L 359.300651 837.467903 
L 352.577036 829.491447 
L 345.853421 822.392602 
L 339.129806 821.410523 
L 332.406191 829.675916 
L 325.682576 832.15878 
L 318.958962 850.632254 
L 312.235347 838.040179 
L 305.511732 842.688684 
L 298.788117 847.192525 
L 292.064502 841.027477 
L 285.340887 845.307854 
L 278.617273 835.251619 
L 271.893658 837.468791 
L 265.170043 840.999745 
L 258.446428 840.158888 
L 251.722813 840.614256 
L 244.999198 858.626292 
L 238.275583 783.176545 
L 231.551969 738.244908 
L 224.828354 733.305354 
L 218.104739 732.05379 
L 211.381124 728.942965 
L 204.657509 713.548022 
L 197.933894 718.586275 
L 191.21028 739.022956 
L 184.486665 730.535444 
L 177.76305 737.171582 
L 171.039435 745.153786 
L 164.31582 745.708694 
L 157.592205 772.853369 
L 150.86859 772.747829 
L 144.144976 774.508401 
L 137.421361 782.837554 
L 130.697746 773.84212 
L 123.974131 759.281338 
L 117.250516 745.426857 
L 110.526901 731.208483 
L 103.803287 736.597291 
L 97.079672 739.257943 
L 90.356057 733.455575 
L 83.632442 748.202354 
L 76.908827 755.442828 
L 70.185212 745.439045 
L 63.461597 740.911251 
L 56.737983 756.185334 
L 50.014368 722.093529 
L 43.290753 728.613875 
L 36.567138 764.719517 
L 29.843523 770.068151 
L 23.119908 792.629935 
L 16.396294 797.285649 
L 9.672679 795.335733 
L 2.949064 803.321474 
L -1 796.799485 
" clip-path="url(#p430a294f21)" style="fill: none; stroke: #808080; stroke-width: 1.5; stroke-linecap: square"/>
   </g>
   <g id="line2d_131">
    <path d="M 513.497302 865.012017 
L 507.220177 868.111104 
L 500.496562 850.672151 
L 493.772948 843.614312 
L 487.049333 852.018455 
L 480.325718 845.288372 
L 473.602103 840.333162 
L 466.878488 853.576099 
L 460.154873 838.503414 
L 453.431259 836.395522 
L 446.707644 854.970772 
L 439.984029 858.227181 
L 433.260414 865.892089 
L 426.536799 869.824406 
L 419.813184 856.759647 
L 413.089569 858.945151 
L 406.365955 846.622488 
L 399.64234 837.162587 
L 392.918725 835.708552 
L 386.19511 848.590559 
L 379.471495 839.68247 
L 372.74788 845.224239 
L 366.024266 837.350938 
L 359.300651 832.573765 
L 352.577036 826.009655 
L 345.853421 818.338679 
L 339.129806 816.708175 
L 332.406191 826.084468 
L 325.682576 830.745694 
L 318.958962 849.801776 
L 312.235347 837.868889 
L 305.511732 840.568534 
L 298.788117 844.06583 
L 292.064502 840.364941 
L 285.340887 845.17934 
L 278.617273 837.562088 
L 271.893658 839.433589 
L 265.170043 839.593522 
L 258.446428 837.346024 
L 251.722813 840.175227 
L 244.999198 861.282777 
L 238.275583 785.807271 
L 231.551969 740.84725 
L 224.828354 734.697049 
L 218.104739 732.243388 
L 211.381124 729.335858 
L 204.657509 717.748874 
L 197.933894 724.019984 
L 191.21028 745.165934 
L 184.486665 731.51696 
L 177.76305 735.822375 
L 171.039435 743.55722 
L 164.31582 741.978792 
L 157.592205 766.840222 
L 150.86859 765.978213 
L 144.144976 766.002383 
L 137.421361 773.282064 
L 130.697746 761.299472 
L 123.974131 747.1421 
L 117.250516 732.431198 
L 110.526901 716.51551 
L 103.803287 724.836998 
L 97.079672 727.575633 
L 90.356057 720.976908 
L 83.632442 734.678676 
L 76.908827 741.501759 
L 70.185212 730.4099 
L 63.461597 723.776626 
L 56.737983 738.115661 
L 50.014368 702.347423 
L 43.290753 705.340152 
L 36.567138 743.605378 
L 29.843523 748.251465 
L 23.119908 771.477832 
L 16.396294 777.150944 
L 9.672679 773.501294 
L 2.949064 779.788627 
L -1 773.561042 
" clip-path="url(#p430a294f21)" style="fill: none; stroke: #8b008b; stroke-width: 1.5; stroke-linecap: square"/>
   </g>
   <g id="patch_21">
    <path d="M 54.096563 894.24 
L 54.096563 680.495422 
" style="fill: none; stroke: #000000; stroke-width: 0.8; stroke-linejoin: miter; stroke-linecap: square"/>
   </g>
   <g id="patch_22">
    <path d="M 500.496562 894.24 
L 500.496562 680.495422 
" style="fill: none; stroke: #000000; stroke-width: 0.8; stroke-linejoin: miter; stroke-linecap: square"/>
   </g>
   <g id="patch_23">
    <path d="M 54.096562 894.24 
L 500.496562 894.24 
" style="fill: none; stroke: #000000; stroke-width: 0.8; stroke-linejoin: miter; stroke-linecap: square"/>
   </g>
   <g id="patch_24">
    <path d="M 54.096562 680.495422 
L 500.496562 680.495422 
" style="fill: none; stroke: #000000; stroke-width: 0.8; stroke-linejoin: miter; stroke-linecap: square"/>
   </g>
   <g id="text_55">
    <!-- 48 periods -->
    <g transform="translate(242.865859 706.557108) scale(0.13 -0.13)">
     <use xlink:href="#DejaVuSans-34"/>
     <use xlink:href="#DejaVuSans-38" x="63.623047"/>
     <use xlink:href="#DejaVuSans-20" x="127.246094"/>
     <use xlink:href="#DejaVuSans-70" x="159.033203"/>
     <use xlink:href="#DejaVuSans-65" x="222.509766"/>
     <use xlink:href="#DejaVuSans-72" x="284.033203"/>
     <use xlink:href="#DejaVuSans-69" x="325.146484"/>
     <use xlink:href="#DejaVuSans-6f" x="352.929688"/>
     <use xlink:href="#DejaVuSans-64" x="414.111328"/>
     <use xlink:href="#DejaVuSans-73" x="477.587891"/>
    </g>
   </g>
   <g id="legend_4">
    <g id="patch_25">
     <path d="M 380.052812 732.529797 
L 493.496562 732.529797 
Q 495.496562 732.529797 495.496562 730.529797 
L 495.496562 687.495422 
Q 495.496562 685.495422 493.496562 685.495422 
L 380.052812 685.495422 
Q 378.052812 685.495422 378.052812 687.495422 
L 378.052812 730.529797 
Q 378.052812 732.529797 380.052812 732.529797 
z
" style="fill: #ffffff; opacity: 0.8; stroke: #cccccc; stroke-linejoin: miter"/>
    </g>
    <g id="line2d_132">
     <path d="M 382.052812 693.593859 
L 392.052812 693.593859 
L 402.052812 693.593859 
" style="fill: none; stroke: #ff8c00; stroke-width: 1.5; stroke-linecap: square"/>
    </g>
    <g id="text_56">
     <!-- ETFs -->
     <g transform="translate(410.052812 697.093859) scale(0.1 -0.1)">
      <use xlink:href="#DejaVuSans-45"/>
      <use xlink:href="#DejaVuSans-54" x="63.183594"/>
      <use xlink:href="#DejaVuSans-46" x="124.267578"/>
      <use xlink:href="#DejaVuSans-73" x="181.787109"/>
     </g>
    </g>
    <g id="line2d_133">
     <path d="M 382.052812 708.271984 
L 392.052812 708.271984 
L 402.052812 708.271984 
" style="fill: none; stroke: #808080; stroke-width: 1.5; stroke-linecap: square"/>
    </g>
    <g id="text_57">
     <!-- Stocks -->
     <g transform="translate(410.052812 711.771984) scale(0.1 -0.1)">
      <use xlink:href="#DejaVuSans-53"/>
      <use xlink:href="#DejaVuSans-74" x="63.476562"/>
      <use xlink:href="#DejaVuSans-6f" x="102.685547"/>
      <use xlink:href="#DejaVuSans-63" x="163.867188"/>
      <use xlink:href="#DejaVuSans-6b" x="218.847656"/>
      <use xlink:href="#DejaVuSans-73" x="276.757812"/>
     </g>
    </g>
    <g id="line2d_134">
     <path d="M 382.052812 722.950109 
L 392.052812 722.950109 
L 402.052812 722.950109 
" style="fill: none; stroke: #8b008b; stroke-width: 1.5; stroke-linecap: square"/>
    </g>
    <g id="text_58">
     <!-- Stocks and ETFs -->
     <g transform="translate(410.052812 726.450109) scale(0.1 -0.1)">
      <use xlink:href="#DejaVuSans-53"/>
      <use xlink:href="#DejaVuSans-74" x="63.476562"/>
      <use xlink:href="#DejaVuSans-6f" x="102.685547"/>
      <use xlink:href="#DejaVuSans-63" x="163.867188"/>
      <use xlink:href="#DejaVuSans-6b" x="218.847656"/>
      <use xlink:href="#DejaVuSans-73" x="276.757812"/>
      <use xlink:href="#DejaVuSans-20" x="328.857422"/>
      <use xlink:href="#DejaVuSans-61" x="360.644531"/>
      <use xlink:href="#DejaVuSans-6e" x="421.923828"/>
      <use xlink:href="#DejaVuSans-64" x="485.302734"/>
      <use xlink:href="#DejaVuSans-20" x="548.779297"/>
      <use xlink:href="#DejaVuSans-45" x="580.566406"/>
      <use xlink:href="#DejaVuSans-54" x="643.75"/>
      <use xlink:href="#DejaVuSans-46" x="704.833984"/>
      <use xlink:href="#DejaVuSans-73" x="762.353516"/>
     </g>
    </g>
   </g>
  </g>
 </g>
 <defs>
  <clipPath id="p23655c6d06">
   <rect x="54.096563" y="7.2" width="446.4" height="213.744578"/>
  </clipPath>
  <clipPath id="p848d52c6ad">
   <rect x="54.096563" y="231.631807" width="446.4" height="213.744578"/>
  </clipPath>
  <clipPath id="pb2f37c7c81">
   <rect x="54.096563" y="456.063614" width="446.4" height="213.744578"/>
  </clipPath>
  <clipPath id="p430a294f21">
   <rect x="54.096563" y="680.495422" width="446.4" height="213.744578"/>
  </clipPath>
 </defs>
</svg>
